<svg xmlns="http://www.w3.org/2000/svg" version="1.1" viewBox="0 0 24 24" height="24" width="24">
   <g transform="translate(-0.816852,-2.1192405)">
      <path d="m 11.9997,3.01953 c 5.392,0 9.878,3.88 10.819,8.99997 -0.94,5.12 -5.427,9 -10.819,9 -5.39204,0 -9.87804,-3.88 -10.81904,-9 0.94,-5.11997 5.427,-8.99997 10.81904,-8.99997 z m 0,15.99997 c 2.0394,-4e-4 4.0184,-0.6931 5.6128,-1.9648 1.5945,-1.2717 2.7101,-3.0469 3.1642,-5.0352 C 20.3209,10.0328 19.2046,8.25954 17.6103,6.98956 16.016,5.71958 14.038,5.02806 11.9997,5.02806 c -2.03834,0 -4.01635,0.69152 -5.61066,1.9615 -1.59431,1.26998 -2.71061,3.04324 -3.16638,5.02994 0.4541,1.9883 1.56968,3.7635 3.16415,5.0352 1.59447,1.2717 3.57339,1.9644 5.61289,1.9648 z m 0,-2.5 c -1.1935,0 -2.3381,-0.4741 -3.18202,-1.318 -0.84391,-0.8439 -1.31802,-1.9885 -1.31802,-3.182 0,-1.1934 0.47411,-2.33804 1.31802,-3.18195 0.84392,-0.84391 1.98852,-1.31802 3.18202,-1.31802 1.1934,0 2.338,0.47411 3.1819,1.31802 0.844,0.84391 1.3181,1.98855 1.3181,3.18195 0,1.1935 -0.4741,2.3381 -1.3181,3.182 -0.8439,0.8439 -1.9885,1.318 -3.1819,1.318 z m 0,-2 c 0.663,0 1.2989,-0.2634 1.7677,-0.7322 0.4689,-0.4688 0.7323,-1.1047 0.7323,-1.7678 0,-0.663 -0.2634,-1.2989 -0.7323,-1.7677 -0.4688,-0.46888 -1.1047,-0.73227 -1.7677,-0.73227 -0.6631,0 -1.299,0.26339 -1.7678,0.73227 -0.46884,0.4688 -0.73224,1.1047 -0.73224,1.7677 0,0.6631 0.2634,1.299 0.73224,1.7678 0.4688,0.4688 1.1047,0.7322 1.7678,0.7322 z" id="path108" />
      <path d="m 19.115744,25.218951 h -1.1648 l 2.6172,-7.2727 h 1.2678 l 2.6171,7.2727 h -1.1647 l -2.0561,-5.9517 h -0.0569 z m 0.1953,-2.848 h 3.7784 v 0.9233 h -3.7784 z" id="path110" />
   </g>
</svg>
