<svg width="26" height="27" viewBox="0 0 26 27" xmlns="http://www.w3.org/2000/svg">
<path d="M11.9997 3.01953C17.3917 3.01953 21.8777 6.89953 22.8187 12.0195C21.8787 17.1395 17.3917 21.0195 11.9997 21.0195C6.60766 21.0195 2.12166 17.1395 1.18066 12.0195C2.12066 6.89953 6.60766 3.01953 11.9997 3.01953ZM11.9997 19.0195C14.0391 19.0191 16.0181 18.3264 17.6125 17.0547C19.207 15.783 20.3226 14.0078 20.7767 12.0195C20.3209 10.0328 19.2046 8.25954 17.6103 6.98956C16.016 5.71958 14.038 5.02806 11.9997 5.02806C9.96136 5.02806 7.98335 5.71958 6.38904 6.98956C4.79473 8.25954 3.67843 10.0328 3.22266 12.0195C3.67676 14.0078 4.79234 15.783 6.38681 17.0547C7.98128 18.3264 9.9602 19.0191 11.9997 19.0195ZM11.9997 16.5195C10.8062 16.5195 9.6616 16.0454 8.81768 15.2015C7.97377 14.3576 7.49966 13.213 7.49966 12.0195C7.49966 10.8261 7.97377 9.68146 8.81768 8.83755C9.6616 7.99364 10.8062 7.51953 11.9997 7.51953C13.1931 7.51953 14.3377 7.99364 15.1816 8.83755C16.0256 9.68146 16.4997 10.8261 16.4997 12.0195C16.4997 13.213 16.0256 14.3576 15.1816 15.2015C14.3377 16.0454 13.1931 16.5195 11.9997 16.5195ZM11.9997 14.5195C12.6627 14.5195 13.2986 14.2561 13.7674 13.7873C14.2363 13.3185 14.4997 12.6826 14.4997 12.0195C14.4997 11.3565 14.2363 10.7206 13.7674 10.2518C13.2986 9.78292 12.6627 9.51953 11.9997 9.51953C11.3366 9.51953 10.7007 9.78292 10.2319 10.2518C9.76306 10.7206 9.49966 11.3565 9.49966 12.0195C9.49966 12.6826 9.76306 13.3185 10.2319 13.7873C10.7007 14.2561 11.3366 14.5195 11.9997 14.5195Z" />
<path d="M20.031 26.0198H18.8662L21.4834 18.7471H22.7512L25.3683 26.0198H24.2036L22.1475 20.0681H22.0906L20.031 26.0198ZM20.2263 23.1718H24.0047V24.0951H20.2263V23.1718Z" />
</svg>
