<svg id="Layer_1" data-name="Layer 1" xmlns="http://www.w3.org/2000/svg" viewBox="0 0 96 96">
  <defs>
    <style>.cls-1{fill:#cba07a;}.cls-2{fill:#d9b18c;}.cls-3{fill:#b8c0ce;}.cls-4{fill:#e5c2a1;}.cls-5{fill:#f6b756;}.cls-6{fill:#fac77d;}.cls-7{fill:#f2d3b8;}.cls-8{fill:#ffd69e;}.cls-9{fill:#7190c4;}.cls-10{fill:#89a3ce;}.cls-11{fill:#8288a1;}.cls-12{fill:#90d1d7;}.cls-13{fill:#abd9e6;}.cls-14{fill:#c3e1f5;}.cls-15{fill:#39426a;}</style>
  </defs>
  <title>search, find, magnifier, scan, box, package, logistic, shipping, delivery</title>
  <polygon class="cls-1" points="45 41 45 94 1 74 1 21 4 22.36 45 41" />
  <path class="cls-2" d="M45,41V90.64L8.69,74.13A8,8,0,0,1,4,66.85V22.36Z" />
  <polygon class="cls-3" points="15 75.54 5 71 5 64 15 68.55 15 75.54" />
  <path class="cls-4" d="M27.24,36.57l13,5.91A3,3,0,0,1,42,45.21V82a3,3,0,0,1-4.24,2.73l-13-5.91A3,3,0,0,1,23,76.07V39.3A3,3,0,0,1,27.24,36.57Z" />
  <polygon class="cls-5" points="27 32.82 27 43.82 19 40.18 19 29.18 27 32.82" />
  <path class="cls-6" d="M27,32.82V41l-2.24-1A3,3,0,0,1,23,37.25V31Z" />
  <polygon class="cls-1" points="89 21 89 74 83.02 76.72 65.59 84.64 45 94 45 41 48 39.64 89 21" />
  <path class="cls-2" d="M89,21V70.36l-3,1.36L68.59,79.64l-9.28,4.22A8,8,0,0,1,48,76.58V39.64Z" />
  <path class="cls-4" d="M69.76,33.75l11-5A3,3,0,0,1,85,31.48V67.53a3,3,0,0,1-1.76,2.73l-11,5A3,3,0,0,1,68,72.52v-36A3,3,0,0,1,69.76,33.75Z" />
  <polygon class="cls-2" points="89 21 45 41 26.63 32.65 26.62 32.65 19.38 29.35 1 21 5.02 19.17 45 1 63.38 9.35 70.62 12.65 84.98 19.18 89 21" />
  <path class="cls-4" d="M85,19.18,48.31,35.85a8,8,0,0,1-6.62,0L26.63,29h0l-7.24-3.3L5,19.17,45,1,63.38,9.35l7.24,3.3Z" />
  <path class="cls-7" d="M70.62,16.65a3.48,3.48,0,0,1,0,6.33l-6.31,2.87a8,8,0,0,1-6.62,0L42.63,19h0l-7.24-3.3h0a3.48,3.48,0,0,1,0-6.33l8.18-3.72a3.53,3.53,0,0,1,2.88,0l16.94,7.7,7.24,3.3Z" />
  <polygon class="cls-6" points="70.62 12.65 26.63 32.65 26.62 32.65 22.82 30.92 19.38 29.35 63.19 9.44 63.38 9.35 70.62 12.65" />
  <polygon class="cls-8" points="66.62 11 22.82 30.92 19.38 29.35 63.19 9.44 66.62 11" />
  <path class="cls-9" d="M95,92.17a2.52,2.52,0,0,1-.1.73,2.82,2.82,0,0,1-4.73,1.27l-12-12,4-4,12,12A2.83,2.83,0,0,1,95,92.17Z" />
  <path class="cls-10" d="M95,92.17a2.52,2.52,0,0,1-.1.73,2.52,2.52,0,0,1-.73.1,2.83,2.83,0,0,1-2-.83l-12-12,2-2,12,12A2.83,2.83,0,0,1,95,92.17Z" />
  <circle class="cls-11" cx="69" cy="69" r="16" />
  <circle class="cls-12" cx="69" cy="69" r="12" />
  <circle class="cls-13" cx="69" cy="69" r="10" />
  <path class="cls-14" d="M76,70a1,1,0,0,1-1-1,6,6,0,0,0-6-6,1,1,0,0,1,0-2,8,8,0,0,1,8,8A1,1,0,0,1,76,70Z" />
  <path class="cls-14" d="M69,77a8,8,0,0,1-8-8,1,1,0,0,1,2,0,6,6,0,0,0,6,6,1,1,0,0,1,0,2Z" />
  <path class="cls-15" d="M15.41,67.64l-10-4.55a1,1,0,0,0-1,.07A1,1,0,0,0,4,64v7a1,1,0,0,0,.59.91l10,4.54a1,1,0,0,0,.41.09,1,1,0,0,0,.54-.16,1,1,0,0,0,.46-.84v-7A1,1,0,0,0,15.41,67.64ZM14,74,6,70.36V65.55l8,3.64Z" />
  <path class="cls-15" d="M69,56A13,13,0,1,0,82,69,13,13,0,0,0,69,56Zm0,24A11,11,0,1,1,80,69,11,11,0,0,1,69,80Z" />
  <path class="cls-15" d="M94.88,89.46,83.4,78c.1-.16.2-.32.29-.48l5.72-2.6A1,1,0,0,0,90,74V21a.84.84,0,0,0,0-.27l0-.08a.48.48,0,0,0-.08-.16.47.47,0,0,0-.06-.09l-.1-.12-.09-.07-.06-.05-.07,0-.06,0L63.75,8.42h0L45.41.09a1,1,0,0,0-.82,0l-44,20-.06,0-.07,0-.06.05-.09.07a.64.64,0,0,0-.1.13.16.16,0,0,0-.06.08.48.48,0,0,0-.08.16l0,.08A.84.84,0,0,0,0,21V74a1,1,0,0,0,.59.91l44,20h0a.9.9,0,0,0,.74,0h0l20.32-9.23A17.6,17.6,0,0,0,69,86a16.85,16.85,0,0,0,9-2.6L89.46,94.88A3.88,3.88,0,0,0,92.17,96,3.82,3.82,0,0,0,96,92.17,3.88,3.88,0,0,0,94.88,89.46ZM20,30.74l6,2.73v8.8l-6-2.73ZM68.21,12.65,26.63,31.55l-4.84-2.2,41.58-18.9ZM86.58,21l-18.9,8.59L45,39.9,29.05,32.65l41.57-18.9ZM45,2.1,61,9.35,19.38,28.25,7,22.64,3.42,21ZM2,22.55l16,7.28V40.18a1,1,0,0,0,.59.91l8,3.64a1,1,0,0,0,.41.09,1,1,0,0,0,.54-.16,1,1,0,0,0,.46-.84V34.37l16,7.27V92.45L2,73.36Zm44,69.9V41.64L88,22.55V73.36l-3,1.37A17,17,0,1,0,62.8,84.81ZM54,69A15,15,0,1,1,69,84,15,15,0,0,1,54,69ZM93.46,93.46a1.87,1.87,0,0,1-2.58,0L79.65,82.23a16.57,16.57,0,0,0,2.58-2.58L93.46,90.88A1.84,1.84,0,0,1,94,92.17,1.78,1.78,0,0,1,93.46,93.46Z" />
</svg>