<svg id="Layer_1" data-name="Layer 1" xmlns="http://www.w3.org/2000/svg" viewBox="0 0 96 96">
  <defs>
    <style>.cls-1{fill:#cba07a;}.cls-2{fill:#d9b18c;}.cls-3{fill:#b8c0ce;}.cls-4{fill:#e5c2a1;}.cls-5{fill:#f6b756;}.cls-6{fill:#fac77d;}.cls-7{fill:#dd8b37;}.cls-8{fill:#e69c4b;}.cls-9{fill:#ffd69e;}.cls-10{fill:#f2d3b8;}.cls-11{fill:#39426a;}</style>
  </defs>
  <title>insurance, protection, box, package, logistic, shipping, delivery</title>
  <polygon class="cls-1" points="45 41 45 94 1 74 1 21 4 22.36 45 41" />
  <path class="cls-2" d="M45,41V90.64L8.69,74.13A8,8,0,0,1,4,66.85V22.36Z" />
  <polygon class="cls-3" points="15 75.54 5 71 5 64 15 68.55 15 75.54" />
  <path class="cls-4" d="M27.24,36.57l13,5.91A3,3,0,0,1,42,45.21V82a3,3,0,0,1-4.24,2.73l-13-5.91A3,3,0,0,1,23,76.07V39.3A3,3,0,0,1,27.24,36.57Z" />
  <polygon class="cls-5" points="27 32.82 27 43.82 19 40.18 19 29.18 27 32.82" />
  <path class="cls-6" d="M27,32.82V41l-2.24-1A3,3,0,0,1,23,37.25V31Z" />
  <polygon class="cls-1" points="89 21 89 74 83.02 76.72 65.59 84.64 45 94 45 41 48 39.64 89 21" />
  <path class="cls-2" d="M89,21V70.36l-3,1.36L68.59,79.64l-9.28,4.22A8,8,0,0,1,48,76.58V39.64Z" />
  <path class="cls-4" d="M69.76,33.75l11-5A3,3,0,0,1,85,31.48V67.53a3,3,0,0,1-1.76,2.73l-11,5A3,3,0,0,1,68,72.52v-36A3,3,0,0,1,69.76,33.75Z" />
  <path class="cls-7" d="M79,95h0A20.54,20.54,0,0,1,63,75.21V61.93h6.31A13.9,13.9,0,0,0,79,58h0A13.93,13.93,0,0,0,88.69,62H95V75.21A20.54,20.54,0,0,1,79,95Z" />
  <path class="cls-8" d="M79,91.86A17.49,17.49,0,0,1,66,75.21V64.93h3.31a17.15,17.15,0,0,0,9.69-3,17.07,17.07,0,0,0,9.69,3H92V75.21A17.49,17.49,0,0,1,79,91.86Z" />
  <path class="cls-5" d="M79,89.77A15.45,15.45,0,0,1,68,75.21V66.93h1.31A18.9,18.9,0,0,0,79,64.29,19.1,19.1,0,0,0,88.69,67H90v8.25A15.45,15.45,0,0,1,79,89.77Z" />
  <path class="cls-6" d="M79,86.58a12.37,12.37,0,0,1-8-11.37V69.86a21.93,21.93,0,0,0,8-2.16,21.94,21.94,0,0,0,8,2.19v5.32A12.37,12.37,0,0,1,79,86.58Z" />
  <path class="cls-9" d="M79,67.7a21.94,21.94,0,0,0,8,2.19v5.32a12.37,12.37,0,0,1-8,11.37Z" />
  <polygon class="cls-2" points="89 21 45 41 26.63 32.65 26.62 32.65 19.38 29.35 1 21 5.02 19.17 45 1 63.38 9.35 70.62 12.65 84.98 19.18 89 21" />
  <path class="cls-4" d="M85,19.18,48.31,35.85a8,8,0,0,1-6.62,0L26.63,29h0l-7.24-3.3L5,19.17,45,1,63.38,9.35l7.24,3.3Z" />
  <path class="cls-10" d="M70.62,16.65a3.48,3.48,0,0,1,0,6.33l-6.31,2.87a8,8,0,0,1-6.62,0L42.63,19h0l-7.24-3.3h0a3.48,3.48,0,0,1,0-6.33l8.18-3.72a3.53,3.53,0,0,1,2.88,0l16.94,7.7,7.24,3.3Z" />
  <polygon class="cls-6" points="70.62 12.65 26.63 32.65 26.62 32.65 22.82 30.92 19.38 29.35 63.19 9.44 63.38 9.35 70.62 12.65" />
  <polygon class="cls-9" points="66.62 11 22.82 30.92 19.38 29.35 63.19 9.44 66.62 11" />
  <path class="cls-11" d="M15.41,67.64l-10-4.55a1,1,0,0,0-1,.07A1,1,0,0,0,4,64v7a1,1,0,0,0,.59.91l10,4.54a1,1,0,0,0,.41.09,1,1,0,0,0,.54-.16,1,1,0,0,0,.46-.84v-7A1,1,0,0,0,15.41,67.64ZM14,74,6,70.36V65.55l8,3.64Z" />
  <path class="cls-11" d="M95,61H90V21a.84.84,0,0,0,0-.27l0-.08c0-.06-.05-.11-.07-.16l-.07-.09-.1-.12-.09-.07-.06-.05-.07,0-.06,0L63.76,8.43l0,0L45.41.09a1,1,0,0,0-.82,0l-44,20,0,0s-.06,0-.08,0,0,0-.07.05a.27.27,0,0,1-.08.07.64.64,0,0,0-.1.13.16.16,0,0,0-.06.08.48.48,0,0,0-.08.16l0,.08A.84.84,0,0,0,0,21V74a1,1,0,0,0,.59.91l44,20h0a.9.9,0,0,0,.74,0h0L65,86A22.1,22.1,0,0,0,78.76,96a1,1,0,0,0,.48,0A21.51,21.51,0,0,0,96,75.25V62A1,1,0,0,0,95,61ZM20,30.74l6,2.73v8.8l-6-2.73ZM68.21,12.65,26.63,31.55l-4.84-2.2,41.58-18.9ZM45,39.9l-9.41-4.27-6.54-3,41.58-18.9,16,7.25ZM45,2.1,61,9.35,19.37,28.25,5.88,22.12,3.42,21ZM2,22.55l16,7.28V40.18a1,1,0,0,0,.59.91l8,3.64a1,1,0,0,0,.41.09,1,1,0,0,0,.54-.16,1,1,0,0,0,.46-.84V34.37l16,7.27V92.45L2,73.36Zm44,69.9V41.64L88,22.55V61a13,13,0,0,1-8.3-3.6,1,1,0,0,0-1.4,0,13,13,0,0,1-9,3.6H63a1,1,0,0,0-1,1V75.25a20.73,20.73,0,0,0,2.06,9Zm48-17.2A19.51,19.51,0,0,1,79,94a20,20,0,0,1-12.42-9.26l-.5-.92A18.7,18.7,0,0,1,64,75.25V63h5.31A15,15,0,0,0,79,59.43,15,15,0,0,0,88.69,63H94Z" />
  <path class="cls-11" d="M79.52,63.47a1,1,0,0,0-1,0A17.94,17.94,0,0,1,69.31,66H68a1,1,0,0,0-1,1v8.28A16.43,16.43,0,0,0,78.69,90.76a1,1,0,0,0,.62,0A16.43,16.43,0,0,0,91,75.25V67a1,1,0,0,0-1-1H88.69A17.94,17.94,0,0,1,79.52,63.47ZM89,75.25a14.4,14.4,0,0,1-10,13.5,14.4,14.4,0,0,1-10-13.5V68h.31A20.11,20.11,0,0,0,79,65.49,20.07,20.07,0,0,0,88.69,68H89Z" />
</svg>