<svg id="Layer_1" data-name="Layer 1" xmlns="http://www.w3.org/2000/svg" viewBox="0 0 96 96">
  <defs>
    <style>.cls-1{fill:#d9b18c;}.cls-2{fill:#e5c2a1;}.cls-3{fill:#f2d3b8;}.cls-4{fill:#8a6762;}.cls-5{fill:#98726b;}.cls-6{fill:#85bd79;}.cls-7{fill:#9fc98a;}.cls-8{fill:#cba07a;}.cls-9{fill:#f3f4f5;}.cls-10{fill:#39426a;}.cls-11{fill:#bbd79f;}</style>
  </defs>
  <title>unbox, arrow, up, box, package, logistic, shipping, delivery</title>
  <polygon class="cls-1" points="95 17.93 87.17 32.77 86 35 48 18.53 57 1.47 59.83 2.69 95 17.93" />
  <path class="cls-2" d="M95,17.93,87.17,32.77,59.93,21A8,8,0,0,1,56,9.89l3.8-7.2Z" />
  <path class="cls-3" d="M89.57,21.42,86,28.13a2,2,0,0,1-2.56.9l-6.2-2.68a9,9,0,0,1-4.39-12.5h0a2,2,0,0,1,2.56-.9l13.16,5.7A2,2,0,0,1,89.57,21.42Z" />
  <polygon class="cls-1" points="48 18.53 10 35 1 17.93 4.35 16.48 39 1.47 46.65 15.98 48 18.53" />
  <path class="cls-2" d="M46.65,16,18.8,28.05A8,8,0,0,1,8.54,24.44l-4.19-8L39,1.47Z" />
  <path class="cls-3" d="M40.91,16.4l-4.36,1.89a10,10,0,0,1-12.89-4.53h0a2,2,0,0,1,1-2.77L35.84,6.14A2,2,0,0,1,38.4,7l3.48,6.59A2,2,0,0,1,40.91,16.4Z" />
  <path class="cls-4" d="M86,35.47,48,51.93,10,35.47,42,21.6H54Z" />
  <path class="cls-5" d="M80.69,33.17l-.92.4a79.92,79.92,0,0,1-63.52,0l-.94-.41L42,21.6H54Z" />
  <polygon class="cls-6" points="54 49.33 54 15 62 15 48 1 34 15 42 15 42 49.33 48 52 54 49.33" />
  <path class="cls-7" d="M54,40.43V15h8L48,1,34,15h8V40.43a6,6,0,0,0,3.56,5.48h0a5.93,5.93,0,0,0,4.88,0h0A6,6,0,0,0,54,40.43Z" />
  <polygon class="cls-8" points="48 51.93 48 95 10 78.53 10 35.47 13 36.77 48 51.93" />
  <path class="cls-1" d="M48,51.93V91.27L21.43,79.75A14,14,0,0,1,13,66.91V36.77Z" />
  <polygon class="cls-1" points="48 51.93 40.17 66.77 39 69 1 52.53 10 35.47 12.83 36.69 48 51.93" />
  <path class="cls-2" d="M48,51.93,40.17,66.77,12.93,55A8,8,0,0,1,9,43.89l3.8-7.2Z" />
  <path class="cls-3" d="M42.57,55.42,39,62.13a2,2,0,0,1-2.56.9l-6.2-2.68a9,9,0,0,1-4.39-12.5h0a2,2,0,0,1,2.56-.9l13.16,5.7A2,2,0,0,1,42.57,55.42Z" />
  <line class="cls-9" x1="23.93" y1="78.24" x2="15.07" y2="74.39" />
  <line class="cls-9" x1="23.93" y1="71.91" x2="15.07" y2="68.06" />
  <polygon class="cls-9" points="23.93 71.91 23.93 78.24 15.07 74.39 15.07 68.06 23.93 71.91" />
  <polygon class="cls-8" points="86 35.47 86 78.53 48 95 48 51.93 51 50.63 86 35.47" />
  <path class="cls-1" d="M86,35.47V75.4L59.39,86.94A6,6,0,0,1,51,81.43V50.63Z" />
  <polygon class="cls-1" points="95 52.53 57 69 48 51.93 51.35 50.48 86 35.47 93.65 49.98 95 52.53" />
  <path class="cls-2" d="M93.65,50,65.8,62.05a8,8,0,0,1-10.26-3.61l-4.19-8L86,35.47Z" />
  <path class="cls-10" d="M87.13,35.46l8.76-17.07a1,1,0,0,0,0-.8A1,1,0,0,0,95.4,17L57.4.55A1,1,0,0,0,56.12,1L53.8,5.39,48.71.29a1,1,0,0,0-1.42,0L42.2,5.39,39.88,1A1,1,0,0,0,38.6.55L.6,17a1,1,0,0,0-.54.58,1,1,0,0,0,.05.8L8.87,35.46.12,52.07a1,1,0,0,0-.06.8,1,1,0,0,0,.54.58L9,57.09V78.53a1,1,0,0,0,.6.92l38,16.47h0a.91.91,0,0,0,.7,0h0l38-16.47a1,1,0,0,0,.6-.92V57.09l8.4-3.64a1,1,0,0,0,.54-.58,1,1,0,0,0-.06-.8ZM41,47.81l-5.88-2.55-9.63-4.17-13-5.62L41,23.12ZM55,23.12,83.48,35.47,69.32,41.61,55,47.81ZM57.45,2.76,93.62,18.42,85.54,34.18,55,20.94V16h7a1,1,0,0,0,.92-.62,1,1,0,0,0-.21-1.09L55.28,6.87ZM48,2.41,59.59,14H54a1,1,0,0,0-1,1v6.59h0V48.67l-5,2.17-5-2.17V21.59h0V15a1,1,0,0,0-1-1H36.41Zm-9.45.35,2.17,4.11-7.43,7.42a1,1,0,0,0-.21,1.09A1,1,0,0,0,34,16h7v4.94L10.46,34.18,2.38,18.42Zm-28.1,34,17,7.34,19.19,8.32L38.55,67.71,10.41,55.52l0,0L2.39,52ZM11,58l27.6,12A1.14,1.14,0,0,0,39,70a1,1,0,0,0,.88-.53L47,56V93.48L11,77.87ZM85,77.87,49,93.48V56l7.12,13.5A1,1,0,0,0,57,70a1.14,1.14,0,0,0,.4-.08L85,58Zm.63-22.37,0,0L57.45,67.71,49.39,52.42,68.58,44.1l17-7.34L93.61,52Z" />
  <path class="cls-10" d="M24.93,71.92h0a1,1,0,0,0-.06-.34s0,0,0-.08a1,1,0,0,0-.14-.22l-.07-.08a1,1,0,0,0-.29-.2l-8.87-3.85a.8.8,0,0,0-.34-.07H15a1.13,1.13,0,0,0-.32.06l-.07,0a.75.75,0,0,0-.13.06l-.1.08-.06.06a.77.77,0,0,0-.19.28,0,0,0,0,0,0,0s0,0,0,0a.88.88,0,0,0-.07.33v0h0v6.32h0a.88.88,0,0,0,.06.33.79.79,0,0,0,0,.09,1,1,0,0,0,.14.22l.07.08a1,1,0,0,0,.29.2l8.87,3.85a.91.91,0,0,0,.39.08h0l.15,0,.14,0,.05,0a1.36,1.36,0,0,0,.21-.1h0a.86.86,0,0,0,.2-.18l.05-.06a1,1,0,0,0,.1-.17s0,0,0,0,0,0,0,0a.88.88,0,0,0,.07-.33v0h0Zm-8.86-2.34,6.86,3v4.16l-6.86-3Z" />
  <path class="cls-3" d="M87.91,50.4l-4.36,1.89a10,10,0,0,1-12.89-4.53h0a2,2,0,0,1,1-2.77l11.21-4.85a2,2,0,0,1,2.56.9l3.48,6.59A2,2,0,0,1,87.91,50.4Z" />
  <rect class="cls-11" x="48" y="14" width="3" height="29" rx="1.5" />
  <circle class="cls-11" cx="49.5" cy="10.5" r="1.5" />
</svg>