<svg id="Layer_1" data-name="Layer 1" xmlns="http://www.w3.org/2000/svg" viewBox="0 0 96 96">
  <defs>
    <style>.cls-1{fill:#cba07a;}.cls-2{fill:#d9b18c;}.cls-3{fill:#b8c0ce;}.cls-4{fill:#e5c2a1;}.cls-5{fill:#f6b756;}.cls-6{fill:#fac77d;}.cls-7{fill:#dd8b37;}.cls-8{fill:#e69c4b;}.cls-9{fill:#5c5f7d;}.cls-10{fill:#f2d3b8;}.cls-11{fill:#ffd69e;}.cls-12{fill:#39426a;}.cls-13{fill:#ecaa63;}</style>
  </defs>
  <title>lock, protection, privacy, box, package, logistic, shipping, delivery</title>
  <polygon class="cls-1" points="45 41 45 94 1 74 1 21 4 22.36 45 41" />
  <path class="cls-2" d="M45,41V90.64L8.69,74.13A8,8,0,0,1,4,66.85V22.36Z" />
  <polygon class="cls-3" points="15 75.54 5 71 5 64 15 68.55 15 75.54" />
  <path class="cls-4" d="M27.24,36.57l13,5.91A3,3,0,0,1,42,45.21V82a3,3,0,0,1-4.24,2.73l-13-5.91A3,3,0,0,1,23,76.07V39.3A3,3,0,0,1,27.24,36.57Z" />
  <polygon class="cls-5" points="27 32.82 27 43.82 19 40.18 19 29.18 27 32.82" />
  <path class="cls-6" d="M27,32.82V41l-2.24-1A3,3,0,0,1,23,37.25V31Z" />
  <polygon class="cls-1" points="89 21 89 74 83.02 76.72 65.59 84.64 45 94 45 41 48 39.64 89 21" />
  <path class="cls-2" d="M89,21V70.36l-3,1.36L68.59,79.64l-9.28,4.22A8,8,0,0,1,48,76.58V39.64Z" />
  <path class="cls-4" d="M69.76,33.75l11-5A3,3,0,0,1,85,31.48V67.53a3,3,0,0,1-1.76,2.73l-11,5A3,3,0,0,1,68,72.52v-36A3,3,0,0,1,69.76,33.75Z" />
  <rect class="cls-7" x="67" y="74" width="28" height="21" />
  <path class="cls-8" d="M70,74H95a0,0,0,0,1,0,0V92a0,0,0,0,1,0,0H74a4,4,0,0,1-4-4V74A0,0,0,0,1,70,74Z" />
  <path class="cls-9" d="M84,82a3,3,0,1,0-5,2.22V88a2,2,0,0,0,4,0V84.22A3,3,0,0,0,84,82Z" />
  <path class="cls-3" d="M91,66v8H87V66a6,6,0,0,0-6-6,6,6,0,0,0-6,6v8H71V66a10,10,0,0,1,20,0Z" />
  <polygon class="cls-2" points="89 21 45 41 26.63 32.65 26.62 32.65 19.38 29.35 1 21 5.02 19.17 45 1 63.38 9.35 70.62 12.65 84.98 19.18 89 21" />
  <path class="cls-4" d="M85,19.18,48.31,35.85a8,8,0,0,1-6.62,0L26.63,29h0l-7.24-3.3L5,19.17,45,1,63.38,9.35l7.24,3.3Z" />
  <path class="cls-10" d="M70.62,16.65a3.48,3.48,0,0,1,0,6.33l-6.31,2.87a8,8,0,0,1-6.62,0L42.63,19h0l-7.24-3.3h0a3.48,3.48,0,0,1,0-6.33l8.18-3.72a3.53,3.53,0,0,1,2.88,0l16.94,7.7,7.24,3.3Z" />
  <polygon class="cls-6" points="70.62 12.65 26.63 32.65 26.62 32.65 22.82 30.92 19.38 29.35 63.19 9.44 63.38 9.35 70.62 12.65" />
  <polygon class="cls-11" points="66.62 11 22.82 30.92 19.38 29.35 63.19 9.44 66.62 11" />
  <path class="cls-12" d="M15.41,67.64l-10-4.55a1,1,0,0,0-1,.07A1,1,0,0,0,4,64v7a1,1,0,0,0,.59.91l10,4.54a1,1,0,0,0,.41.09,1,1,0,0,0,.54-.16,1,1,0,0,0,.46-.84v-7A1,1,0,0,0,15.41,67.64ZM14,74,6,70.36V65.55l8,3.64Z" />
  <path class="cls-12" d="M95,73H92V66a11,11,0,0,0-2-6.31V21a.84.84,0,0,0,0-.27l0-.08c0-.06-.05-.11-.07-.16l-.07-.09-.1-.12-.09-.07-.06-.05-.07,0-.06,0L63.76,8.43l0,0L45.41.09a1,1,0,0,0-.82,0l-44,20-.06,0-.07,0-.06.05-.09.07a.64.64,0,0,0-.1.13.16.16,0,0,0-.06.08.48.48,0,0,0-.08.16l0,.08A.84.84,0,0,0,0,21V74a1,1,0,0,0,.59.91l44,20h0a.9.9,0,0,0,.74,0h0L66,85.55V95a1,1,0,0,0,1,1H95a1,1,0,0,0,1-1V74A1,1,0,0,0,95,73ZM76,73V66a5,5,0,0,1,10,0v7ZM86,61.06A6.89,6.89,0,0,0,81,59a7,7,0,0,0-7,7v7H72V66a9,9,0,0,1,18,0v7H88V66A6.89,6.89,0,0,0,86,61.06ZM20,30.74l6,2.73v8.8l-6-2.73ZM68.21,12.65,26.63,31.55l-4.84-2.2,41.58-18.9ZM45,39.9l-6.73-3.06-9.22-4.19,41.58-18.9,16,7.25ZM45,2.1,61,9.35,19.37,28.25,4.83,21.64,3.42,21ZM2,22.55l16,7.28V40.18a1,1,0,0,0,.59.91l8,3.64a1,1,0,0,0,.41.09,1,1,0,0,0,.54-.16,1,1,0,0,0,.46-.84V34.37l16,7.27V92.45L2,73.36Zm44,69.9V41.64L88,22.55v35A11,11,0,0,0,70,66v7H67a1,1,0,0,0-1,1v9.36ZM94,94H68V75H94Z" />
  <path class="cls-12" d="M81,78a4,4,0,0,0-3,6.63V88a3,3,0,0,0,6,0V84.63A4,4,0,0,0,81,78Zm1.33,5.48a1,1,0,0,0-.33.74V88a1,1,0,0,1-2,0V84.22a1,1,0,0,0-.33-.74,2,2,0,1,1,2.66,0Z" />
  <rect class="cls-13" x="88" y="77" width="4" height="13" rx="2" />
</svg>