<svg id="Layer_1" data-name="Layer 1" xmlns="http://www.w3.org/2000/svg" viewBox="0 0 96 96">
  <defs>
    <style>.cls-1{fill:#cba07a;}.cls-2{fill:#d9b18c;}.cls-3{fill:#b8c0ce;}.cls-4{fill:#e5c2a1;}.cls-5{fill:#f6b756;}.cls-6{fill:#fac77d;}.cls-7{fill:#8288a1;}.cls-8{fill:#969cb2;}.cls-9{fill:#aeb4c6;}.cls-10{fill:#5c5f7d;}.cls-11{fill:#f2d3b8;}.cls-12{fill:#ffd69e;}.cls-13{fill:#39426a;}</style>
  </defs>
  <title>options, preferences, box, package, logistic, shipping, delivery</title>
  <polygon class="cls-1" points="45 41 45 94 1 74 1 21 4 22.36 45 41" />
  <path class="cls-2" d="M45,41V90.64L8.69,74.13A8,8,0,0,1,4,66.85V22.36Z" />
  <polygon class="cls-3" points="15 75.54 5 71 5 64 15 68.55 15 75.54" />
  <path class="cls-4" d="M27.24,36.57l13,5.91A3,3,0,0,1,42,45.21V82a3,3,0,0,1-4.24,2.73l-13-5.91A3,3,0,0,1,23,76.07V39.3A3,3,0,0,1,27.24,36.57Z" />
  <polygon class="cls-5" points="27 32.82 27 43.82 19 40.18 19 29.18 27 32.82" />
  <path class="cls-6" d="M27,32.82V41l-2.24-1A3,3,0,0,1,23,37.25V31Z" />
  <polygon class="cls-1" points="89 21 89 74 83.02 76.72 65.59 84.64 45 94 45 41 48 39.64 89 21" />
  <path class="cls-2" d="M89,21V70.36l-3,1.36L68.59,79.64l-9.28,4.22A8,8,0,0,1,48,76.58V39.64Z" />
  <path class="cls-4" d="M69.76,33.75l11-5A3,3,0,0,1,85,31.48V67.53a3,3,0,0,1-1.76,2.73l-11,5A3,3,0,0,1,68,72.52v-36A3,3,0,0,1,69.76,33.75Z" />
  <path class="cls-7" d="M95,80V72H90.44A14.86,14.86,0,0,0,89,68.61l3.22-3.22-5.65-5.65L83.39,63A14.86,14.86,0,0,0,80,61.56V57H72v4.56A14.86,14.86,0,0,0,68.61,63l-3.22-3.22-5.65,5.65L63,68.61A14.86,14.86,0,0,0,61.56,72H57v8h4.56A14.86,14.86,0,0,0,63,83.39l-3.22,3.22,5.65,5.65L68.61,89A14.86,14.86,0,0,0,72,90.44V95h8V90.44A14.86,14.86,0,0,0,83.39,89l3.22,3.22,5.65-5.65L89,83.39A14.86,14.86,0,0,0,90.44,80Z" />
  <circle class="cls-8" cx="76" cy="76" r="11" />
  <circle class="cls-9" cx="76" cy="76" r="8" />
  <circle class="cls-10" cx="76" cy="76" r="4" />
  <polygon class="cls-2" points="89 21 45 41 26.63 32.65 26.62 32.65 19.38 29.35 1 21 5.02 19.17 45 1 63.38 9.35 70.62 12.65 84.98 19.18 89 21" />
  <path class="cls-4" d="M85,19.18,48.31,35.85a8,8,0,0,1-6.62,0L26.63,29h0l-7.24-3.3L5,19.17,45,1,63.38,9.35l7.24,3.3Z" />
  <path class="cls-11" d="M70.62,16.65a3.48,3.48,0,0,1,0,6.33l-6.31,2.87a8,8,0,0,1-6.62,0L42.63,19h0l-7.24-3.3h0a3.48,3.48,0,0,1,0-6.33l8.18-3.72a3.53,3.53,0,0,1,2.88,0l16.94,7.7,7.24,3.3Z" />
  <polygon class="cls-6" points="70.62 12.65 26.63 32.65 26.62 32.65 22.82 30.92 19.38 29.35 63.19 9.44 63.38 9.35 70.62 12.65" />
  <polygon class="cls-12" points="66.62 11 22.82 30.92 19.38 29.35 63.19 9.44 66.62 11" />
  <path class="cls-13" d="M15.41,67.64l-10-4.55a1,1,0,0,0-1,.07A1,1,0,0,0,4,64v7a1,1,0,0,0,.59.91l10,4.54a1,1,0,0,0,.41.09,1,1,0,0,0,.54-.16,1,1,0,0,0,.46-.84v-7A1,1,0,0,0,15.41,67.64ZM14,74,6,70.36V65.55l8,3.64Z" />
  <path class="cls-13" d="M95,71H91.19a17.1,17.1,0,0,0-.91-2.21L93,66.1a1,1,0,0,0,0-1.41l-3-3V21a.84.84,0,0,0,0-.27l0-.08a.48.48,0,0,0-.08-.16.22.22,0,0,0,0-.08l-.11-.13-.09-.07s0,0-.06-.05l-.07,0-.06,0L63.74,8.42h0L45.41.09a1,1,0,0,0-.82,0l-44,20-.06,0-.07,0s0,0-.07.05a.27.27,0,0,1-.08.07.64.64,0,0,0-.1.13.16.16,0,0,0-.06.08.48.48,0,0,0-.08.16l0,.08A.84.84,0,0,0,0,21V74a1,1,0,0,0,.59.91l44,20h0a.9.9,0,0,0,.74,0h0L60,88.28,64.69,93a1,1,0,0,0,1.41,0l2.69-2.69a17.1,17.1,0,0,0,2.21.91V95a1,1,0,0,0,1,1h8a1,1,0,0,0,1-1V91.19a17.1,17.1,0,0,0,2.21-.91L85.9,93a1,1,0,0,0,.71.29,1,1,0,0,0,.7-.29L93,87.31a1,1,0,0,0,0-1.41l-2.69-2.69A17.1,17.1,0,0,0,91.19,81H95a1,1,0,0,0,1-1V72A1,1,0,0,0,95,71ZM68.21,12.65,26.63,31.55l-4.84-2.2,41.58-18.9ZM26,33.47v8.8l-6-2.73v-8.8ZM45,2.1,61,9.35,19.38,28.25,8.08,23.12,3.42,21ZM44,92.45,2,73.36V22.55l16,7.28V40.18a1,1,0,0,0,.59.91l8,3.64a1,1,0,0,0,.41.09,1,1,0,0,0,.54-.16,1,1,0,0,0,.46-.84V34.37l16,7.27ZM45,39.9,29.05,32.65l41.57-18.9,16,7.25Zm14,46a1,1,0,0,0-.29.71v0L46,92.45V41.64L88,22.55V59.72L87.31,59a1,1,0,0,0-1.41,0l-2.69,2.69A17.1,17.1,0,0,0,81,60.81V57a1,1,0,0,0-1-1H72a1,1,0,0,0-1,1v3.81a17.1,17.1,0,0,0-2.21.91L66.1,59a1,1,0,0,0-.71-.29,1,1,0,0,0-.7.29L59,64.69a1,1,0,0,0-.29.7,1,1,0,0,0,.29.71l2.69,2.69A17.1,17.1,0,0,0,60.81,71H57a1,1,0,0,0-1,1v8a1,1,0,0,0,1,1h3.81a17.1,17.1,0,0,0,.91,2.21ZM94,79H90.44a1,1,0,0,0-1,.73,14.19,14.19,0,0,1-1.3,3.16,1,1,0,0,0,.16,1.21l2.51,2.51-4.24,4.24L84.1,88.34a1,1,0,0,0-1.21-.16,14.19,14.19,0,0,1-3.16,1.3,1,1,0,0,0-.73,1V94H73V90.44a1,1,0,0,0-.73-1,14.19,14.19,0,0,1-3.16-1.3,1,1,0,0,0-1.21.16l-2.51,2.51-4.24-4.24,2.51-2.51a1,1,0,0,0,.16-1.21,14.19,14.19,0,0,1-1.3-3.16,1,1,0,0,0-1-.73H58V73h3.56a1,1,0,0,0,1-.73,14.19,14.19,0,0,1,1.3-3.16,1,1,0,0,0-.16-1.21l-2.51-2.51,4.24-4.24,2.51,2.51a1,1,0,0,0,1.21.16,14.19,14.19,0,0,1,3.16-1.3,1,1,0,0,0,.73-1V58h6v3.56a1,1,0,0,0,.73,1,14.19,14.19,0,0,1,3.16,1.3,1,1,0,0,0,1.21-.16l2.51-2.51,4.24,4.24L88.34,67.9a1,1,0,0,0-.16,1.21,14.19,14.19,0,0,1,1.3,3.16,1,1,0,0,0,1,.73H94Z" />
  <path class="cls-13" d="M76,71a5,5,0,1,0,5,5A5,5,0,0,0,76,71Zm0,8a3,3,0,1,1,3-3A3,3,0,0,1,76,79Z" />
  <path class="cls-13" d="M76,67a9,9,0,1,0,9,9A9,9,0,0,0,76,67Zm0,16a7,7,0,1,1,7-7A7,7,0,0,1,76,83Z" />
</svg>