<svg id="Layer_1" data-name="Layer 1" xmlns="http://www.w3.org/2000/svg" viewBox="0 0 96 96">
  <defs>
    <style>.cls-1{fill:#ccd1dc;}.cls-2{fill:#dee1e7;}.cls-3{fill:#f3f4f5;}.cls-4{fill:#fac77d;}.cls-5{fill:#ffd69e;}.cls-6{fill:#ffe5c3;}.cls-7{fill:#dc5d6b;}.cls-8{fill:#90d1d7;}.cls-9{fill:#abd9e6;}.cls-10{fill:#cf4055;}.cls-11{fill:#f6b756;}.cls-12{fill:#85bd79;}.cls-13{fill:#39426a;}.cls-14{fill:#c3e1f5;}</style>
  </defs>
  <title>cancel, security, protection, safety, shield, website, webpage, browser, development</title>
  <polygon class="cls-1" points="85 81 95 81 95 79 95 1 1 1 1 81 73 81 85 81" />
  <path class="cls-2" d="M94,72V1H4V60A18,18,0,0,0,22,78H88A6,6,0,0,0,94,72Z" />
  <path class="cls-3" d="M11,17H87a3,3,0,0,1,3,3V71a3,3,0,0,1-3,3H62A54,54,0,0,1,8,20v0a3,3,0,0,1,3-3Z" />
  <path class="cls-4" d="M73,44V60.75A36,36,0,0,1,48,95,36,36,0,0,1,23,60.75V44L48,34Z" />
  <path class="cls-5" d="M73,44V55.75A36,36,0,0,1,49.5,89.48,36,36,0,0,1,26,55.75V44l23.5-9.4Z" />
  <path class="cls-6" d="M58.84,80.45a14.16,14.16,0,0,1-18.68,0A33.07,33.07,0,0,1,29,55.75h0a14.35,14.35,0,0,1,9-13.33L44.17,40a14.34,14.34,0,0,1,10.66,0L61,42.42a14.35,14.35,0,0,1,9,13.33h0A33.07,33.07,0,0,1,58.84,80.45Z" />
  <polygon class="cls-7" points="62 53.5 59 50.5 48 61.5 37 50.5 34 53.5 45 64.5 34 75.5 37 78.5 48 67.5 59 78.5 62 75.5 51 64.5 62 53.5" />
  <rect class="cls-8" x="1" y="1" width="94" height="12" />
  <path class="cls-9" d="M4,1H95a0,0,0,0,1,0,0v9a0,0,0,0,1,0,0H13A9,9,0,0,1,4,1V1A0,0,0,0,1,4,1Z" />
  <circle class="cls-10" cx="9" cy="7" r="2" />
  <circle class="cls-11" cx="19" cy="7" r="2" />
  <circle class="cls-12" cx="29" cy="7" r="2" />
  <path class="cls-13" d="M9,4a3,3,0,1,0,3,3A3,3,0,0,0,9,4ZM9,8a1,1,0,1,1,1-1A1,1,0,0,1,9,8Z" />
  <path class="cls-13" d="M19,4a3,3,0,1,0,3,3A3,3,0,0,0,19,4Zm0,4a1,1,0,1,1,1-1A1,1,0,0,1,19,8Z" />
  <path class="cls-13" d="M29,4a3,3,0,1,0,3,3A3,3,0,0,0,29,4Zm0,4a1,1,0,1,1,1-1A1,1,0,0,1,29,8Z" />
  <rect class="cls-14" x="45" y="4" width="46" height="4" rx="2" />
  <circle class="cls-14" cx="40" cy="6" r="2" />
  <path class="cls-13" d="M95,0H1A1,1,0,0,0,0,1V81a1,1,0,0,0,1,1H28.69a36.85,36.85,0,0,0,19,14,.93.93,0,0,0,.6,0,36.85,36.85,0,0,0,19-14H95a1,1,0,0,0,1-1V1A1,1,0,0,0,95,0ZM2,2H94V12H2ZM48,94a34.84,34.84,0,0,1-24-33.2V44.68l24-9.6,24,9.6V60.75A34.84,34.84,0,0,1,48,94ZM68.62,80A36.93,36.93,0,0,0,74,60.75V44a1,1,0,0,0-.63-.93l-25-10a1,1,0,0,0-.74,0l-25,10A1,1,0,0,0,22,44V60.75A36.93,36.93,0,0,0,27.38,80H2V14H94V80Z" />
  <path class="cls-13" d="M9,4a3,3,0,1,0,3,3A3,3,0,0,0,9,4ZM9,8a1,1,0,1,1,1-1A1,1,0,0,1,9,8Z" />
  <path class="cls-13" d="M19,4a3,3,0,1,0,3,3A3,3,0,0,0,19,4Zm0,4a1,1,0,1,1,1-1A1,1,0,0,1,19,8Z" />
  <path class="cls-13" d="M29,4a3,3,0,1,0,3,3A3,3,0,0,0,29,4Zm0,4a1,1,0,1,1,1-1A1,1,0,0,1,29,8Z" />
  <path class="cls-13" d="M62.71,52.79l-3-3a1,1,0,0,0-1.42,0L48,60.09,37.71,49.79a1,1,0,0,0-1.42,0l-3,3a1,1,0,0,0,0,1.42L43.59,64.5,33.29,74.79a1,1,0,0,0,0,1.42l3,3a1,1,0,0,0,1.42,0L48,68.91l10.29,10.3a1,1,0,0,0,1.42,0l3-3a1,1,0,0,0,0-1.42L52.41,64.5l10.3-10.29A1,1,0,0,0,62.71,52.79Zm-12.42,11a1,1,0,0,0,0,1.42L60.59,75.5,59,77.09,48.71,66.79a1,1,0,0,0-1.42,0L37,77.09,35.41,75.5l10.3-10.29a1,1,0,0,0,0-1.42L35.41,53.5,37,51.91l10.29,10.3a1,1,0,0,0,1.42,0L59,51.91l1.59,1.59Z" />
</svg>