<svg id="Layer_1" data-name="Layer 1" xmlns="http://www.w3.org/2000/svg" viewBox="0 0 96 96">
  <defs>
    <style>.cls-1{fill:#ccd1dc;}.cls-2{fill:#dee1e7;}.cls-3{fill:#f3f4f5;}.cls-4{fill:#f6b756;}.cls-5{fill:#90d1d7;}.cls-6{fill:#abd9e6;}.cls-7{fill:#cf4055;}.cls-8{fill:#85bd79;}.cls-9{fill:#c3e1f5;}.cls-10{fill:#39426a;}</style>
  </defs>
  <title>link, share, website, webpage, browser</title>
  <polygon class="cls-1" points="85 88 95 88 95 86 95 8 1 8 1 88 73 88 85 88" />
  <path class="cls-2" d="M94,79V8H4V67A18,18,0,0,0,22,85H88A6,6,0,0,0,94,79Z" />
  <path class="cls-3" d="M11,24H87a3,3,0,0,1,3,3V78a3,3,0,0,1-3,3H62A54,54,0,0,1,8,27v0a3,3,0,0,1,3-3Z" />
  <path class="cls-4" d="M60.12,44a2.1,2.1,0,0,1-.62,1.5l-7.6,7.6-4.8,4.8L44,61,39.5,65.5a2.12,2.12,0,0,1-3-3L41,58,44.1,54.9l4.8-4.8,7.6-7.6A2.12,2.12,0,0,1,60.12,44Z" />
  <path class="cls-4" d="M47.1,57.9l-3-3a10.61,10.61,0,0,0-13.35,1.35l-8,8a10.61,10.61,0,0,0,15,15l8-8A10.64,10.64,0,0,0,47.1,57.9ZM42.75,68.25l-8,8a6.36,6.36,0,1,1-9-9l8-8A6.34,6.34,0,0,1,41,58L36.5,62.5a2.12,2.12,0,0,0,3,3L44,61a6.25,6.25,0,0,1,.63,2.74A6.35,6.35,0,0,1,42.75,68.25Z" />
  <path class="cls-4" d="M44,61,39.5,65.5a2.12,2.12,0,0,1-3-3L41,58Z" />
  <path class="cls-4" d="M73.25,28.75a10.61,10.61,0,0,0-15,0l-8,8A10.64,10.64,0,0,0,48.9,50.1l3,3a10.61,10.61,0,0,0,13.35-1.35l8-8a10.62,10.62,0,0,0,0-15Zm-3,12-8,8A6.34,6.34,0,0,1,55,50L59.5,45.5a2.12,2.12,0,0,0-3-3L52,47a6.25,6.25,0,0,1-.63-2.74,6.35,6.35,0,0,1,1.87-4.5l8-8a6.36,6.36,0,1,1,9,9Z" />
  <path class="cls-4" d="M60.12,44a2.1,2.1,0,0,1-.62,1.5L55,50l-3-3L56.5,42.5A2.12,2.12,0,0,1,60.12,44Z" />
  <rect class="cls-5" x="1" y="8" width="94" height="12" />
  <path class="cls-6" d="M4,8H95a0,0,0,0,1,0,0v9a0,0,0,0,1,0,0H13A9,9,0,0,1,4,8V8A0,0,0,0,1,4,8Z" />
  <circle class="cls-7" cx="9" cy="14" r="2" />
  <circle class="cls-4" cx="19" cy="14" r="2" />
  <circle class="cls-8" cx="29" cy="14" r="2" />
  <rect class="cls-9" x="45" y="11" width="46" height="4" rx="2" />
  <circle class="cls-9" cx="40" cy="13" r="2" />
  <path class="cls-10" d="M95,7H1A1,1,0,0,0,0,8V88a1,1,0,0,0,1,1H95a1,1,0,0,0,1-1V8A1,1,0,0,0,95,7ZM2,9H94V19H2ZM2,87V21H94V87Z" />
  <path class="cls-10" d="M9,11a3,3,0,1,0,3,3A3,3,0,0,0,9,11Zm0,4a1,1,0,1,1,1-1A1,1,0,0,1,9,15Z" />
  <path class="cls-10" d="M19,11a3,3,0,1,0,3,3A3,3,0,0,0,19,11Zm0,4a1,1,0,1,1,1-1A1,1,0,0,1,19,15Z" />
  <path class="cls-10" d="M29,11a3,3,0,1,0,3,3A3,3,0,0,0,29,11Zm0,4a1,1,0,1,1,1-1A1,1,0,0,1,29,15Z" />
  <path class="cls-10" d="M65.75,24.65A11.53,11.53,0,0,0,57.54,28l-8,8A11.64,11.64,0,0,0,47.64,50l-3.7,3.69A11.64,11.64,0,0,0,30,55.54l-8,8A11.61,11.61,0,0,0,38.46,80l8-8a11.64,11.64,0,0,0,1.9-13.91l3.69-3.69a11.54,11.54,0,0,0,5.68,1.49A11.65,11.65,0,0,0,66,52.46l8-8a11.6,11.6,0,0,0-8.21-19.81ZM52.38,44.25A5.3,5.3,0,0,1,54,40.46l8-8a5.37,5.37,0,0,1,7.58,0,5.34,5.34,0,0,1,0,7.58l-8,8a5.32,5.32,0,0,1-4.66,1.49l3.33-3.32a3.14,3.14,0,0,0,0-4.42,3.2,3.2,0,0,0-4.42,0l-3.33,3.33A5,5,0,0,1,52.38,44.25Zm4.83-1a1.12,1.12,0,0,1,1.58,1.58l-20,20a1.13,1.13,0,0,1-1.58,0,1.11,1.11,0,0,1,0-1.58ZM43.62,63.75A5.3,5.3,0,0,1,42,67.54l-8,8a5.37,5.37,0,0,1-7.58,0,5.34,5.34,0,0,1,0-7.58l8-8a5.32,5.32,0,0,1,4.66-1.49l-3.33,3.32a3.14,3.14,0,0,0,0,4.42,3.14,3.14,0,0,0,4.42,0l3.33-3.33A5,5,0,0,1,43.62,63.75Zm4.23,0A9.54,9.54,0,0,1,45,70.54l-8,8A9.6,9.6,0,0,1,23.46,65l8-8a9.63,9.63,0,0,1,11-1.84l-1.72,1.72a7.36,7.36,0,0,0-7.7,1.7l-8,8A7.37,7.37,0,0,0,35.46,77l8-8a7.32,7.32,0,0,0,1.71-7.72l1.7-1.7A9.5,9.5,0,0,1,47.85,63.75ZM72.54,43l-8,8a9.63,9.63,0,0,1-11,1.84l1.71-1.71A7.37,7.37,0,0,0,63,49.46l8-8A7.37,7.37,0,1,0,60.54,31l-8,8a7.32,7.32,0,0,0-1.71,7.72l-1.7,1.7a9.58,9.58,0,0,1,1.83-11l8-8A9.6,9.6,0,0,1,72.54,43Z" />
</svg>