<svg id="Layer_1" data-name="Layer 1" xmlns="http://www.w3.org/2000/svg" viewBox="0 0 96 96">
  <defs>
    <style>.cls-1{fill:#ccd1dc;}.cls-2{fill:#dee1e7;}.cls-3{fill:#f3f4f5;}.cls-4{fill:#8288a1;}.cls-5{fill:#969cb2;}.cls-6{fill:#cf4055;}.cls-7{fill:#dc5d6b;}.cls-8{fill:#b8c0ce;}.cls-9{fill:#90d1d7;}.cls-10{fill:#abd9e6;}.cls-11{fill:#f6b756;}.cls-12{fill:#85bd79;}.cls-13{fill:#39426a;}.cls-14{fill:#c3e1f5;}.cls-15{fill:#e47980;}</style>
  </defs>
  <title>maintenance, screwdriver, wrench, website, webpage, browser, options, preferences</title>
  <polygon class="cls-1" points="85 81 95 81 95 79 95 1 1 1 1 81 73 81 85 81" />
  <path class="cls-2" d="M94,72V1H4V60A18,18,0,0,0,22,78H88A6,6,0,0,0,94,72Z" />
  <path class="cls-3" d="M11,17H87a3,3,0,0,1,3,3V71a3,3,0,0,1-3,3H62A54,54,0,0,1,8,20v0a3,3,0,0,1,3-3Z" />
  <path class="cls-4" d="M69,21.53a12.93,12.93,0,0,0-3-1.73l-.12-.05V34.24L61,37.49l-4.87-3.25V19.75l-.13.06a12.28,12.28,0,0,0-3,1.74,13,13,0,0,0,1.5,21.51L55,44V89a6,6,0,0,0,12,0V44l.5-.94A13,13,0,0,0,69,21.53ZM61,91a2,2,0,1,1,2-2A2,2,0,0,1,61,91Z" />
  <path class="cls-5" d="M71,31.1a10,10,0,0,0-2.1-5.52v7.27L61,38.1l-7.87-5.26V25.58A10,10,0,0,0,51,31.09a9.82,9.82,0,0,0,5,9.37l.75.43L58,43.25V89a3,3,0,0,0,6,0V43.25l1.25-2.36.75-.43A9.82,9.82,0,0,0,71,31.1ZM61,91a2,2,0,1,1,2-2A2,2,0,0,1,61,91Z" />
  <path class="cls-5" d="M56,19.81V36H53V24.41a4.94,4.94,0,0,1,3-4.59Z" />
  <path class="cls-5" d="M69,24.41V36H66V19.8h0A5,5,0,0,1,69,24.41Z" />
  <path class="cls-6" d="M38,67.64V87.08a7.66,7.66,0,0,1-1,3.78h0a7.93,7.93,0,0,1-5,3.84,8.32,8.32,0,0,1-4,0,7.9,7.9,0,0,1-6-7.63V67.64a10.66,10.66,0,0,1,3.19-7.59h0s-.15,0,.84,0l4.3,0h4.47A10.66,10.66,0,0,1,38,67.64Z" />
  <path class="cls-7" d="M38,67.64V87.08a7.66,7.66,0,0,1-1,3.78h0a8.22,8.22,0,0,1-2,.81,8.32,8.32,0,0,1-4,0,7.9,7.9,0,0,1-6-7.63V64.61A10.79,10.79,0,0,1,26,60l4.3,0h4.47A10.66,10.66,0,0,1,38,67.64Z" />
  <polygon class="cls-4" points="34 60 26 60 27 53 33 53 34 60" />
  <polygon class="cls-8" points="26 19 26 28.55 28 30.18 28 53 32 53 32 30.18 34 28.55 34 19 26 19" />
  <rect class="cls-9" x="1" y="1" width="94" height="12" />
  <path class="cls-10" d="M4,1H95a0,0,0,0,1,0,0v9a0,0,0,0,1,0,0H13A9,9,0,0,1,4,1V1A0,0,0,0,1,4,1Z" />
  <circle class="cls-6" cx="9" cy="7" r="2" />
  <circle class="cls-11" cx="19" cy="7" r="2" />
  <circle class="cls-12" cx="29" cy="7" r="2" />
  <path class="cls-13" d="M9,4a3,3,0,1,0,3,3A3,3,0,0,0,9,4ZM9,8a1,1,0,1,1,1-1A1,1,0,0,1,9,8Z" />
  <path class="cls-13" d="M19,4a3,3,0,1,0,3,3A3,3,0,0,0,19,4Zm0,4a1,1,0,1,1,1-1A1,1,0,0,1,19,8Z" />
  <path class="cls-13" d="M29,4a3,3,0,1,0,3,3A3,3,0,0,0,29,4Zm0,4a1,1,0,1,1,1-1A1,1,0,0,1,29,8Z" />
  <rect class="cls-14" x="45" y="4" width="46" height="4" rx="2" />
  <circle class="cls-14" cx="40" cy="6" r="2" />
  <path class="cls-13" d="M95,0H1A1,1,0,0,0,0,1V81a1,1,0,0,0,1,1H21v5.08a8.89,8.89,0,0,0,6.76,8.6A9.25,9.25,0,0,0,30,96a9.71,9.71,0,0,0,2.26-.28A8.89,8.89,0,0,0,39,87.08V82H54v7a7,7,0,0,0,14,0V82H95a1,1,0,0,0,1-1V1A1,1,0,0,0,95,0ZM2,2H94V12H2ZM37,87.08a6.9,6.9,0,0,1-5.24,6.66,7.23,7.23,0,0,1-3.52,0A6.9,6.9,0,0,1,23,87.08V67.64A9.57,9.57,0,0,1,25.65,61H26c.7,0,2,0,4.32,0h4A9.59,9.59,0,0,1,37,67.64ZM28.63,29.4,27,28.08V20h6v8.08L31.37,29.4a1,1,0,0,0-.37.78V52H29V30.18A1,1,0,0,0,28.63,29.4ZM28,54h4.13l.72,5h-5.7l.72-5ZM66,89a5,5,0,0,1-10,0V44a1,1,0,0,0-.12-.47l-.5-.94a1.12,1.12,0,0,0-.38-.4A11.78,11.78,0,0,1,49,31a11.9,11.9,0,0,1,6.09-9.62V34.24a1,1,0,0,0,.45.83l4.87,3.25a1,1,0,0,0,1.1,0l4.88-3.25a1,1,0,0,0,.45-.83V21.33A11.92,11.92,0,0,1,73,31a11.76,11.76,0,0,1-6,11.23,1.12,1.12,0,0,0-.38.4l-.5.94A1,1,0,0,0,66,44Zm2-9V44.25l.25-.47a14,14,0,0,0-2-25,1,1,0,0,0-.93.1,1,1,0,0,0-.44.83v14L61,36.29l-3.87-2.58v-14a1,1,0,0,0-1.37-.93,14,14,0,0,0-2,25l.25.47V80H39V67.64a11.71,11.71,0,0,0-3.49-8.3,1,1,0,0,0-.63-.28L34,52.86A1,1,0,0,0,33,52V30.66l1.63-1.33a1,1,0,0,0,.37-.78V19a1,1,0,0,0-1-1H26a1,1,0,0,0-1,1v9.55a1,1,0,0,0,.37.78L27,30.66V52a1,1,0,0,0-1,.86L25.13,59a.87.87,0,0,0-.77.44A11.71,11.71,0,0,0,21,67.64V80H2V14H94V80Z" />
  <path class="cls-13" d="M9,4a3,3,0,1,0,3,3A3,3,0,0,0,9,4ZM9,8a1,1,0,1,1,1-1A1,1,0,0,1,9,8Z" />
  <path class="cls-13" d="M19,4a3,3,0,1,0,3,3A3,3,0,0,0,19,4Zm0,4a1,1,0,1,1,1-1A1,1,0,0,1,19,8Z" />
  <path class="cls-13" d="M29,4a3,3,0,1,0,3,3A3,3,0,0,0,29,4Zm0,4a1,1,0,1,1,1-1A1,1,0,0,1,29,8Z" />
  <path class="cls-13" d="M61,86a3,3,0,1,0,3,3A3,3,0,0,0,61,86Zm0,4a1,1,0,1,1,1-1A1,1,0,0,1,61,90Z" />
  <rect class="cls-15" x="30" y="70" width="5" height="18" rx="2.5" />
  <circle class="cls-15" cx="32.5" cy="65.5" r="2.5" />
</svg>