<svg id="Layer_1" data-name="Layer 1" xmlns="http://www.w3.org/2000/svg" viewBox="0 0 96 96">
  <defs>
    <style>.cls-1{fill:#ccd1dc;}.cls-2{fill:#dee1e7;}.cls-3{fill:#f3f4f5;}.cls-4{fill:#8288a1;}.cls-5{fill:#969cb2;}.cls-6{fill:#e69c4b;}.cls-7{fill:#ecaa63;}.cls-8{fill:#5c5f7d;}.cls-9{fill:#90d1d7;}.cls-10{fill:#abd9e6;}.cls-11{fill:#cf4055;}.cls-12{fill:#f6b756;}.cls-13{fill:#85bd79;}.cls-14{fill:#39426a;}.cls-15{fill:#c3e1f5;}.cls-16{fill:#f4bb79;}</style>
  </defs>
  <title>lock, protection, privacy, website, webpage, browser, development</title>
  <polygon class="cls-1" points="85 81 95 81 95 79 95 1 1 1 1 81 73 81 85 81" />
  <path class="cls-2" d="M94,72V1H4V60A18,18,0,0,0,22,78H88A6,6,0,0,0,94,72Z" />
  <path class="cls-3" d="M11,17H87a3,3,0,0,1,3,3V71a3,3,0,0,1-3,3H62A54,54,0,0,1,8,20v0a3,3,0,0,1,3-3Z" />
  <path class="cls-4" d="M66,45V55H60V45A12,12,0,0,0,49.5,33.1,10.6,10.6,0,0,0,48,33,12,12,0,0,0,36,45V55H30V45A18,18,0,0,1,48,27q.77,0,1.5.06A18,18,0,0,1,66,45Z" />
  <path class="cls-5" d="M66,45v7h0a3,3,0,0,1-3-3V45A12,12,0,0,0,51,33a10.6,10.6,0,0,0-1.5.1,11.15,11.15,0,0,0-2-.09A12,12,0,0,0,36,45v7h0a3,3,0,0,1-3-3V45A18,18,0,0,1,49.5,27.06,18,18,0,0,1,66,45Z" />
  <rect class="cls-6" x="24" y="55" width="48" height="40" rx="2" />
  <path class="cls-7" d="M72,57V92H45A18.05,18.05,0,0,1,27,74V55H70A2,2,0,0,1,72,57Z" />
  <path class="cls-8" d="M45,73h6a0,0,0,0,1,0,0v8a3,3,0,0,1-3,3h0a3,3,0,0,1-3-3V73A0,0,0,0,1,45,73Z" />
  <circle class="cls-8" cx="48" cy="71" r="5" />
  <rect class="cls-9" x="1" y="1" width="94" height="12" />
  <path class="cls-10" d="M4,1H95a0,0,0,0,1,0,0v9a0,0,0,0,1,0,0H13A9,9,0,0,1,4,1V1A0,0,0,0,1,4,1Z" />
  <circle class="cls-11" cx="9" cy="7" r="2" />
  <circle class="cls-12" cx="19" cy="7" r="2" />
  <circle class="cls-13" cx="29" cy="7" r="2" />
  <path class="cls-14" d="M9,4a3,3,0,1,0,3,3A3,3,0,0,0,9,4ZM9,8a1,1,0,1,1,1-1A1,1,0,0,1,9,8Z" />
  <path class="cls-14" d="M19,4a3,3,0,1,0,3,3A3,3,0,0,0,19,4Zm0,4a1,1,0,1,1,1-1A1,1,0,0,1,19,8Z" />
  <path class="cls-14" d="M29,4a3,3,0,1,0,3,3A3,3,0,0,0,29,4Zm0,4a1,1,0,1,1,1-1A1,1,0,0,1,29,8Z" />
  <rect class="cls-15" x="45" y="4" width="46" height="4" rx="2" />
  <circle class="cls-15" cx="40" cy="6" r="2" />
  <path class="cls-14" d="M95,0H1A1,1,0,0,0,0,1V81a1,1,0,0,0,1,1H23V93a3,3,0,0,0,3,3H70a3,3,0,0,0,3-3V82H95a1,1,0,0,0,1-1V1A1,1,0,0,0,95,0ZM2,2H94V12H2ZM71,93a1,1,0,0,1-1,1H26a1,1,0,0,1-1-1V57a1,1,0,0,1,1-1H70a1,1,0,0,1,1,1ZM65,54H61V45a13,13,0,0,0-26,0v9H31V45a17,17,0,0,1,34,0Zm-6,0H37V45a11,11,0,0,1,22,0ZM73,80V57a3,3,0,0,0-3-3H67V45a19,19,0,0,0-38,0v9H26a3,3,0,0,0-3,3V80H2V14H94V80Z" />
  <path class="cls-14" d="M9,4a3,3,0,1,0,3,3A3,3,0,0,0,9,4ZM9,8a1,1,0,1,1,1-1A1,1,0,0,1,9,8Z" />
  <path class="cls-14" d="M19,4a3,3,0,1,0,3,3A3,3,0,0,0,19,4Zm0,4a1,1,0,1,1,1-1A1,1,0,0,1,19,8Z" />
  <path class="cls-14" d="M29,4a3,3,0,1,0,3,3A3,3,0,0,0,29,4Zm0,4a1,1,0,1,1,1-1A1,1,0,0,1,29,8Z" />
  <path class="cls-14" d="M48,65a6,6,0,0,0-6,6,5.93,5.93,0,0,0,2,4.45V81a4,4,0,0,0,8,0V75.45A5.93,5.93,0,0,0,54,71,6,6,0,0,0,48,65Zm2.4,9.18a1,1,0,0,0-.4.8v6a2,2,0,0,1-4,0V75a1,1,0,0,0-.4-.8,4,4,0,1,1,4.8,0Z" />
  <rect class="cls-16" x="62" y="68" width="6" height="22" rx="3" />
  <circle class="cls-16" cx="65" cy="62" r="3" />
</svg>