<svg id="Layer_1" data-name="Layer 1" xmlns="http://www.w3.org/2000/svg" viewBox="0 0 96 96">
  <defs>
    <style>.cls-1{fill:#ccd1dc;}.cls-2{fill:#dee1e7;}.cls-3{fill:#f3f4f5;}.cls-4{fill:#fac77d;}.cls-5{fill:#ffd69e;}.cls-6{fill:#ffe5c3;}.cls-7{fill:#85bd79;}.cls-8{fill:#90d1d7;}.cls-9{fill:#abd9e6;}.cls-10{fill:#cf4055;}.cls-11{fill:#f6b756;}.cls-12{fill:#39426a;}.cls-13{fill:#c3e1f5;}</style>
  </defs>
  <title>security, protection, safety, shield, internet, website, webpage, browser, development</title>
  <polygon class="cls-1" points="85 81 95 81 95 79 95 1 1 1 1 81 73 81 85 81" />
  <path class="cls-2" d="M94,72V1H4V60A18,18,0,0,0,22,78H88A6,6,0,0,0,94,72Z" />
  <path class="cls-3" d="M11,17H87a3,3,0,0,1,3,3V71a3,3,0,0,1-3,3H62A54,54,0,0,1,8,20v0a3,3,0,0,1,3-3Z" />
  <path class="cls-4" d="M73,44V60.75A36,36,0,0,1,48,95,36,36,0,0,1,23,60.75V44L48,34Z" />
  <path class="cls-5" d="M73,44V55.75A36,36,0,0,1,49.5,89.48,36,36,0,0,1,26,55.75V44l23.5-9.4Z" />
  <path class="cls-5" d="M73,44V55.75A36,36,0,0,1,49.5,89.48,36,36,0,0,1,26,55.75V44l23.5-9.4Z" />
  <path class="cls-6" d="M58.84,80.45a14.16,14.16,0,0,1-18.68,0A33.07,33.07,0,0,1,29,55.75h0a14.35,14.35,0,0,1,9-13.33L44.17,40a14.34,14.34,0,0,1,10.66,0L61,42.42a14.35,14.35,0,0,1,9,13.33h0A33.07,33.07,0,0,1,58.84,80.45Z" />
  <polygon class="cls-7" points="62 51 43 70 34 61 31 64 43 76 65 54 62 51" />
  <rect class="cls-8" x="1" y="1" width="94" height="12" />
  <path class="cls-9" d="M4,1H95a0,0,0,0,1,0,0v9a0,0,0,0,1,0,0H13A9,9,0,0,1,4,1V1A0,0,0,0,1,4,1Z" />
  <circle class="cls-10" cx="9" cy="7" r="2" />
  <circle class="cls-11" cx="19" cy="7" r="2" />
  <circle class="cls-7" cx="29" cy="7" r="2" />
  <path class="cls-12" d="M9,4a3,3,0,1,0,3,3A3,3,0,0,0,9,4ZM9,8a1,1,0,1,1,1-1A1,1,0,0,1,9,8Z" />
  <path class="cls-12" d="M19,4a3,3,0,1,0,3,3A3,3,0,0,0,19,4Zm0,4a1,1,0,1,1,1-1A1,1,0,0,1,19,8Z" />
  <path class="cls-12" d="M29,4a3,3,0,1,0,3,3A3,3,0,0,0,29,4Zm0,4a1,1,0,1,1,1-1A1,1,0,0,1,29,8Z" />
  <rect class="cls-13" x="45" y="4" width="46" height="4" rx="2" />
  <circle class="cls-13" cx="40" cy="6" r="2" />
  <path class="cls-12" d="M95,0H1A1,1,0,0,0,0,1V81a1,1,0,0,0,1,1H28.69a36.85,36.85,0,0,0,19,14,.93.93,0,0,0,.6,0,36.85,36.85,0,0,0,19-14H95a1,1,0,0,0,1-1V1A1,1,0,0,0,95,0ZM2,2H94V12H2ZM48,94a34.84,34.84,0,0,1-24-33.2V44.68l24-9.6,24,9.6V60.75A34.84,34.84,0,0,1,48,94ZM68.62,80A36.93,36.93,0,0,0,74,60.75V44a1,1,0,0,0-.63-.93l-25-10a1,1,0,0,0-.74,0l-25,10A1,1,0,0,0,22,44V60.75A36.93,36.93,0,0,0,27.38,80H2V14H94V80Z" />
  <path class="cls-12" d="M9,4a3,3,0,1,0,3,3A3,3,0,0,0,9,4ZM9,8a1,1,0,1,1,1-1A1,1,0,0,1,9,8Z" />
  <path class="cls-12" d="M19,4a3,3,0,1,0,3,3A3,3,0,0,0,19,4Zm0,4a1,1,0,1,1,1-1A1,1,0,0,1,19,8Z" />
  <path class="cls-12" d="M29,4a3,3,0,1,0,3,3A3,3,0,0,0,29,4Zm0,4a1,1,0,1,1,1-1A1,1,0,0,1,29,8Z" />
  <path class="cls-12" d="M62.71,50.29a1,1,0,0,0-1.42,0L43,68.59l-8.29-8.3a1,1,0,0,0-1.42,0l-3,3a1,1,0,0,0,0,1.42l12,12a1,1,0,0,0,1.42,0l22-22a1,1,0,0,0,0-1.42ZM43,74.59,32.41,64,34,62.41l8.29,8.3a1,1,0,0,0,1.42,0L62,52.41,63.59,54Z" />
</svg>