<svg id="Layer_1" data-name="Layer 1" xmlns="http://www.w3.org/2000/svg" viewBox="0 0 96 96">
  <defs>
    <style>.cls-1{fill:#ccd1dc;}.cls-2{fill:#dee1e7;}.cls-3{fill:#f3f4f5;}.cls-4{fill:#90d1d7;}.cls-5{fill:#85bd79;}.cls-6{fill:#9fc98a;}.cls-7{fill:#abd9e6;}.cls-8{fill:#c3e1f5;}.cls-9{fill:#bbd79f;}.cls-10{fill:#cf4055;}.cls-11{fill:#f6b756;}.cls-12{fill:#39426a;}</style>
  </defs>
  <title>download, cloud, storage, arrow, down, website, webpage, browser, development</title>
  <polygon class="cls-1" points="85 88 95 88 95 86 95 8 1 8 1 88 73 88 85 88" />
  <path class="cls-2" d="M94,79V8H4V67A18,18,0,0,0,22,85H88A6,6,0,0,0,94,79Z" />
  <path class="cls-3" d="M11,24H87a3,3,0,0,1,3,3V78a3,3,0,0,1-3,3H62A54,54,0,0,1,8,27v0a3,3,0,0,1,3-3Z" />
  <path class="cls-4" d="M76,53a8,8,0,0,1-8,8H28a8,8,0,0,1-8-8,8.24,8.24,0,0,1,.25-2A8,8,0,0,1,28,45h.08A14.91,14.91,0,0,1,28,43.5a17.5,17.5,0,0,1,33.55-7A6,6,0,0,1,69.65,40a5.3,5.3,0,0,1,.3,1.25A6.3,6.3,0,0,1,70,42a6,6,0,0,1-.86,3.09A8,8,0,0,1,76,53Z" />
  <polygon class="cls-5" points="59 69 50.58 78.18 48 81 37 69 42 69 42 56 54 56 54 69 59 69" />
  <path class="cls-6" d="M59,69l-8.42,9.18A14,14,0,0,1,45,67V56h9V69Z" />
  <path class="cls-7" d="M75.75,51A8,8,0,0,1,68,57H28a8,8,0,0,1-7.75-6A8,8,0,0,1,28,45h.08A14.91,14.91,0,0,1,28,43.5a17.5,17.5,0,0,1,33.55-7A6,6,0,0,1,69.65,40a5.72,5.72,0,0,1-.51,1.09,7.73,7.73,0,0,1,.81.16A6.3,6.3,0,0,1,70,42a6,6,0,0,1-.86,3.09A8,8,0,0,1,75.75,51Z" />
  <path class="cls-8" d="M56.05,40.93a2,2,0,0,1-1.84-1.21A9.51,9.51,0,0,0,45.5,34a2,2,0,0,1,0-4,13.51,13.51,0,0,1,12.38,8.13,2,2,0,0,1-1,2.63A2.05,2.05,0,0,1,56.05,40.93Z" />
  <rect class="cls-9" x="48" y="64" width="3" height="10" rx="1.5" />
  <rect class="cls-4" x="1" y="8" width="94" height="12" />
  <path class="cls-7" d="M4,8H95a0,0,0,0,1,0,0v9a0,0,0,0,1,0,0H13A9,9,0,0,1,4,8V8A0,0,0,0,1,4,8Z" />
  <circle class="cls-10" cx="9" cy="14" r="2" />
  <circle class="cls-11" cx="19" cy="14" r="2" />
  <circle class="cls-5" cx="29" cy="14" r="2" />
  <path class="cls-12" d="M9,11a3,3,0,1,0,3,3A3,3,0,0,0,9,11Zm0,4a1,1,0,1,1,1-1A1,1,0,0,1,9,15Z" />
  <path class="cls-12" d="M19,11a3,3,0,1,0,3,3A3,3,0,0,0,19,11Zm0,4a1,1,0,1,1,1-1A1,1,0,0,1,19,15Z" />
  <path class="cls-12" d="M29,11a3,3,0,1,0,3,3A3,3,0,0,0,29,11Zm0,4a1,1,0,1,1,1-1A1,1,0,0,1,29,15Z" />
  <rect class="cls-8" x="45" y="11" width="46" height="4" rx="2" />
  <circle class="cls-8" cx="40" cy="13" r="2" />
  <path class="cls-12" d="M95,7H1A1,1,0,0,0,0,8V88a1,1,0,0,0,1,1H95a1,1,0,0,0,1-1V8A1,1,0,0,0,95,7ZM2,9H94V19H2ZM2,87V21H94V87Z" />
  <path class="cls-12" d="M9,11a3,3,0,1,0,3,3A3,3,0,0,0,9,11Zm0,4a1,1,0,1,1,1-1A1,1,0,0,1,9,15Z" />
  <path class="cls-12" d="M19,11a3,3,0,1,0,3,3A3,3,0,0,0,19,11Zm0,4a1,1,0,1,1,1-1A1,1,0,0,1,19,15Z" />
  <path class="cls-12" d="M29,11a3,3,0,1,0,3,3A3,3,0,0,0,29,11Zm0,4a1,1,0,1,1,1-1A1,1,0,0,1,29,15Z" />
  <path class="cls-12" d="M70.58,44.38A6.9,6.9,0,0,0,71,42a7,7,0,0,0-7-7,6.92,6.92,0,0,0-1.93.27A18.5,18.5,0,0,0,27,43.5c0,.18,0,.37,0,.55a9,9,0,0,0,1,18H41v7H37a1,1,0,0,0-.92.6,1,1,0,0,0,.18,1.08l11,12a1,1,0,0,0,1.48,0l11-12a1,1,0,0,0,.18-1.08A1,1,0,0,0,59,69H55V62H68a9,9,0,0,0,2.58-17.62ZM56.73,71,48,80.52,39.27,71H42a1,1,0,0,0,1-1V57H53V70a1,1,0,0,0,1,1ZM68,60H55V57h2a1,1,0,0,0,0-2H39a1,1,0,0,0,0,2h2v3H28a7,7,0,1,1,.08-14,1,1,0,0,0,.74-.33,1,1,0,0,0,.26-.77A11.6,11.6,0,0,1,29,43.5a16.5,16.5,0,0,1,31.63-6.57,1,1,0,0,0,.56.53,1,1,0,0,0,.77,0A5,5,0,0,1,69,42a5,5,0,0,1-.72,2.58,1,1,0,0,0,0,.94,1,1,0,0,0,.76.56A7,7,0,0,1,68,60Z" />
</svg>