<svg id="Layer_1" data-name="Layer 1" xmlns="http://www.w3.org/2000/svg" viewBox="0 0 96 96">
  <defs>
    <style>.cls-1{fill:#ccd1dc;}.cls-2{fill:#dee1e7;}.cls-3{fill:#f3f4f5;}.cls-4{fill:#8288a1;}.cls-5{fill:#b8c0ce;}.cls-6{fill:#aeb4c6;}.cls-7{fill:#cf4055;}.cls-8{fill:#dc5d6b;}.cls-9{fill:#90d1d7;}.cls-10{fill:#abd9e6;}.cls-11{fill:#f6b756;}.cls-12{fill:#85bd79;}.cls-13{fill:#39426a;}.cls-14{fill:#c3e1f5;}</style>
  </defs>
  <title>timer, time, clock, stopwatch, deadline, website, webpage</title>
  <polygon class="cls-1" points="85 81 95 81 95 79 95 1 1 1 1 81 73 81 85 81" />
  <path class="cls-2" d="M94,72V1H4V60A18,18,0,0,0,22,78H88A6,6,0,0,0,94,72Z" />
  <path class="cls-3" d="M11,17H87a3,3,0,0,1,3,3V71a3,3,0,0,1-3,3H62A54,54,0,0,1,8,20v0a3,3,0,0,1,3-3Z" />
  <polyline class="cls-4" points="45 39.16 45 33 51 33 51 39.16" />
  <rect class="cls-5" x="41" y="28" width="14" height="5" rx="2.5" />
  <path class="cls-6" d="M65.56,45.2l2.2-2.2A3,3,0,0,1,72,43h0a3,3,0,0,1,0,4.24l-2.2,2.2" />
  <path class="cls-6" d="M26.2,49.44,24,47.24A3,3,0,0,1,24,43h0a3,3,0,0,1,4.24,0l2.2,2.2" />
  <circle class="cls-7" cx="48" cy="67" r="28" />
  <circle class="cls-8" cx="48" cy="67" r="25" />
  <circle class="cls-1" cx="48" cy="67" r="22" />
  <circle class="cls-2" cx="48" cy="67" r="18" />
  <circle class="cls-3" cx="48" cy="67" r="12" />
  <rect class="cls-9" x="1" y="1" width="94" height="12" />
  <path class="cls-10" d="M4,1H95a0,0,0,0,1,0,0v9a0,0,0,0,1,0,0H13A9,9,0,0,1,4,1V1A0,0,0,0,1,4,1Z" />
  <circle class="cls-7" cx="9" cy="7" r="2" />
  <circle class="cls-11" cx="19" cy="7" r="2" />
  <circle class="cls-12" cx="29" cy="7" r="2" />
  <path class="cls-13" d="M9,4a3,3,0,1,0,3,3A3,3,0,0,0,9,4ZM9,8a1,1,0,1,1,1-1A1,1,0,0,1,9,8Z" />
  <path class="cls-13" d="M19,4a3,3,0,1,0,3,3A3,3,0,0,0,19,4Zm0,4a1,1,0,1,1,1-1A1,1,0,0,1,19,8Z" />
  <path class="cls-13" d="M29,4a3,3,0,1,0,3,3A3,3,0,0,0,29,4Zm0,4a1,1,0,1,1,1-1A1,1,0,0,1,29,8Z" />
  <rect class="cls-14" x="45" y="4" width="46" height="4" rx="2" />
  <circle class="cls-14" cx="40" cy="6" r="2" />
  <path class="cls-13" d="M95,0H1A1,1,0,0,0,0,1V81a1,1,0,0,0,1,1H23.19a29,29,0,0,0,49.62,0H95a1,1,0,0,0,1-1V1A1,1,0,0,0,95,0ZM2,2H94V12H2ZM48,94A27,27,0,1,1,75,67,27,27,0,0,1,48,94ZM26.14,48l-1.43-1.44a2,2,0,0,1,0-2.82,2,2,0,0,1,2.82,0L29,45.14A31.49,31.49,0,0,0,26.14,48ZM51,32H43.5a1.5,1.5,0,0,1,0-3h9a1.5,1.5,0,0,1,0,3Zm-1,2v4.08c-.66,0-1.33-.08-2-.08s-1.34,0-2,.08V34ZM67,45.14l1.44-1.43a2,2,0,0,1,2.82,0,2,2,0,0,1,0,2.82L69.86,48A31.49,31.49,0,0,0,67,45.14ZM73.91,80a28.91,28.91,0,0,0-2.78-30.47L72.71,48a4,4,0,0,0-5.66-5.66l-1.58,1.58A28.88,28.88,0,0,0,52,38.28V34h.5a3.5,3.5,0,0,0,0-7h-9a3.5,3.5,0,0,0,0,7H44v4.28a28.88,28.88,0,0,0-13.47,5.59L29,42.29A4,4,0,0,0,23.29,48l1.58,1.58A28.91,28.91,0,0,0,22.09,80H2V14H94V80Z" />
  <path class="cls-13" d="M9,4a3,3,0,1,0,3,3A3,3,0,0,0,9,4ZM9,8a1,1,0,1,1,1-1A1,1,0,0,1,9,8Z" />
  <path class="cls-13" d="M19,4a3,3,0,1,0,3,3A3,3,0,0,0,19,4Zm0,4a1,1,0,1,1,1-1A1,1,0,0,1,19,8Z" />
  <path class="cls-13" d="M29,4a3,3,0,1,0,3,3A3,3,0,0,0,29,4Zm0,4a1,1,0,1,1,1-1A1,1,0,0,1,29,8Z" />
  <path class="cls-13" d="M48,44A23,23,0,1,0,71,67,23,23,0,0,0,48,44Zm0,44A21,21,0,1,1,69,67,21,21,0,0,1,48,88Z" />
  <path class="cls-13" d="M48,70a3,3,0,0,0,1-5.82V55a1,1,0,0,0-2,0v9.18A3,3,0,0,0,48,70Zm0-4a1,1,0,1,1-1,1A1,1,0,0,1,48,66Z" />
  <path class="cls-5" d="M48,80a12.93,12.93,0,0,0,9.21-3.81,1,1,0,1,0-1.42-1.42A11,11,0,0,1,40.21,59.21a1,1,0,0,0-1.42-1.42A13,13,0,0,0,48,80Z" />
  <path class="cls-13" d="M48,52a1,1,0,0,0,1-1V48a1,1,0,0,0-2,0v3A1,1,0,0,0,48,52Z" />
  <path class="cls-13" d="M48,82a1,1,0,0,0-1,1v3a1,1,0,0,0,2,0V83A1,1,0,0,0,48,82Z" />
  <path class="cls-13" d="M67,66H64a1,1,0,0,0,0,2h3a1,1,0,0,0,0-2Z" />
  <path class="cls-13" d="M33,67a1,1,0,0,0-1-1H29a1,1,0,0,0,0,2h3A1,1,0,0,0,33,67Z" />
  <path class="cls-13" d="M57.87,82.09a1,1,0,0,0-1.74,1l.5.86a1,1,0,0,0,.87.5,1,1,0,0,0,.87-1.5Z" />
  <path class="cls-13" d="M38.13,51.91a1,1,0,0,0,1.74-1l-.5-.86a1,1,0,0,0-1.74,1Z" />
  <path class="cls-13" d="M39.5,81.72a1,1,0,0,0-1.37.37l-.5.86a1,1,0,0,0,.87,1.5,1,1,0,0,0,.87-.5l.5-.86A1,1,0,0,0,39.5,81.72Z" />
  <path class="cls-13" d="M58,49.68a1,1,0,0,0-1.37.37l-.5.86a1,1,0,0,0,1.74,1l.5-.86A1,1,0,0,0,58,49.68Z" />
  <path class="cls-13" d="M31.91,75.13l-.86.5a1,1,0,0,0,1,1.74l.86-.5a1,1,0,1,0-1-1.74Z" />
  <path class="cls-13" d="M63.59,59a1,1,0,0,0,.5-.13l.86-.5a1,1,0,0,0-1-1.74l-.86.5a1,1,0,0,0,.5,1.87Z" />
  <path class="cls-13" d="M32.91,57.13l-.86-.5a1,1,0,1,0-1,1.74l.86.5a1,1,0,1,0,1-1.74Z" />
  <path class="cls-13" d="M65,75.63l-.86-.5a1,1,0,1,0-1,1.74l.86.5a1,1,0,0,0,.5.13,1,1,0,0,0,.5-1.87Z" />
</svg>