<svg id="Layer_1" data-name="Layer 1" xmlns="http://www.w3.org/2000/svg" viewBox="0 0 96 96">
  <defs>
    <style>.cls-1{fill:#ccd1dc;}.cls-2{fill:#dee1e7;}.cls-3{fill:#f3f4f5;}.cls-4{fill:#b8c0ce;}.cls-5{fill:#8288a1;}.cls-6{fill:#969cb2;}.cls-7{fill:#7190c4;}.cls-8{fill:#c3d2e7;}.cls-9{fill:#90d1d7;}.cls-10{fill:#abd9e6;}.cls-11{fill:#cf4055;}.cls-12{fill:#f6b756;}.cls-13{fill:#85bd79;}.cls-14{fill:#39426a;}.cls-15{fill:#c3e1f5;}</style>
  </defs>
  <title>search, find, magnifier, options, preferences, browser, webpage</title>
  <polygon class="cls-1" points="85 81 95 81 95 79 95 1 1 1 1 81 73 81 85 81" />
  <path class="cls-2" d="M94,72V1H4V60A18,18,0,0,0,22,78H88A6,6,0,0,0,94,72Z" />
  <path class="cls-3" d="M11,17H87a3,3,0,0,1,3,3V71a3,3,0,0,1-3,3H62A54,54,0,0,1,8,20v0a3,3,0,0,1,3-3Z" />
  <rect class="cls-4" x="65.25" y="66.36" width="6" height="7.78" transform="translate(-29.68 68.84) rotate(-45)" />
  <path class="cls-5" d="M93,90.76a4,4,0,0,1-.27,1.47,4.24,4.24,0,0,1-7,1.53L68,76l6-6L91.76,87.76A4.25,4.25,0,0,1,93,90.76Z" />
  <path class="cls-6" d="M93,90.76a4,4,0,0,1-.27,1.47,4,4,0,0,1-1.47.27,4.25,4.25,0,0,1-3-1.24L70.5,73.5,74,70,91.76,87.76A4.25,4.25,0,0,1,93,90.76Z" />
  <circle class="cls-7" cx="48" cy="50" r="25" />
  <circle class="cls-8" cx="48" cy="50" r="20" />
  <path class="cls-5" d="M45,65h6V62.64a13.22,13.22,0,0,0,3.81-1.58l1.68,1.67,4.24-4.24-1.67-1.68A13.22,13.22,0,0,0,60.64,53H63V47H60.64a13.22,13.22,0,0,0-1.58-3.81l1.67-1.68-4.24-4.24-1.68,1.67A13.22,13.22,0,0,0,51,37.36V35H45v2.36a13.22,13.22,0,0,0-3.81,1.58l-1.68-1.67-4.24,4.24,1.67,1.68A13.22,13.22,0,0,0,35.36,47H33v6h2.36a13.22,13.22,0,0,0,1.58,3.81l-1.67,1.68,4.24,4.24,1.68-1.67A13.22,13.22,0,0,0,45,62.64Z" />
  <circle class="cls-8" cx="48" cy="50" r="7" />
  <rect class="cls-9" x="1" y="1" width="94" height="12" />
  <path class="cls-10" d="M4,1H95a0,0,0,0,1,0,0v9a0,0,0,0,1,0,0H13A9,9,0,0,1,4,1V1A0,0,0,0,1,4,1Z" />
  <circle class="cls-11" cx="9" cy="7" r="2" />
  <circle class="cls-12" cx="19" cy="7" r="2" />
  <circle class="cls-13" cx="29" cy="7" r="2" />
  <path class="cls-14" d="M95,0H1A1,1,0,0,0,0,1V81a1,1,0,0,0,1,1H72.59L85.05,94.46a5.24,5.24,0,1,0,7.41-7.41l-5-5H95a1,1,0,0,0,1-1V1A1,1,0,0,0,95,0ZM2,2H94V12H2ZM92,90.76a3.25,3.25,0,0,1-5.54,2.29L73.71,80.29h0L69.41,76l.18-.17,4.24-4.24.17-.18,10.29,10.3h0l6.76,6.75A3.25,3.25,0,0,1,92,90.76ZM48,74a24,24,0,1,1,19-9.41l-.13.08-4.24,4.24-.08.13A23.86,23.86,0,0,1,48,74Zm19.73-7.1,4,4-2.83,2.83-4-4A25.21,25.21,0,0,0,67.73,66.9ZM85.41,80,74.71,69.29a1,1,0,0,0-1.42,0l-.17.17L69,65.33A26,26,0,1,0,63.33,71l4.13,4.14-.17.17a1,1,0,0,0,0,1.42L70.59,80H2V14H94V80Z" />
  <path class="cls-14" d="M9,4a3,3,0,1,0,3,3A3,3,0,0,0,9,4ZM9,8a1,1,0,1,1,1-1A1,1,0,0,1,9,8Z" />
  <path class="cls-14" d="M19,4a3,3,0,1,0,3,3A3,3,0,0,0,19,4Zm0,4a1,1,0,1,1,1-1A1,1,0,0,1,19,8Z" />
  <path class="cls-14" d="M29,4a3,3,0,1,0,3,3A3,3,0,0,0,29,4Zm0,4a1,1,0,1,1,1-1A1,1,0,0,1,29,8Z" />
  <path class="cls-14" d="M69,50A21,21,0,1,0,48,71,21,21,0,0,0,69,50ZM48,69A19,19,0,1,1,67,50,19,19,0,0,1,48,69Z" />
  <path class="cls-14" d="M63,46H61.41a15,15,0,0,0-1.1-2.65l1.13-1.13a1,1,0,0,0,0-1.41l-4.25-4.25a1,1,0,0,0-1.41,0l-1.13,1.13A15,15,0,0,0,52,36.59V35a1,1,0,0,0-1-1H45a1,1,0,0,0-1,1v1.59a15,15,0,0,0-2.65,1.1l-1.13-1.13a1,1,0,0,0-1.41,0l-4.25,4.25a1,1,0,0,0,0,1.41l1.13,1.13A15,15,0,0,0,34.59,46H33a1,1,0,0,0-1,1v6a1,1,0,0,0,1,1h1.59a15,15,0,0,0,1.1,2.65l-1.13,1.13a1,1,0,0,0,0,1.41l4.25,4.25a1,1,0,0,0,1.41,0l1.13-1.13A15,15,0,0,0,44,63.41V65a1,1,0,0,0,1,1h6a1,1,0,0,0,1-1V63.41a15,15,0,0,0,2.65-1.1l1.13,1.13a1,1,0,0,0,1.41,0l4.25-4.25a1,1,0,0,0,0-1.41l-1.13-1.13A15,15,0,0,0,61.41,54H63a1,1,0,0,0,1-1V47A1,1,0,0,0,63,46Zm-1,6H60.64a1,1,0,0,0-1,.77,12.2,12.2,0,0,1-1.46,3.52,1,1,0,0,0,.14,1.23l1,1-2.82,2.82-1-1a1,1,0,0,0-1.23-.14,12.2,12.2,0,0,1-3.52,1.46,1,1,0,0,0-.77,1V64H46V62.64a1,1,0,0,0-.77-1,12.2,12.2,0,0,1-3.52-1.46,1,1,0,0,0-1.23.14l-1,1-2.82-2.82,1-1a1,1,0,0,0,.14-1.23,12.2,12.2,0,0,1-1.46-3.52,1,1,0,0,0-1-.77H34V48h1.36a1,1,0,0,0,1-.77,12.2,12.2,0,0,1,1.46-3.52,1,1,0,0,0-.14-1.23l-1-1,2.82-2.82,1,1a1,1,0,0,0,1.23.14,12.2,12.2,0,0,1,3.52-1.46,1,1,0,0,0,.77-1V36h4v1.36a1,1,0,0,0,.77,1,12.2,12.2,0,0,1,3.52,1.46,1,1,0,0,0,1.23-.14l1-1,2.82,2.82-1,1a1,1,0,0,0-.14,1.23,12.2,12.2,0,0,1,1.46,3.52,1,1,0,0,0,1,.77H62Z" />
  <path class="cls-14" d="M48,42a8,8,0,1,0,8,8A8,8,0,0,0,48,42Zm0,14a6,6,0,1,1,6-6A6,6,0,0,1,48,56Z" />
  <rect class="cls-15" x="45" y="4" width="46" height="4" rx="2" />
  <circle class="cls-15" cx="40" cy="6" r="2" />
</svg>