<svg id="Layer_1" data-name="Layer 1" xmlns="http://www.w3.org/2000/svg" viewBox="0 0 96 96">
  <defs>
    <style>.cls-1{fill:#ccd1dc;}.cls-2{fill:#dee1e7;}.cls-3{fill:#f3f4f5;}.cls-4{fill:#dc5d6b;}.cls-5{fill:#90d1d7;}.cls-6{fill:#abd9e6;}.cls-7{fill:#cf4055;}.cls-8{fill:#f6b756;}.cls-9{fill:#85bd79;}.cls-10{fill:#39426a;}.cls-11{fill:#c3e1f5;}</style>
  </defs>
  <title>block, cancel, website, webpage, browser, development</title>
  <polygon class="cls-1" points="85 81 95 81 95 79 95 1 1 1 1 81 73 81 85 81" />
  <path class="cls-2" d="M94,72V1H4V60A18,18,0,0,0,22,78H88A6,6,0,0,0,94,72Z" />
  <path class="cls-3" d="M11,17H87a3,3,0,0,1,3,3V71a3,3,0,0,1-3,3H62A54,54,0,0,1,8,20v0a3,3,0,0,1,3-3Z" />
  <path class="cls-4" d="M48,37A29,29,0,1,0,77,66,29,29,0,0,0,48,37ZM25,66A23,23,0,0,1,62,47.76L29.76,80A22.9,22.9,0,0,1,25,66ZM48,89a22.9,22.9,0,0,1-14-4.76L66.24,52A23,23,0,0,1,48,89Z" />
  <rect class="cls-5" x="1" y="1" width="94" height="12" />
  <path class="cls-6" d="M4,1H95a0,0,0,0,1,0,0v9a0,0,0,0,1,0,0H13A9,9,0,0,1,4,1V1A0,0,0,0,1,4,1Z" />
  <circle class="cls-7" cx="9" cy="7" r="2" />
  <circle class="cls-8" cx="19" cy="7" r="2" />
  <circle class="cls-9" cx="29" cy="7" r="2" />
  <path class="cls-10" d="M9,4a3,3,0,1,0,3,3A3,3,0,0,0,9,4ZM9,8a1,1,0,1,1,1-1A1,1,0,0,1,9,8Z" />
  <path class="cls-10" d="M19,4a3,3,0,1,0,3,3A3,3,0,0,0,19,4Zm0,4a1,1,0,1,1,1-1A1,1,0,0,1,19,8Z" />
  <path class="cls-10" d="M29,4a3,3,0,1,0,3,3A3,3,0,0,0,29,4Zm0,4a1,1,0,1,1,1-1A1,1,0,0,1,29,8Z" />
  <rect class="cls-11" x="45" y="4" width="46" height="4" rx="2" />
  <circle class="cls-11" cx="40" cy="6" r="2" />
  <path class="cls-10" d="M95,0H1A1,1,0,0,0,0,1V81a1,1,0,0,0,1,1H22.64a30,30,0,0,0,50.72,0H95a1,1,0,0,0,1-1V1A1,1,0,0,0,95,0ZM2,2H94V12H2ZM48,94A28,28,0,1,1,76,66,28,28,0,0,1,48,94ZM74.52,80a30,30,0,1,0-53,0H2V14H94V80Z" />
  <path class="cls-10" d="M9,4a3,3,0,1,0,3,3A3,3,0,0,0,9,4ZM9,8a1,1,0,1,1,1-1A1,1,0,0,1,9,8Z" />
  <path class="cls-10" d="M19,4a3,3,0,1,0,3,3A3,3,0,0,0,19,4Zm0,4a1,1,0,1,1,1-1A1,1,0,0,1,19,8Z" />
  <path class="cls-10" d="M29,4a3,3,0,1,0,3,3A3,3,0,0,0,29,4Zm0,4a1,1,0,1,1,1-1A1,1,0,0,1,29,8Z" />
  <path class="cls-10" d="M63,47.69a1,1,0,0,0-.39-.72A23.78,23.78,0,0,0,48,42,24,24,0,0,0,24,66a23.78,23.78,0,0,0,5,14.61,1,1,0,0,0,.72.39h.07a1,1,0,0,0,.71-.29L62.71,48.47A1,1,0,0,0,63,47.69ZM29.88,78.47A21.8,21.8,0,0,1,26,66,22,22,0,0,1,48,44a21.8,21.8,0,0,1,12.47,3.88Z" />
  <path class="cls-10" d="M67,51.39a1,1,0,0,0-.72-.39,1,1,0,0,0-.78.29l-29,29h0l-3.24,3.24a1,1,0,0,0-.29.78,1,1,0,0,0,.39.72,24,24,0,0,0,32.73-3.32s0,0,0,0A23.93,23.93,0,0,0,67,51.39Zm-.91,2.14A22,22,0,0,1,65,80H39.65ZM35.53,84.12,37.65,82H63.08a22,22,0,0,1-27.55,2.12Z" />
</svg>