<svg id="Layer_1" data-name="Layer 1" xmlns="http://www.w3.org/2000/svg" viewBox="0 0 96 96">
  <defs>
    <style>.cls-1{fill:#ccd1dc;}.cls-2{fill:#dee1e7;}.cls-3{fill:#f3f4f5;}.cls-4{fill:#8288a1;}.cls-5{fill:#969cb2;}.cls-6{fill:#7190c4;}.cls-7{fill:#abd9e6;}.cls-8{fill:#c3e1f5;}.cls-9{fill:#cf4055;}.cls-10{fill:#dc5d6b;}.cls-11{fill:#e47980;}.cls-12{fill:#90d1d7;}.cls-13{fill:#f6b756;}.cls-14{fill:#85bd79;}.cls-15{fill:#39426a;}</style>
  </defs>
  <title>bug, search, find, scan, magnifier, website, webpage, browser</title>
  <polygon class="cls-1" points="85 81 95 81 95 79 95 1 1 1 1 81 73 81 85 81" />
  <path class="cls-2" d="M94,72V1H4V60A18,18,0,0,0,22,78H88A6,6,0,0,0,94,72Z" />
  <path class="cls-3" d="M11,17H87a3,3,0,0,1,3,3V71a3,3,0,0,1-3,3H62A54,54,0,0,1,8,20v0A3,3,0,0,1,11,17Z" />
  <path class="cls-4" d="M52,68.68V91a4,4,0,0,1-4,4,4,4,0,0,1-4-4V68.68Z" />
  <path class="cls-5" d="M52,68.68V91a4,4,0,0,1-.74,2.31H51a4,4,0,0,1-4-4V68.68Z" />
  <circle class="cls-6" cx="48" cy="44" r="25" />
  <circle class="cls-7" cx="48" cy="44" r="20" />
  <path class="cls-8" d="M63,46a2,2,0,0,1-2-2A13,13,0,0,0,48,31a2,2,0,0,1,0-4A17,17,0,0,1,65,44,2,2,0,0,1,63,46Z" />
  <path class="cls-8" d="M48,61A17,17,0,0,1,31,44a2,2,0,0,1,4,0A13,13,0,0,0,48,57a2,2,0,0,1,0,4Z" />
  <path class="cls-9" d="M54,45a11.65,11.65,0,0,1-1.55,6A5.36,5.36,0,0,1,48,54c-3.31,0-6-4-6-9,0-4,1.7-7.31,4-8.51A4.18,4.18,0,0,1,48,36C51.31,36,54,40,54,45Z" />
  <path class="cls-10" d="M54,45a11.65,11.65,0,0,1-1.55,6,4.18,4.18,0,0,1-2,.49c-3.31,0-6-4-6-9a11.65,11.65,0,0,1,1.55-6A4.18,4.18,0,0,1,48,36C51.31,36,54,40,54,45Z" />
  <ellipse class="cls-11" cx="50" cy="42" rx="3" ry="5" />
  <rect class="cls-12" x="1" y="1" width="94" height="12" />
  <path class="cls-7" d="M4,1H95a0,0,0,0,1,0,0v9a0,0,0,0,1,0,0H13A9,9,0,0,1,4,1V1A0,0,0,0,1,4,1Z" />
  <circle class="cls-9" cx="9" cy="7" r="2" />
  <circle class="cls-13" cx="19" cy="7" r="2" />
  <circle class="cls-14" cx="29" cy="7" r="2" />
  <rect class="cls-8" x="45" y="4" width="46" height="4" rx="2" />
  <circle class="cls-8" cx="40" cy="6" r="2" />
  <path class="cls-15" d="M48,23A21,21,0,1,0,69,44,21,21,0,0,0,48,23Zm0,40A19,19,0,1,1,67,44,19,19,0,0,1,48,63Z" />
  <path class="cls-15" d="M55,44q0-.55-.12-1.11A5.39,5.39,0,0,0,59,39.31a1,1,0,1,0-1.9-.62A3.39,3.39,0,0,1,54.42,41a9.64,9.64,0,0,0-2.69-4.45,4,4,0,0,0-.9-4.21,1,1,0,0,0-1.42,1.42A2,2,0,0,1,50,35.39a5.17,5.17,0,0,0-3.94,0,2,2,0,0,1,.56-1.68,1,1,0,0,0-1.42-1.42,4,4,0,0,0-.9,4.21A9.64,9.64,0,0,0,41.58,41,3.39,3.39,0,0,1,39,38.69a1,1,0,0,0-1.9.62,5.39,5.39,0,0,0,4.1,3.59q-.07.56-.12,1.11a4.6,4.6,0,0,0-3.93,2.55,1,1,0,0,0,.46,1.34A1,1,0,0,0,38,48a1,1,0,0,0,.9-.56A2.58,2.58,0,0,1,41,46a13.51,13.51,0,0,0,.54,3A4,4,0,0,0,38,53a1,1,0,0,0,2,0,2,2,0,0,1,2-2h.37c1.27,2.44,3.3,4,5.63,4s4.36-1.56,5.63-4H54a2,2,0,0,1,2,2,1,1,0,0,0,2,0,4,4,0,0,0-3.58-4A13.51,13.51,0,0,0,55,46a2.58,2.58,0,0,1,2.14,1.41A1,1,0,0,0,58,48a1,1,0,0,0,.44-.1,1,1,0,0,0,.46-1.34A4.6,4.6,0,0,0,55,44Zm-6,8.82V43h2a1,1,0,0,0,0-2H45a1,1,0,0,0,0,2h2v9.83c-2.25-.76-4-4-4-7.83,0-4.34,2.29-8,5-8s5,3.66,5,8C53,48.79,51.25,52.07,49,52.83Z" />
  <path class="cls-15" d="M95,0H1A1,1,0,0,0,0,1V81a1,1,0,0,0,1,1H43v9a5,5,0,0,0,10,0V82H95a1,1,0,0,0,1-1V1A1,1,0,0,0,95,0ZM2,2H94V12H2ZM48,68A24,24,0,1,1,72,44,24,24,0,0,1,48,68Zm3,23a3,3,0,1,1-6,0V69.82a25.09,25.09,0,0,0,6,0Zm2-11V69.51a26,26,0,1,0-10,0V80H2V14H94V80Z" />
  <path class="cls-15" d="M9,4a3,3,0,1,0,3,3A3,3,0,0,0,9,4ZM9,8a1,1,0,1,1,1-1A1,1,0,0,1,9,8Z" />
  <path class="cls-15" d="M19,4a3,3,0,1,0,3,3A3,3,0,0,0,19,4Zm0,4a1,1,0,1,1,1-1A1,1,0,0,1,19,8Z" />
  <path class="cls-15" d="M29,4a3,3,0,1,0,3,3A3,3,0,0,0,29,4Zm0,4a1,1,0,1,1,1-1A1,1,0,0,1,29,8Z" />
</svg>