<svg id="Layer_1" data-name="Layer 1" xmlns="http://www.w3.org/2000/svg" viewBox="0 0 96 96">
  <defs>
    <style>.cls-1{fill:#ccd1dc;}.cls-2{fill:#dee1e7;}.cls-3{fill:#f3f4f5;}.cls-4{fill:#b8c0ce;}.cls-5{fill:#f6b756;}.cls-6{fill:#fac77d;}.cls-7{fill:#ffd69e;}.cls-8{fill:#90d1d7;}.cls-9{fill:#abd9e6;}.cls-10{fill:#cf4055;}.cls-11{fill:#85bd79;}.cls-12{fill:#39426a;}.cls-13{fill:#c3e1f5;}</style>
  </defs>
  <title>lightbulb, idea, thought, innovation, website, webpage, browser, development</title>
  <polygon class="cls-1" points="85 81 95 81 95 79 95 1 1 1 1 81 73 81 85 81" />
  <path class="cls-2" d="M94,72V1H4V60A18,18,0,0,0,22,78H88A6,6,0,0,0,94,72Z" />
  <path class="cls-3" d="M11,17H87a3,3,0,0,1,3,3V71a3,3,0,0,1-3,3H62A54,54,0,0,1,8,20v0a3,3,0,0,1,3-3Z" />
  <path class="cls-4" d="M45,91h6a0,0,0,0,1,0,0v1a3,3,0,0,1-3,3h0a3,3,0,0,1-3-3V91A0,0,0,0,1,45,91Z" />
  <path class="cls-4" d="M60,73V85a6,6,0,0,1-6,6H42a6,6,0,0,1-6-6V73Z" />
  <path class="cls-1" d="M60,73V85a6,6,0,0,1-.53,2.47A6,6,0,0,1,57,88H45a6,6,0,0,1-6-6V73Z" />
  <rect class="cls-2" x="51" y="75" width="6" height="13" rx="3" />
  <path class="cls-5" d="M72.15,43a24,24,0,0,1-3.4,12.36,23.77,23.77,0,0,1-3.32,4.34l-.11.12a18.73,18.73,0,0,0-3.94,6.07,19.93,19.93,0,0,0-1,3.11A19,19,0,0,0,60,73H36a18.7,18.7,0,0,0-5.25-13.11A24.15,24.15,0,1,1,72.15,43Z" />
  <path class="cls-6" d="M72.15,43a24,24,0,0,1-3.4,12.36l-.11.14a18.59,18.59,0,0,0-3.21,4.2l0,0a18.52,18.52,0,0,0-4,6.16v0A4.77,4.77,0,0,1,57,69H43.26a4.77,4.77,0,0,1-4.65-3.86,18.39,18.39,0,0,0-4.86-9.25A24.09,24.09,0,0,1,27,36.64a23.81,23.81,0,0,1,3.28-10A24.12,24.12,0,0,1,72.15,43Z" />
  <path class="cls-7" d="M66.89,44h0a2,2,0,0,1-2-1.83c0-.34-.08-.68-.14-1a17,17,0,0,0-14.94-14,2,2,0,0,1-1.82-2h0a2,2,0,0,1,2.18-2A21,21,0,0,1,68.89,41.83,2,2,0,0,1,66.89,44Z" />
  <rect class="cls-8" x="1" y="1" width="94" height="12" />
  <path class="cls-9" d="M4,1H95a0,0,0,0,1,0,0v9a0,0,0,0,1,0,0H13A9,9,0,0,1,4,1V1A0,0,0,0,1,4,1Z" />
  <circle class="cls-10" cx="9" cy="7" r="2" />
  <circle class="cls-5" cx="19" cy="7" r="2" />
  <circle class="cls-11" cx="29" cy="7" r="2" />
  <path class="cls-12" d="M9,4a3,3,0,1,0,3,3A3,3,0,0,0,9,4ZM9,8a1,1,0,1,1,1-1A1,1,0,0,1,9,8Z" />
  <path class="cls-12" d="M19,4a3,3,0,1,0,3,3A3,3,0,0,0,19,4Zm0,4a1,1,0,1,1,1-1A1,1,0,0,1,19,8Z" />
  <path class="cls-12" d="M29,4a3,3,0,1,0,3,3A3,3,0,0,0,29,4Zm0,4a1,1,0,1,1,1-1A1,1,0,0,1,29,8Z" />
  <rect class="cls-13" x="45" y="4" width="46" height="4" rx="2" />
  <circle class="cls-13" cx="40" cy="6" r="2" />
  <path class="cls-12" d="M95,0H1A1,1,0,0,0,0,1V81a1,1,0,0,0,1,1H35v3h0a1,1,0,0,0-1,.91A1,1,0,0,0,34.92,87l.38,0A7,7,0,0,0,42,92h2a4,4,0,0,0,8,0h2a7,7,0,0,0,5.8-3.09l1.12.09H61a1,1,0,0,0,.08-2l-.37,0A6.7,6.7,0,0,0,61,85V84h0a1,1,0,0,0,.08-2H95a1,1,0,0,0,1-1V1A1,1,0,0,0,95,0ZM2,2H94V12H2ZM37,74H59v2.84L37,75.15Zm6.84-2L39.1,44.5,43,42.17l4.49,2.69a1,1,0,0,0,1,0L53,42.17l3.9,2.33L52.16,72ZM59,72H54.19L59,44.17a1,1,0,0,0-.48-1l-5-3a1,1,0,0,0-1,0L48,42.83l-4.49-2.69a1,1,0,0,0-1,0l-5,3a1,1,0,0,0-.48,1L41.81,72H37a19.51,19.51,0,0,0-5.52-12.81,23.14,23.14,0,0,1,15-39.29A23.15,23.15,0,0,1,64.61,59.12,19.77,19.77,0,0,0,59,72Zm0,6.85v3L37,80.15v-3ZM48,94a2,2,0,0,1-2-2h4A2,2,0,0,1,48,94Zm6-4H42a5,5,0,0,1-4.47-2.8l19.78,1.52A5,5,0,0,1,54,90ZM37,85.15A.77.77,0,0,1,37,85V82.16l22,1.69V85a5,5,0,0,1-.35,1.82ZM61,80V79h0a1,1,0,0,0,.08-2H61V73a17.82,17.82,0,0,1,5-12.49A25.15,25.15,0,0,0,46.37,17.9,25.15,25.15,0,0,0,30,60.59,17.57,17.57,0,0,1,35,73v2a1,1,0,0,0-1,.91A1,1,0,0,0,34.92,77H35v3H2V14H94V80Z" />
  <path class="cls-12" d="M9,4a3,3,0,1,0,3,3A3,3,0,0,0,9,4ZM9,8a1,1,0,1,1,1-1A1,1,0,0,1,9,8Z" />
  <path class="cls-12" d="M19,4a3,3,0,1,0,3,3A3,3,0,0,0,19,4Zm0,4a1,1,0,1,1,1-1A1,1,0,0,1,19,8Z" />
  <path class="cls-12" d="M29,4a3,3,0,1,0,3,3A3,3,0,0,0,29,4Zm0,4a1,1,0,1,1,1-1A1,1,0,0,1,29,8Z" />
</svg>