<svg id="Layer_1" data-name="Layer 1" xmlns="http://www.w3.org/2000/svg" viewBox="0 0 96 96">
  <defs>
    <style>.cls-1{fill:#ccd1dc;}.cls-2{fill:#dee1e7;}.cls-3{fill:#f3f4f5;}.cls-4{fill:#90d1d7;}.cls-5{fill:#abd9e6;}.cls-6{fill:#85bd79;}.cls-7{fill:#9fc98a;}.cls-8{fill:#bbd79f;}.cls-9{fill:#c3e1f5;}.cls-10{fill:#cf4055;}.cls-11{fill:#f6b756;}.cls-12{fill:#39426a;}</style>
  </defs>
  <title>upload, cloud, storage, arrow, up, website, webpage, browser, development</title>
  <polygon class="cls-1" points="85 88 95 88 95 86 95 8 1 8 1 88 73 88 85 88" />
  <path class="cls-2" d="M94,79V8H4V67A18,18,0,0,0,22,85H88A6,6,0,0,0,94,79Z" />
  <path class="cls-3" d="M11,24H87a3,3,0,0,1,3,3V78a3,3,0,0,1-3,3H62A54,54,0,0,1,8,27v0a3,3,0,0,1,3-3Z" />
  <path class="cls-4" d="M75.63,53.05a8,8,0,0,1-8,8h-40a8,8,0,0,1-8-8,8.24,8.24,0,0,1,.25-2,8,8,0,0,1,7.75-6h.08a14.91,14.91,0,0,1-.08-1.5,17.5,17.5,0,0,1,33.55-7,6,6,0,0,1,8.1,3.47,5.3,5.3,0,0,1,.3,1.25,6.3,6.3,0,0,1,0,.75,6,6,0,0,1-.86,3.09,8,8,0,0,1,6.86,7.91Z" />
  <path class="cls-5" d="M75.75,51A8,8,0,0,1,68,57H28a8,8,0,0,1-7.75-6A8,8,0,0,1,28,45h.08A14.91,14.91,0,0,1,28,43.5a17.5,17.5,0,0,1,33.55-7A6,6,0,0,1,69.65,40a5.72,5.72,0,0,1-.51,1.09,7.73,7.73,0,0,1,.81.16A6.3,6.3,0,0,1,70,42a6,6,0,0,1-.86,3.09A8,8,0,0,1,75.75,51Z" />
  <polygon class="cls-6" points="58.63 68.05 53.63 68.05 53.63 82 41.63 82.05 41.63 68.05 36.63 68.05 44.63 59.32 47.63 56.05 57.63 66.96 58.63 68.05" />
  <path class="cls-7" d="M57.63,67v1.09h-4V81.42a13,13,0,0,1-9-12.37V59.32l3-3.27Z" />
  <rect class="cls-8" x="48" y="68" width="3" height="9" rx="1.5" />
  <path class="cls-9" d="M55.68,41a2,2,0,0,1-1.84-1.21,9.51,9.51,0,0,0-8.71-5.72,2,2,0,0,1,0-4,13.51,13.51,0,0,1,12.38,8.13,2,2,0,0,1-1,2.63A2,2,0,0,1,55.68,41Z" />
  <circle class="cls-8" cx="49.5" cy="64.5" r="1.5" />
  <rect class="cls-4" x="1" y="8" width="94" height="12" />
  <path class="cls-5" d="M4,8H95a0,0,0,0,1,0,0v9a0,0,0,0,1,0,0H13A9,9,0,0,1,4,8V8A0,0,0,0,1,4,8Z" />
  <circle class="cls-10" cx="9" cy="14" r="2" />
  <circle class="cls-11" cx="19" cy="14" r="2" />
  <circle class="cls-6" cx="29" cy="14" r="2" />
  <path class="cls-12" d="M9,11a3,3,0,1,0,3,3A3,3,0,0,0,9,11Zm0,4a1,1,0,1,1,1-1A1,1,0,0,1,9,15Z" />
  <path class="cls-12" d="M19,11a3,3,0,1,0,3,3A3,3,0,0,0,19,11Zm0,4a1,1,0,1,1,1-1A1,1,0,0,1,19,15Z" />
  <path class="cls-12" d="M29,11a3,3,0,1,0,3,3A3,3,0,0,0,29,11Zm0,4a1,1,0,1,1,1-1A1,1,0,0,1,29,15Z" />
  <rect class="cls-9" x="45" y="11" width="46" height="4" rx="2" />
  <circle class="cls-9" cx="40" cy="13" r="2" />
  <path class="cls-12" d="M95,7H1A1,1,0,0,0,0,8V88a1,1,0,0,0,1,1H95a1,1,0,0,0,1-1V8A1,1,0,0,0,95,7ZM2,9H94V19H2ZM2,87V21H94V87Z" />
  <path class="cls-12" d="M9,11a3,3,0,1,0,3,3A3,3,0,0,0,9,11Zm0,4a1,1,0,1,1,1-1A1,1,0,0,1,9,15Z" />
  <path class="cls-12" d="M19,11a3,3,0,1,0,3,3A3,3,0,0,0,19,11Zm0,4a1,1,0,1,1,1-1A1,1,0,0,1,19,15Z" />
  <path class="cls-12" d="M29,11a3,3,0,1,0,3,3A3,3,0,0,0,29,11Zm0,4a1,1,0,1,1,1-1A1,1,0,0,1,29,15Z" />
  <path class="cls-12" d="M70.58,44.38A6.9,6.9,0,0,0,71,42a7,7,0,0,0-7-7,6.92,6.92,0,0,0-1.93.27A18.5,18.5,0,0,0,27,43.5c0,.18,0,.37,0,.55a9,9,0,0,0,1,18H41.14l-4.88,5.32a1,1,0,0,0-.18,1.08A1,1,0,0,0,37,69h4V81H39a1,1,0,0,0,0,2H57a1,1,0,0,0,0-2H55V69h4a1,1,0,0,0,.92-.6,1,1,0,0,0-.18-1.08L54.86,62H68a9,9,0,0,0,2.58-17.62ZM54,67a1,1,0,0,0-1,1V81H43V68a1,1,0,0,0-1-1H39.27l4.85-5.29h0L48,57.48l3.87,4.22h0L56.73,67Zm14-7H53l-4.28-4.68a1,1,0,0,0-1.48,0L43,60H28a7,7,0,1,1,.08-14,1,1,0,0,0,.74-.33,1,1,0,0,0,.26-.77A11.6,11.6,0,0,1,29,43.5a16.5,16.5,0,0,1,31.63-6.57,1,1,0,0,0,.56.53,1,1,0,0,0,.77,0A5,5,0,0,1,69,42a5,5,0,0,1-.72,2.58,1,1,0,0,0,0,.94,1,1,0,0,0,.76.56A7,7,0,0,1,68,60Z" />
</svg>