<svg id="Layer_1" data-name="Layer 1" xmlns="http://www.w3.org/2000/svg" viewBox="0 0 96 96">
  <defs>
    <style>.cls-1{fill:#ccd1dc;}.cls-2{fill:#dee1e7;}.cls-3{fill:#f3f4f5;}.cls-4{fill:#cf4055;}.cls-5{fill:#dc5d6b;}.cls-6{fill:#f6b756;}.cls-7{fill:#fac77d;}.cls-8{fill:#ffd69e;}.cls-9{fill:#90d1d7;}.cls-10{fill:#abd9e6;}.cls-11{fill:#85bd79;}.cls-12{fill:#c3e1f5;}.cls-13{fill:#39426a;}</style>
  </defs>
  <title>alert, warning, danger, alarm, browser, website, webpage</title>
  <polygon class="cls-1" points="85 81 95 81 95 79 95 1 1 1 1 81 73 81 85 81" />
  <path class="cls-2" d="M94,72V1H4V60A18,18,0,0,0,22,78H88A6,6,0,0,0,94,72Z" />
  <path class="cls-3" d="M11,17H87a3,3,0,0,1,3,3V71a3,3,0,0,1-3,3H62A54,54,0,0,1,8,20v0a3,3,0,0,1,3-3Z" />
  <path class="cls-4" d="M48,27h0a7.38,7.38,0,0,0-6.18,3.35L6,85.47a6.18,6.18,0,0,0-1,3.36H5A6.17,6.17,0,0,0,11.17,95H84.83A6.17,6.17,0,0,0,91,88.83h0a6.18,6.18,0,0,0-1-3.36L54.18,30.35A7.38,7.38,0,0,0,48,27Z" />
  <path class="cls-5" d="M11.17,92A3.17,3.17,0,0,1,8,88.83a3.21,3.21,0,0,1,.51-1.73L44.33,32a4.38,4.38,0,0,1,7.34,0L87.49,87.1A3.21,3.21,0,0,1,88,88.83,3.17,3.17,0,0,1,84.83,92Z" />
  <path class="cls-6" d="M85,88.74c0,.18,0,.26-.14.26H11.17a.18.18,0,0,1-.17-.17L12.84,86l34-52.38a1.38,1.38,0,0,1,2.3,0L83.19,86Z" />
  <path class="cls-7" d="M83.19,86H38.62A14,14,0,0,1,26.88,64.38l20-30.76a1.38,1.38,0,0,1,2.3,0Z" />
  <path class="cls-8" d="M72.14,82a2,2,0,0,1-1.68-.91l-16.9-26a2,2,0,1,1,3.36-2.18l16.89,26A2,2,0,0,1,72.14,82Z" />
  <rect class="cls-4" x="45" y="50" width="6" height="24" />
  <circle class="cls-4" cx="48" cy="81" r="3" />
  <rect class="cls-9" x="1" y="1" width="94" height="12" />
  <path class="cls-10" d="M4,1H95a0,0,0,0,1,0,0v9a0,0,0,0,1,0,0H13A9,9,0,0,1,4,1V1A0,0,0,0,1,4,1Z" />
  <circle class="cls-4" cx="9" cy="7" r="2" />
  <circle class="cls-6" cx="19" cy="7" r="2" />
  <circle class="cls-11" cx="29" cy="7" r="2" />
  <rect class="cls-12" x="45" y="4" width="46" height="4" rx="2" />
  <circle class="cls-12" cx="40" cy="6" r="2" />
  <path class="cls-13" d="M95,0H1A1,1,0,0,0,0,1V81a1,1,0,0,0,1,1H7.06l-1.9,2.92a7.17,7.17,0,0,0,6,11.08H84.83a7.17,7.17,0,0,0,6-11.08L88.94,82H95a1,1,0,0,0,1-1V1A1,1,0,0,0,95,0ZM2,2H94V12H2ZM90,88.83A5.18,5.18,0,0,1,84.83,94H11.17a5.17,5.17,0,0,1-4.33-8L42.66,30.9a6.37,6.37,0,0,1,10.68,0L89.16,86A5.15,5.15,0,0,1,90,88.83ZM87.64,80,55,29.81a8.37,8.37,0,0,0-14,0L8.36,80H2V14H94V80Z" />
  <path class="cls-13" d="M9,4a3,3,0,1,0,3,3A3,3,0,0,0,9,4ZM9,8a1,1,0,1,1,1-1A1,1,0,0,1,9,8Z" />
  <path class="cls-13" d="M19,4a3,3,0,1,0,3,3A3,3,0,0,0,19,4Zm0,4a1,1,0,1,1,1-1A1,1,0,0,1,19,8Z" />
  <path class="cls-13" d="M29,4a3,3,0,1,0,3,3A3,3,0,0,0,29,4Zm0,4a1,1,0,1,1,1-1A1,1,0,0,1,29,8Z" />
  <path class="cls-13" d="M48,32a2.35,2.35,0,0,0-2,1.08L10.16,88.28a1.1,1.1,0,0,0-.16.55A1.18,1.18,0,0,0,11.17,90H84.83a1.12,1.12,0,0,0,.86-.39,1.25,1.25,0,0,0,.27-1,1,1,0,0,0-.15-.4L50,33.08A2.35,2.35,0,0,0,48,32ZM12.73,88l35-53.83a.38.38,0,0,1,.62,0L83.3,88Z" />
  <path class="cls-13" d="M44,50V74a1,1,0,0,0,1,1h6a1,1,0,0,0,1-1V50a1,1,0,0,0-1-1H45A1,1,0,0,0,44,50Zm2,1h4V73H46Z" />
  <path class="cls-13" d="M48,77a4,4,0,1,0,4,4A4,4,0,0,0,48,77Zm0,6a2,2,0,1,1,2-2A2,2,0,0,1,48,83Z" />
</svg>