<svg id="Layer_1" data-name="Layer 1" xmlns="http://www.w3.org/2000/svg" viewBox="0 0 96 96">
  <defs>
    <style>.cls-1{fill:#ccd1dc;}.cls-2{fill:#dee1e7;}.cls-3{fill:#f3f4f5;}.cls-4{fill:#f6b756;}.cls-5{fill:#90d1d7;}.cls-6{fill:#abd9e6;}.cls-7{fill:#cf4055;}.cls-8{fill:#85bd79;}.cls-9{fill:#c3e1f5;}.cls-10{fill:#39426a;}</style>
  </defs>
  <title>key, privacy, protection, website, webpage, browser</title>
  <polygon class="cls-1" points="85 88 95 88 95 86 95 8 1 8 1 88 73 88 85 88" />
  <path class="cls-2" d="M94,79V8H4V67A18,18,0,0,0,22,85H88A6,6,0,0,0,94,79Z" />
  <path class="cls-3" d="M11,24H87a3,3,0,0,1,3,3V78a3,3,0,0,1-3,3H62A54,54,0,0,1,8,27v0A3,3,0,0,1,11,24Z" />
  <path class="cls-4" d="M67,40a12,12,0,0,0-11.61,9H17V63h6V55h6v8h6V55H55.39A12,12,0,1,0,67,40Zm0,18a6,6,0,1,1,6-6A6,6,0,0,1,67,58Z" />
  <rect class="cls-5" x="1" y="8" width="94" height="12" />
  <path class="cls-6" d="M4,8H95a0,0,0,0,1,0,0v9a0,0,0,0,1,0,0H13A9,9,0,0,1,4,8V8A0,0,0,0,1,4,8Z" />
  <circle class="cls-7" cx="9" cy="14" r="2" />
  <circle class="cls-4" cx="19" cy="14" r="2" />
  <circle class="cls-8" cx="29" cy="14" r="2" />
  <rect class="cls-9" x="45" y="11" width="46" height="4" rx="2" />
  <circle class="cls-9" cx="40" cy="13" r="2" />
  <path class="cls-10" d="M95,7H1A1,1,0,0,0,0,8V88a1,1,0,0,0,1,1H95a1,1,0,0,0,1-1V8A1,1,0,0,0,95,7ZM2,9H94V19H2ZM2,87V21H94V87Z" />
  <path class="cls-10" d="M9,11a3,3,0,1,0,3,3A3,3,0,0,0,9,11Zm0,4a1,1,0,1,1,1-1A1,1,0,0,1,9,15Z" />
  <path class="cls-10" d="M19,11a3,3,0,1,0,3,3A3,3,0,0,0,19,11Zm0,4a1,1,0,1,1,1-1A1,1,0,0,1,19,15Z" />
  <path class="cls-10" d="M29,11a3,3,0,1,0,3,3A3,3,0,0,0,29,11Zm0,4a1,1,0,1,1,1-1A1,1,0,0,1,29,15Z" />
  <path class="cls-10" d="M67,45a7,7,0,1,0,7,7A7,7,0,0,0,67,45Zm0,12a5,5,0,1,1,5-5A5,5,0,0,1,67,57Z" />
  <path class="cls-10" d="M67,39a13,13,0,0,0-12.36,9H17a1,1,0,0,0-1,1V63a1,1,0,0,0,1,1h6a1,1,0,0,0,1-1V56h4v7a1,1,0,0,0,1,1h6a1,1,0,0,0,1-1V56H54.64A13,13,0,1,0,67,39Zm0,24a11,11,0,0,1-10.64-8.25,1,1,0,0,0-1-.75H35a1,1,0,0,0-1,1v7H30V55a1,1,0,0,0-1-1H23a1,1,0,0,0-1,1v7H18V50H55.39a1,1,0,0,0,1-.75A11,11,0,1,1,67,63Z" />
</svg>