<svg id="Layer_1" data-name="Layer 1" xmlns="http://www.w3.org/2000/svg" viewBox="0 0 96 96">
  <defs>
    <style>.cls-1{fill:#dee1e7;}.cls-2{fill:#b8c0ce;}.cls-3{fill:#ccd1dc;}.cls-4{fill:#39426a;}.cls-5{fill:#f3f4f5;}</style>
  </defs>
  <title>mug, drink, beverage, coffee, tea</title>
  <path class="cls-1" d="M75,90H21L4,88.3A3.32,3.32,0,0,1,1,85H95a3.32,3.32,0,0,1-3,3.3Z" />
  <polygon class="cls-2" points="73 95 23 95 21 90 75 90 73 95" />
  <path class="cls-3" d="M76,49V73A12,12,0,0,1,64,85H32A12,12,0,0,1,20,73V49Z" />
  <path class="cls-1" d="M76,49V73a11.88,11.88,0,0,1-2.15,6.85A11.88,11.88,0,0,1,67,82H35A12,12,0,0,1,23,70V49Z" />
  <path class="cls-2" d="M75.62,76H83a7,7,0,0,0,7-7V61a7,7,0,0,0-7-7H76v4h6a4,4,0,0,1,4,4v6a4,4,0,0,1-4,4H76" />
  <path class="cls-4" d="M95,84H71A13,13,0,0,0,76.38,77H83a8,8,0,0,0,8-8V61a8,8,0,0,0-8-8H77V49a1,1,0,0,0-1-1H20a1,1,0,0,0-1,1V73a13,13,0,0,0,6,11H1a1,1,0,0,0-1,1,4.33,4.33,0,0,0,3.91,4.32L20.28,91l1.77,4.42A1,1,0,0,0,23,96H73a1,1,0,0,0,1-.65L75.72,91l16.4-1.64A4.33,4.33,0,0,0,96,85,1,1,0,0,0,95,84ZM77,59h5a3,3,0,0,1,3,3v6a3,3,0,0,1-3,3H77Zm6-4a6,6,0,0,1,6,6v8a6,6,0,0,1-6,6H76.86A12.39,12.39,0,0,0,77,73h5a5,5,0,0,0,5-5V62a5,5,0,0,0-5-5H77V55ZM21,73V50H75V73A11,11,0,0,1,64,84H32A11,11,0,0,1,21,73ZM72.31,94H23.69L22.52,91h51Zm19.6-6.69L75,89H21.05l-17-1.69A2.28,2.28,0,0,1,2.27,86H93.73A2.28,2.28,0,0,1,91.91,87.28Z" />
  <path class="cls-2" d="M48.42,30a1,1,0,0,1-.65-1.82c3.87-3.19,2.12-5.88-1.31-10.36-3.65-4.77-8.2-10.72.47-17.74a1,1,0,0,1,1.44.15,1,1,0,0,1-.15,1.45c-7.11,5.76-3.87,10-.13,14.89,3.08,4,6.58,8.6,1,13.19A1,1,0,0,1,48.42,30Z" />
  <path class="cls-2" d="M29.43,43a1,1,0,0,1-.65-1.83c7.11-5.76,3.87-10,.13-14.9-3.08-4-6.58-8.59-1-13.18a1,1,0,0,1,1.3,1.58c-3.87,3.18-2.12,5.87,1.31,10.36,3.65,4.77,8.2,10.72-.47,17.74A1,1,0,0,1,29.43,43Z" />
  <path class="cls-2" d="M65.43,39a1,1,0,0,1-.65-1.83c7.11-5.76,3.87-10,.13-14.9-3.08-4-6.58-8.59-1-13.18a1,1,0,1,1,1.3,1.58c-3.87,3.18-2.12,5.87,1.31,10.36,3.65,4.77,8.2,10.72-.47,17.74A1,1,0,0,1,65.43,39Z" />
  <path class="cls-5" d="M51,52H70a3,3,0,0,1,3,3V72a8,8,0,0,1-8,8H56a8,8,0,0,1-8-8V55A3,3,0,0,1,51,52Z" />
</svg>