<svg id="Layer_1" data-name="Layer 1" xmlns="http://www.w3.org/2000/svg" viewBox="0 0 96 96"><defs><style>.cls-1{fill:#f6b756;}.cls-2{fill:#fac77d;}.cls-3{fill:#bd5698;}.cls-4{fill:#c96fa6;}.cls-5{fill:#e5c2a1;}.cls-6{fill:#5c5f7d;}.cls-7{fill:#8288a1;}.cls-8{fill:#969cb2;}.cls-9{fill:#b8c0ce;}.cls-10{fill:#ccd1dc;}.cls-11{fill:#ead4c6;}.cls-12{fill:#f2e1d7;}.cls-13{fill:#90d1d7;}.cls-14{fill:#abd9e6;}.cls-15{fill:#c3e1f5;}.cls-16{fill:#f3f4f5;}.cls-17{fill:#7190c4;}.cls-18{fill:#89a3ce;}.cls-19{fill:#dee1e7;}.cls-20{fill:#39426a;}.cls-21{fill:#a5b9db;}</style></defs><title>education, school, laptop, computer, pencil, hand, gesture</title><polygon class="cls-1" points="39 8 39 16 21 16 17.55 14.47 12 12 15.37 10.5 17.55 9.53 21 8 39 8"/><path class="cls-1" d="M81,10v4a2,2,0,0,1-2,2H63V8H79A2,2,0,0,1,81,10Z"/><polygon class="cls-2" points="39 8 39 13 21 13 17.55 11.47 15.37 10.5 17.55 9.53 21 8 39 8"/><path class="cls-2" d="M81,10v1a2,2,0,0,1-2,2H63V8H79A2,2,0,0,1,81,10Z"/><path class="cls-3" d="M81,10v4a2,2,0,0,1-2,2H73V8h6A2,2,0,0,1,81,10Z"/><path class="cls-4" d="M81,10v4H79a4,4,0,0,1-4-4V8h4A2,2,0,0,1,81,10Z"/><path class="cls-5" d="M23,12a6.89,6.89,0,0,1-1.26,4H21l-3.45-1.53L12,12l5.55-2.47L21,8h.74A6.89,6.89,0,0,1,23,12Z"/><path class="cls-6" d="M18,12a6.94,6.94,0,0,1-.45,2.47L12,12l5.55-2.47A6.94,6.94,0,0,1,18,12Z"/><rect class="cls-7" x="69" y="8" width="4" height="8"/><rect class="cls-8" x="69" y="8" width="4" height="5"/><path class="cls-9" d="M95,86v3a6,6,0,0,1-6,6H7a6,6,0,0,1-6-6V86a2.56,2.56,0,0,1,0-.39A3,3,0,0,1,4,83H92a3,3,0,0,1,3,2.61A2.56,2.56,0,0,1,95,86Z"/><path class="cls-10" d="M95,85.61A6,6,0,0,1,89,91H7a6,6,0,0,1-6-5.39A3,3,0,0,1,4,83H92A3,3,0,0,1,95,85.61Z"/><path class="cls-8" d="M54.53,87H41.47A7.24,7.24,0,0,1,35,83H61A7.24,7.24,0,0,1,54.53,87Z"/><path class="cls-9" d="M76,25h8a4,4,0,0,1,4,4V79a4,4,0,0,1-4,4H12a4,4,0,0,1-4-4V29a4,4,0,0,1,4-4H76Z"/><path class="cls-10" d="M76,28h7a2,2,0,0,1,2,2V78a2,2,0,0,1-2,2H13a2,2,0,0,1-2-2V30a2,2,0,0,1,2-2H76Z"/><path class="cls-11" d="M63,6.17v10A16.26,16.26,0,0,1,61.94,22c-.15.43-.33.85-.52,1.26A16.56,16.56,0,0,1,57,29v3H41V29l-1.22-.76A14.43,14.43,0,0,1,33,16h6V4.17A3.13,3.13,0,0,1,41.84,1,3,3,0,0,1,45,4a3,3,0,0,1,3.16-3A3.13,3.13,0,0,1,51,4.17V5a3,3,0,0,1,3.16-3A3.13,3.13,0,0,1,57,5.17V6a3,3,0,0,1,3.16-3A2.81,2.81,0,0,1,62,3.83,3.21,3.21,0,0,1,63,6,1,1,0,0,1,63,6.17Z"/><path class="cls-12" d="M62,3.83V15a13,13,0,0,1-25.95,1h3V4.17A3.13,3.13,0,0,1,41.84,1,3,3,0,0,1,45,4a3,3,0,0,1,3.16-3A3.13,3.13,0,0,1,51,4.17V5a3,3,0,0,1,3.16-3A3.13,3.13,0,0,1,57,5.17V6a3,3,0,0,1,3.16-3A2.81,2.81,0,0,1,62,3.83Z"/><rect class="cls-13" x="14" y="31" width="68" height="46"/><path class="cls-14" d="M17,31H82a0,0,0,0,1,0,0V74a0,0,0,0,1,0,0H31A14,14,0,0,1,17,60V31A0,0,0,0,1,17,31Z"/><path class="cls-15" d="M51,34H77a2,2,0,0,1,2,2V70a2,2,0,0,1-2,2h0A28,28,0,0,1,49,44V36A2,2,0,0,1,51,34Z"/><rect class="cls-11" x="41" y="38" width="16" height="5"/><rect class="cls-7" x="40" y="32" width="18" height="6"/><circle class="cls-16" cx="49" cy="35" r="4"/><rect class="cls-17" x="39" y="43" width="20" height="34"/><path class="cls-18" d="M42,43H59a0,0,0,0,1,0,0V74a0,0,0,0,1,0,0H48a6,6,0,0,1-6-6V43A0,0,0,0,1,42,43Z"/><rect class="cls-19" x="63" y="86" width="27" height="3" rx="1.5"/><rect class="cls-19" x="6" y="86" width="27" height="3" rx="1.5"/><path class="cls-20" d="M92,82H88a4.92,4.92,0,0,0,1-3V29a5,5,0,0,0-5-5H62.16c.05-.11.12-.21.17-.32.23-.5.41-.93.55-1.32A17.1,17.1,0,0,0,64,17H79a3,3,0,0,0,3-3V10a3,3,0,0,0-3-3H64V6.17a2.35,2.35,0,0,0,0-.27A4.15,4.15,0,0,0,60.21,2,3.92,3.92,0,0,0,57.4,3a3.95,3.95,0,0,0-6-1,4,4,0,0,0-3.19-2,3.93,3.93,0,0,0-3,1.09L45,1.35l-.25-.26a4,4,0,0,0-3-1.09A4.1,4.1,0,0,0,38,4.17V7H21a1,1,0,0,0-.41.09L17.16,8.61h0l-5.55,2.47a1,1,0,0,0,0,1.82l5.55,2.47h0l3.43,1.52A1,1,0,0,0,21,17H32a15.33,15.33,0,0,0,2.2,7H12a5,5,0,0,0-5,5V79a4.92,4.92,0,0,0,1,3H4a4,4,0,0,0-4,4v3a7,7,0,0,0,7,7H89a7,7,0,0,0,7-7V86A4,4,0,0,0,92,82ZM80,10v4a1,1,0,0,1-1,1H74V9h5A1,1,0,0,1,80,10ZM72,9v6H70V9ZM68,9v6H64V9ZM23.4,15a7.8,7.8,0,0,0,0-6H38v6H23.4Zm-6.5-4.09a6,6,0,0,1,0,2.18L14.46,12Zm1.86-.82L21.2,9a6,6,0,0,1,0,6l-2.44-1.08a7.72,7.72,0,0,0,0-3.82ZM39,17a1,1,0,0,0,1-1V4.17A2.13,2.13,0,0,1,41.89,2,2,2,0,0,1,44,4a1,1,0,0,0,2,0,2,2,0,0,1,2.1-2A2.13,2.13,0,0,1,50,4.17V5a1,1,0,0,0,2,0,2,2,0,0,1,2.1-2A2.13,2.13,0,0,1,56,5.17V6a1,1,0,0,0,2,0,2,2,0,0,1,2.1-2A2.11,2.11,0,0,1,62,6.05a.49.49,0,0,0,0,.12v10a15.24,15.24,0,0,1-1,5.48c-.13.35-.28.72-.49,1.17a15.64,15.64,0,0,1-4.15,5.39A1,1,0,0,0,56,29v2H52A4.91,4.91,0,0,0,46,31H42V29a1,1,0,0,0-.47-.85l-1.22-.76a13.49,13.49,0,0,1-3.41-3.05l0-.06A13.25,13.25,0,0,1,34,17Zm1,59V44H58V76ZM15,76V32H39v6a1,1,0,0,0,1,1v3H39a1,1,0,0,0-1,1V76ZM42,42V39h4A4.91,4.91,0,0,0,52,39h4v3Zm15-9v4H53.58a5,5,0,0,0,0-4Zm-5,2a3,3,0,1,1-3-3A3,3,0,0,1,52,35Zm-7.58,2H41V33h3.42a5,5,0,0,0,0,4ZM59,42H58V39a1,1,0,0,0,1-1V32H81V76H60V43A1,1,0,0,0,59,42ZM9,79V29a3,3,0,0,1,3-3H35.67a15.46,15.46,0,0,0,3.58,3.09l.75.47V30H14a1,1,0,0,0-1,1V77a1,1,0,0,0,1,1H82a1,1,0,0,0,1-1V31a1,1,0,0,0-1-1H58v-.54A18,18,0,0,0,61,26H84a3,3,0,0,1,3,3V79a3,3,0,0,1-3,3H12A3,3,0,0,1,9,79Zm50.11,5a6.2,6.2,0,0,1-4.58,2H41.47a6.2,6.2,0,0,1-4.58-2ZM94,89a5,5,0,0,1-5,5H7a5,5,0,0,1-5-5V86a2,2,0,0,1,2-2H34.43a8.19,8.19,0,0,0,7,4H54.53a8.19,8.19,0,0,0,7-4H92a2,2,0,0,1,2,2Z"/><rect class="cls-21" x="49" y="46" width="7" height="26" rx="2"/></svg>