<svg viewBox="0 0 96 96" fill="none" xmlns="http://www.w3.org/2000/svg">
  <g clip-path="url(#clip0)">
    <path d="M20 90H6V95H20V90Z" fill="#6A6E86" />
    <path d="M90 90H76V95H90V90Z" fill="#6A6E86" />
    <path d="M95 68V86C94.9975 86.3026 94.964 86.6042 94.9 86.9C94.6964 87.7817 94.1999 88.5682 93.4915 89.1313C92.7832 89.6943 91.9049 90.0006 91 90H5C3.93914 90 2.92172 89.5786 2.17157 88.8284C1.42143 88.0783 1 87.0609 1 86V68C0.999421 67.0951 1.30566 66.2168 1.86871 65.5085C2.43175 64.8001 3.21834 64.3036 4.1 64.1C4.3958 64.036 4.69737 64.0025 5 64H91C92.0609 64 93.0783 64.4214 93.8284 65.1716C94.5786 65.9217 95 66.9391 95 68Z" fill="#8288A1" />
    <path d="M95 68V86C94.9975 86.3026 94.964 86.6042 94.9 86.9C94.6042 86.964 94.3026 86.9975 94 87H8C6.93913 87 5.92172 86.5786 5.17157 85.8284C4.42143 85.0783 4 84.0609 4 83V65C4.0025 64.6974 4.03601 64.3958 4.1 64.1C4.3958 64.036 4.69737 64.0025 5 64H91C92.0609 64 93.0783 64.4214 93.8284 65.1716C94.5786 65.9217 95 66.9391 95 68Z" fill="#969CB2" />
    <path d="M13 83C16.3137 83 19 80.3137 19 77C19 73.6863 16.3137 71 13 71C9.68629 71 7 73.6863 7 77C7 80.3137 9.68629 83 13 83Z" fill="#878C9F" />
    <path d="M13 83C16.3137 83 19 80.3137 19 77C19 73.6863 16.3137 71 13 71C9.68629 71 7 73.6863 7 77C7 80.3137 9.68629 83 13 83Z" fill="#6A6E86" />
    <path d="M13 80C14.6569 80 16 78.6569 16 77C16 75.3431 14.6569 74 13 74C11.3431 74 10 75.3431 10 77C10 78.6569 11.3431 80 13 80Z" fill="#797C92" />
    <path d="M30 80C31.6569 80 33 78.6569 33 77C33 75.3431 31.6569 74 30 74C28.3431 74 27 75.3431 27 77C27 78.6569 28.3431 80 30 80Z" fill="#E47980" />
    <path d="M42 80C43.6569 80 45 78.6569 45 77C45 75.3431 43.6569 74 42 74C40.3431 74 39 75.3431 39 77C39 78.6569 40.3431 80 42 80Z" fill="#E47980" />
    <path d="M54 80C55.6569 80 57 78.6569 57 77C57 75.3431 55.6569 74 54 74C52.3431 74 51 75.3431 51 77C51 78.6569 52.3431 80 54 80Z" fill="#E47980" />
    <path d="M66 80C67.6569 80 69 78.6569 69 77C69 75.3431 67.6569 74 66 74C64.3431 74 63 75.3431 63 77C63 78.6569 64.3431 80 66 80Z" fill="#E47980" />
    <path d="M83 83C86.3137 83 89 80.3137 89 77C89 73.6863 86.3137 71 83 71C79.6863 71 77 73.6863 77 77C77 80.3137 79.6863 83 83 83Z" fill="#6A6E86" />
    <path d="M83 80C84.6569 80 86 78.6569 86 77C86 75.3431 84.6569 74 83 74C81.3431 74 80 75.3431 80 77C80 78.6569 81.3431 80 83 80Z" fill="#797C92" />
    <path d="M90 67H25C23.8954 67 23 67.8954 23 69C23 70.1046 23.8954 71 25 71H90C91.1046 71 92 70.1046 92 69C92 67.8954 91.1046 67 90 67Z" fill="#AEB4C6" />
    <path d="M17 56H7V64H17V56Z" fill="#969CB2" />
    <path d="M89 56H79V64H89V56Z" fill="#969CB2" />
    <path d="M17 60H7V64H17V60Z" fill="#8288A1" />
    <path d="M89 60H79V64H89V60Z" fill="#8288A1" />
    <path d="M14 32V3C14 2.46957 13.7893 1.96086 13.4142 1.58579C13.0391 1.21071 12.5304 1 12 1C11.4696 1 10.9609 1.21071 10.5858 1.58579C10.2107 1.96086 10 2.46957 10 3V32L9 56H15L14 32Z" fill="#C6CCDA" />
    <path d="M86 32V3C86 2.46957 85.7893 1.96086 85.4142 1.58579C85.0391 1.21071 84.5304 1 84 1C83.4696 1 82.9609 1.21071 82.5858 1.58579C82.2107 1.96086 82 2.46957 82 3V32L81 56H87L86 32Z" fill="#C6CCDA" />
    <path d="M91 63H90V56C90 55.7348 89.8946 55.4804 89.7071 55.2929C89.5196 55.1054 89.2652 55 89 55H88L87 32V3C87 2.20435 86.6839 1.44129 86.1213 0.87868C85.5587 0.31607 84.7956 0 84 0C83.2044 0 82.4413 0.31607 81.8787 0.87868C81.3161 1.44129 81 2.20435 81 3V32L80 55H79C78.7348 55 78.4804 55.1054 78.2929 55.2929C78.1054 55.4804 78 55.7348 78 56V63H18V56C18 55.7348 17.8946 55.4804 17.7071 55.2929C17.5196 55.1054 17.2652 55 17 55H16L15 32V3C15 2.20435 14.6839 1.44129 14.1213 0.87868C13.5587 0.31607 12.7956 0 12 0C11.2044 0 10.4413 0.31607 9.87868 0.87868C9.31607 1.44129 9 2.20435 9 3V32L8 55H7C6.73478 55 6.48043 55.1054 6.29289 55.2929C6.10536 55.4804 6 55.7348 6 56V63H5C3.67392 63 2.40215 63.5268 1.46447 64.4645C0.526784 65.4021 0 66.6739 0 68L0 86C0 87.3261 0.526784 88.5979 1.46447 89.5355C2.40215 90.4732 3.67392 91 5 91V95C5 95.2652 5.10536 95.5196 5.29289 95.7071C5.48043 95.8946 5.73478 96 6 96H20C20.2652 96 20.5196 95.8946 20.7071 95.7071C20.8946 95.5196 21 95.2652 21 95V91H75V95C75 95.2652 75.1054 95.5196 75.2929 95.7071C75.4804 95.8946 75.7348 96 76 96H90C90.2652 96 90.5196 95.8946 90.7071 95.7071C90.8946 95.5196 91 95.2652 91 95V91C91.6566 91 92.3068 90.8707 92.9134 90.6194C93.52 90.3681 94.0712 89.9998 94.5355 89.5355C94.9998 89.0712 95.3681 88.52 95.6194 87.9134C95.8707 87.3068 96 86.6566 96 86V68C96 67.3434 95.8707 66.6932 95.6194 66.0866C95.3681 65.48 94.9998 64.9288 94.5355 64.4645C94.0712 64.0002 93.52 63.6319 92.9134 63.3806C92.3068 63.1293 91.6566 63 91 63ZM83 32V3C83 2.73478 83.1054 2.48043 83.2929 2.29289C83.4804 2.10536 83.7348 2 84 2C84.2652 2 84.5196 2.10536 84.7071 2.29289C84.8946 2.48043 85 2.73478 85 3V32L86 55H82L83 32ZM80 57H88V63H80V57ZM11 32V3C11 2.73478 11.1054 2.48043 11.2929 2.29289C11.4804 2.10536 11.7348 2 12 2C12.2652 2 12.5196 2.10536 12.7071 2.29289C12.8946 2.48043 13 2.73478 13 3V32L14 55H10L11 32ZM8 57H16V63H8V57ZM19 94H7V91H19V94ZM89 94H77V91H89V94ZM94 86C94 86.7956 93.6839 87.5587 93.1213 88.1213C92.5587 88.6839 91.7956 89 91 89H5C4.20435 89 3.44129 88.6839 2.87868 88.1213C2.31607 87.5587 2 86.7956 2 86V68C2 67.2044 2.31607 66.4413 2.87868 65.8787C3.44129 65.3161 4.20435 65 5 65H91C91.7956 65 92.5587 65.3161 93.1213 65.8787C93.6839 66.4413 94 67.2044 94 68V86Z" fill="#39426A" />
    <path d="M48.0958 44.002C49.7527 44.002 51.0958 42.6589 51.0958 41.002C51.0958 39.3452 49.7527 38.002 48.0958 38.002C46.439 38.002 45.0958 39.3452 45.0958 41.002C45.0958 42.6589 46.439 44.002 48.0958 44.002Z" fill="#E47980" />
    <path d="M58.7058 30.392C57.3128 28.9981 55.6588 27.8924 53.8383 27.1379C52.0178 26.3835 50.0665 25.9952 48.0958 25.9952C46.1252 25.9952 44.1739 26.3835 42.3534 27.1379C40.5329 27.8924 38.8788 28.9981 37.4858 30.392L41.7358 34.642C43.4233 32.9566 45.7108 32.0099 48.0958 32.0099C50.4808 32.0099 52.7683 32.9566 54.4558 34.642L58.7058 30.392Z" fill="#E47980" />
    <path d="M67.1858 21.912C62.1225 16.8497 55.2557 14.0058 48.0958 14.0058C40.9359 14.0058 34.0691 16.8497 29.0058 21.912L33.2458 26.152C35.1959 24.2018 37.511 22.6547 40.059 21.5993C42.6069 20.5438 45.3379 20.0005 48.0958 20.0005C50.8537 20.0005 53.5847 20.5438 56.1326 21.5993C58.6806 22.6547 60.9957 24.2018 62.9458 26.152L67.1858 21.912Z" fill="#E47980" />
    <path d="M44.0958 41.002C44.0958 41.7931 44.3304 42.5665 44.7699 43.2243C45.2094 43.8821 45.8342 44.3948 46.5651 44.6975C47.296 45.0003 48.1002 45.0795 48.8762 44.9252C49.6521 44.7708 50.3648 44.3899 50.9242 43.8304C51.4836 43.271 51.8646 42.5583 52.0189 41.7824C52.1733 41.0065 52.0941 40.2022 51.7913 39.4713C51.4886 38.7404 50.9759 38.1157 50.3181 37.6761C49.6603 37.2366 48.8869 37.002 48.0958 37.002C47.0349 37.002 46.0175 37.4234 45.2674 38.1736C44.5172 38.9237 44.0958 39.9412 44.0958 41.002ZM50.0958 41.002C50.0958 41.3976 49.9785 41.7843 49.7587 42.1132C49.539 42.4421 49.2266 42.6984 48.8612 42.8498C48.4957 43.0012 48.0936 43.0408 47.7056 42.9636C47.3176 42.8864 46.9613 42.6959 46.6816 42.4162C46.4019 42.1365 46.2114 41.7802 46.1342 41.3922C46.0571 41.0042 46.0967 40.6021 46.248 40.2367C46.3994 39.8712 46.6558 39.5588 46.9847 39.3391C47.3136 39.1193 47.7002 39.002 48.0958 39.002C48.6262 39.002 49.1349 39.2127 49.51 39.5878C49.8851 39.9629 50.0958 40.4716 50.0958 41.002Z" fill="#39426A" />
    <path d="M54.4558 35.642C54.5881 35.6415 54.719 35.6147 54.8409 35.5632C54.9627 35.5117 55.0732 35.4365 55.1658 35.342L59.4058 31.102C59.592 30.9147 59.6966 30.6612 59.6966 30.397C59.6966 30.1328 59.592 29.8794 59.4058 29.692C56.4055 26.6937 52.3374 25.0094 48.0958 25.0094C43.8541 25.0094 39.7861 26.6937 36.7858 29.692C36.5995 29.8794 36.495 30.1328 36.495 30.397C36.495 30.6612 36.5995 30.9147 36.7858 31.102L41.0258 35.342C41.2132 35.5283 41.4666 35.6328 41.7308 35.6328C41.995 35.6328 42.2484 35.5283 42.4358 35.342C43.1788 34.5982 44.0611 34.0081 45.0323 33.6055C46.0034 33.2029 47.0445 32.9957 48.0958 32.9957C49.1471 32.9957 50.1881 33.2029 51.1593 33.6055C52.1305 34.0081 53.0128 34.5982 53.7558 35.342C53.9404 35.5304 54.192 35.6383 54.4558 35.642ZM41.7658 33.262L38.9258 30.422C41.4713 28.2155 44.7271 27.0008 48.0958 27.0008C51.4645 27.0008 54.7203 28.2155 57.2658 30.422L54.4258 33.262C52.6395 31.8015 50.4032 31.0035 48.0958 31.0035C45.7884 31.0035 43.552 31.8015 41.7658 33.262Z" fill="#39426A" />
    <path d="M32.5358 26.862C32.6288 26.9557 32.7394 27.0301 32.8612 27.0809C32.9831 27.1317 33.1138 27.1578 33.2458 27.1578C33.3778 27.1578 33.5085 27.1317 33.6304 27.0809C33.7522 27.0301 33.8628 26.9557 33.9558 26.862C37.7064 23.1126 42.7925 21.0063 48.0958 21.0063C53.3991 21.0063 58.4852 23.1126 62.2358 26.862C62.3288 26.9557 62.4394 27.0301 62.5612 27.0809C62.6831 27.1317 62.8138 27.1578 62.9458 27.1578C63.0778 27.1578 63.2085 27.1317 63.3304 27.0809C63.4522 27.0301 63.5628 26.9557 63.6558 26.862L67.8958 22.622C67.9895 22.5291 68.0639 22.4185 68.1147 22.2966C68.1655 22.1747 68.1916 22.044 68.1916 21.912C68.1916 21.78 68.1655 21.6493 68.1147 21.5274C68.0639 21.4056 67.9895 21.295 67.8958 21.202C65.2957 18.6017 62.2089 16.539 58.8116 15.1316C55.4143 13.7243 51.7731 13 48.0958 13C44.4185 13 40.7773 13.7243 37.38 15.1316C33.9827 16.539 30.8959 18.6017 28.2958 21.202C28.2021 21.295 28.1277 21.4056 28.0769 21.5274C28.0261 21.6493 28 21.78 28 21.912C28 22.044 28.0261 22.1747 28.0769 22.2966C28.1277 22.4185 28.2021 22.5291 28.2958 22.622L32.5358 26.862ZM65.7558 21.922L62.9258 24.752C58.8725 21.053 53.5832 19.0023 48.0958 19.0023C42.6084 19.0023 37.3191 21.053 33.2658 24.752L30.4358 21.922C35.2414 17.4746 41.548 15.0041 48.0958 15.0041C54.6436 15.0041 60.9502 17.4746 65.7558 21.922Z" fill="#39426A" />
    <path d="M13 70C11.6155 70 10.2622 70.4105 9.11101 71.1797C7.95987 71.9489 7.06266 73.0421 6.53285 74.3212C6.00303 75.6003 5.86441 77.0078 6.13451 78.3656C6.4046 79.7235 7.07129 80.9708 8.05026 81.9497C9.02922 82.9287 10.2765 83.5954 11.6344 83.8655C12.9922 84.1356 14.3997 83.997 15.6788 83.4672C16.9579 82.9373 18.0511 82.0401 18.8203 80.889C19.5895 79.7378 20 78.3845 20 77C20 75.1435 19.2625 73.363 17.9497 72.0503C16.637 70.7375 14.8565 70 13 70ZM13 82C12.0111 82 11.0444 81.7068 10.2222 81.1573C9.39991 80.6079 8.75904 79.827 8.38061 78.9134C8.00217 77.9998 7.90315 76.9945 8.09608 76.0246C8.289 75.0546 8.76521 74.1637 9.46447 73.4645C10.1637 72.7652 11.0546 72.289 12.0246 72.0961C12.9945 71.9032 13.9998 72.0022 14.9134 72.3806C15.8271 72.759 16.6079 73.3999 17.1574 74.2221C17.7068 75.0444 18 76.0111 18 77C18 77.6566 17.8707 78.3068 17.6194 78.9134C17.3681 79.52 16.9998 80.0712 16.5355 80.5355C16.0712 80.9998 15.52 81.3681 14.9134 81.6194C14.3068 81.8707 13.6566 82 13 82Z" fill="#39426A" />
    <path d="M83 70C81.6155 70 80.2622 70.4105 79.111 71.1797C77.9599 71.9489 77.0627 73.0421 76.5328 74.3212C76.003 75.6003 75.8644 77.0078 76.1345 78.3656C76.4046 79.7235 77.0713 80.9708 78.0503 81.9497C79.0292 82.9287 80.2765 83.5954 81.6344 83.8655C82.9922 84.1356 84.3997 83.997 85.6788 83.4672C86.9579 82.9373 88.0511 82.0401 88.8203 80.889C89.5895 79.7378 90 78.3845 90 77C90 75.1435 89.2625 73.363 87.9497 72.0503C86.637 70.7375 84.8565 70 83 70ZM83 82C82.0111 82 81.0444 81.7068 80.2221 81.1573C79.3999 80.6079 78.759 79.827 78.3806 78.9134C78.0022 77.9998 77.9032 76.9945 78.0961 76.0246C78.289 75.0546 78.7652 74.1637 79.4645 73.4645C80.1637 72.7652 81.0546 72.289 82.0246 72.0961C82.9945 71.9032 83.9998 72.0022 84.9134 72.3806C85.827 72.759 86.6079 73.3999 87.1573 74.2221C87.7068 75.0444 88 76.0111 88 77C88 77.6566 87.8707 78.3068 87.6194 78.9134C87.3681 79.52 86.9998 80.0712 86.5355 80.5355C86.0712 80.9998 85.52 81.3681 84.9134 81.6194C84.3068 81.8707 83.6566 82 83 82Z" fill="#39426A" />
    <path d="M30 73C29.2089 73 28.4355 73.2346 27.7777 73.6741C27.1199 74.1136 26.6072 74.7384 26.3045 75.4693C26.0017 76.2002 25.9225 77.0044 26.0769 77.7804C26.2312 78.5563 26.6122 79.269 27.1716 79.8284C27.731 80.3878 28.4437 80.7688 29.2196 80.9231C29.9956 81.0775 30.7998 80.9983 31.5307 80.6955C32.2616 80.3928 32.8864 79.8801 33.3259 79.2223C33.7654 78.5645 34 77.7911 34 77C34 75.9391 33.5786 74.9217 32.8284 74.1716C32.0783 73.4214 31.0609 73 30 73ZM30 79C29.6044 79 29.2178 78.8827 28.8889 78.6629C28.56 78.4432 28.3036 78.1308 28.1522 77.7654C28.0009 77.3999 27.9613 76.9978 28.0384 76.6098C28.1156 76.2219 28.3061 75.8655 28.5858 75.5858C28.8655 75.3061 29.2219 75.1156 29.6098 75.0384C29.9978 74.9613 30.3999 75.0009 30.7654 75.1522C31.1308 75.3036 31.4432 75.56 31.6629 75.8889C31.8827 76.2178 32 76.6044 32 77C32 77.5304 31.7893 78.0391 31.4142 78.4142C31.0391 78.7893 30.5304 79 30 79Z" fill="#39426A" />
    <path d="M42 73C41.2089 73 40.4355 73.2346 39.7777 73.6741C39.1199 74.1136 38.6072 74.7384 38.3045 75.4693C38.0017 76.2002 37.9225 77.0044 38.0769 77.7804C38.2312 78.5563 38.6122 79.269 39.1716 79.8284C39.731 80.3878 40.4437 80.7688 41.2196 80.9231C41.9956 81.0775 42.7998 80.9983 43.5307 80.6955C44.2616 80.3928 44.8864 79.8801 45.3259 79.2223C45.7654 78.5645 46 77.7911 46 77C46 75.9391 45.5786 74.9217 44.8284 74.1716C44.0783 73.4214 43.0609 73 42 73ZM42 79C41.6044 79 41.2178 78.8827 40.8889 78.6629C40.56 78.4432 40.3036 78.1308 40.1522 77.7654C40.0009 77.3999 39.9613 76.9978 40.0384 76.6098C40.1156 76.2219 40.3061 75.8655 40.5858 75.5858C40.8655 75.3061 41.2219 75.1156 41.6098 75.0384C41.9978 74.9613 42.3999 75.0009 42.7654 75.1522C43.1308 75.3036 43.4432 75.56 43.6629 75.8889C43.8827 76.2178 44 76.6044 44 77C44 77.5304 43.7893 78.0391 43.4142 78.4142C43.0391 78.7893 42.5304 79 42 79Z" fill="#39426A" />
    <path d="M54 73C53.2089 73 52.4355 73.2346 51.7777 73.6741C51.1199 74.1136 50.6072 74.7384 50.3045 75.4693C50.0017 76.2002 49.9225 77.0044 50.0769 77.7804C50.2312 78.5563 50.6122 79.269 51.1716 79.8284C51.731 80.3878 52.4437 80.7688 53.2196 80.9231C53.9956 81.0775 54.7998 80.9983 55.5307 80.6955C56.2616 80.3928 56.8864 79.8801 57.3259 79.2223C57.7654 78.5645 58 77.7911 58 77C58 75.9391 57.5786 74.9217 56.8284 74.1716C56.0783 73.4214 55.0609 73 54 73ZM54 79C53.6044 79 53.2178 78.8827 52.8889 78.6629C52.56 78.4432 52.3036 78.1308 52.1522 77.7654C52.0009 77.3999 51.9613 76.9978 52.0384 76.6098C52.1156 76.2219 52.3061 75.8655 52.5858 75.5858C52.8655 75.3061 53.2219 75.1156 53.6098 75.0384C53.9978 74.9613 54.3999 75.0009 54.7654 75.1522C55.1308 75.3036 55.4432 75.56 55.6629 75.8889C55.8827 76.2178 56 76.6044 56 77C56 77.5304 55.7893 78.0391 55.4142 78.4142C55.0391 78.7893 54.5304 79 54 79Z" fill="#39426A" />
    <path d="M66 73C65.2089 73 64.4355 73.2346 63.7777 73.6741C63.1199 74.1136 62.6072 74.7384 62.3045 75.4693C62.0017 76.2002 61.9225 77.0044 62.0769 77.7804C62.2312 78.5563 62.6122 79.269 63.1716 79.8284C63.731 80.3878 64.4437 80.7688 65.2196 80.9231C65.9956 81.0775 66.7998 80.9983 67.5307 80.6955C68.2616 80.3928 68.8864 79.8801 69.3259 79.2223C69.7654 78.5645 70 77.7911 70 77C70 75.9391 69.5786 74.9217 68.8284 74.1716C68.0783 73.4214 67.0609 73 66 73ZM66 79C65.6044 79 65.2178 78.8827 64.8889 78.6629C64.56 78.4432 64.3036 78.1308 64.1522 77.7654C64.0009 77.3999 63.9613 76.9978 64.0384 76.6098C64.1156 76.2219 64.3061 75.8655 64.5858 75.5858C64.8655 75.3061 65.2219 75.1156 65.6098 75.0384C65.9978 74.9613 66.3999 75.0009 66.7654 75.1522C67.1308 75.3036 67.4432 75.56 67.6629 75.8889C67.8827 76.2178 68 76.6044 68 77C68 77.5304 67.7893 78.0391 67.4142 78.4142C67.0391 78.7893 66.5304 79 66 79Z" fill="#39426A" />
    <path d="M18 71C19.1046 71 20 70.1046 20 69C20 67.8954 19.1046 67 18 67C16.8954 67 16 67.8954 16 69C16 70.1046 16.8954 71 18 71Z" fill="#AEB4C6" />
    <path fill-rule="evenodd" clip-rule="evenodd" d="M33.1926 47.9241C32.5339 47.4216 32.3802 46.5159 32.8492 45.9011L60.1518 10.1132C60.6208 9.49838 61.535 9.40734 62.1936 9.90982C62.8523 10.4123 63.006 11.318 62.537 11.9328L35.2344 47.7207C34.7654 48.3355 33.8512 48.4265 33.1926 47.9241Z" fill="#969CB2" stroke="#39426A" stroke-width="2" stroke-linecap="round" />
  </g>
  <defs>
    <clipPath id="clip0">
      <rect width="96" height="96" fill="white" />
    </clipPath>
  </defs>
</svg>