<svg id="Layer_1" data-name="Layer 1" xmlns="http://www.w3.org/2000/svg" viewBox="0 0 96 96">
  <defs>
    <style>.cls-1{fill:#6a6e86;}.cls-2{fill:#8288a1;}.cls-3{fill:#969cb2;}.cls-4{fill:#878c9f;}.cls-5{fill:#797c92;}.cls-6{fill:#f6b756;}.cls-7{fill:#aeb4c6;}.cls-8{fill:#c6ccda;}.cls-9{fill:#39426a;}</style>
  </defs>
  <title>modem, wifi, wireless, internet, electronic, device, connection</title>
  <rect class="cls-1" x="6" y="90" width="14" height="5" />
  <rect class="cls-1" x="76" y="90" width="14" height="5" />
  <path class="cls-2" d="M95,68V86a4.43,4.43,0,0,1-.1.9A4,4,0,0,1,91,90H5a4,4,0,0,1-4-4V68a4,4,0,0,1,3.1-3.9A4.43,4.43,0,0,1,5,64H91A4,4,0,0,1,95,68Z" />
  <path class="cls-3" d="M95,68V86a4.43,4.43,0,0,1-.1.9,4.43,4.43,0,0,1-.9.1H8a4,4,0,0,1-4-4V65a4.43,4.43,0,0,1,.1-.9A4.43,4.43,0,0,1,5,64H91A4,4,0,0,1,95,68Z" />
  <circle class="cls-4" cx="13" cy="77" r="6" />
  <circle class="cls-1" cx="13" cy="77" r="6" />
  <circle class="cls-5" cx="13" cy="77" r="3" />
  <circle class="cls-6" cx="30" cy="77" r="3" />
  <circle class="cls-6" cx="42" cy="77" r="3" />
  <circle class="cls-6" cx="54" cy="77" r="3" />
  <circle class="cls-6" cx="66" cy="77" r="3" />
  <circle class="cls-1" cx="83" cy="77" r="6" />
  <circle class="cls-5" cx="83" cy="77" r="3" />
  <rect class="cls-7" x="23" y="67" width="69" height="4" rx="2" />
  <rect class="cls-3" x="7" y="56" width="10" height="8" />
  <rect class="cls-3" x="79" y="56" width="10" height="8" />
  <rect class="cls-2" x="7" y="60" width="10" height="4" />
  <rect class="cls-2" x="79" y="60" width="10" height="4" />
  <path class="cls-8" d="M14,32V3a2,2,0,0,0-2-2h0a2,2,0,0,0-2,2V32L9,56h6Z" />
  <path class="cls-8" d="M86,32V3a2,2,0,0,0-2-2h0a2,2,0,0,0-2,2V32L81,56h6Z" />
  <circle class="cls-6" cx="48" cy="43" r="3" />
  <path class="cls-6" d="M58.61,32.39a15,15,0,0,0-21.22,0l4.25,4.25a9,9,0,0,1,12.72,0Z" />
  <path class="cls-6" d="M67.09,23.91a27,27,0,0,0-38.18,0l4.24,4.24a21,21,0,0,1,29.7,0Z" />
  <path class="cls-9" d="M91,63H90V56a1,1,0,0,0-1-1H88L87,32V3a3,3,0,0,0-6,0V32L80,55H79a1,1,0,0,0-1,1v7H18V56a1,1,0,0,0-1-1H16L15,32V3A3,3,0,0,0,9,3V32L8,55H7a1,1,0,0,0-1,1v7H5a5,5,0,0,0-5,5V86a5,5,0,0,0,5,5v4a1,1,0,0,0,1,1H20a1,1,0,0,0,1-1V91H75v4a1,1,0,0,0,1,1H90a1,1,0,0,0,1-1V91a5,5,0,0,0,5-5V68A5,5,0,0,0,91,63ZM83,32V3a1,1,0,0,1,2,0V32l1,23H82ZM80,57h8v6H80ZM11,32V3a1,1,0,0,1,2,0V32l1,23H10ZM8,57h8v6H8ZM19,94H7V91H19Zm70,0H77V91H89Zm5-8a3,3,0,0,1-3,3H5a3,3,0,0,1-3-3V68a3,3,0,0,1,3-3H91a3,3,0,0,1,3,3Z" />
  <path class="cls-9" d="M44,43a4,4,0,1,0,4-4A4,4,0,0,0,44,43Zm6,0a2,2,0,1,1-2-2A2,2,0,0,1,50,43Z" />
  <path class="cls-9" d="M54.36,37.64a1,1,0,0,0,.71-.3l4.24-4.24a1,1,0,0,0,0-1.41,16,16,0,0,0-22.62,0,1,1,0,0,0,0,1.41l4.24,4.24a1,1,0,0,0,1.41,0,8,8,0,0,1,11.32,0A1,1,0,0,0,54.36,37.64ZM41.67,35.26l-2.84-2.84a14,14,0,0,1,18.34,0l-2.84,2.84a10,10,0,0,0-12.66,0Z" />
  <path class="cls-9" d="M32.44,28.86a1,1,0,0,0,1.42,0,20,20,0,0,1,28.28,0,1,1,0,0,0,1.42,0l4.24-4.24a1,1,0,0,0,0-1.42,28,28,0,0,0-39.6,0,1,1,0,0,0,0,1.42Zm33.22-4.94-2.83,2.83a22,22,0,0,0-29.66,0l-2.83-2.83A26,26,0,0,1,65.66,23.92Z" />
  <path class="cls-9" d="M13,70a7,7,0,1,0,7,7A7,7,0,0,0,13,70Zm0,12a5,5,0,1,1,5-5A5,5,0,0,1,13,82Z" />
  <path class="cls-9" d="M83,70a7,7,0,1,0,7,7A7,7,0,0,0,83,70Zm0,12a5,5,0,1,1,5-5A5,5,0,0,1,83,82Z" />
  <path class="cls-9" d="M30,73a4,4,0,1,0,4,4A4,4,0,0,0,30,73Zm0,6a2,2,0,1,1,2-2A2,2,0,0,1,30,79Z" />
  <path class="cls-9" d="M42,73a4,4,0,1,0,4,4A4,4,0,0,0,42,73Zm0,6a2,2,0,1,1,2-2A2,2,0,0,1,42,79Z" />
  <path class="cls-9" d="M54,73a4,4,0,1,0,4,4A4,4,0,0,0,54,73Zm0,6a2,2,0,1,1,2-2A2,2,0,0,1,54,79Z" />
  <path class="cls-9" d="M66,73a4,4,0,1,0,4,4A4,4,0,0,0,66,73Zm0,6a2,2,0,1,1,2-2A2,2,0,0,1,66,79Z" />
  <circle class="cls-7" cx="18" cy="69" r="2" />
</svg>