<svg id="Layer_1" data-name="Layer 1" xmlns="http://www.w3.org/2000/svg" viewBox="0 0 96 96">
  <defs>
    <style>.cls-1{fill:#7190c4;}.cls-2{fill:#89a3ce;}.cls-3{fill:#a5b9db;}.cls-4{fill:#dd8b37;}.cls-5{fill:#e69c4b;}.cls-6{fill:#ecaa63;}.cls-7{fill:#5c5f7d;}.cls-8{fill:#c6ccda;}.cls-9{fill:#f69163;}.cls-10{fill:#cf4055;}.cls-11{fill:#f6b756;}.cls-12{fill:#39426a;}</style>
  </defs>
  <title>pin, credit card, card, payment, protection, privacy</title>
  <rect class="cls-1" x="1.76" y="14.55" width="82.64" height="57.06" rx="3.94" />
  <path class="cls-2" d="M84.4,18.49V67.68H9.63A3.93,3.93,0,0,1,5.7,63.74V14.55H80.47A3.93,3.93,0,0,1,84.4,18.49Z" />
  <path class="cls-3" d="M9.63,17.5H79.48a2,2,0,0,1,2,2V63.74a2,2,0,0,1-2,2H53.9A46.24,46.24,0,0,1,7.66,19.47v0A2,2,0,0,1,9.63,17.5Z" />
  <rect class="cls-4" x="62.76" y="53.9" width="31.48" height="27.55" />
  <path class="cls-5" d="M65.71,53.9H93.26a0,0,0,0,1,0,0V75.55a3,3,0,0,1-3,3H68.66a3,3,0,0,1-3-3V53.9A0,0,0,0,1,65.71,53.9Z" />
  <path class="cls-6" d="M69.64,56.85H89.32a2,2,0,0,1,2,2V74.56a2,2,0,0,1-2,2H85.39A17.71,17.71,0,0,1,67.68,58.82v0A2,2,0,0,1,69.64,56.85Z" />
  <path class="cls-7" d="M82.43,64.73a3.94,3.94,0,1,0-5.9,3.38V72.6a2,2,0,0,0,3.94,0V68.11A3.9,3.9,0,0,0,82.43,64.73Z" />
  <path class="cls-8" d="M89.32,49V53.9H84.4V49a5.9,5.9,0,0,0-11.8,0V53.9H67.68V49a10.82,10.82,0,0,1,21.64,0Z" />
  <circle class="cls-9" cx="57.84" cy="30.29" r="6.89" />
  <circle class="cls-10" cx="66.69" cy="30.29" r="6.89" />
  <rect class="cls-5" x="9.63" y="27.34" width="15.74" height="11.81" />
  <rect class="cls-4" x="14.55" y="27.34" width="5.9" height="11.81" />
  <rect class="cls-11" x="10.61" y="31.28" width="3.94" height="3.94" />
  <rect class="cls-11" x="20.45" y="31.28" width="3.94" height="3.94" />
  <rect class="cls-5" x="14.55" y="31.28" width="2.95" height="3.94" />
  <path class="cls-12" d="M94.24,52.92H90.3V49a11.81,11.81,0,0,0-4.91-9.57V18.49a4.92,4.92,0,0,0-4.92-4.92H5.7A4.92,4.92,0,0,0,.78,18.49V67.68A4.92,4.92,0,0,0,5.7,72.6H61.77v8.85a1,1,0,0,0,1,1H94.24a1,1,0,0,0,1-1V53.9A1,1,0,0,0,94.24,52.92ZM88.34,49v3.94h-3V49a6.89,6.89,0,0,0-13.78,0v3.94h-3V49a9.84,9.84,0,0,1,19.68,0Zm-4.92,3.94H73.58V49a4.92,4.92,0,0,1,9.84,0ZM5.7,70.63a3,3,0,0,1-3-2.95V18.49a3,3,0,0,1,3-3H80.47a3,3,0,0,1,3,3V38.27a11.58,11.58,0,0,0-4.92-1.09A11.82,11.82,0,0,0,66.69,49v3.94H62.76a1,1,0,0,0-1,1V70.63Zm87.56,9.84H63.74V54.89H93.26Z" />
  <path class="cls-12" d="M78.5,59.81a4.9,4.9,0,0,0-3,8.83v4a3,3,0,0,0,5.9,0v-4a4.9,4.9,0,0,0-3-8.83ZM80,67.26a1,1,0,0,0-.49.85V72.6a1,1,0,0,1-2,0V68.11a1,1,0,0,0-.48-.85,2.89,2.89,0,0,1-1.48-2.53,3,3,0,1,1,5.9,0A2.89,2.89,0,0,1,80,67.26Z" />
  <path class="cls-12" d="M9.63,40.13H25.37a1,1,0,0,0,1-1V27.34a1,1,0,0,0-1-1H9.63a1,1,0,0,0-1,1V39.15A1,1,0,0,0,9.63,40.13Zm1-11.81H24.39v9.84H10.61Z" />
  <path class="cls-12" d="M57.84,38.16a7.81,7.81,0,0,0,4.43-1.37,7.74,7.74,0,0,0,4.42,1.37,7.87,7.87,0,1,0-4.43-14.37,7.87,7.87,0,1,0-4.42,14.37ZM72.6,30.29a5.91,5.91,0,1,1-5.91-5.9A5.91,5.91,0,0,1,72.6,30.29Zm-14.76-5.9a5.82,5.82,0,0,1,2.9.77,7.83,7.83,0,0,0,0,10.27,5.9,5.9,0,1,1-2.9-11Z" />
  <path class="cls-12" d="M17.5,56.85H9.63a1,1,0,0,0,0,2H17.5a1,1,0,1,0,0-2Z" />
  <path class="cls-12" d="M31.27,56.85H23.4a1,1,0,0,0,0,2h7.87a1,1,0,1,0,0-2Z" />
  <path class="cls-12" d="M45.05,56.85H37.18a1,1,0,1,0,0,2h7.87a1,1,0,0,0,0-2Z" />
  <path class="cls-12" d="M58.82,56.85H51a1,1,0,0,0,0,2h7.87a1,1,0,1,0,0-2Z" />
</svg>