<svg viewBox="0 0 84 58" fill="none" xmlns="http://www.w3.org/2000/svg">
  <path d="M79.46 0.550003H4.70001C2.52401 0.550003 0.76001 2.314 0.76001 4.49V53.67C0.76001 55.846 2.52401 57.61 4.70001 57.61H79.46C81.636 57.61 83.4 55.846 83.4 53.67V4.49C83.4 2.314 81.636 0.550003 79.46 0.550003Z" fill="#7190C4" />
  <path d="M83.4 4.49V53.68H8.63003C8.11309 53.68 7.60123 53.578 7.12377 53.3799C6.6463 53.1818 6.21262 52.8914 5.84755 52.5254C5.48249 52.1594 5.19322 51.725 4.9963 51.247C4.79939 50.7691 4.69871 50.2569 4.70002 49.74V0.550003H79.47C79.987 0.550001 80.4988 0.651984 80.9763 0.85011C81.4537 1.04824 81.8874 1.33861 82.2525 1.70461C82.6176 2.0706 82.9068 2.50502 83.1037 2.98299C83.3007 3.46095 83.4013 3.97307 83.4 4.49Z" fill="#89A3CE" />
  <path d="M8.62998 3.5H78.48C79.0104 3.5 79.5191 3.71071 79.8942 4.08579C80.2693 4.46086 80.48 4.96957 80.48 5.5V49.74C80.48 50.0026 80.4283 50.2627 80.3277 50.5054C80.2272 50.748 80.0799 50.9685 79.8942 51.1542C79.7085 51.3399 79.488 51.4873 79.2454 51.5878C79.0027 51.6883 78.7426 51.74 78.48 51.74H52.9C46.8251 51.74 40.8098 50.543 35.1978 48.2173C29.5857 45.8917 24.4869 42.483 20.1928 38.186C15.8986 33.8891 12.4932 28.7881 10.1712 23.1745C7.84917 17.5609 6.65604 11.5448 6.65998 5.47C6.66773 4.94994 6.87777 4.45335 7.24555 4.08557C7.61333 3.71778 8.10992 3.50774 8.62998 3.5Z" fill="#A5B9DB" />
  <path d="M56.84 23.18C60.6452 23.18 63.73 20.0952 63.73 16.29C63.73 12.4848 60.6452 9.4 56.84 9.4C53.0347 9.4 49.95 12.4848 49.95 16.29C49.95 20.0952 53.0347 23.18 56.84 23.18Z" fill="#F69163" />
  <path d="M65.6901 23.18C69.4953 23.18 72.5801 20.0952 72.5801 16.29C72.5801 12.4848 69.4953 9.4 65.6901 9.4C61.8848 9.4 58.8 12.4848 58.8 16.29C58.8 20.0952 61.8848 23.18 65.6901 23.18Z" fill="#CF4055" />
  <path d="M24.37 13.34H8.63V25.15H24.37V13.34Z" fill="#E69C4B" />
  <path d="M19.45 13.34H13.55V25.15H19.45V13.34Z" fill="#DD8B37" />
  <path d="M13.55 17.28H9.60999V21.22H13.55V17.28Z" fill="#F6B756" />
  <path d="M23.3899 17.28H19.45V21.22H23.3899V17.28Z" fill="#F6B756" />
  <path d="M16.5 17.28H13.55V21.22H16.5V17.28Z" fill="#E69C4B" />
  <path d="M8.63 26.13H24.37C24.6352 26.13 24.8896 26.0246 25.0771 25.8371C25.2646 25.6496 25.37 25.3952 25.37 25.13V13.34C25.37 13.0748 25.2646 12.8204 25.0771 12.6329C24.8896 12.4454 24.6352 12.34 24.37 12.34H8.63C8.36479 12.34 8.11043 12.4454 7.9229 12.6329C7.73536 12.8204 7.63 13.0748 7.63 13.34V25.15C7.63524 25.4117 7.7429 25.661 7.92988 25.8442C8.11685 26.0274 8.36822 26.13 8.63 26.13ZM9.63 14.32H23.39V24.16H9.61L9.63 14.32Z" fill="#39426A" />
  <path d="M56.84 24.16C58.4213 24.1623 59.966 23.6846 61.27 22.79C62.5691 23.6867 64.1114 24.1647 65.69 24.16C66.9225 24.1611 68.138 23.8727 69.2386 23.318C70.3393 22.7634 71.2943 21.958 72.0267 20.9667C72.7591 19.9754 73.2484 18.826 73.4553 17.6109C73.6622 16.3959 73.5808 15.1493 73.2177 13.9715C72.8546 12.7937 72.2199 11.7176 71.3649 10.83C70.5098 9.94236 69.4582 9.26796 68.2948 8.86112C67.1313 8.45428 65.8886 8.32638 64.6667 8.48772C63.4448 8.64906 62.2779 9.09513 61.26 9.79C60.2417 9.0949 59.0743 8.64877 57.852 8.48757C56.6296 8.32637 55.3865 8.45462 54.2228 8.86196C53.0591 9.26931 52.0074 9.94437 51.1525 10.8327C50.2975 11.7211 49.6633 12.7979 49.3008 13.9763C48.9383 15.1547 48.8578 16.4018 49.0657 17.6171C49.2736 18.8324 49.7641 19.9818 50.4977 20.9727C51.2313 21.9636 52.1875 22.7684 53.2891 23.322C54.3908 23.8756 55.607 24.1627 56.84 24.16ZM71.6 16.29C71.6019 17.4593 71.257 18.6029 70.6088 19.5761C69.9606 20.5493 69.0383 21.3084 67.9586 21.7572C66.8788 22.2061 65.6902 22.3246 64.5431 22.0977C63.396 21.8707 62.342 21.3087 61.5145 20.4825C60.687 19.6564 60.1231 18.6034 59.8943 17.4567C59.6654 16.31 59.7819 15.1211 60.2289 14.0407C60.6759 12.9602 61.4334 12.0366 62.4055 11.3867C63.3776 10.7369 64.5207 10.39 65.69 10.39C67.2557 10.39 68.7574 11.0113 69.8654 12.1175C70.9735 13.2236 71.5973 14.7243 71.6 16.29ZM56.84 10.39C57.8573 10.3888 58.8572 10.6543 59.74 11.16C58.5025 12.5845 57.821 14.408 57.821 16.295C57.821 18.182 58.5025 20.0055 59.74 21.43C58.9546 21.8867 58.0743 22.1559 57.1678 22.2165C56.2613 22.2771 55.353 22.1275 54.5138 21.7795C53.6745 21.4314 52.9271 20.8942 52.3295 20.2098C51.732 19.5254 51.3007 18.7122 51.0691 17.8337C50.8374 16.9552 50.8119 16.035 50.9943 15.145C51.1767 14.2549 51.5622 13.4191 52.1207 12.7025C52.6793 11.9859 53.3958 11.408 54.2144 11.0138C55.0329 10.6197 55.9315 10.4199 56.84 10.43V10.39Z" fill="#39426A" />
  <path d="M16.5 42.85H8.63C8.36479 42.85 8.11043 42.9554 7.9229 43.1429C7.73536 43.3304 7.63 43.5848 7.63 43.85C7.63 44.1152 7.73536 44.3696 7.9229 44.5571C8.11043 44.7446 8.36479 44.85 8.63 44.85H16.5C16.7652 44.85 17.0196 44.7446 17.2071 44.5571C17.3946 44.3696 17.5 44.1152 17.5 43.85C17.5 43.5848 17.3946 43.3304 17.2071 43.1429C17.0196 42.9554 16.7652 42.85 16.5 42.85Z" fill="#39426A" />
  <path d="M30.27 42.85H22.4C22.1348 42.85 21.8805 42.9554 21.6929 43.1429C21.5054 43.3304 21.4 43.5848 21.4 43.85C21.4 44.1152 21.5054 44.3696 21.6929 44.5571C21.8805 44.7446 22.1348 44.85 22.4 44.85H30.27C30.5352 44.85 30.7896 44.7446 30.9771 44.5571C31.1647 44.3696 31.27 44.1152 31.27 43.85C31.27 43.5848 31.1647 43.3304 30.9771 43.1429C30.7896 42.9554 30.5352 42.85 30.27 42.85Z" fill="#39426A" />
  <path d="M44.0501 42.85H36.1801C35.9148 42.85 35.6605 42.9554 35.4729 43.1429C35.2854 43.3304 35.1801 43.5848 35.1801 43.85C35.1801 44.1152 35.2854 44.3696 35.4729 44.5571C35.6605 44.7446 35.9148 44.85 36.1801 44.85H44.0501C44.3153 44.85 44.5696 44.7446 44.7572 44.5571C44.9447 44.3696 45.0501 44.1152 45.0501 43.85C45.0501 43.5848 44.9447 43.3304 44.7572 43.1429C44.5696 42.9554 44.3153 42.85 44.0501 42.85Z" fill="#39426A" />
  <path d="M57.82 42.85H50C49.7348 42.85 49.4804 42.9554 49.2929 43.1429C49.1054 43.3304 49 43.5848 49 43.85C49 44.1152 49.1054 44.3696 49.2929 44.5571C49.4804 44.7446 49.7348 44.85 50 44.85H57.87C58.1352 44.85 58.3896 44.7446 58.5771 44.5571C58.7646 44.3696 58.87 44.1152 58.87 43.85C58.87 43.5848 58.7646 43.3304 58.5771 43.1429C58.3896 42.9554 58.1352 42.85 57.87 42.85H57.82Z" fill="#39426A" />
  <rect x="1.25" y="1.25" width="81.5" height="55.5" rx="2.75" stroke="#39426A" stroke-width="2.5" />
</svg>