<svg id="Layer_1" data-name="Layer 1" xmlns="http://www.w3.org/2000/svg" viewBox="0 0 96 96">
  <defs>
    <style>.cls-1{fill:#dfe2e8;}.cls-2{fill:#b9c1d0;}.cls-3{fill:#f4f5f6;}.cls-4{fill:#39426a;}.cls-5{fill:#888da0;}</style>
  </defs>
  <title>document, paper, page, writing, stationery, office, supplies</title>
  <polygon class="cls-1" points="95 15.3 88.03 95 50.72 91.73 39.15 90.72 78 13.82 81 14.08 95 15.3" />
  <path class="cls-2" d="M81,82a2,2,0,0,1-2,2H76.92l0,.07.17,1a2,2,0,0,1-1.62,2.31L50.72,91.73l-11.57-1L78,13.82l3,.26Z" />
  <polygon class="cls-1" points="73.98 84.58 14.89 95 1 16.22 15 13.75 18 13.22 73.35 81 73.88 84 73.98 84.58" />
  <path class="cls-2" d="M73.88,84H17a2,2,0,0,1-2-2V13.75l3-.53L73.35,81Z" />
  <rect class="cls-1" x="18" y="1" width="60" height="80" />
  <path class="cls-3" d="M78,1V78H31A10,10,0,0,1,21,68V1Z" />
  <path class="cls-4" d="M95.77,14.66a1,1,0,0,0-.68-.36L79,12.9V1a1,1,0,0,0-1-1H18a1,1,0,0,0-1,1V12.38L.83,15.24A1,1,0,0,0,0,16.39L13.91,95.17a1,1,0,0,0,.41.65,1,1,0,0,0,.57.18.47.47,0,0,0,.17,0L39.2,91.73,87.94,96H88a1,1,0,0,0,.64-.23,1,1,0,0,0,.36-.68l7-79.7A1,1,0,0,0,95.77,14.66ZM19,2H77V80H19ZM2.16,17,17,14.41V81a1,1,0,0,0,1,1H72.51l.31,1.77L15.7,93.84Zm85,76.89L46.81,90.39l27.34-4.83A1,1,0,0,0,75,84.41L74.54,82H78a1,1,0,0,0,1-1V14.91l14.92,1.3Z" />
  <path class="cls-5" d="M69,12H34a1,1,0,0,0,0,2H69a1,1,0,0,0,0-2Z" />
  <path class="cls-5" d="M69,20H56a1,1,0,0,0,0,2H69a1,1,0,0,0,0-2Z" />
  <path class="cls-5" d="M27,22H52a1,1,0,0,0,0-2H27a1,1,0,0,0,0,2Z" />
  <path class="cls-5" d="M69,28H27a1,1,0,0,0,0,2H69a1,1,0,0,0,0-2Z" />
  <path class="cls-5" d="M60,38a1,1,0,0,0,0-2H43a1,1,0,0,0,0,2Z" />
  <path class="cls-5" d="M69,36H64a1,1,0,0,0,0,2h5a1,1,0,0,0,0-2Z" />
  <path class="cls-5" d="M27,38H39a1,1,0,0,0,0-2H27a1,1,0,0,0,0,2Z" />
  <path class="cls-5" d="M69,44H27a1,1,0,0,0,0,2H69a1,1,0,0,0,0-2Z" />
  <path class="cls-5" d="M69,52H56a1,1,0,0,0,0,2H69a1,1,0,0,0,0-2Z" />
  <path class="cls-5" d="M27,54H52a1,1,0,0,0,0-2H27a1,1,0,0,0,0,2Z" />
  <path class="cls-5" d="M69,60H27a1,1,0,0,0,0,2H69a1,1,0,0,0,0-2Z" />
  <path class="cls-5" d="M62,68H43a1,1,0,0,0,0,2H62a1,1,0,0,0,0-2Z" />
  <path class="cls-5" d="M39,68H27a1,1,0,0,0,0,2H39a1,1,0,0,0,0-2Z" />
</svg>