<svg viewBox="0 0 96 96" fill="none" xmlns="http://www.w3.org/2000/svg">
  <g clip-path="url(#clip0)">
    <path d="M33 90H63C64.3261 90 65.5979 90.5268 66.5355 91.4645C67.4732 92.4021 68 93.6739 68 95H28C28 93.6739 28.5268 92.4021 29.4645 91.4645C30.4021 90.5268 31.6739 90 33 90Z" fill="#C6CCDA" />
    <path d="M60 90H36L37.44 84.72L39 77H57L57.69 80L59.31 87L60 90Z" fill="#8288A1" />
    <path d="M59.31 87H47C46.1545 87.0019 45.3192 86.8158 44.5546 86.455C43.7899 86.0942 43.1151 85.5679 42.579 84.914C42.043 84.2602 41.6591 83.4953 41.4551 82.6748C41.2512 81.8543 41.2324 80.9987 41.4 80.17V80H57.7L59.31 87Z" fill="#969CB2" />
    <path d="M89 1H7C3.68629 1 1 3.68629 1 7V71C1 74.3137 3.68629 77 7 77H89C92.3137 77 95 74.3137 95 71V7C95 3.68629 92.3137 1 89 1Z" fill="#B8C0CE" />
    <path d="M7 1H89C90.5913 1 92.1174 1.63214 93.2426 2.75736C94.3679 3.88258 95 5.4087 95 7V65H1V7C1 5.4087 1.63214 3.88258 2.75736 2.75736C3.88258 1.63214 5.4087 1 7 1Z" fill="#5C5F7D" />
    <path d="M88 6H8C6.89543 6 6 6.89543 6 8V58C6 59.1046 6.89543 60 8 60H88C89.1046 60 90 59.1046 90 58V8C90 6.89543 89.1046 6 88 6Z" fill="#89A3CE" />
    <path d="M90 8V54.05C90 54.5804 89.7893 55.0891 89.4142 55.4642C89.0392 55.8393 88.5304 56.05 88 56.05H26C23.8947 56.05 21.81 55.6345 19.8655 54.8273C17.921 54.0201 16.155 52.8371 14.6686 51.346C13.1822 49.855 12.0047 48.0853 11.2036 46.1383C10.4024 44.1913 9.99344 42.1054 10 40V6H88C88.5304 6 89.0392 6.21071 89.4142 6.58579C89.7893 6.96086 90 7.46957 90 8Z" fill="#A5B9DB" />
    <path d="M13 21H87V53H45C36.5131 53 28.3737 49.6286 22.3726 43.6274C16.3714 37.6263 13 29.4869 13 21Z" fill="#C3D2E7" />
    <path d="M90 8V18H6V8C6 7.46957 6.21071 6.96086 6.58579 6.58579C6.96086 6.21071 7.46957 6 8 6H88C88.5304 6 89.0391 6.21071 89.4142 6.58579C89.7893 6.96086 90 7.46957 90 8Z" fill="#90D1D7" />
    <path d="M90 8V15H18C15.6131 15 13.3239 14.0518 11.636 12.364C9.94821 10.6761 9 8.38695 9 6H88C88.5304 6 89.0391 6.21071 89.4142 6.58579C89.7893 6.96086 90 7.46957 90 8Z" fill="#ABD9E6" />
    <path d="M14 14C15.1046 14 16 13.1046 16 12C16 10.8954 15.1046 10 14 10C12.8954 10 12 10.8954 12 12C12 13.1046 12.8954 14 14 14Z" fill="#CF4055" />
    <path d="M24 14C25.1046 14 26 13.1046 26 12C26 10.8954 25.1046 10 24 10C22.8954 10 22 10.8954 22 12C22 13.1046 22.8954 14 24 14Z" fill="#F6B756" />
    <path d="M34 14C35.1046 14 36 13.1046 36 12C36 10.8954 35.1046 10 34 10C32.8954 10 32 10.8954 32 12C32 13.1046 32.8954 14 34 14Z" fill="#85BD79" />
    <path d="M85 9H52C50.8954 9 50 9.89543 50 11C50 12.1046 50.8954 13 52 13H85C86.1046 13 87 12.1046 87 11C87 9.89543 86.1046 9 85 9Z" fill="#C3E1F5" />
    <path d="M45 13C46.1046 13 47 12.1046 47 11C47 9.89543 46.1046 9 45 9C43.8954 9 43 9.89543 43 11C43 12.1046 43.8954 13 45 13Z" fill="#C3E1F5" />
    <path d="M3 65H92V70C92 71.0609 91.5786 72.0783 90.8284 72.8284C90.0783 73.5786 89.0609 74 88 74H7C5.93913 74 4.92172 73.5786 4.17157 72.8284C3.42143 72.0783 3 71.0609 3 70V65Z" fill="#CCD1DC" />
    <path d="M88 68H16C14.8954 68 14 68.8954 14 70C14 71.1046 14.8954 72 16 72H88C89.1046 72 90 71.1046 90 70C90 68.8954 89.1046 68 88 68Z" fill="#DEE1E7" />
    <path d="M88 5H8C7.20435 5 6.44129 5.31607 5.87868 5.87868C5.31607 6.44129 5 7.20435 5 8V58C5 58.7957 5.31607 59.5587 5.87868 60.1213C6.44129 60.6839 7.20435 61 8 61H88C88.7956 61 89.5587 60.6839 90.1213 60.1213C90.6839 59.5587 91 58.7957 91 58V8C91 7.20435 90.6839 6.44129 90.1213 5.87868C89.5587 5.31607 88.7956 5 88 5ZM89 58C89 58.2652 88.8946 58.5196 88.7071 58.7071C88.5196 58.8946 88.2652 59 88 59H8C7.73478 59 7.48043 58.8946 7.29289 58.7071C7.10536 58.5196 7 58.2652 7 58V8C7 7.73478 7.10536 7.48043 7.29289 7.29289C7.48043 7.10536 7.73478 7 8 7H88C88.2652 7 88.5196 7.10536 88.7071 7.29289C88.8946 7.48043 89 7.73478 89 8V58Z" fill="#39426A" />
    <path d="M48 68C47.4067 68 46.8266 68.1759 46.3333 68.5056C45.8399 68.8352 45.4554 69.3038 45.2284 69.852C45.0013 70.4001 44.9419 71.0033 45.0576 71.5853C45.1734 72.1672 45.4591 72.7018 45.8787 73.1213C46.2982 73.5409 46.8328 73.8266 47.4147 73.9424C47.9967 74.0581 48.5999 73.9987 49.148 73.7716C49.6962 73.5446 50.1648 73.1601 50.4944 72.6667C50.8241 72.1734 51 71.5933 51 71C51 70.2044 50.6839 69.4413 50.1213 68.8787C49.5587 68.3161 48.7957 68 48 68ZM48 72C47.8022 72 47.6089 71.9413 47.4444 71.8315C47.28 71.7216 47.1518 71.5654 47.0761 71.3827C47.0004 71.2 46.9806 70.9989 47.0192 70.8049C47.0578 70.6109 47.153 70.4327 47.2929 70.2929C47.4327 70.153 47.6109 70.0578 47.8049 70.0192C47.9989 69.9806 48.2 70.0004 48.3827 70.0761C48.5654 70.1518 48.7216 70.28 48.8315 70.4444C48.9414 70.6089 49 70.8022 49 71C49 71.2652 48.8946 71.5196 48.7071 71.7071C48.5196 71.8946 48.2652 72 48 72Z" fill="#39426A" />
    <path d="M8 72C9.10457 72 10 71.1046 10 70C10 68.8954 9.10457 68 8 68C6.89543 68 6 68.8954 6 70C6 71.1046 6.89543 72 8 72Z" fill="#DEE1E7" />
    <path d="M89 0H7C5.14348 0 3.36301 0.737498 2.05025 2.05025C0.737498 3.36301 0 5.14348 0 7L0 71C0 72.8565 0.737498 74.637 2.05025 75.9497C3.36301 77.2625 5.14348 78 7 78H37.78L36.47 84.46L35.24 89H33C31.4087 89 29.8826 89.6321 28.7574 90.7574C27.6321 91.8826 27 93.4087 27 95C27 95.2652 27.1054 95.5196 27.2929 95.7071C27.4804 95.8946 27.7348 96 28 96H68C68.2652 96 68.5196 95.8946 68.7071 95.7071C68.8946 95.5196 69 95.2652 69 95C69 93.4087 68.3679 91.8826 67.2426 90.7574C66.1174 89.6321 64.5913 89 63 89H60.8L58.26 78H89C90.8565 78 92.637 77.2625 93.9497 75.9497C95.2625 74.637 96 72.8565 96 71V7C96 5.14348 95.2625 3.36301 93.9497 2.05025C92.637 0.737498 90.8565 0 89 0ZM66.87 94H29.13C29.3516 93.1419 29.8519 92.3816 30.5523 91.8386C31.2528 91.2956 32.1137 91.0007 33 91H63C63.8863 91.0007 64.7472 91.2956 65.4477 91.8386C66.1481 92.3816 66.6484 93.1419 66.87 94ZM58.74 89H37.31L38.42 84.92L39.82 78H56.2L58.74 89ZM89 76H7C5.67392 76 4.40215 75.4732 3.46447 74.5355C2.52678 73.5979 2 72.3261 2 71V66H94V71C94 72.3261 93.4732 73.5979 92.5355 74.5355C91.5979 75.4732 90.3261 76 89 76ZM94 64H2V7C2 5.67392 2.52678 4.40215 3.46447 3.46447C4.40215 2.52678 5.67392 2 7 2H89C90.3261 2 91.5979 2.52678 92.5355 3.46447C93.4732 4.40215 94 5.67392 94 7V64Z" fill="#39426A" />
    <path d="M88 5H8C7.20435 5 6.44129 5.31607 5.87868 5.87868C5.31607 6.44129 5 7.20435 5 8V58C5 58.7957 5.31607 59.5587 5.87868 60.1213C6.44129 60.6839 7.20435 61 8 61H88C88.7956 61 89.5587 60.6839 90.1213 60.1213C90.6839 59.5587 91 58.7957 91 58V8C91 7.20435 90.6839 6.44129 90.1213 5.87868C89.5587 5.31607 88.7956 5 88 5ZM7 8C7 7.73478 7.10536 7.48043 7.29289 7.29289C7.48043 7.10536 7.73478 7 8 7H88C88.2652 7 88.5196 7.10536 88.7071 7.29289C88.8946 7.48043 89 7.73478 89 8V17H7V8ZM88 59H8C7.73478 59 7.48043 58.8946 7.29289 58.7071C7.10536 58.5196 7 58.2652 7 58V19H89V58C89 58.2652 88.8946 58.5196 88.7071 58.7071C88.5196 58.8946 88.2652 59 88 59Z" fill="#39426A" />
    <path d="M48 68C47.4067 68 46.8266 68.1759 46.3333 68.5056C45.8399 68.8352 45.4554 69.3038 45.2284 69.852C45.0013 70.4001 44.9419 71.0033 45.0576 71.5853C45.1734 72.1672 45.4591 72.7018 45.8787 73.1213C46.2982 73.5409 46.8328 73.8266 47.4147 73.9424C47.9967 74.0581 48.5999 73.9987 49.148 73.7716C49.6962 73.5446 50.1648 73.1601 50.4944 72.6667C50.8241 72.1734 51 71.5933 51 71C51 70.2044 50.6839 69.4413 50.1213 68.8787C49.5587 68.3161 48.7957 68 48 68ZM48 72C47.8022 72 47.6089 71.9413 47.4444 71.8315C47.28 71.7216 47.1518 71.5654 47.0761 71.3827C47.0004 71.2 46.9806 70.9989 47.0192 70.8049C47.0578 70.6109 47.153 70.4327 47.2929 70.2929C47.4327 70.153 47.6109 70.0578 47.8049 70.0192C47.9989 69.9806 48.2 70.0004 48.3827 70.0761C48.5654 70.1518 48.7216 70.28 48.8315 70.4444C48.9414 70.6089 49 70.8022 49 71C49 71.2652 48.8946 71.5196 48.7071 71.7071C48.5196 71.8946 48.2652 72 48 72Z" fill="#39426A" />
    <path d="M14 9C13.4067 9 12.8266 9.17595 12.3333 9.50559C11.8399 9.83524 11.4554 10.3038 11.2284 10.8519C11.0013 11.4001 10.9419 12.0033 11.0576 12.5853C11.1734 13.1672 11.4591 13.7018 11.8787 14.1213C12.2982 14.5409 12.8328 14.8266 13.4147 14.9424C13.9967 15.0581 14.5999 14.9987 15.1481 14.7716C15.6962 14.5446 16.1648 14.1601 16.4944 13.6667C16.8241 13.1734 17 12.5933 17 12C17 11.2044 16.6839 10.4413 16.1213 9.87868C15.5587 9.31607 14.7957 9 14 9ZM14 13C13.8022 13 13.6089 12.9414 13.4444 12.8315C13.28 12.7216 13.1518 12.5654 13.0761 12.3827C13.0004 12.2 12.9806 11.9989 13.0192 11.8049C13.0578 11.6109 13.153 11.4327 13.2929 11.2929C13.4327 11.153 13.6109 11.0578 13.8049 11.0192C13.9989 10.9806 14.2 11.0004 14.3827 11.0761C14.5654 11.1518 14.7216 11.28 14.8315 11.4444C14.9414 11.6089 15 11.8022 15 12C15 12.2652 14.8946 12.5196 14.7071 12.7071C14.5196 12.8946 14.2652 13 14 13Z" fill="#39426A" />
    <path d="M24 9C23.4067 9 22.8266 9.17595 22.3333 9.50559C21.8399 9.83524 21.4554 10.3038 21.2284 10.8519C21.0013 11.4001 20.9419 12.0033 21.0576 12.5853C21.1734 13.1672 21.4591 13.7018 21.8787 14.1213C22.2982 14.5409 22.8328 14.8266 23.4147 14.9424C23.9967 15.0581 24.5999 14.9987 25.1481 14.7716C25.6962 14.5446 26.1648 14.1601 26.4944 13.6667C26.8241 13.1734 27 12.5933 27 12C27 11.2044 26.6839 10.4413 26.1213 9.87868C25.5587 9.31607 24.7957 9 24 9ZM24 13C23.8022 13 23.6089 12.9414 23.4444 12.8315C23.28 12.7216 23.1518 12.5654 23.0761 12.3827C23.0004 12.2 22.9806 11.9989 23.0192 11.8049C23.0578 11.6109 23.153 11.4327 23.2929 11.2929C23.4327 11.153 23.6109 11.0578 23.8049 11.0192C23.9989 10.9806 24.2 11.0004 24.3827 11.0761C24.5654 11.1518 24.7216 11.28 24.8315 11.4444C24.9414 11.6089 25 11.8022 25 12C25 12.2652 24.8946 12.5196 24.7071 12.7071C24.5196 12.8946 24.2652 13 24 13Z" fill="#39426A" />
    <path d="M34 9C33.4067 9 32.8266 9.17595 32.3333 9.50559C31.8399 9.83524 31.4554 10.3038 31.2284 10.8519C31.0013 11.4001 30.9419 12.0033 31.0576 12.5853C31.1734 13.1672 31.4591 13.7018 31.8787 14.1213C32.2982 14.5409 32.8328 14.8266 33.4147 14.9424C33.9967 15.0581 34.5999 14.9987 35.148 14.7716C35.6962 14.5446 36.1648 14.1601 36.4944 13.6667C36.8241 13.1734 37 12.5933 37 12C37 11.2044 36.6839 10.4413 36.1213 9.87868C35.5587 9.31607 34.7957 9 34 9ZM34 13C33.8022 13 33.6089 12.9414 33.4444 12.8315C33.28 12.7216 33.1518 12.5654 33.0761 12.3827C33.0004 12.2 32.9806 11.9989 33.0192 11.8049C33.0578 11.6109 33.153 11.4327 33.2929 11.2929C33.4327 11.153 33.6109 11.0578 33.8049 11.0192C33.9989 10.9806 34.2 11.0004 34.3827 11.0761C34.5654 11.1518 34.7216 11.28 34.8315 11.4444C34.9414 11.6089 35 11.8022 35 12C35 12.2652 34.8946 12.5196 34.7071 12.7071C34.5196 12.8946 34.2652 13 34 13Z" fill="#39426A" />
    <path d="M24 32C24.2652 32 24.5196 31.8946 24.7071 31.7071C24.8946 31.5196 25 31.2652 25 31C25 30.7348 24.8946 30.4804 24.7071 30.2929C24.5196 30.1054 24.2652 30 24 30H16C15.7348 30 15.4804 30.1054 15.2929 30.2929C15.1054 30.4804 15 30.7348 15 31V43C15 43.2652 15.1054 43.5196 15.2929 43.7071C15.4804 43.8946 15.7348 44 16 44H24C24.2652 44 24.5196 43.8946 24.7071 43.7071C24.8946 43.5196 25 43.2652 25 43C25 42.7348 24.8946 42.4804 24.7071 42.2929C24.5196 42.1054 24.2652 42 24 42H17V38H22C22.2652 38 22.5196 37.8946 22.7071 37.7071C22.8946 37.5196 23 37.2652 23 37C23 36.7348 22.8946 36.4804 22.7071 36.2929C22.5196 36.1054 22.2652 36 22 36H17V32H24Z" fill="#CF4055" />
    <path d="M31 38H35C35.5304 38 36.0391 38.2107 36.4142 38.5858C36.7893 38.9609 37 39.4696 37 40V43C37 43.2652 37.1054 43.5196 37.2929 43.7071C37.4804 43.8946 37.7348 44 38 44C38.2652 44 38.5196 43.8946 38.7071 43.7071C38.8946 43.5196 39 43.2652 39 43V40C38.9968 39.4305 38.872 38.8683 38.634 38.3509C38.396 37.8336 38.0503 37.373 37.62 37C38.2277 36.4641 38.6584 35.7562 38.8549 34.97C39.0514 34.1839 39.0046 33.3567 38.7205 32.5978C38.4365 31.8389 37.9287 31.1841 37.2643 30.7203C36.5999 30.2564 35.8103 30.0052 35 30H30C29.7348 30 29.4804 30.1054 29.2929 30.2929C29.1054 30.4804 29 30.7348 29 31V43C29 43.2652 29.1054 43.5196 29.2929 43.7071C29.4804 43.8946 29.7348 44 30 44C30.2652 44 30.5196 43.8946 30.7071 43.7071C30.8946 43.5196 31 43.2652 31 43V38ZM31 32H35C35.5304 32 36.0391 32.2107 36.4142 32.5858C36.7893 32.9609 37 33.4696 37 34C37 34.5304 36.7893 35.0391 36.4142 35.4142C36.0391 35.7893 35.5304 36 35 36H31V32Z" fill="#CF4055" />
    <path d="M45 38H49C49.5304 38 50.0391 38.2107 50.4142 38.5858C50.7893 38.9609 51 39.4696 51 40V43C51 43.2652 51.1054 43.5196 51.2929 43.7071C51.4804 43.8946 51.7348 44 52 44C52.2652 44 52.5196 43.8946 52.7071 43.7071C52.8946 43.5196 53 43.2652 53 43V40C52.9968 39.4305 52.872 38.8683 52.634 38.3509C52.396 37.8336 52.0503 37.373 51.62 37C52.2277 36.4641 52.6584 35.7562 52.8549 34.97C53.0514 34.1839 53.0046 33.3567 52.7205 32.5978C52.4365 31.8389 51.9287 31.1841 51.2643 30.7203C50.5999 30.2564 49.8103 30.0052 49 30H44C43.7348 30 43.4804 30.1054 43.2929 30.2929C43.1054 30.4804 43 30.7348 43 31V43C43 43.2652 43.1054 43.5196 43.2929 43.7071C43.4804 43.8946 43.7348 44 44 44C44.2652 44 44.5196 43.8946 44.7071 43.7071C44.8946 43.5196 45 43.2652 45 43V38ZM45 32H49C49.5304 32 50.0391 32.2107 50.4142 32.5858C50.7893 32.9609 51 33.4696 51 34C51 34.5304 50.7893 35.0391 50.4142 35.4142C50.0391 35.7893 49.5304 36 49 36H45V32Z" fill="#CF4055" />
    <path d="M81 34C81 32.9391 80.5786 31.9217 79.8284 31.1716C79.0783 30.4214 78.0609 30 77 30H72C71.7348 30 71.4804 30.1054 71.2929 30.2929C71.1054 30.4804 71 30.7348 71 31V43C71 43.2652 71.1054 43.5196 71.2929 43.7071C71.4804 43.8946 71.7348 44 72 44C72.2652 44 72.5196 43.8946 72.7071 43.7071C72.8946 43.5196 73 43.2652 73 43V38H77C77.5304 38 78.0391 38.2107 78.4142 38.5858C78.7893 38.9609 79 39.4696 79 40V43C79 43.2652 79.1054 43.5196 79.2929 43.7071C79.4804 43.8946 79.7348 44 80 44C80.2652 44 80.5196 43.8946 80.7071 43.7071C80.8946 43.5196 81 43.2652 81 43V40C80.9968 39.4305 80.872 38.8683 80.634 38.3509C80.396 37.8336 80.0503 37.373 79.62 37C80.0503 36.627 80.396 36.1664 80.634 35.6491C80.872 35.1317 80.9968 34.5695 81 34ZM73 36V32H77C77.5304 32 78.0391 32.2107 78.4142 32.5858C78.7893 32.9609 79 33.4696 79 34C79 34.5304 78.7893 35.0391 78.4142 35.4142C78.0391 35.7893 77.5304 36 77 36H73Z" fill="#CF4055" />
    <path d="M67 39V35C67 33.6739 66.4732 32.4021 65.5355 31.4645C64.5979 30.5268 63.3261 30 62 30C60.6739 30 59.4021 30.5268 58.4645 31.4645C57.5268 32.4021 57 33.6739 57 35V39C57 40.3261 57.5268 41.5979 58.4645 42.5355C59.4021 43.4732 60.6739 44 62 44C63.3261 44 64.5979 43.4732 65.5355 42.5355C66.4732 41.5979 67 40.3261 67 39ZM59 39V35C59 34.2044 59.3161 33.4413 59.8787 32.8787C60.4413 32.3161 61.2044 32 62 32C62.7956 32 63.5587 32.3161 64.1213 32.8787C64.6839 33.4413 65 34.2044 65 35V39C65 39.7956 64.6839 40.5587 64.1213 41.1213C63.5587 41.6839 62.7956 42 62 42C61.2044 42 60.4413 41.6839 59.8787 41.1213C59.3161 40.5587 59 39.7956 59 39Z" fill="#CF4055" />
  </g>
  <defs>
    <clipPath id="clip0">
      <rect width="96" height="96" fill="white" />
    </clipPath>
  </defs>
</svg>