<svg id="Layer_1" data-name="Layer 1" xmlns="http://www.w3.org/2000/svg" viewBox="0 0 96 96">
  <defs>
    <style>.cls-1{fill:#dd8c36;}.cls-2{fill:#b9c1d0;}.cls-3{fill:#ccd1dc;}.cls-4{fill:#dfe2e8;}.cls-5{fill:#f4f5f6;}.cls-6{fill:#e69c4b;}.cls-7{fill:#edab63;}.cls-8{fill:#f6bc7a;}.cls-9{fill:#39426a;}.cls-10{fill:#888da0;}</style>
  </defs>
  <title>file, folder, document, page, paper, stationery, office, supplies</title>
  <rect class="cls-1" x="74" y="31" width="6" height="22" />
  <path class="cls-1" d="M18,47,8.55,92.37A3.31,3.31,0,0,1,5.31,95h0A3.31,3.31,0,0,1,2,91.69H2V31H8Z" />
  <rect class="cls-2" x="8" y="1" width="60" height="80" />
  <rect class="cls-3" x="14" y="7" width="60" height="51" />
  <path class="cls-4" d="M73,7V43a6,6,0,0,1-6,6H47.79a4,4,0,0,1-3.53-2.13,7.25,7.25,0,0,0-1.52-2A7.17,7.17,0,0,0,37.83,43H19a4,4,0,0,1-4-4V7Z" />
  <rect class="cls-5" x="46" y="10" width="25" height="36" rx="4" />
  <path class="cls-6" d="M94.75,53,86.67,91.77l-.12.6A3.31,3.31,0,0,1,83.31,95h-78a3.32,3.32,0,0,0,3.23-2.58L18,47H38a3,3,0,0,1,3,3,3,3,0,0,0,3,3Z" />
  <path class="cls-7" d="M93.75,56,87.16,87.64a8,8,0,0,1-7,4.13H24.94a10,10,0,0,1-9.79-12L21.35,50H36a3,3,0,0,1,3,3,3,3,0,0,0,3,3Z" />
  <polygon class="cls-7" points="91.14 53 90.51 56 79.19 56 79.81 53 91.14 53" />
  <path class="cls-8" d="M90.51,56,84.38,85.4a8,8,0,0,1-7.83,6.37H65.23a8,8,0,0,0,7.83-6.37L79.19,56Z" />
  <path class="cls-9" d="M95.75,53s0-.06,0-.1a1.29,1.29,0,0,0,0-.19,1.34,1.34,0,0,0-.07-.18,1.3,1.3,0,0,0-.1-.15,1.85,1.85,0,0,0-.14-.14l-.15-.1L95,52.06,95,52a.33.33,0,0,0-.1,0l-.1,0H81V31a1,1,0,0,0-1-1H75V7a1,1,0,0,0-1-1H69V1a1,1,0,0,0-1-1H8A1,1,0,0,0,7,1V30H2a1,1,0,0,0-1,1V91.69A4.31,4.31,0,0,0,5.31,96H83a.8.8,0,0,0,.15,0,.9.9,0,0,0,.16,0,4.33,4.33,0,0,0,4.22-3.43l8.2-39.37a.33.33,0,0,0,0-.1S95.75,53,95.75,53ZM79,32V52H75V32ZM73,52H44a2,2,0,0,1-2-2,4,4,0,0,0-4-4H18l-.1,0a.47.47,0,0,0-.17,0,.51.51,0,0,0-.17.07l-.15.08a1,1,0,0,0-.15.14,1.27,1.27,0,0,0-.1.12,1.16,1.16,0,0,0-.14.34l-2,9.7V8H73ZM9,2H67V6H14a1,1,0,0,0-1,1V66.1L10.1,80H9ZM3,91.69V32H7V81a1,1,0,0,0,1,1H9.69L7.57,92.16A2.31,2.31,0,0,1,3,91.69Zm82.57.48A2.31,2.31,0,0,1,83.31,94a.9.9,0,0,0-.16,0A.8.8,0,0,0,83,94H8.94a4.43,4.43,0,0,0,.55-1.3l0-.08L18.81,48H38a2,2,0,0,1,2,2,4,4,0,0,0,4,4H93.52Z" />
  <path class="cls-10" d="M65,16H30a1,1,0,0,0,0,2H65a1,1,0,0,0,0-2Z" />
  <path class="cls-10" d="M65,24H52a1,1,0,0,0,0,2H65a1,1,0,0,0,0-2Z" />
  <path class="cls-10" d="M23,26H48a1,1,0,0,0,0-2H23a1,1,0,0,0,0,2Z" />
  <path class="cls-10" d="M65,32H23a1,1,0,0,0,0,2H65a1,1,0,0,0,0-2Z" />
  <path class="cls-10" d="M56,40H39a1,1,0,0,0,0,2H56a1,1,0,0,0,0-2Z" />
  <path class="cls-10" d="M65,40H60a1,1,0,0,0,0,2h5a1,1,0,0,0,0-2Z" />
  <path class="cls-10" d="M35,40H23a1,1,0,0,0,0,2H35a1,1,0,0,0,0-2Z" />
</svg>