<svg id="Layer_1" data-name="Layer 1" xmlns="http://www.w3.org/2000/svg" viewBox="0 0 96 96">
  <defs>
    <style>.cls-1{fill:#85bd79;}.cls-2{fill:#9fc98a;}.cls-3{fill:#e47980;}.cls-4{fill:#f4929c;}.cls-5{fill:#bbd79f;}.cls-6{fill:#f6b756;}.cls-7{fill:#fac77d;}.cls-8{fill:#ffd69e;}.cls-9{fill:#7190c4;}.cls-10{fill:#89a3ce;}.cls-11{fill:#c96fa6;}.cls-12{fill:#d686b5;}.cls-13{fill:none;stroke:#e49fc6;stroke-miterlimit:10;stroke-width:2px;}.cls-14{fill:#e49fc6;}.cls-15{fill:#dc5d6b;}.cls-16{fill:#39426a;}</style>
  </defs>
  <title>present, gift, box, package, occasion, event, heart</title>
  <rect class="cls-1" x="1" y="16" width="68" height="76" />
  <path class="cls-2" d="M69,16V89H12a8,8,0,0,1-8-8V16Z" />
  <rect class="cls-3" x="31" y="16" width="8" height="36" />
  <path class="cls-4" d="M35,16h4a0,0,0,0,1,0,0V49a0,0,0,0,1,0,0h0a4,4,0,0,1-4-4V16A0,0,0,0,1,35,16Z" />
  <rect class="cls-5" x="42" y="19" width="24" height="30" rx="2" />
  <rect class="cls-6" x="59" y="32" width="36" height="60" />
  <path class="cls-7" d="M95,32V89H74A12,12,0,0,1,62,77V32Z" />
  <rect class="cls-8" x="83" y="35" width="9" height="52" rx="1.01" />
  <rect class="cls-9" x="66" y="59" width="29" height="6" />
  <path class="cls-10" d="M70,59H95a0,0,0,0,1,0,0v3a0,0,0,0,1,0,0H73a3,3,0,0,1-3-3v0A0,0,0,0,1,70,59Z" />
  <rect class="cls-9" x="74" y="32" width="6" height="60" />
  <path class="cls-10" d="M77,32h3a0,0,0,0,1,0,0V89a0,0,0,0,1,0,0h0a3,3,0,0,1-3-3V32A0,0,0,0,1,77,32Z" />
  <rect class="cls-11" x="14" y="52" width="54" height="10" />
  <path class="cls-12" d="M68,52v7H21a4,4,0,0,1-4-4V52Z" />
  <path class="cls-13" d="M68,52v7H21a4,4,0,0,1-4-4V52Z" />
  <rect class="cls-11" x="15" y="62" width="52" height="30" />
  <path class="cls-12" d="M18,62H67a0,0,0,0,1,0,0V89a0,0,0,0,1,0,0H26a8,8,0,0,1-8-8V62A0,0,0,0,1,18,62Z" />
  <path class="cls-13" d="M33,55H52a0,0,0,0,1,0,0V92a4,4,0,0,1-4,4H33a0,0,0,0,1,0,0V55A0,0,0,0,1,33,55Z" transform="translate(118 33) rotate(90)" />
  <rect class="cls-14" x="41" y="65" width="23" height="22" rx="2" />
  <path class="cls-15" d="M52.75,75a7.11,7.11,0,0,1-1.7,4.41h0c-3.25,4.09-10,6.35-10,6.35S29.25,81.9,29.25,75A6.85,6.85,0,0,1,41,70.25,6.85,6.85,0,0,1,52.75,75Z" />
  <path class="cls-3" d="M52.43,73.09a6.6,6.6,0,0,1-1.38,6.36h0l-.1.08a12.69,12.69,0,0,1-15.88,0c-2.1-1.7-3.8-3.88-3.8-6.49a6.85,6.85,0,0,1,1.11-3.74,6.86,6.86,0,0,1,8.64,1,6.84,6.84,0,0,1,5.4-2A7,7,0,0,1,52.43,73.09Z" />
  <path class="cls-16" d="M45.9,67.19A7.74,7.74,0,0,0,41,68.91a7.74,7.74,0,0,0-4.9-1.72A7.86,7.86,0,0,0,28.25,75c0,7.49,11.93,11.55,12.43,11.72a1,1,0,0,0,.64,0c.5-.17,12.43-4.23,12.43-11.72A7.86,7.86,0,0,0,45.9,67.19ZM41,84.75c-1.81-.66-10.75-4.23-10.75-9.71a5.86,5.86,0,0,1,10-4.09,1,1,0,0,0,1.42,0,5.86,5.86,0,0,1,10,4.09C51.75,80.51,42.81,84.08,41,84.75Z" />
  <path class="cls-16" d="M95,31H70V16a1,1,0,0,0-1-1H47.89A7,7,0,0,0,43,3a9,9,0,0,0-8,4.9A9,9,0,0,0,27,3a7,7,0,0,0-4.89,12H1a1,1,0,0,0-1,1V92a1,1,0,0,0,1,1H95a1,1,0,0,0,1-1V32A1,1,0,0,0,95,31ZM94,58H81V33H94Zm0,6H81V60H94ZM15,61V53H67v8ZM32,17h6V51H32ZM68,63a1,1,0,0,0,1-1V60h4v4H68Zm5-5H69V52a1,1,0,0,0-1-1H60V33H73ZM68,17V31H59a1,1,0,0,0-1,1V51H40V17H68ZM43,5a5,5,0,0,1,0,10H36V12A7,7,0,0,1,43,5ZM22,10a5,5,0,0,1,5-5,7,7,0,0,1,7,7v3H27A5,5,0,0,1,22,10ZM2,17H30V51H14a1,1,0,0,0-1,1V62a1,1,0,0,0,1,1V91H2ZM16,63H66V91H16Zm52,3h5V91H68Zm7,25V33h4V91Zm6,0V66H94V91Z" />
  <path class="cls-4" d="M48.16,77.63a1,1,0,0,1-.56-.17,1,1,0,0,1-.27-1.39,2,2,0,0,0,.42-1,1.85,1.85,0,0,0-1.85-1.85,1,1,0,0,1,0-2,3.74,3.74,0,0,1,3.09,6A1,1,0,0,1,48.16,77.63Z" />
  <rect class="cls-14" x="41" y="55" width="25" height="2" rx="1" />
</svg>