<svg width="71" height="71" viewBox="0 0 71 71" fill="none" xmlns="http://www.w3.org/2000/svg">
<g clip-path="url(#clip0_3703_21523)">
<path d="M62.8633 59.9059H70.2591V58.4267V0.739258H0.738281V59.9059H53.9883H62.8633Z" fill="#CCD1DC"/>
<path d="M69.5195 53.2497V0.739258H2.95703V44.3747C2.95703 47.9054 4.35959 51.2914 6.85617 53.788C9.35275 56.2846 12.7388 57.6872 16.2695 57.6872H65.082C66.2589 57.6872 67.3876 57.2196 68.2198 56.3874C69.052 55.5553 69.5195 54.4266 69.5195 53.2497Z" fill="#DEE1E7"/>
<path d="M8.13672 12.5732H64.3451C64.9335 12.5732 65.4979 12.807 65.914 13.2231C66.33 13.6392 66.5638 14.2035 66.5638 14.792V52.5107C66.5638 53.0992 66.33 53.6635 65.914 54.0796C65.4979 54.4957 64.9335 54.7295 64.3451 54.7295H45.8555C35.2634 54.7295 25.1051 50.5218 17.6154 43.0321C10.1257 35.5423 5.91797 25.3841 5.91797 14.792V14.792C5.91797 14.2035 6.15173 13.6392 6.56783 13.2231C6.98392 12.807 7.54827 12.5732 8.13672 12.5732V12.5732Z" fill="#F3F4F5"/>
<path d="M50.0147 48.3559L46.877 51.4937L50.9456 55.5623L54.0834 52.4245L50.0147 48.3559Z" fill="#B8C0CE"/>
<path d="M68.7826 67.1242C68.7849 67.496 68.7172 67.8648 68.5829 68.2114C68.402 68.7083 68.0984 69.1514 67.7002 69.4995C67.3021 69.8476 66.8224 70.0893 66.3058 70.2023C65.7892 70.3152 65.2524 70.2956 64.7454 70.1454C64.2383 69.9951 63.7775 69.7191 63.4058 69.343L50.293 56.208L54.7305 51.7705L67.8655 64.9055C68.4527 65.4946 68.7825 66.2924 68.7826 67.1242Z" fill="#8288A1"/>
<path d="M68.7813 67.1242C68.7836 67.496 68.7158 67.8648 68.5816 68.2114C68.2349 68.3457 67.8661 68.4134 67.4944 68.4111C66.6626 68.411 65.8647 68.0813 65.2756 67.494L52.1406 54.359L54.7292 51.7705L67.8642 64.9055C68.4514 65.4946 68.7812 66.2924 68.7813 67.1242Z" fill="#969CB2"/>
<path d="M35.5013 55.4684C45.7128 55.4684 53.9909 47.1904 53.9909 36.9789C53.9909 26.7673 45.7128 18.4893 35.5013 18.4893C25.2898 18.4893 17.0117 26.7673 17.0117 36.9789C17.0117 47.1904 25.2898 55.4684 35.5013 55.4684Z" fill="#7190C4"/>
<path d="M35.4987 51.7708C43.6679 51.7708 50.2904 45.1484 50.2904 36.9792C50.2904 28.81 43.6679 22.1875 35.4987 22.1875C27.3295 22.1875 20.707 28.81 20.707 36.9792C20.707 45.1484 27.3295 51.7708 35.4987 51.7708Z" fill="#C3D2E7"/>
<path d="M35.5013 42.1559C38.3605 42.1559 40.6784 39.8381 40.6784 36.9788C40.6784 34.1196 38.3605 31.8018 35.5013 31.8018C32.6421 31.8018 30.3242 34.1196 30.3242 36.9788C30.3242 39.8381 32.6421 42.1559 35.5013 42.1559Z" fill="#C3D2E7"/>
<path d="M70.2591 0.739258H0.738281V9.61425H70.2591V0.739258Z" fill="#90D1D7"/>
<path d="M2.95703 0.739258H70.2591V7.39551H9.61328C7.84793 7.39551 6.15489 6.69423 4.9066 5.44594C3.65831 4.19765 2.95703 2.50461 2.95703 0.739258V0.739258Z" fill="#ABD9E6"/>
<path d="M6.65495 6.65657C7.47187 6.65657 8.13412 5.99433 8.13412 5.17741C8.13412 4.36049 7.47187 3.69824 6.65495 3.69824C5.83803 3.69824 5.17578 4.36049 5.17578 5.17741C5.17578 5.99433 5.83803 6.65657 6.65495 6.65657Z" fill="#CF4055"/>
<path d="M14.0534 6.65657C14.8703 6.65657 15.5326 5.99433 15.5326 5.17741C15.5326 4.36049 14.8703 3.69824 14.0534 3.69824C13.2365 3.69824 12.5742 4.36049 12.5742 5.17741C12.5742 5.99433 13.2365 6.65657 14.0534 6.65657Z" fill="#F6B756"/>
<path d="M21.4479 6.65657C22.2648 6.65657 22.9271 5.99433 22.9271 5.17741C22.9271 4.36049 22.2648 3.69824 21.4479 3.69824C20.631 3.69824 19.9688 4.36049 19.9688 5.17741C19.9688 5.99433 20.631 6.65657 21.4479 6.65657Z" fill="#85BD79"/>
<path d="M70.2604 0H0.739583C0.543434 0 0.355318 0.0779202 0.216619 0.216619C0.0779202 0.355318 0 0.543434 0 0.739583L0 59.9063C0 60.1024 0.0779202 60.2905 0.216619 60.4292C0.355318 60.5679 0.543434 60.6458 0.739583 60.6458H53.6864L62.9016 69.861C63.2599 70.2276 63.6874 70.5195 64.1593 70.7197C64.6313 70.9199 65.1382 71.0245 65.6508 71.0274C66.1635 71.0303 66.6716 70.9315 67.1457 70.7367C67.6199 70.5418 68.0507 70.2549 68.4132 69.8924C68.7757 69.5299 69.0627 69.0991 69.2575 68.6249C69.4523 68.1508 69.5511 67.6426 69.5482 67.13C69.5453 66.6174 69.4407 66.1104 69.2405 65.6385C69.0403 65.1666 68.7485 64.7391 68.3819 64.3807L64.684 60.6828H70.2604C70.4566 60.6828 70.6447 60.6049 70.7834 60.4662C70.9221 60.3275 71 60.1394 71 59.9432V0.739583C71 0.543434 70.9221 0.355318 70.7834 0.216619C70.6447 0.0779202 70.4566 0 70.2604 0V0ZM1.47917 1.47917H69.5208V8.875H1.47917V1.47917ZM68.0417 67.1246C68.0393 67.5982 67.8971 68.0606 67.6328 68.4537C67.3685 68.8468 66.994 69.1531 66.5563 69.334C66.1185 69.515 65.6371 69.5625 65.1724 69.4708C64.7077 69.379 64.2805 69.152 63.9444 68.8182L54.5147 59.3811L51.3345 56.2083L51.4676 56.0826L54.6034 52.9468L54.7292 52.8137L62.3395 60.4314L67.3391 65.4235C67.5622 65.647 67.7391 65.9123 67.8596 66.2042C67.9802 66.496 68.042 66.8088 68.0417 67.1246V67.1246ZM35.5 54.7292C31.4921 54.7385 27.5991 53.3912 24.4544 50.9066C21.3096 48.4219 19.0984 44.946 18.1804 41.0447C17.2624 37.1434 17.6918 33.0462 19.3986 29.42C21.1055 25.7937 23.9893 22.8519 27.5808 21.0731C31.1723 19.2944 35.2601 18.7834 39.179 19.6235C43.0978 20.4636 46.617 22.6051 49.1639 25.6997C51.7107 28.7943 53.1353 32.6598 53.2058 36.667C53.2763 40.6743 51.9885 44.5874 49.5521 47.7697L49.4559 47.8289L46.3201 50.9647L46.2609 51.0608C43.1769 53.4373 39.3934 54.727 35.5 54.7292ZM50.092 49.4781L53.0503 52.4365L50.9573 54.5295L47.999 51.5712C48.751 50.93 49.4509 50.2302 50.092 49.4781V49.4781ZM63.1678 59.1667L55.2543 51.2457C55.1855 51.1764 55.1037 51.1214 55.0136 51.0838C54.9235 51.0463 54.8268 51.027 54.7292 51.027C54.6315 51.027 54.5349 51.0463 54.4447 51.0838C54.3546 51.1214 54.2728 51.1764 54.2041 51.2457L54.0783 51.3715L51.0312 48.317C53.8864 44.4058 55.1608 39.5613 54.5998 34.7515C54.0387 29.9416 51.6836 25.5205 48.0049 22.3714C44.3262 19.2223 39.5948 17.5771 34.756 17.7645C29.9172 17.9519 25.3272 19.958 21.903 23.3822C18.4789 26.8063 16.4727 31.3963 16.2853 36.2352C16.0979 41.074 17.7431 45.8054 20.8922 49.4841C24.0413 53.1628 28.4624 55.5179 33.2723 56.0789C38.0822 56.64 42.9266 55.3656 46.8378 52.5104L49.8923 55.5723L49.7666 55.698C49.6972 55.7668 49.6422 55.8486 49.6047 55.9387C49.5671 56.0288 49.5478 56.1255 49.5478 56.2231C49.5478 56.3208 49.5671 56.4174 49.6047 56.5076C49.6422 56.5977 49.6972 56.6795 49.7666 56.7482L52.2072 59.1667H1.47917V10.3542H69.5208V59.1667H63.1678Z" fill="#39426A"/>
<path d="M6.65625 2.95801C6.21742 2.95801 5.78845 3.08814 5.42358 3.33193C5.05871 3.57573 4.77433 3.92226 4.60639 4.32768C4.43846 4.7331 4.39452 5.17922 4.48013 5.60961C4.56574 6.04001 4.77706 6.43535 5.08736 6.74565C5.39766 7.05595 5.793 7.26727 6.22339 7.35288C6.65379 7.43849 7.09991 7.39455 7.50533 7.22662C7.91075 7.05868 8.25727 6.7743 8.50107 6.40943C8.74487 6.04456 8.875 5.61559 8.875 5.17676C8.875 4.58831 8.64124 4.02396 8.22514 3.60786C7.80905 3.19177 7.2447 2.95801 6.65625 2.95801V2.95801ZM6.65625 5.91634C6.50997 5.91634 6.36698 5.87297 6.24536 5.7917C6.12374 5.71043 6.02894 5.59493 5.97296 5.45978C5.91699 5.32464 5.90234 5.17594 5.93088 5.03247C5.95942 4.88901 6.02985 4.75723 6.13329 4.65379C6.23672 4.55036 6.3685 4.47992 6.51196 4.45139C6.65543 4.42285 6.80414 4.43749 6.93928 4.49347C7.07442 4.54945 7.18992 4.64424 7.27119 4.76587C7.35246 4.88749 7.39583 5.03048 7.39583 5.17676C7.39583 5.37291 7.31791 5.56102 7.17921 5.69972C7.04052 5.83842 6.8524 5.91634 6.65625 5.91634Z" fill="#39426A"/>
<path d="M14.0508 2.95801C13.612 2.95801 13.183 3.08814 12.8181 3.33193C12.4532 3.57573 12.1689 3.92226 12.0009 4.32768C11.833 4.7331 11.7891 5.17922 11.8747 5.60961C11.9603 6.04001 12.1716 6.43535 12.4819 6.74565C12.7922 7.05595 13.1875 7.26727 13.6179 7.35288C14.0483 7.43849 14.4944 7.39455 14.8999 7.22662C15.3053 7.05868 15.6518 6.7743 15.8956 6.40943C16.1394 6.04456 16.2695 5.61559 16.2695 5.17676C16.2695 4.58831 16.0358 4.02396 15.6197 3.60786C15.2036 3.19177 14.6392 2.95801 14.0508 2.95801V2.95801ZM14.0508 5.91634C13.9045 5.91634 13.7615 5.87297 13.6399 5.7917C13.5183 5.71043 13.4235 5.59493 13.3675 5.45978C13.3115 5.32464 13.2969 5.17594 13.3254 5.03247C13.3539 4.88901 13.4244 4.75723 13.5278 4.65379C13.6312 4.55036 13.763 4.47992 13.9065 4.45139C14.05 4.42285 14.1987 4.43749 14.3338 4.49347C14.4689 4.54945 14.5845 4.64424 14.6657 4.76587C14.747 4.88749 14.7904 5.03048 14.7904 5.17676C14.7904 5.37291 14.7124 5.56102 14.5737 5.69972C14.435 5.83842 14.2469 5.91634 14.0508 5.91634Z" fill="#39426A"/>
<path d="M21.4492 2.95801C21.0104 2.95801 20.5814 3.08814 20.2165 3.33193C19.8517 3.57573 19.5673 3.92226 19.3994 4.32768C19.2314 4.7331 19.1875 5.17922 19.2731 5.60961C19.3587 6.04001 19.57 6.43535 19.8803 6.74565C20.1906 7.05595 20.586 7.26727 21.0164 7.35288C21.4468 7.43849 21.8929 7.39455 22.2983 7.22662C22.7037 7.05868 23.0502 6.7743 23.294 6.40943C23.5378 6.04456 23.668 5.61559 23.668 5.17676C23.668 4.58831 23.4342 4.02396 23.0181 3.60786C22.602 3.19177 22.0377 2.95801 21.4492 2.95801V2.95801ZM21.4492 5.91634C21.3029 5.91634 21.16 5.87297 21.0383 5.7917C20.9167 5.71043 20.8219 5.59493 20.7659 5.45978C20.71 5.32464 20.6953 5.17594 20.7238 5.03247C20.7524 4.88901 20.8228 4.75723 20.9263 4.65379C21.0297 4.55036 21.1615 4.47992 21.3049 4.45139C21.4484 4.42285 21.5971 4.43749 21.7322 4.49347C21.8674 4.54945 21.9829 4.64424 22.0642 4.76587C22.1454 4.88749 22.1888 5.03048 22.1888 5.17676C22.1888 5.37291 22.1109 5.56102 21.9722 5.69972C21.8335 5.83842 21.6454 5.91634 21.4492 5.91634Z" fill="#39426A"/>
<path d="M65.8229 2.95801H34.7604C33.9435 2.95801 33.2812 3.62025 33.2812 4.43717C33.2812 5.25409 33.9435 5.91634 34.7604 5.91634H65.8229C66.6398 5.91634 67.3021 5.25409 67.3021 4.43717C67.3021 3.62025 66.6398 2.95801 65.8229 2.95801Z" fill="#C3E1F5"/>
<path d="M29.5846 5.91634C30.4016 5.91634 31.0638 5.25409 31.0638 4.43717C31.0638 3.62025 30.4016 2.95801 29.5846 2.95801C28.7677 2.95801 28.1055 3.62025 28.1055 4.43717C28.1055 5.25409 28.7677 5.91634 29.5846 5.91634Z" fill="#C3E1F5"/>
<g opacity="0.7" clip-path="url(#clip1_3703_21523)">
<path d="M33.7049 26.5799L29.5176 42.207L42.9122 45.7961L47.0995 30.169L33.7049 26.5799Z" fill="#CCD1DC"/>
<path d="M47.1012 30.1683L43.0936 45.1264L33.0468 42.4338C32.6951 42.3394 32.3653 42.1767 32.0765 41.9549C31.7876 41.733 31.5453 41.4565 31.3633 41.141C31.1813 40.8255 31.0632 40.4773 31.0158 40.1162C30.9684 39.755 30.9926 39.3881 31.0869 39.0364L34.3758 26.7593L47.1012 30.1683Z" fill="#DEE1E7"/>
<path d="M45.8038 30.5394L40.6691 29.1636C40.4226 29.0975 40.1691 29.2438 40.103 29.4904L36.6336 42.4386C36.5675 42.6852 36.7138 42.9387 36.9604 43.0047L42.095 44.3806C42.3416 44.4466 42.5951 44.3003 42.6612 44.0537L46.1306 31.1055C46.1967 30.8589 46.0504 30.6055 45.8038 30.5394Z" fill="#F3F4F5"/>
<path d="M34.6271 28.3355L31.7559 39.0513L42.4716 41.9225L45.3429 31.2068L34.6271 28.3355Z" fill="#ABD9E6"/>
<path d="M43.0114 40.0805L42.533 41.867L39.2441 40.9865V39.082C39.3103 39.0924 39.3759 39.1063 39.4406 39.1236C40.3327 39.3548 40.2148 39.817 41.107 40.0481C41.9991 40.2792 42.1193 39.8401 43.0114 40.0805Z" fill="#7190C4"/>
<path d="M43.4297 38.5153L43.0114 40.0776C42.1193 39.8465 41.9991 40.2857 41.107 40.0453C40.2148 39.8049 40.3327 39.3519 39.4406 39.1208C39.3759 39.1035 39.3103 39.0896 39.2441 39.0792V37.4891C39.4515 37.4766 39.6595 37.5001 39.8589 37.5584C40.751 37.7896 40.6332 38.2518 41.5253 38.4829C42.4174 38.714 42.5376 38.2749 43.4297 38.5153Z" fill="#89A3CE"/>
<path d="M45.3417 31.2008L43.7239 37.2284C38.177 35.7423 34.4005 31.8387 35.2926 28.5083L45.3417 31.2008Z" fill="#C3E1F5"/>
<path d="M39.2441 32.126H25.377V48.3044H39.2441V32.126Z" fill="#CCD1DC"/>
<path d="M39.2441 32.126V47.611H28.8437C28.1082 47.611 27.4028 47.3188 26.8826 46.7987C26.3625 46.2786 26.0703 45.5731 26.0703 44.8376V32.126H39.2441Z" fill="#DEE1E7"/>
<path d="M38.0885 32.8193H32.7728C32.5175 32.8193 32.3105 33.0263 32.3105 33.2816V46.6865C32.3105 46.9418 32.5175 47.1488 32.7728 47.1488H38.0885C38.3438 47.1488 38.5508 46.9418 38.5508 46.6865V33.2816C38.5508 33.0263 38.3438 32.8193 38.0885 32.8193Z" fill="#F3F4F5"/>
<path d="M37.8574 33.5127H26.7637V44.6064H37.8574V33.5127Z" fill="#ABD9E6"/>
<path d="M37.8572 42.9874V44.6053H34.1593L31.7695 42.2155L34.4274 39.5576L37.8572 42.9874Z" fill="#85BD79"/>
<path d="M37.8572 42.9874V44.6053H34.1593L31.7695 42.2155L34.4274 39.5576L37.8572 42.9874Z" fill="#85BD79"/>
<path d="M37.8556 42.9874V44.6053H35.0822L34.9435 44.4666C34.3288 43.8524 33.9318 43.0541 33.8129 42.1933C33.694 41.3325 33.8597 40.4565 34.2848 39.6986L34.4258 39.5576L37.8556 42.9874Z" fill="#9FC98A"/>
<path d="M34.1595 44.6069H26.7637V44.2186L30.2674 40.7148L34.1595 44.6069Z" fill="#85BD79"/>
<path d="M34.1575 44.6069L31.71 44.4775C31.2844 44.4546 30.8745 44.309 30.5298 44.0583C30.1852 43.8076 29.9205 43.4624 29.7677 43.0645C29.615 42.6666 29.5807 42.233 29.669 41.8161C29.7573 41.3991 29.9645 41.0166 30.2655 40.7148V40.7148L34.1575 44.6069Z" fill="#9FC98A"/>
<path d="M37.8574 33.5127V39.7529C32.1141 39.7529 27.457 36.9587 27.457 33.5127H37.8574Z" fill="#C3E1F5"/>
<path d="M32.7682 37.2116C32.7682 37.5181 32.6465 37.812 32.4298 38.0287C32.213 38.2455 31.9191 38.3672 31.6126 38.3672C31.3061 38.3672 31.0122 38.2455 30.7955 38.0287C30.5788 37.812 30.457 37.5181 30.457 37.2116C30.4574 37.0942 30.4745 36.9775 30.5079 36.8649C30.5804 36.6285 30.7269 36.4216 30.9257 36.2746C31.1246 36.1277 31.3654 36.0483 31.6126 36.0483C31.8599 36.0483 32.1007 36.1277 32.2995 36.2746C32.4984 36.4216 32.6448 36.6285 32.7174 36.8649C32.7507 36.9775 32.7679 37.0942 32.7682 37.2116Z" fill="#F6B756"/>
<path d="M31.6145 37.672C32.2247 37.672 32.7193 37.3099 32.7193 36.8631C32.7193 36.4164 32.2247 36.0542 31.6145 36.0542C31.0044 36.0542 30.5098 36.4164 30.5098 36.8631C30.5098 37.3099 31.0044 37.672 31.6145 37.672Z" fill="#FAC77D"/>
<path d="M31.6145 37.672C32.2247 37.672 32.7193 37.3099 32.7193 36.8631C32.7193 36.4164 32.2247 36.0542 31.6145 36.0542C31.0044 36.0542 30.5098 36.4164 30.5098 36.8631C30.5098 37.3099 31.0044 37.672 31.6145 37.672Z" fill="#FAC77D"/>
<path d="M42.0163 33.5134C42.0163 33.8198 41.8945 34.1138 41.6778 34.3305C41.4611 34.5472 41.1672 34.669 40.8607 34.669C40.5542 34.669 40.2603 34.5472 40.0435 34.3305C39.8268 34.1138 39.7051 33.8198 39.7051 33.5134C39.7055 33.396 39.7226 33.2792 39.7559 33.1667C39.8285 32.9303 39.9749 32.7234 40.1738 32.5764C40.3726 32.4294 40.6134 32.3501 40.8607 32.3501C41.108 32.3501 41.3487 32.4294 41.5476 32.5764C41.7464 32.7234 41.8929 32.9303 41.9654 33.1667C41.9988 33.2792 42.0159 33.396 42.0163 33.5134V33.5134Z" fill="#F6B756"/>
<path d="M40.8587 33.9762C41.4688 33.9762 41.9634 33.6141 41.9634 33.1673C41.9634 32.7206 41.4688 32.3584 40.8587 32.3584C40.2485 32.3584 39.7539 32.7206 39.7539 33.1673C39.7539 33.6141 40.2485 33.9762 40.8587 33.9762Z" fill="#FAC77D"/>
<path d="M26.7624 44.8367H37.8561C37.9174 44.8367 37.9762 44.8124 38.0195 44.7691C38.0629 44.7257 38.0872 44.6669 38.0872 44.6056V33.5119C38.0872 33.4506 38.0629 33.3918 38.0195 33.3485C37.9762 33.3051 37.9174 33.2808 37.8561 33.2808H26.7624C26.7011 33.2808 26.6423 33.3051 26.5989 33.3485C26.5556 33.3918 26.5312 33.4506 26.5312 33.5119V44.6056C26.5312 44.6669 26.5556 44.7257 26.5989 44.7691C26.6423 44.8124 26.7011 44.8367 26.7624 44.8367ZM26.9935 44.3121L30.2661 41.0395L33.6012 44.3745H26.9935V44.3121ZM34.253 44.3745L32.0943 42.2159L34.4263 39.8839L37.625 43.0826V44.3745H34.253ZM37.625 33.743V42.4308L34.5904 39.3939C34.5689 39.3722 34.5433 39.355 34.5152 39.3433C34.487 39.3316 34.4568 39.3255 34.4263 39.3255C34.3958 39.3255 34.3656 39.3316 34.3374 39.3433C34.3092 39.355 34.2837 39.3722 34.2622 39.3939L31.7684 41.89L30.4302 40.5495C30.4088 40.5278 30.3832 40.5106 30.355 40.4989C30.3269 40.4872 30.2967 40.4811 30.2661 40.4811C30.2356 40.4811 30.2054 40.4872 30.1773 40.4989C30.1491 40.5106 30.1235 40.5278 30.102 40.5495L26.9935 43.6604V33.743H37.625Z" fill="#39426A"/>
<path d="M31.6172 38.5986C31.8915 38.5986 32.1596 38.5173 32.3876 38.3649C32.6157 38.2126 32.7934 37.996 32.8983 37.7426C33.0033 37.4892 33.0308 37.2104 32.9773 36.9414C32.9238 36.6724 32.7917 36.4253 32.5977 36.2314C32.4038 36.0374 32.1567 35.9053 31.8877 35.8518C31.6187 35.7983 31.3399 35.8258 31.0865 35.9308C30.8331 36.0357 30.6165 36.2135 30.4642 36.4415C30.3118 36.6695 30.2305 36.9376 30.2305 37.2119C30.2305 37.5797 30.3766 37.9324 30.6366 38.1925C30.8967 38.4525 31.2494 38.5986 31.6172 38.5986V38.5986ZM31.6172 36.2874C31.8 36.2874 31.9788 36.3417 32.1308 36.4432C32.2828 36.5448 32.4013 36.6892 32.4713 36.8581C32.5413 37.0271 32.5596 37.2129 32.5239 37.3923C32.4882 37.5716 32.4002 37.7363 32.2709 37.8656C32.1416 37.9949 31.9769 38.083 31.7975 38.1186C31.6182 38.1543 31.4323 38.136 31.2634 38.066C31.0945 37.996 30.9501 37.8776 30.8485 37.7255C30.7469 37.5735 30.6927 37.3948 30.6927 37.2119C30.6927 36.9667 30.7901 36.7316 30.9635 36.5582C31.1369 36.3848 31.372 36.2874 31.6172 36.2874Z" fill="#39426A"/>
<path d="M31.6172 38.5986C31.8915 38.5986 32.1596 38.5173 32.3876 38.3649C32.6157 38.2126 32.7934 37.996 32.8983 37.7426C33.0033 37.4892 33.0308 37.2104 32.9773 36.9414C32.9238 36.6724 32.7917 36.4253 32.5977 36.2314C32.4038 36.0374 32.1567 35.9053 31.8877 35.8518C31.6187 35.7983 31.3399 35.8258 31.0865 35.9308C30.8331 36.0357 30.6165 36.2135 30.4642 36.4415C30.3118 36.6695 30.2305 36.9376 30.2305 37.2119C30.2305 37.5797 30.3766 37.9324 30.6366 38.1925C30.8967 38.4525 31.2494 38.5986 31.6172 38.5986V38.5986ZM31.6172 36.2874C31.8 36.2874 31.9788 36.3417 32.1308 36.4432C32.2828 36.5448 32.4013 36.6892 32.4713 36.8581C32.5413 37.0271 32.5596 37.2129 32.5239 37.3923C32.4882 37.5716 32.4002 37.7363 32.2709 37.8656C32.1416 37.9949 31.9769 38.083 31.7975 38.1186C31.6182 38.1543 31.4323 38.136 31.2634 38.066C31.0945 37.996 30.9501 37.8776 30.8485 37.7255C30.7469 37.5735 30.6927 37.3948 30.6927 37.2119C30.6927 36.9667 30.7901 36.7316 30.9635 36.5582C31.1369 36.3848 31.372 36.2874 31.6172 36.2874Z" fill="#39426A"/>
<path d="M31.6159 35.363C31.6772 35.363 31.736 35.3386 31.7793 35.2953C31.8227 35.2519 31.847 35.1931 31.847 35.1318V34.6696C31.847 34.6083 31.8227 34.5495 31.7793 34.5062C31.736 34.4628 31.6772 34.4385 31.6159 34.4385C31.5546 34.4385 31.4958 34.4628 31.4525 34.5062C31.4091 34.5495 31.3848 34.6083 31.3848 34.6696V35.1318C31.3848 35.1931 31.4091 35.2519 31.4525 35.2953C31.4958 35.3386 31.5546 35.363 31.6159 35.363Z" fill="#39426A"/>
<path d="M31.6159 39.0596C31.5546 39.0596 31.4958 39.0839 31.4525 39.1273C31.4091 39.1706 31.3848 39.2294 31.3848 39.2907V39.7529C31.3848 39.8142 31.4091 39.873 31.4525 39.9164C31.4958 39.9597 31.5546 39.984 31.6159 39.984C31.6772 39.984 31.736 39.9597 31.7793 39.9164C31.8227 39.873 31.847 39.8142 31.847 39.7529V39.2907C31.847 39.2294 31.8227 39.1706 31.7793 39.1273C31.736 39.0839 31.6772 39.0596 31.6159 39.0596Z" fill="#39426A"/>
<path d="M33.4648 37.2106C33.4648 37.2719 33.4892 37.3307 33.5325 37.374C33.5759 37.4174 33.6347 37.4417 33.696 37.4417H34.1582C34.2195 37.4417 34.2783 37.4174 34.3216 37.374C34.365 37.3307 34.3893 37.2719 34.3893 37.2106C34.3893 37.1493 34.365 37.0905 34.3216 37.0472C34.2783 37.0038 34.2195 36.9795 34.1582 36.9795H33.696C33.6347 36.9795 33.5759 37.0038 33.5325 37.0472C33.4892 37.0905 33.4648 37.1493 33.4648 37.2106Z" fill="#39426A"/>
<path d="M29.0749 37.4417H29.5371C29.5984 37.4417 29.6572 37.4174 29.7005 37.374C29.7439 37.3307 29.7682 37.2719 29.7682 37.2106C29.7682 37.1493 29.7439 37.0905 29.7005 37.0472C29.6572 37.0038 29.5984 36.9795 29.5371 36.9795H29.0749C29.0136 36.9795 28.9548 37.0038 28.9114 37.0472C28.8681 37.0905 28.8438 37.1493 28.8438 37.2106C28.8438 37.2719 28.8681 37.3307 28.9114 37.374C28.9548 37.4174 29.0136 37.4417 29.0749 37.4417Z" fill="#39426A"/>
<path d="M33.0864 35.973C33.117 35.9729 33.1472 35.9667 33.1754 35.9548C33.2036 35.9429 33.2291 35.9255 33.2505 35.9037L33.5787 35.5778C33.6002 35.5563 33.6173 35.5307 33.629 35.5025C33.6407 35.4744 33.6467 35.4442 33.6467 35.4137C33.6467 35.3832 33.6407 35.3531 33.629 35.3249C33.6173 35.2967 33.6002 35.2712 33.5787 35.2496C33.5572 35.2281 33.5316 35.211 33.5034 35.1993C33.4753 35.1876 33.4451 35.1816 33.4146 35.1816C33.3841 35.1816 33.354 35.1876 33.3258 35.1993C33.2976 35.211 33.2721 35.2281 33.2505 35.2496L32.9246 35.5778C32.8816 35.6211 32.8574 35.6797 32.8574 35.7407C32.8574 35.8018 32.8816 35.8604 32.9246 35.9037C32.9673 35.9472 33.0255 35.9721 33.0864 35.973Z" fill="#39426A"/>
<path d="M29.9805 38.5178L29.6523 38.8437C29.6307 38.8652 29.6135 38.8907 29.6018 38.9189C29.59 38.9471 29.584 38.9773 29.584 39.0078C29.584 39.0383 29.59 39.0685 29.6018 39.0967C29.6135 39.1248 29.6307 39.1504 29.6523 39.1719C29.6739 39.1933 29.6996 39.2102 29.7277 39.2217C29.7559 39.2332 29.786 39.2391 29.8164 39.2389C29.8469 39.2391 29.877 39.2332 29.9052 39.2217C29.9333 39.2102 29.9589 39.1933 29.9805 39.1719L30.3064 38.8437C30.3306 38.823 30.3503 38.7975 30.3641 38.7688C30.378 38.7401 30.3858 38.7089 30.387 38.6771C30.3883 38.6452 30.3829 38.6135 30.3713 38.5838C30.3597 38.5542 30.342 38.5272 30.3195 38.5047C30.297 38.4822 30.2701 38.4646 30.2404 38.4529C30.2107 38.4413 30.179 38.436 30.1472 38.4372C30.1153 38.4384 30.0841 38.4462 30.0554 38.4601C30.0268 38.474 30.0013 38.4936 29.9805 38.5178Z" fill="#39426A"/>
<path d="M33.2504 38.5178C33.2297 38.4936 33.2042 38.474 33.1755 38.4601C33.1469 38.4462 33.1156 38.4384 33.0838 38.4372C33.052 38.436 33.0202 38.4413 32.9906 38.4529C32.9609 38.4646 32.934 38.4822 32.9114 38.5047C32.8889 38.5272 32.8713 38.5542 32.8597 38.5838C32.8481 38.6135 32.8427 38.6452 32.8439 38.6771C32.8452 38.7089 32.8529 38.7401 32.8668 38.7688C32.8807 38.7975 32.9003 38.823 32.9245 38.8437L33.2504 39.1719C33.272 39.1933 33.2976 39.2102 33.3258 39.2217C33.3539 39.2332 33.3841 39.2391 33.4145 39.2389C33.4449 39.2391 33.4751 39.2332 33.5032 39.2217C33.5314 39.2102 33.557 39.1933 33.5786 39.1719C33.6003 39.1504 33.6175 39.1248 33.6292 39.0967C33.6409 39.0685 33.647 39.0383 33.647 39.0078C33.647 38.9773 33.6409 38.9471 33.6292 38.9189C33.6175 38.8907 33.6003 38.8652 33.5786 38.8437L33.2504 38.5178Z" fill="#39426A"/>
<path d="M29.9841 35.9037C30.0274 35.9467 30.0859 35.9709 30.147 35.9709C30.208 35.9709 30.2666 35.9467 30.3099 35.9037C30.353 35.8604 30.3771 35.8018 30.3771 35.7407C30.3771 35.6797 30.353 35.6211 30.3099 35.5778L29.9841 35.2496C29.9625 35.2281 29.9369 35.211 29.9088 35.1993C29.8806 35.1876 29.8504 35.1816 29.82 35.1816C29.7895 35.1816 29.7593 35.1876 29.7311 35.1993C29.703 35.211 29.6774 35.2281 29.6559 35.2496C29.6343 35.2712 29.6172 35.2967 29.6056 35.3249C29.5939 35.3531 29.5879 35.3832 29.5879 35.4137C29.5879 35.4442 29.5939 35.4744 29.6056 35.5025C29.6172 35.5307 29.6343 35.5563 29.6559 35.5778L29.9841 35.9037Z" fill="#39426A"/>
<path d="M47.302 30.0474C47.2703 29.9948 47.2199 29.956 47.161 29.9387L33.7653 26.3494C33.7359 26.3414 33.7051 26.3393 33.6748 26.3432C33.6446 26.3471 33.6154 26.357 33.589 26.3723C33.5625 26.3875 33.5394 26.4079 33.5209 26.4321C33.5023 26.4564 33.4888 26.484 33.481 26.5135L32.0411 31.8963H25.3757C25.3144 31.8963 25.2556 31.9207 25.2122 31.964C25.1689 32.0074 25.1445 32.0661 25.1445 32.1274V48.3058C25.1445 48.3671 25.1689 48.4259 25.2122 48.4692C25.2556 48.5126 25.3144 48.5369 25.3757 48.5369H39.2428C39.3041 48.5369 39.3629 48.5126 39.4063 48.4692C39.4496 48.4259 39.4739 48.3671 39.4739 48.3058V45.1141L42.8529 46.02C42.8729 46.0223 42.893 46.0223 42.913 46.02C42.9652 46.0218 43.0164 46.0059 43.0584 45.9748C43.1004 45.9438 43.1306 45.8994 43.1441 45.849L47.332 30.2299C47.3465 30.1675 47.3357 30.1019 47.302 30.0474ZM39.0117 48.0747H25.6068V32.3586H39.0117V48.0747ZM39.4739 39.3754C39.7165 39.4475 39.9378 39.5776 40.1188 39.7544C40.376 40.0043 40.6951 40.1814 41.0433 40.2675C41.2268 40.3193 41.4165 40.3465 41.6072 40.3484C41.7738 40.3455 41.9396 40.3245 42.1018 40.286C42.3039 40.2333 42.5145 40.2215 42.7212 40.2513L42.3653 41.5802L39.4739 40.8083V39.3754ZM42.8437 39.8075C42.5673 39.7585 42.2837 39.7687 42.0116 39.8376C41.7328 39.9026 41.4422 39.8978 41.1656 39.8236C40.889 39.7495 40.6351 39.6082 40.4262 39.4123C40.169 39.1623 39.8499 38.9852 39.5017 38.8992H39.4786V37.7275C39.588 37.7367 39.6963 37.756 39.8021 37.7853C40.0825 37.8499 40.3389 37.9925 40.5417 38.1966C40.8005 38.4444 41.119 38.6212 41.4662 38.7097C41.6493 38.7598 41.838 38.7862 42.0278 38.7883C42.1951 38.7863 42.3618 38.7662 42.5247 38.7282C42.7268 38.6756 42.9374 38.6638 43.1441 38.6936L42.8437 39.8075ZM43.262 38.2452C42.9856 38.1972 42.7022 38.2075 42.43 38.2752C42.1511 38.3402 41.8605 38.3355 41.5839 38.2613C41.3074 38.1871 41.0534 38.0458 40.8445 37.85C40.5872 37.6001 40.2682 37.423 39.92 37.3369C39.7741 37.2977 39.6247 37.2729 39.4739 37.2629V32.1274C39.4739 32.0661 39.4496 32.0074 39.4063 31.964C39.3629 31.9207 39.3041 31.8963 39.2428 31.8963H33.9571L34.8516 28.5613L45.1202 31.3139L43.262 38.2452ZM42.7489 45.5139L39.4739 44.6356V41.2867L42.4785 42.091H42.5386C42.5908 42.0928 42.642 42.0769 42.684 42.0458C42.726 42.0148 42.7562 41.9704 42.7697 41.92L45.6264 31.203C45.6344 31.1735 45.6365 31.1428 45.6326 31.1125C45.6287 31.0823 45.6188 31.0531 45.6035 31.0266C45.5883 31.0002 45.5679 30.9771 45.5437 30.9585C45.5194 30.94 45.4918 30.9265 45.4623 30.9187L34.7476 28.0551C34.6882 28.0404 34.6254 28.0487 34.5719 28.0782C34.5454 28.0934 34.5221 28.1136 34.5035 28.1378C34.4848 28.162 34.4712 28.1897 34.4633 28.2192L33.4787 31.8963H32.5196L33.8693 26.8625L46.812 30.3293L42.7489 45.5139Z" fill="#39426A"/>
<path d="M42.2478 33.9221C42.3185 33.6577 42.3095 33.3782 42.2217 33.1189C42.134 32.8596 41.9715 32.6321 41.7546 32.465C41.5378 32.298 41.2764 32.1988 41.0033 32.18C40.7302 32.1613 40.4577 32.2237 40.22 32.3596C39.9824 32.4954 39.7903 32.6986 39.6678 32.9434C39.5454 33.1882 39.4982 33.4638 39.5322 33.7354C39.5661 34.0071 39.6797 34.2626 39.8586 34.4697C40.0375 34.6769 40.2737 34.8265 40.5375 34.8997C40.6545 34.9297 40.7749 34.9452 40.8957 34.9459C41.2026 34.949 41.5018 34.8501 41.7465 34.6648C41.9912 34.4795 42.1675 34.2183 42.2478 33.9221V33.9221ZM41.7855 33.8042C41.7382 33.9808 41.6395 34.1394 41.5021 34.2599C41.3646 34.3804 41.1945 34.4575 41.0132 34.4814C40.832 34.5052 40.6477 34.4748 40.4837 34.394C40.3198 34.3131 40.1835 34.1855 40.092 34.0272C40.0006 33.8689 39.9581 33.687 39.9701 33.5046C39.982 33.3221 40.0477 33.1473 40.159 33.0022C40.2702 32.8572 40.422 32.7483 40.5951 32.6895C40.7682 32.6307 40.9548 32.6245 41.1314 32.6717C41.2488 32.7031 41.3588 32.7573 41.4551 32.8312C41.5515 32.9051 41.6324 32.9973 41.6931 33.1024C41.7539 33.2076 41.7933 33.3237 41.8091 33.4441C41.825 33.5646 41.817 33.6869 41.7855 33.8042V33.8042Z" fill="#39426A"/>
<path d="M41.3738 31.7777C41.3937 31.7809 41.414 31.7809 41.4339 31.7777C41.4861 31.7795 41.5373 31.7636 41.5793 31.7325C41.6213 31.7014 41.6515 31.6571 41.665 31.6067L41.7852 31.1675C41.8008 31.1087 41.7926 31.0461 41.7623 30.9933C41.732 30.9405 41.6821 30.9018 41.6234 30.8856C41.594 30.8776 41.5633 30.8754 41.533 30.8794C41.5027 30.8833 41.4735 30.8931 41.4471 30.9084C41.4207 30.9237 41.3975 30.944 41.379 30.9682C41.3605 30.9925 41.3469 31.0202 41.3392 31.0497L41.2213 31.4957C41.2053 31.5533 41.2123 31.6149 41.2407 31.6675C41.2692 31.72 41.3169 31.7596 41.3738 31.7777V31.7777Z" fill="#39426A"/>
<path d="M40.4175 35.3625C40.3584 35.347 40.2955 35.3556 40.2426 35.3863C40.1898 35.4171 40.1513 35.4675 40.1356 35.5266L40.0154 35.9727C39.9999 36.0318 40.0084 36.0947 40.0392 36.1476C40.0699 36.2004 40.1204 36.2389 40.1795 36.2547C40.1994 36.2571 40.2196 36.2571 40.2396 36.2547C40.292 36.2563 40.3435 36.2401 40.3855 36.2086C40.4276 36.177 40.4576 36.1322 40.4707 36.0813L40.5909 35.6353C40.6033 35.5762 40.5922 35.5145 40.5598 35.4636C40.5274 35.4126 40.4763 35.3763 40.4175 35.3625V35.3625Z" fill="#39426A"/>
<path d="M43.4032 33.9984L42.9548 33.8782C42.8953 33.8626 42.8321 33.8712 42.779 33.9022C42.7259 33.9332 42.6873 33.984 42.6717 34.0435C42.656 34.1029 42.6647 34.1662 42.6957 34.2193C42.7267 34.2724 42.7775 34.311 42.8369 34.3266L43.283 34.4445C43.3029 34.4478 43.3232 34.4478 43.3431 34.4445C43.4044 34.4524 43.4663 34.4357 43.5153 34.398C43.5643 34.3603 43.5963 34.3047 43.6043 34.2434C43.6122 34.1821 43.5955 34.1201 43.5578 34.0712C43.5201 34.0222 43.4645 33.9902 43.4032 33.9822V33.9984Z" fill="#39426A"/>
<path d="M39.8551 31.9951C39.8958 31.9953 39.9357 31.9847 39.971 31.9645C40.0063 31.9443 40.0356 31.9151 40.056 31.8799C40.0764 31.8448 40.0871 31.8049 40.0872 31.7642C40.0872 31.7236 40.0765 31.6836 40.0562 31.6484L39.8251 31.2463C39.8098 31.22 39.7895 31.197 39.7653 31.1785C39.7411 31.1601 39.7135 31.1467 39.684 31.1389C39.6546 31.1312 39.624 31.1294 39.5938 31.1335C39.5637 31.1376 39.5347 31.1477 39.5084 31.1631C39.456 31.1939 39.4178 31.2443 39.4022 31.3031C39.3866 31.362 39.3949 31.4246 39.4252 31.4774L39.6564 31.8795C39.6765 31.9145 39.7055 31.9435 39.7404 31.9638C39.7752 31.9841 39.8148 31.9949 39.8551 31.9951Z" fill="#39426A"/>
<path d="M42.1356 35.2497C42.1203 35.2234 42.1 35.2004 42.0758 35.182C42.0516 35.1635 42.024 35.1501 41.9946 35.1424C41.9652 35.1346 41.9345 35.1328 41.9044 35.1369C41.8743 35.1411 41.8452 35.1511 41.819 35.1665C41.7665 35.1974 41.7284 35.2477 41.7128 35.3065C41.6972 35.3654 41.7055 35.428 41.7358 35.4808L41.9669 35.883C41.9989 35.9333 42.0491 35.9693 42.107 35.9834C42.1649 35.9976 42.226 35.9889 42.2776 35.9591C42.3292 35.9292 42.3673 35.8806 42.3839 35.8234C42.4005 35.7661 42.3944 35.7047 42.3667 35.6518L42.1356 35.2497Z" fill="#39426A"/>
<path d="M42.8123 32.7256L43.2122 32.4945C43.2655 32.4639 43.3045 32.4133 43.3205 32.3539C43.3365 32.2945 43.3283 32.2312 43.2977 32.1779C43.2825 32.1515 43.2623 32.1283 43.2381 32.1097C43.214 32.0911 43.1865 32.0775 43.1571 32.0695C43.0977 32.0535 43.0344 32.0617 42.981 32.0924L42.5812 32.3235C42.5279 32.3541 42.4889 32.4047 42.4729 32.4641C42.4568 32.5235 42.465 32.5868 42.4957 32.6401C42.5263 32.6934 42.5769 32.7324 42.6363 32.7485C42.6957 32.7645 42.759 32.7563 42.8123 32.7256Z" fill="#39426A"/>
</g>
<path d="M51.0313 36.9795C51.0313 33.9077 50.1204 30.9049 48.4138 28.3508C46.7072 25.7967 44.2815 23.806 41.4436 22.6305C38.6056 21.455 35.4828 21.1474 32.47 21.7467C29.4572 22.346 26.6898 23.8252 24.5178 25.9972C22.3457 28.1693 20.8665 30.9367 20.2672 33.9495C19.6679 36.9623 19.9755 40.0851 21.151 42.9231C22.3265 45.761 24.3172 48.1867 26.8713 49.8933C29.4254 51.5999 32.4282 52.5108 35.5 52.5108C39.6192 52.5108 43.5696 50.8744 46.4823 47.9618C49.3949 45.0491 51.0313 41.0987 51.0313 36.9795ZM35.5 51.0316C32.7208 51.0316 30.0039 50.2075 27.6931 48.6634C25.3822 47.1193 23.5811 44.9247 22.5176 42.357C21.454 39.7893 21.1757 36.9639 21.7179 34.2381C22.2601 31.5122 23.5985 29.0084 25.5637 27.0432C27.5289 25.078 30.0327 23.7396 32.7586 23.1974C35.4844 22.6552 38.3098 22.9335 40.8775 23.9971C43.4452 25.0606 45.6398 26.8617 47.1839 29.1726C48.7279 31.4834 49.5521 34.2003 49.5521 36.9795C49.5521 40.7064 48.0716 44.2806 45.4363 46.9158C42.8011 49.5511 39.2269 51.0316 35.5 51.0316Z" fill="#39426A"/>
</g>
<defs>
<clipPath id="clip0_3703_21523">
<rect width="71" height="71" fill="white"/>
</clipPath>
<clipPath id="clip1_3703_21523">
<rect width="22.1875" height="22.1875" fill="white" transform="translate(25.1445 25.8857)"/>
</clipPath>
</defs>
</svg>

