<svg id="Layer_1" data-name="Layer 1" xmlns="http://www.w3.org/2000/svg" viewBox="0 0 96 100">
  <defs>
    <style>.cls-1{fill:#ccd1dc;}.cls-2{fill:#dee1e7;}.cls-3{fill:#f3f4f5;}.cls-4{fill:#abd9e6;}.cls-5{fill:#7190c4;}.cls-6{fill:#89a3ce;}.cls-7{fill:#c3e1f5;}.cls-8{fill:#85bd79;}.cls-9{fill:#9fc98a;}.cls-10{fill:#f6b756;}.cls-11{fill:#fac77d;}.cls-12{fill:#39426a;}</style>
  </defs>
  <title>polyroid, image, picture, gallery, vacation, holiday, travel</title>
  <rect class="cls-1" x="21.96" y="14.57" width="70" height="60" transform="translate(-0.83 88.06) rotate(-75)" />
  <path class="cls-2" d="M95,18.53,77.66,83.25,34.19,71.6a12,12,0,0,1-8.48-14.7L39.94,3.78Z" />
  <rect class="cls-3" x="56.76" y="16.1" width="27" height="62" rx="2" transform="translate(14.58 -16.58) rotate(15)" />
  <rect class="cls-4" x="34" y="16" width="48" height="48" transform="translate(4.35 85.67) rotate(-75)" />
  <path class="cls-5" d="M77.3,61.41l-2.07,7.73L61,65.33V57.09a8.15,8.15,0,0,1,.85.18c3.86,1,3.35,3,7.21,4S73.44,60.37,77.3,61.41Z" />
  <path class="cls-6" d="M79.11,54.65,77.3,61.41c-3.86-1-4.38.9-8.24-.14s-3.35-3-7.21-4a8.15,8.15,0,0,0-.85-.18V50.21a7.8,7.8,0,0,1,2.66.3c3.86,1,3.35,3,7.21,4S75.25,53.61,79.11,54.65Z" />
  <path class="cls-7" d="M87.39,23l-7,26.08h0c-24-6.43-40.34-23.32-36.48-37.73h0Z" />
  <rect class="cls-1" x="1" y="27" width="60" height="70" />
  <path class="cls-2" d="M61,27V94H16A12,12,0,0,1,4,82V27Z" />
  <rect class="cls-3" x="31" y="30" width="27" height="62" rx="2" />
  <rect class="cls-4" x="7" y="33" width="48" height="48" />
  <polygon class="cls-8" points="55 74 55 81 39 81 28.66 70.66 40.16 59.16 55 74" />
  <polygon class="cls-8" points="55 74 55 81 39 81 28.66 70.66 40.16 59.16 55 74" />
  <path class="cls-9" d="M55,74v7H43l-.6-.6a17.24,17.24,0,0,1-2.85-20.63l.61-.61Z" />
  <polygon class="cls-8" points="39 81 7 81 7 79.32 22.16 64.16 39 81" />
  <path class="cls-9" d="M39,81l-10.59-.56a9.55,9.55,0,0,1-6.25-16.28h0Z" />
  <path class="cls-7" d="M55,33V60h0C30.15,60,10,47.91,10,33H55Z" />
  <path class="cls-10" d="M33,49a5,5,0,0,1-10,0,5.34,5.34,0,0,1,.22-1.5,5,5,0,0,1,9.56,0A5.34,5.34,0,0,1,33,49Z" />
  <ellipse class="cls-11" cx="28" cy="47.5" rx="4.78" ry="3.5" />
  <path class="cls-10" d="M73,33a5,5,0,0,1-10,0,5.34,5.34,0,0,1,.22-1.5,5,5,0,0,1,9.56,0A5.34,5.34,0,0,1,73,33Z" />
  <ellipse class="cls-11" cx="68" cy="31.5" rx="4.78" ry="3.5" />
  <path class="cls-12" d="M7,82H55a1,1,0,0,0,1-1V33a1,1,0,0,0-1-1H7a1,1,0,0,0-1,1V81A1,1,0,0,0,7,82Zm1-2.27L22.16,65.57,36.59,80H8ZM39.41,80l-9.34-9.34L40.16,60.57,54,74.41V80ZM54,34V71.59L40.87,58.45a1,1,0,0,0-1.42,0L28.66,69.25l-5.79-5.8a1,1,0,0,0-1.42,0L8,76.91V34Z" />
  <path class="cls-12" d="M28,55a6,6,0,1,0-6-6A6,6,0,0,0,28,55Zm0-10a4,4,0,1,1-4,4A4,4,0,0,1,28,45Z" />
  <path class="cls-12" d="M28,41a1,1,0,0,0,1-1V38a1,1,0,0,0-2,0v2A1,1,0,0,0,28,41Z" />
  <path class="cls-12" d="M28,57a1,1,0,0,0-1,1v2a1,1,0,0,0,2,0V58A1,1,0,0,0,28,57Z" />
  <path class="cls-12" d="M36,49a1,1,0,0,0,1,1h2a1,1,0,0,0,0-2H37A1,1,0,0,0,36,49Z" />
  <path class="cls-12" d="M17,50h2a1,1,0,0,0,0-2H17a1,1,0,0,0,0,2Z" />
  <path class="cls-12" d="M34.36,43.64a1,1,0,0,0,.71-.3l1.42-1.41a1,1,0,0,0-1.42-1.42l-1.41,1.42a1,1,0,0,0,0,1.41A1,1,0,0,0,34.36,43.64Z" />
  <path class="cls-12" d="M20.93,54.66l-1.42,1.41a1,1,0,0,0,0,1.42,1,1,0,0,0,.71.29,1,1,0,0,0,.71-.29l1.41-1.42a1,1,0,1,0-1.41-1.41Z" />
  <path class="cls-12" d="M35.07,54.66a1,1,0,1,0-1.41,1.41l1.41,1.42a1,1,0,0,0,.71.29,1,1,0,0,0,.71-.29,1,1,0,0,0,0-1.42Z" />
  <path class="cls-12" d="M20.93,43.34a1,1,0,0,0,1.41,0,1,1,0,0,0,0-1.41l-1.41-1.42a1,1,0,1,0-1.42,1.42Z" />
  <path class="cls-12" d="M95.87,18a1.06,1.06,0,0,0-.61-.47L37.3,2a1,1,0,0,0-1.23.71L29.84,26H1a1,1,0,0,0-1,1V97a1,1,0,0,0,1,1H61a1,1,0,0,0,1-1V83.19l14.62,3.92a1.15,1.15,0,0,0,.26,0,1,1,0,0,0,1-.74L96,18.79A1.05,1.05,0,0,0,95.87,18ZM60,96H2V28H60Zm2-37.64A6.74,6.74,0,0,1,64.79,60a8.76,8.76,0,0,0,4,2.22,9.32,9.32,0,0,0,2.44.35,10,10,0,0,0,2.14-.27,6.79,6.79,0,0,1,2.68-.15l-1.54,5.75L62,64.56Zm14.58,1.87a8.57,8.57,0,0,0-3.6.13,7.53,7.53,0,0,1-6.86-1.84,8.74,8.74,0,0,0-4-2.22l-.1,0V51.23a7.67,7.67,0,0,1,1.4.25,6.6,6.6,0,0,1,3.2,1.78,9,9,0,0,0,4,2.22,9.62,9.62,0,0,0,2.43.34,10,10,0,0,0,2.15-.26,6.79,6.79,0,0,1,2.68-.15Zm1.81-6.76a8.73,8.73,0,0,0-3.6.13,7.53,7.53,0,0,1-6.86-1.84,8.76,8.76,0,0,0-4-2.22A10,10,0,0,0,62,49.22V27a1,1,0,0,0-1-1H38.13L42,11.57,86.43,23.48ZM76.17,84.92,62,81.12V66.63l13,3.48.26,0a1,1,0,0,0,1-.74L88.62,23a1,1,0,0,0-.71-1.23L41.55,9.38a1.05,1.05,0,0,0-.76.1,1,1,0,0,0-.47.61L36.06,26H31.91L37.75,4.22l56,15Z" />
  <path class="cls-12" d="M74,34.77A6,6,0,1,0,66.6,39a6.4,6.4,0,0,0,1.55.2A6,6,0,0,0,74,34.77ZM72,34.26a4,4,0,1,1-2.83-4.9A4,4,0,0,1,72,34.26Z" />
  <path class="cls-12" d="M70.22,25.49a.82.82,0,0,0,.26,0,1,1,0,0,0,1-.74L72,22.85a1,1,0,0,0-.7-1.22,1,1,0,0,0-1.23.71l-.51,1.93A1,1,0,0,0,70.22,25.49Z" />
  <path class="cls-12" d="M66.08,41a1,1,0,0,0-1.22.71l-.52,1.93a1,1,0,0,0,.71,1.22,1.09,1.09,0,0,0,.26,0,1,1,0,0,0,1-.75l.52-1.93A1,1,0,0,0,66.08,41Z" />
  <path class="cls-12" d="M79,35.1l-1.94-.52a1,1,0,0,0-.51,1.94l1.93.51a.78.78,0,0,0,.26,0,1,1,0,0,0,.26-2Z" />
  <path class="cls-12" d="M63.65,26.43a1,1,0,0,0,.87-1.5l-1-1.74a1,1,0,0,0-1.37-.36,1,1,0,0,0-.36,1.36l1,1.74A1,1,0,0,0,63.65,26.43Z" />
  <path class="cls-12" d="M73.52,40.51a1,1,0,0,0-1.37-.36,1,1,0,0,0-.36,1.36l1,1.74a1,1,0,0,0,1.73-1Z" />
  <path class="cls-12" d="M76.45,29.59l1.73-1a1,1,0,0,0-1-1.74l-1.73,1a1,1,0,0,0,1,1.74Z" />
</svg>