<svg width="32" height="32" viewBox="0 0 41 36" fill="none" xmlns="http://www.w3.org/2000/svg">
<path fill-rule="evenodd" clip-rule="evenodd" d="M16 0C24.8337 0 32 7.16626 32 16C32 24.8337 24.8337 32 16 32C7.16626 32 0 24.8337 0 16C0 7.16626 7.16626 0 16 0ZM16 2C23.7292 2 30 8.27083 30 16C30 23.7292 23.7292 30 16 30C8.27083 30 2 23.7292 2 16C2 8.27083 8.27083 2 16 2Z" fill="white"/>
<path fill-rule="evenodd" clip-rule="evenodd" d="M28 16C28 9.3754 22.6246 4 16 4C9.3754 4 4 9.3754 4 16C4 22.6246 9.3754 28 16 28C22.6246 28 28 22.6246 28 16ZM16 2C23.7292 2 30 8.27083 30 16C30 23.7292 23.7292 30 16 30C8.27083 30 2 23.7292 2 16C2 8.27083 8.27083 2 16 2Z" fill="black"/>
<path d="M27.8571 31C26.6924 31 26 32.0456 26 33C26 33.9544 26.6924 35 27.8571 35H38.1429C39.3076 35 40 33.9544 40 33C40 32.0456 39.3076 31 38.1429 31H27.8571Z" fill="black" stroke="white" stroke-width="2" stroke-linecap="round" stroke-linejoin="round"/>
</svg>
