<svg width="16" height="16" viewBox="0 0 16 16" fill="none" xmlns="http://www.w3.org/2000/svg">
<mask id="path-1-outside-1_3536_19823" maskUnits="userSpaceOnUse" x="1.58579" y="1.58575" width="12.7279" height="12.7279" fill="black">
<rect fill="white" x="1.58579" y="1.58575" width="12.7279" height="12.7279"/>
<path fill-rule="evenodd" clip-rule="evenodd" d="M9.71751 10.4246C9.91278 10.6198 10.2294 10.6198 10.4246 10.4246C10.6199 10.2293 10.6199 9.91274 10.4246 9.71747L8.65685 7.94971L10.4246 6.18194C10.6199 5.98668 10.6199 5.6701 10.4246 5.47483C10.2294 5.27957 9.91278 5.27957 9.71751 5.47483L7.94975 7.2426L6.18198 5.47483C5.98672 5.27957 5.67014 5.27957 5.47487 5.47483C5.27961 5.6701 5.27961 5.98668 5.47487 6.18194L7.24264 7.94971L5.47487 9.71747C5.27961 9.91274 5.27961 10.2293 5.47487 10.4246C5.67014 10.6198 5.98672 10.6198 6.18198 10.4246L7.94975 8.65681L9.71751 10.4246Z"/>
</mask>
<path fill-rule="evenodd" clip-rule="evenodd" d="M9.71751 10.4246C9.91278 10.6198 10.2294 10.6198 10.4246 10.4246C10.6199 10.2293 10.6199 9.91274 10.4246 9.71747L8.65685 7.94971L10.4246 6.18194C10.6199 5.98668 10.6199 5.6701 10.4246 5.47483C10.2294 5.27957 9.91278 5.27957 9.71751 5.47483L7.94975 7.2426L6.18198 5.47483C5.98672 5.27957 5.67014 5.27957 5.47487 5.47483C5.27961 5.6701 5.27961 5.98668 5.47487 6.18194L7.24264 7.94971L5.47487 9.71747C5.27961 9.91274 5.27961 10.2293 5.47487 10.4246C5.67014 10.6198 5.98672 10.6198 6.18198 10.4246L7.94975 8.65681L9.71751 10.4246Z" fill="black"/>
<path d="M8.65685 7.94971L7.94975 7.2426C7.55922 7.63312 7.55922 8.26629 7.94975 8.65681L8.65685 7.94971ZM7.94975 7.2426L7.24264 7.94971C7.63316 8.34023 8.26633 8.34023 8.65685 7.94971L7.94975 7.2426ZM7.24264 7.94971L7.94975 8.65681C8.34027 8.26629 8.34027 7.63312 7.94975 7.2426L7.24264 7.94971ZM7.94975 8.65681L8.65685 7.94971C8.26633 7.55918 7.63316 7.55918 7.24264 7.94971L7.94975 8.65681ZM9.71751 9.71747C9.91278 9.52221 10.2294 9.52221 10.4246 9.71747L9.01041 11.1317C9.59619 11.7175 10.5459 11.7175 11.1317 11.1317L9.71751 9.71747ZM9.71751 10.4246C9.52225 10.2293 9.52225 9.91274 9.71751 9.71747L11.1317 11.1317C11.7175 10.5459 11.7175 9.59615 11.1317 9.01037L9.71751 10.4246ZM7.94975 8.65681L9.71751 10.4246L11.1317 9.01037L9.36396 7.2426L7.94975 8.65681ZM9.71751 5.47483L7.94975 7.2426L9.36396 8.65681L11.1317 6.88905L9.71751 5.47483ZM9.71751 6.18194C9.52225 5.98668 9.52225 5.6701 9.71751 5.47483L11.1317 6.88905C11.7175 6.30326 11.7175 5.35351 11.1317 4.76773L9.71751 6.18194ZM10.4246 6.18194C10.2294 6.3772 9.91278 6.3772 9.71751 6.18194L11.1317 4.76773C10.5459 4.18194 9.59619 4.18194 9.01041 4.76773L10.4246 6.18194ZM8.65685 7.94971L10.4246 6.18194L9.01041 4.76773L7.24264 6.53549L8.65685 7.94971ZM5.47487 6.18194L7.24264 7.94971L8.65685 6.53549L6.88909 4.76773L5.47487 6.18194ZM6.18198 6.18194C5.98672 6.3772 5.67014 6.3772 5.47487 6.18194L6.88909 4.76773C6.3033 4.18194 5.35355 4.18194 4.76777 4.76773L6.18198 6.18194ZM6.18198 5.47483C6.37724 5.6701 6.37724 5.98668 6.18198 6.18194L4.76777 4.76773C4.18198 5.35351 4.18198 6.30326 4.76777 6.88905L6.18198 5.47483ZM7.94975 7.2426L6.18198 5.47483L4.76777 6.88905L6.53553 8.65681L7.94975 7.2426ZM6.18198 10.4246L7.94975 8.65681L6.53553 7.2426L4.76777 9.01037L6.18198 10.4246ZM6.18198 9.71747C6.37724 9.91274 6.37724 10.2293 6.18198 10.4246L4.76777 9.01037C4.18198 9.59615 4.18198 10.5459 4.76777 11.1317L6.18198 9.71747ZM5.47487 9.71747C5.67014 9.52221 5.98672 9.52221 6.18198 9.71747L4.76777 11.1317C5.35355 11.7175 6.3033 11.7175 6.88909 11.1317L5.47487 9.71747ZM7.24264 7.94971L5.47487 9.71747L6.88909 11.1317L8.65685 9.36392L7.24264 7.94971ZM10.4246 9.71747L8.65685 7.94971L7.24264 9.36392L9.01041 11.1317L10.4246 9.71747Z" fill="white" mask="url(#path-1-outside-1_3536_19823)"/>
<path fill-rule="evenodd" clip-rule="evenodd" d="M8 0C12.4169 0 16 3.58313 16 8C16 12.4169 12.4169 16 8 16C3.58313 16 0 12.4169 0 8C0 3.58313 3.58313 0 8 0ZM8 1C11.8646 1 15 4.13542 15 8C15 11.8646 11.8646 15 8 15C4.13542 15 1 11.8646 1 8C1 4.13542 4.13542 1 8 1Z" fill="white"/>
<path fill-rule="evenodd" clip-rule="evenodd" d="M14 8C14 4.6877 11.3123 2 8 2C4.6877 2 2 4.6877 2 8C2 11.3123 4.6877 14 8 14C11.3123 14 14 11.3123 14 8ZM8 1C11.8646 1 15 4.13542 15 8C15 11.8646 11.8646 15 8 15C4.13542 15 1 11.8646 1 8C1 4.13542 4.13542 1 8 1Z" fill="black"/>
</svg>
