<svg width="16" height="16" viewBox="0 0 16 16" fill="none" xmlns="http://www.w3.org/2000/svg">
<mask id="path-1-outside-1_3536_19825" maskUnits="userSpaceOnUse" x="0" y="0" width="16" height="16" fill="black">
<rect fill="white" width="16" height="16"/>
<path fill-rule="evenodd" clip-rule="evenodd" d="M8 14C11.3137 14 14 11.3137 14 8C14 4.68629 11.3137 2 8 2C4.68629 2 2 4.68629 2 8C2 11.3137 4.68629 14 8 14ZM8 12C10.2091 12 12 10.2091 12 8C12 5.79086 10.2091 4 8 4C5.79086 4 4 5.79086 4 8C4 10.2091 5.79086 12 8 12Z"/>
</mask>
<path fill-rule="evenodd" clip-rule="evenodd" d="M8 14C11.3137 14 14 11.3137 14 8C14 4.68629 11.3137 2 8 2C4.68629 2 2 4.68629 2 8C2 11.3137 4.68629 14 8 14ZM8 12C10.2091 12 12 10.2091 12 8C12 5.79086 10.2091 4 8 4C5.79086 4 4 5.79086 4 8C4 10.2091 5.79086 12 8 12Z" fill="white"/>
<path d="M12 8C12 10.2091 10.2091 12 8 12V16C12.4183 16 16 12.4183 16 8H12ZM8 4C10.2091 4 12 5.79086 12 8H16C16 3.58172 12.4183 0 8 0V4ZM4 8C4 5.79086 5.79086 4 8 4V0C3.58172 0 0 3.58172 0 8H4ZM8 12C5.79086 12 4 10.2091 4 8H0C0 12.4183 3.58172 16 8 16V12ZM10 8C10 9.10457 9.10457 10 8 10V14C11.3137 14 14 11.3137 14 8H10ZM8 6C9.10457 6 10 6.89543 10 8H14C14 4.68629 11.3137 2 8 2V6ZM6 8C6 6.89543 6.89543 6 8 6V2C4.68629 2 2 4.68629 2 8H6ZM8 10C6.89543 10 6 9.10457 6 8H2C2 11.3137 4.68629 14 8 14V10Z" fill="#3182CE" mask="url(#path-1-outside-1_3536_19825)"/>
</svg>
