<svg width="32" height="32" viewBox="0 0 32 32" fill="none" xmlns="http://www.w3.org/2000/svg">
<mask id="path-1-outside-1_3401:18917" maskUnits="userSpaceOnUse" x="0" y="0" width="32" height="32" fill="black">
<rect fill="white" width="32" height="32"/>
<path fill-rule="evenodd" clip-rule="evenodd" d="M16 28C22.6274 28 28 22.6274 28 16C28 9.37258 22.6274 4 16 4C9.37258 4 4 9.37258 4 16C4 22.6274 9.37258 28 16 28ZM16 24C20.4183 24 24 20.4183 24 16C24 11.5817 20.4183 8 16 8C11.5817 8 8 11.5817 8 16C8 20.4183 11.5817 24 16 24Z"/>
</mask>
<path fill-rule="evenodd" clip-rule="evenodd" d="M16 28C22.6274 28 28 22.6274 28 16C28 9.37258 22.6274 4 16 4C9.37258 4 4 9.37258 4 16C4 22.6274 9.37258 28 16 28ZM16 24C20.4183 24 24 20.4183 24 16C24 11.5817 20.4183 8 16 8C11.5817 8 8 11.5817 8 16C8 20.4183 11.5817 24 16 24Z" fill="white"/>
<path d="M24 16C24 20.4183 20.4183 24 16 24V32C24.8366 32 32 24.8366 32 16H24ZM16 8C20.4183 8 24 11.5817 24 16H32C32 7.16344 24.8366 0 16 0V8ZM8 16C8 11.5817 11.5817 8 16 8V0C7.16344 0 0 7.16344 0 16H8ZM16 24C11.5817 24 8 20.4183 8 16H0C0 24.8366 7.16344 32 16 32V24ZM20 16C20 18.2091 18.2091 20 16 20V28C22.6274 28 28 22.6274 28 16H20ZM16 12C18.2091 12 20 13.7909 20 16H28C28 9.37258 22.6274 4 16 4V12ZM12 16C12 13.7909 13.7909 12 16 12V4C9.37258 4 4 9.37258 4 16H12ZM16 20C13.7909 20 12 18.2091 12 16H4C4 22.6274 9.37258 28 16 28V20Z" fill="#3182CE" mask="url(#path-1-outside-1_3401:18917)"/>
</svg>
