<svg width="32" height="32" viewBox="0 0 32 32" fill="none" xmlns="http://www.w3.org/2000/svg">
<path fill-rule="evenodd" clip-rule="evenodd" d="M16 0C24.8337 0 32 7.16626 32 16C32 24.8337 24.8337 32 16 32C7.16626 32 0 24.8337 0 16C0 7.16626 7.16626 0 16 0ZM16 2C23.7292 2 30 8.27083 30 16C30 23.7292 23.7292 30 16 30C8.27083 30 2 23.7292 2 16C2 8.27083 8.27083 2 16 2Z" fill="white"/>
<path d="M30 16C30 8.27083 23.7292 2 16 2C8.27083 2 2 8.27083 2 16C2 23.7292 8.27083 30 16 30C23.7292 30 30 23.7292 30 16Z" fill="#25855A"/>
<path fill-rule="evenodd" clip-rule="evenodd" d="M28 16C28 9.3754 22.6246 4 16 4C9.3754 4 4 9.3754 4 16C4 22.6246 9.3754 28 16 28C22.6246 28 28 22.6246 28 16ZM16 2C23.7292 2 30 8.27083 30 16C30 23.7292 23.7292 30 16 30C8.27083 30 2 23.7292 2 16C2 8.27083 8.27083 2 16 2Z" fill="#25855A"/>
</svg>
