<svg width="23" height="20" viewBox="0 0 23 20" fill="none" xmlns="http://www.w3.org/2000/svg">
<path fill-rule="evenodd" clip-rule="evenodd" d="M8 0C12.4169 0 16 3.58313 16 8C16 12.4169 12.4169 16 8 16C3.58313 16 0 12.4169 0 8C0 3.58313 3.58313 0 8 0ZM8 1C11.8646 1 15 4.13542 15 8C15 11.8646 11.8646 15 8 15C4.13542 15 1 11.8646 1 8C1 4.13542 4.13542 1 8 1Z" fill="white"/>
<path fill-rule="evenodd" clip-rule="evenodd" d="M14 8C14 4.6877 11.3123 2 8 2C4.6877 2 2 4.6877 2 8C2 11.3123 4.6877 14 8 14C11.3123 14 14 11.3123 14 8ZM8 1C11.8646 1 15 4.13542 15 8C15 11.8646 11.8646 15 8 15C4.13542 15 1 11.8646 1 8C1 4.13542 4.13542 1 8 1Z" fill="black"/>
<mask id="path-3-outside-1_3536_19821" maskUnits="userSpaceOnUse" x="14" y="11" width="9" height="9" fill="black">
<rect fill="white" x="14" y="11" width="9" height="9"/>
<path fill-rule="evenodd" clip-rule="evenodd" d="M18 18.5C18 18.7761 18.2239 19 18.5 19C18.7761 19 19 18.7761 19 18.5V16H21.5C21.7761 16 22 15.7761 22 15.5C22 15.2239 21.7761 15 21.5 15H19V12.5C19 12.2239 18.7761 12 18.5 12C18.2239 12 18 12.2239 18 12.5V15H15.5C15.2239 15 15 15.2239 15 15.5C15 15.7761 15.2239 16 15.5 16H18V18.5Z"/>
</mask>
<path fill-rule="evenodd" clip-rule="evenodd" d="M18 18.5C18 18.7761 18.2239 19 18.5 19C18.7761 19 19 18.7761 19 18.5V16H21.5C21.7761 16 22 15.7761 22 15.5C22 15.2239 21.7761 15 21.5 15H19V12.5C19 12.2239 18.7761 12 18.5 12C18.2239 12 18 12.2239 18 12.5V15H15.5C15.2239 15 15 15.2239 15 15.5C15 15.7761 15.2239 16 15.5 16H18V18.5Z" fill="black"/>
<path d="M19 16V15C18.4477 15 18 15.4477 18 16H19ZM19 15H18C18 15.5523 18.4477 16 19 16V15ZM18 15V16C18.5523 16 19 15.5523 19 15H18ZM18 16H19C19 15.4477 18.5523 15 18 15V16ZM18.5 18C18.7761 18 19 18.2239 19 18.5H17C17 19.3284 17.6716 20 18.5 20V18ZM18 18.5C18 18.2239 18.2239 18 18.5 18V20C19.3284 20 20 19.3284 20 18.5H18ZM18 16V18.5H20V16H18ZM21.5 15H19V17H21.5V15ZM21 15.5C21 15.2239 21.2239 15 21.5 15V17C22.3284 17 23 16.3284 23 15.5H21ZM21.5 16C21.2239 16 21 15.7761 21 15.5H23C23 14.6716 22.3284 14 21.5 14V16ZM19 16H21.5V14H19V16ZM18 12.5V15H20V12.5H18ZM18.5 13C18.2239 13 18 12.7761 18 12.5H20C20 11.6716 19.3284 11 18.5 11V13ZM19 12.5C19 12.7761 18.7761 13 18.5 13V11C17.6716 11 17 11.6716 17 12.5H19ZM19 15V12.5H17V15H19ZM15.5 16H18V14H15.5V16ZM16 15.5C16 15.7761 15.7761 16 15.5 16V14C14.6716 14 14 14.6716 14 15.5H16ZM15.5 15C15.7761 15 16 15.2239 16 15.5H14C14 16.3284 14.6716 17 15.5 17V15ZM18 15H15.5V17H18V15ZM19 18.5V16H17V18.5H19Z" fill="white" mask="url(#path-3-outside-1_3536_19821)"/>
</svg>
