<svg width="32" height="32" viewBox="0 0 32 32" fill="none" xmlns="http://www.w3.org/2000/svg">
<path fill-rule="evenodd" clip-rule="evenodd" d="M16 0C24.8337 0 32 7.16626 32 16C32 24.8337 24.8337 32 16 32C7.16626 32 0 24.8337 0 16C0 7.16626 7.16626 0 16 0ZM16 2C23.7292 2 30 8.27083 30 16C30 23.7292 23.7292 30 16 30C8.27083 30 2 23.7292 2 16C2 8.27083 8.27083 2 16 2Z" fill="white"/>
<path fill-rule="evenodd" clip-rule="evenodd" d="M28 16C28 9.3754 22.6246 4 16 4C9.3754 4 4 9.3754 4 16C4 22.6246 9.3754 28 16 28C22.6246 28 28 22.6246 28 16ZM16 2C23.7292 2 30 8.27083 30 16C30 23.7292 23.7292 30 16 30C8.27083 30 2 23.7292 2 16C2 8.27083 8.27083 2 16 2Z" fill="black"/>
<mask id="path-3-outside-1_3398:19300" maskUnits="userSpaceOnUse" x="4.6872" y="4.68629" width="22.6274" height="22.6274" fill="black">
<rect fill="white" x="4.6872" y="4.68629" width="22.6274" height="22.6274"/>
<path fill-rule="evenodd" clip-rule="evenodd" d="M18.9303 20.3437C19.2651 20.6784 19.853 20.6332 20.2435 20.2426C20.6341 19.8521 20.6793 19.2642 20.3446 18.9294L17.4151 16L20.3446 13.0706C20.6793 12.7358 20.6341 12.1479 20.2435 11.7574C19.853 11.3668 19.2651 11.3216 18.9303 11.6563L16.0009 14.5858L13.0715 11.6563C12.7367 11.3216 12.1488 11.3668 11.7583 11.7574C11.3677 12.1479 11.3225 12.7358 11.6573 13.0706L14.5867 16L11.6573 18.9294C11.3225 19.2642 11.3677 19.8521 11.7583 20.2426C12.1488 20.6332 12.7367 20.6784 13.0715 20.3437L16.0009 17.4142L18.9303 20.3437Z"/>
</mask>
<path fill-rule="evenodd" clip-rule="evenodd" d="M18.9303 20.3437C19.2651 20.6784 19.853 20.6332 20.2435 20.2426C20.6341 19.8521 20.6793 19.2642 20.3446 18.9294L17.4151 16L20.3446 13.0706C20.6793 12.7358 20.6341 12.1479 20.2435 11.7574C19.853 11.3668 19.2651 11.3216 18.9303 11.6563L16.0009 14.5858L13.0715 11.6563C12.7367 11.3216 12.1488 11.3668 11.7583 11.7574C11.3677 12.1479 11.3225 12.7358 11.6573 13.0706L14.5867 16L11.6573 18.9294C11.3225 19.2642 11.3677 19.8521 11.7583 20.2426C12.1488 20.6332 12.7367 20.6784 13.0715 20.3437L16.0009 17.4142L18.9303 20.3437Z" fill="black"/>
<path d="M17.4151 16L16.0009 14.5858C15.2199 15.3668 15.2199 16.6332 16.0009 17.4142L17.4151 16ZM16.0009 14.5858L14.5867 16C15.3677 16.781 16.6341 16.781 17.4151 16L16.0009 14.5858ZM14.5867 16L16.0009 17.4142C16.782 16.6332 16.782 15.3668 16.0009 14.5858L14.5867 16ZM16.0009 17.4142L17.4151 16C16.6341 15.219 15.3677 15.219 14.5867 16L16.0009 17.4142ZM18.8293 18.8284C18.9585 18.6993 19.156 18.5908 19.4126 18.571C19.6748 18.5508 20.0441 18.629 20.3446 18.9294L17.5161 21.7579C18.8286 23.0703 20.6986 22.616 21.6578 21.6569L18.8293 18.8284ZM18.9303 20.3437C18.6299 20.0432 18.5518 19.6739 18.5719 19.4117C18.5917 19.1551 18.7002 18.9575 18.8293 18.8284L21.6578 21.6569C22.617 20.6977 23.0712 18.8277 21.7588 17.5152L18.9303 20.3437ZM16.0009 17.4142L18.9303 20.3437L21.7588 17.5152L18.8293 14.5858L16.0009 17.4142ZM18.9303 11.6563L16.0009 14.5858L18.8293 17.4142L21.7588 14.4848L18.9303 11.6563ZM18.8293 13.1716C18.7002 13.0425 18.5917 12.8449 18.5719 12.5883C18.5518 12.3261 18.6299 11.9568 18.9303 11.6563L21.7588 14.4848C23.0712 13.1723 22.617 11.3023 21.6578 10.3431L18.8293 13.1716ZM20.3446 13.0706C20.0441 13.371 19.6748 13.4492 19.4126 13.429C19.156 13.4092 18.9585 13.3007 18.8293 13.1716L21.6578 10.3431C20.6986 9.38395 18.8286 8.92968 17.5161 10.2421L20.3446 13.0706ZM17.4151 16L20.3446 13.0706L17.5161 10.2421L14.5867 13.1716L17.4151 16ZM11.6573 13.0706L14.5867 16L17.4151 13.1716L14.4857 10.2421L11.6573 13.0706ZM13.1725 13.1716C13.0434 13.3007 12.8458 13.4092 12.5892 13.429C12.327 13.4492 11.9577 13.371 11.6573 13.0706L14.4857 10.2421C13.1732 8.92968 11.3032 9.38395 10.3441 10.3431L13.1725 13.1716ZM13.0715 11.6563C13.3719 11.9568 13.4501 12.3261 13.4299 12.5883C13.4102 12.8449 13.3016 13.0425 13.1725 13.1716L10.3441 10.3431C9.38486 11.3023 8.93058 13.1723 10.243 14.4848L13.0715 11.6563ZM16.0009 14.5858L13.0715 11.6563L10.243 14.4848L13.1725 17.4142L16.0009 14.5858ZM13.0715 20.3437L16.0009 17.4142L13.1725 14.5858L10.243 17.5152L13.0715 20.3437ZM13.1725 18.8284C13.3016 18.9576 13.4102 19.1551 13.4299 19.4117C13.4501 19.6739 13.3719 20.0432 13.0715 20.3437L10.243 17.5152C8.93058 18.8277 9.38486 20.6977 10.3441 21.6569L13.1725 18.8284ZM11.6573 18.9294C11.9577 18.629 12.327 18.5508 12.5892 18.571C12.8458 18.5908 13.0434 18.6993 13.1725 18.8284L10.3441 21.6569C11.3032 22.616 13.1732 23.0703 14.4857 21.7579L11.6573 18.9294ZM14.5867 16L11.6573 18.9294L14.4857 21.7579L17.4151 18.8284L14.5867 16ZM20.3446 18.9294L17.4151 16L14.5867 18.8284L17.5161 21.7579L20.3446 18.9294Z" fill="white" mask="url(#path-3-outside-1_3398:19300)"/>
</svg>
