<svg width="23" height="17" viewBox="0 0 23 17" fill="none" xmlns="http://www.w3.org/2000/svg">
<path fill-rule="evenodd" clip-rule="evenodd" d="M8 0C12.4169 0 16 3.58313 16 8C16 12.4169 12.4169 16 8 16C3.58313 16 0 12.4169 0 8C0 3.58313 3.58313 0 8 0ZM8 1C11.8646 1 15 4.13542 15 8C15 11.8646 11.8646 15 8 15C4.13542 15 1 11.8646 1 8C1 4.13542 4.13542 1 8 1Z" fill="white"/>
<path fill-rule="evenodd" clip-rule="evenodd" d="M14 8C14 4.6877 11.3123 2 8 2C4.6877 2 2 4.6877 2 8C2 11.3123 4.6877 14 8 14C11.3123 14 14 11.3123 14 8ZM8 1C11.8646 1 15 4.13542 15 8C15 11.8646 11.8646 15 8 15C4.13542 15 1 11.8646 1 8C1 4.13542 4.13542 1 8 1Z" fill="black"/>
<path d="M15.5 14.5C14.9477 14.5 14.5 14.9477 14.5 15.5C14.5 16.0523 14.9477 16.5 15.5 16.5H21.5C22.0523 16.5 22.5 16.0523 22.5 15.5C22.5 14.9477 22.0523 14.5 21.5 14.5H15.5Z" fill="black" stroke="white" stroke-linecap="round" stroke-linejoin="round"/>
</svg>
