<svg width="32" height="32" viewBox="0 0 41 41" fill="none" xmlns="http://www.w3.org/2000/svg">
<path fill-rule="evenodd" clip-rule="evenodd" d="M16 0C24.8337 0 32 7.16626 32 16C32 24.8337 24.8337 32 16 32C7.16626 32 0 24.8337 0 16C0 7.16626 7.16626 0 16 0ZM16 2C23.7292 2 30 8.27083 30 16C30 23.7292 23.7292 30 16 30C8.27083 30 2 23.7292 2 16C2 8.27083 8.27083 2 16 2Z" fill="white"/>
<path fill-rule="evenodd" clip-rule="evenodd" d="M28 16C28 9.3754 22.6246 4 16 4C9.3754 4 4 9.3754 4 16C4 22.6246 9.3754 28 16 28C22.6246 28 28 22.6246 28 16ZM16 2C23.7292 2 30 8.27083 30 16C30 23.7292 23.7292 30 16 30C8.27083 30 2 23.7292 2 16C2 8.27083 8.27083 2 16 2Z" fill="black"/>
<mask id="path-3-outside-1_3398:19264" maskUnits="userSpaceOnUse" x="25" y="25" width="16" height="16" fill="black">
<rect fill="white" x="25" y="25" width="16" height="16"/>
<path fill-rule="evenodd" clip-rule="evenodd" d="M32 38.1429C32 38.6162 32.4477 39 33 39C33.5523 39 34 38.6162 34 38.1429V34H38.1429C38.6162 34 39 33.5523 39 33C39 32.4477 38.6162 32 38.1429 32H34V27.8571C34 27.3838 33.5523 27 33 27C32.4477 27 32 27.3838 32 27.8571V32H27.8571C27.3838 32 27 32.4477 27 33C27 33.5523 27.3838 34 27.8571 34H32V38.1429Z"/>
</mask>
<path fill-rule="evenodd" clip-rule="evenodd" d="M32 38.1429C32 38.6162 32.4477 39 33 39C33.5523 39 34 38.6162 34 38.1429V34H38.1429C38.6162 34 39 33.5523 39 33C39 32.4477 38.6162 32 38.1429 32H34V27.8571C34 27.3838 33.5523 27 33 27C32.4477 27 32 27.3838 32 27.8571V32H27.8571C27.3838 32 27 32.4477 27 33C27 33.5523 27.3838 34 27.8571 34H32V38.1429Z" fill="black"/>
<path d="M34 34V32C32.8954 32 32 32.8954 32 34H34ZM34 32H32C32 33.1046 32.8954 34 34 34V32ZM32 32V34C33.1046 34 34 33.1046 34 32H32ZM32 34H34C34 32.8954 33.1046 32 32 32V34ZM33 37C33.1826 37 33.399 37.0629 33.5945 37.2304C33.7941 37.4016 34 37.7179 34 38.1429H30C30 39.9989 31.6435 41 33 41V37ZM32 38.1429C32 37.7179 32.2059 37.4016 32.4055 37.2304C32.601 37.0629 32.8174 37 33 37V41C34.3565 41 36 39.9989 36 38.1429H32ZM32 34V38.1429H36V34H32ZM38.1429 32H34V36H38.1429V32ZM37 33C37 32.8174 37.0629 32.601 37.2304 32.4055C37.4016 32.2059 37.7179 32 38.1429 32V36C39.9989 36 41 34.3565 41 33H37ZM38.1429 34C37.7179 34 37.4016 33.7941 37.2304 33.5945C37.0629 33.399 37 33.1826 37 33H41C41 31.6435 39.9989 30 38.1429 30V34ZM34 34H38.1429V30H34V34ZM32 27.8571V32H36V27.8571H32ZM33 29C32.8174 29 32.601 28.9371 32.4055 28.7696C32.2059 28.5984 32 28.2821 32 27.8571H36C36 26.0011 34.3565 25 33 25V29ZM34 27.8571C34 28.2821 33.7941 28.5984 33.5945 28.7696C33.399 28.9371 33.1826 29 33 29V25C31.6435 25 30 26.0011 30 27.8571H34ZM34 32V27.8571H30V32H34ZM27.8571 34H32V30H27.8571V34ZM29 33C29 33.1826 28.9371 33.399 28.7696 33.5945C28.5984 33.7941 28.2821 34 27.8571 34V30C26.0011 30 25 31.6435 25 33H29ZM27.8571 32C28.2821 32 28.5984 32.2059 28.7696 32.4055C28.9371 32.601 29 32.8174 29 33H25C25 34.3565 26.0011 36 27.8571 36V32ZM32 32H27.8571V36H32V32ZM34 38.1429V34H30V38.1429H34Z" fill="white" mask="url(#path-3-outside-1_3398:19264)"/>
</svg>
