<svg id="Layer_1" data-name="Layer 1" xmlns="http://www.w3.org/2000/svg" viewBox="0 0 96 96">
  <defs>
    <style>.cls-1{fill:#9fc98a;}.cls-2{fill:#bbd79f;}.cls-3{fill:#cf4055;}.cls-4{fill:#dc5d6b;}.cls-5{fill:#7190c4;}.cls-6{fill:#89a3ce;}.cls-7{fill:#a5b9db;}.cls-8{fill:#39426a;}</style>
  </defs>
  <title>map, navigation, location, destination, travel, international</title>
  <path class="cls-1" d="M28.3,56.75,25,81.63l-.07.54-.43,3.24L1,97,12.75,50.66l3.17-1.74.87-.48,5.71-3.12A51.32,51.32,0,0,0,28.3,56.75Z" />
  <path class="cls-2" d="M28.3,56.75,25,81.63,13.78,87.16a4,4,0,0,1-5.65-4.57l8.66-34.15,5.71-3.12A51.32,51.32,0,0,0,28.3,56.75Z" />
  <path class="cls-1" d="M48,76.11V97L24.5,85.41l3.8-28.66c1,1.52,2.08,3,3.16,4.32A71.94,71.94,0,0,0,48,76.11Z" />
  <path class="cls-2" d="M48,76.11V93L33.64,86a8,8,0,0,1-4.39-8.23l2.21-16.65A71.94,71.94,0,0,0,48,76.11Z" />
  <path class="cls-1" d="M71.5,85.41,48,97V76.11s1.15-.71,3-2.07A72.16,72.16,0,0,0,67.7,56.75l3.36,25.36Z" />
  <path class="cls-2" d="M71.06,82.11l-14.29,7A4,4,0,0,1,51,85.57V74A72.16,72.16,0,0,0,67.7,56.75Z" />
  <path class="cls-1" d="M95,97,71.5,85.41,67.7,56.75a51.32,51.32,0,0,0,5.8-11.43l1.46.8,8.29,4.54L93.7,91.88Z" />
  <path class="cls-2" d="M93.7,91.88,83.12,86.66a18,18,0,0,1-9.88-13.78L70.7,53.75A52.88,52.88,0,0,0,75,46.12l8.29,4.54Z" />
  <path class="cls-3" d="M75.85,34.55A43.33,43.33,0,0,1,73.5,45.32a51.32,51.32,0,0,1-5.8,11.43A71.52,71.52,0,0,1,48,76.1a0,0,0,0,1,0,0A71.52,71.52,0,0,1,28.3,56.75a51.32,51.32,0,0,1-5.8-11.43A42.69,42.69,0,0,1,20,31a26.81,26.81,0,0,1,.18-3.12A28,28,0,0,1,44,3.28c16-2.29,29.9,9.77,31.73,25.23A29.65,29.65,0,0,1,75.85,34.55Z" />
  <path class="cls-4" d="M75.75,28.51a42.93,42.93,0,0,1-2.25,9.81,51.32,51.32,0,0,1-5.8,11.43A69.62,69.62,0,0,1,55.52,63.42a11.48,11.48,0,0,1-15,0A69.62,69.62,0,0,1,28.3,49.75a51.32,51.32,0,0,1-5.8-11.43,43.18,43.18,0,0,1-2.32-10.44A28,28,0,0,1,44,3.28C60.07,1,73.92,13.05,75.75,28.51Z" />
  <circle class="cls-5" cx="48" cy="31" r="20" />
  <path class="cls-5" d="M68,31a20,20,0,0,1-40,0,18.86,18.86,0,0,1,.1-2,20,20,0,0,1,39.8,0A18.86,18.86,0,0,1,68,31Z" />
  <ellipse class="cls-6" cx="48" cy="29" rx="19.9" ry="18" />
  <path class="cls-7" d="M61.82,40.06a1,1,0,0,1-.5-.13A1,1,0,0,1,61,38.56,15,15,0,0,0,49.5,16.08a1,1,0,1,1,.2-2,17,17,0,0,1,13,25.49A1,1,0,0,1,61.82,40.06Z" />
  <path class="cls-8" d="M96,96.75,84.22,50.41a1.06,1.06,0,0,0-.49-.63l-9-4.94A43.79,43.79,0,0,0,77,31a29,29,0,0,0-58,0,43.79,43.79,0,0,0,2.29,13.84l-9,4.94a1.06,1.06,0,0,0-.49.63L0,96.75a1,1,0,0,0,.34,1A1,1,0,0,0,1,98a1,1,0,0,0,.44-.1L24.5,86.53,47.56,97.9h0a.93.93,0,0,0,.8,0h0L71.5,86.53,94.56,97.9A1,1,0,0,0,95,98a1,1,0,0,0,.63-.22A1,1,0,0,0,96,96.75ZM48,4A27,27,0,0,1,75,31a41.89,41.89,0,0,1-2.44,14c-.34.94-.71,1.89-1.11,2.83a52.13,52.13,0,0,1-4.58,8.37c-.41.61-.82,1.2-1.24,1.78l-.18.25c-.39.54-.8,1.07-1.21,1.6l-.23.29c-.4.51-.81,1-1.23,1.51l-.2.24c-.43.51-.86,1-1.3,1.48l0,0c-.43.48-.86.94-1.29,1.39l-.19.2c-.41.43-.83.85-1.24,1.26-.08.08-.15.16-.23.23l-1.21,1.17-.2.18c-.41.39-.82.76-1.22,1.12l0,0-1.18,1-.15.13c-.37.32-.73.62-1.09.91l-.18.15L52,72l-.14.11c-.68.53-1.31,1-1.86,1.4l-.07.06-.75.53-.07,0-.62.44,0,0-.5.33-.5-.33,0,0-.62-.44-.07,0L46,73.55,46,73.49c-.55-.4-1.17-.86-1.85-1.39L44,72l-1-.8L42.77,71q-.52-.42-1.08-.9L41.54,70l-1.17-1,0,0-1.22-1.11-.2-.2c-.4-.37-.8-.76-1.2-1.15l-.25-.24c-.4-.41-.82-.82-1.23-1.26-.07-.06-.13-.14-.2-.21L34.76,63.4l0-.06c-.43-.48-.85-1-1.28-1.47l-.22-.26c-.41-.48-.81-1-1.21-1.49a3.92,3.92,0,0,1-.25-.32c-.41-.51-.8-1-1.19-1.57l-.21-.29c-.4-.55-.8-1.12-1.18-1.7l0-.05h0c-.61-.91-1.19-1.83-1.73-2.75a48.81,48.81,0,0,1-4-8.45h0A41.93,41.93,0,0,1,21,31,27,27,0,0,1,48,4ZM13.61,51.33,22,46.75c.14.38.31.75.46,1.12s.29.71.45,1.07c.27.62.56,1.24.86,1.85.16.31.29.62.45.92.44.86.91,1.71,1.4,2.56l.1.19c.5.85,1,1.69,1.58,2.53L24.41,78.52l-.83,6.23L2.5,95.14ZM29,59.43l0,0c.4.55.81,1.08,1.22,1.6l.23.31,1.21,1.49c.07.07.13.15.2.23L33,64.47l.11.12c.42.47.83.91,1.24,1.35l.25.27q.6.63,1.2,1.23l.21.21c.39.39.77.76,1.15,1.12l.1.1L38.45,70l.25.22c.37.33.73.66,1.09,1l.22.19,1,.87.08.06,1,.83.22.17.9.7.2.16.79.59.11.09.71.51.18.13.61.43L46,76l.44.3.17.11.29.19.09.06V95.39L25.59,84.83ZM49,95.39V76.66l.09-.06.29-.19.17-.11L50,76l.17-.12.61-.43.18-.13.71-.52.11-.08.79-.59.2-.16.9-.7.22-.17,1-.82L55,72.2l1-.86.23-.19c.36-.31.72-.63,1.09-1l.25-.23c.39-.35.77-.7,1.16-1.08l.12-.11c.37-.35.75-.72,1.13-1.1l.22-.23c.4-.39.79-.8,1.19-1.22l.27-.28c.4-.43.81-.87,1.22-1.33l.13-.15c.39-.43.77-.88,1.16-1.34l.21-.25q.6-.72,1.2-1.47l.25-.33c.41-.51.8-1,1.2-1.57l0-.06,3.36,25.4ZM72.42,84.75l-.83-6.23L68.74,57c.56-.84,1.08-1.69,1.58-2.54a.54.54,0,0,0,.07-.13c.51-.86,1-1.73,1.43-2.61.15-.3.29-.6.44-.91.3-.62.6-1.24.87-1.86.16-.35.3-.71.44-1.06s.33-.75.47-1.13l8.35,4.58L93.5,95.14Z" />
  <path class="cls-8" d="M48,52a20.92,20.92,0,0,0,15.92-7.35.5.5,0,0,0,.12-.13A21,21,0,1,0,48,52ZM29.05,32H39a46,46,0,0,0,.82,7.94A25,25,0,0,0,33,42.6,18.94,18.94,0,0,1,29.05,32ZM33,19.4a25,25,0,0,0,6.86,2.66A46,46,0,0,0,39,30h-10A18.94,18.94,0,0,1,33,19.4ZM48,12c2.13,0,4.41,3.24,5.77,8.51A33.86,33.86,0,0,1,48,21a33.86,33.86,0,0,1-5.77-.49C43.59,15.24,45.87,12,48,12Zm0,11a36,36,0,0,0,6.21-.54A44.53,44.53,0,0,1,55,30H41a44.53,44.53,0,0,1,.77-7.54A36,36,0,0,0,48,23Zm19,7H57a46,46,0,0,0-.82-7.94A25,25,0,0,0,63,19.4,18.94,18.94,0,0,1,67,30ZM63,42.6a25,25,0,0,0-6.86-2.66A46,46,0,0,0,57,32H67A18.94,18.94,0,0,1,63,42.6ZM48,50c-2.13,0-4.41-3.24-5.77-8.51a34.22,34.22,0,0,1,11.54,0C52.41,46.76,50.13,50,48,50Zm0-11a36,36,0,0,0-6.21.54A44.53,44.53,0,0,1,41,32H55a44.53,44.53,0,0,1-.77,7.54A36,36,0,0,0,48,39ZM34.31,44.14a23.38,23.38,0,0,1,6-2.25,20.47,20.47,0,0,0,3.38,7.59A18.92,18.92,0,0,1,34.31,44.14Zm18,5.34a20.47,20.47,0,0,0,3.38-7.59,23.38,23.38,0,0,1,6,2.25A18.92,18.92,0,0,1,52.34,49.48Zm9.35-31.62a23.38,23.38,0,0,1-6,2.25,20.47,20.47,0,0,0-3.38-7.59A18.92,18.92,0,0,1,61.69,17.86Zm-18-5.34a20.47,20.47,0,0,0-3.38,7.59,23.38,23.38,0,0,1-6-2.25A18.92,18.92,0,0,1,43.66,12.52Z" />
</svg>