<svg id="Layer_1" data-name="Layer 1" xmlns="http://www.w3.org/2000/svg" viewBox="0 0 96 96">
  <defs>
    <style>.cls-1{fill:#ccd1dc;}.cls-2{fill:#dee1e7;}.cls-3{fill:#9fc98a;}.cls-4{fill:#bbd79f;}.cls-5{fill:#d4e6b6;}.cls-6{fill:#85bd79;}.cls-7{fill:#cf4055;}.cls-8{fill:#39426a;}</style>
  </defs>
  <title>route, travel, map, navigation, destination, directions</title>
  <polygon class="cls-1" points="33 7 33 83 1 91 1 15 4 14.25 17.63 10.84 33 7" />
  <path class="cls-2" d="M33,7V79.75L18.91,83.27A12,12,0,0,1,4,71.63V14.25l13.63-3.41Z" />
  <polygon class="cls-1" points="95 9 95 85 63 93 63 17 66 16.25 74.13 14.22 78.02 13.25 95 9" />
  <path class="cls-2" d="M95,9V80.75L80.91,84.27A12,12,0,0,1,66,72.63V16.25l8.13-2,3.89-1Z" />
  <polygon class="cls-1" points="63 17 63 93 43.52 86.51 33 83 33 7 35 7.67 36 8 50.66 12.89 59.29 15.76 63 17" />
  <path class="cls-2" d="M63,17V89L46.52,83.51A15.4,15.4,0,0,1,36,68.91V8l14.66,4.89,8.63,2.87Z" />
  <path class="cls-3" d="M59.29,15.76C56.43,20.6,51.22,24.55,43,24c-4.22-.28-7.41.07-10,1.13C26.4,27.81,23.75,35.07,18,48,13.05,59.14,5.81,58.41,1,56.23V15l16.63-4.16L33,7l17.66,5.89Z" />
  <path class="cls-4" d="M50.66,12.89a12.83,12.83,0,0,1-8.16,2.62c-.4,0-.81,0-1.23,0-1-.07-2-.1-2.91-.1a28.21,28.21,0,0,0-5.36.47c-10,1.92-13.51,9.78-19.16,22.62-.48,1.08-1,2.2-1.5,3.38C9.17,49,5.71,49,4.55,49h0A9.31,9.31,0,0,1,1,48.2V15l16.63-4.16L33,7Z" />
  <path class="cls-5" d="M1,15l16.63-4.16c-3.76,3.91-6.38,9.86-9.79,17.62-.48,1.08-1,2.2-1.5,3.38C4.49,36,2.53,37.75,1,38.49Z" />
  <path class="cls-3" d="M95,66.62V85L63,93,43.52,86.51C43.27,83.21,46,80.44,59,82l4,.46c21.33,2.3,24.11.2,26-5.46C90.2,73.39,92.86,68,95,66.62Z" />
  <path class="cls-4" d="M95,9V26.3c-1.3.64-2.66,1.2-4,1.7-8,3-5,14.25-11,15-8,1-15-11-7-17,6-4.49,2.45-6.74,1.13-11.78l3.89-1Z" />
  <path class="cls-5" d="M95,9V21.75a31.78,31.78,0,0,1-5.4,2.5c-6.06,2.28-7.72,7.78-8.81,11.43A14,14,0,0,1,79.51,39l-.45,0c-2.13,0-4.45-2-5.29-4.49A4.49,4.49,0,0,1,75.4,29.2c7-5.27,5-10.09,3.61-13.27a17.91,17.91,0,0,1-1-2.68Z" />
  <path class="cls-6" d="M63,94a1.19,1.19,0,0,1-.32,0L43.2,87.46a1,1,0,0,1-.68-.88,4.54,4.54,0,0,1,1.37-3.82c2.23-2.14,7.21-2.71,15.23-1.75l4,.46c21.53,2.32,23.36,0,24.94-4.79,1.12-3.36,3.85-9.3,6.42-10.91a1,1,0,0,1,1.53.85V85a1,1,0,0,1-.76,1l-32,8A1,1,0,0,1,63,94ZM44.52,85.79,63,92l31-7.74V69.06a33.45,33.45,0,0,0-4,8.26C87.72,84,83.7,85.7,62.89,83.45l-4-.46c-9.07-1.08-12.4.06-13.61,1.21A2.39,2.39,0,0,0,44.52,85.79Z" />
  <path class="cls-7" d="M16,75a1,1,0,0,1-.38-.08.9.9,0,0,1-.54-.54A1,1,0,0,1,15,74a1.05,1.05,0,0,1,.29-.71l.15-.12a.76.76,0,0,1,.18-.09A.64.64,0,0,1,15.8,73a.9.9,0,0,1,.4,0,.64.64,0,0,1,.18.06.56.56,0,0,1,.17.09l.16.12a1,1,0,0,1,.21.33.94.94,0,0,1,0,.76.9.9,0,0,1-.54.54A1,1,0,0,1,16,75Z" />
  <path class="cls-7" d="M49.52,75.17a1,1,0,0,1,.94-1.06h0a1,1,0,0,1,1.06.94h0a1,1,0,0,1-.94,1.06h-.06A1,1,0,0,1,49.52,75.17Zm-3.21.73a1,1,0,0,1-.8-1.16h0a1,1,0,0,1,1.17-.8h0a1,1,0,0,1,.8,1.16h0a1,1,0,0,1-1,.82h0A.62.62,0,0,1,46.31,75.9Zm7.22-1.18a1,1,0,0,1,.71-1.23h0a1,1,0,0,1,1.22.71h0a1,1,0,0,1-.71,1.23h0a1.07,1.07,0,0,1-.25,0h0A1,1,0,0,1,53.53,74.72Zm3.85-1.21a1,1,0,0,1,.5-1.32h0a1,1,0,0,1,1.32.5h0A1,1,0,0,1,58.7,74h0a1,1,0,0,1-.41.09h0A1,1,0,0,1,57.38,73.51Zm-15.06-.12A1,1,0,0,1,42.64,72h0a1,1,0,0,1,1.38.32h0a1,1,0,0,1-.32,1.38h0a1,1,0,0,1-.53.15h0A1,1,0,0,1,42.32,73.39ZM19,73.22a1,1,0,0,1,.41-1.35h0a1,1,0,0,1,1.35.41h0a1,1,0,0,1-.41,1.35h0a1,1,0,0,1-.47.11h0A1,1,0,0,1,19,73.22ZM61,71.73a1,1,0,0,1,.34-1.37h0a1,1,0,0,1,1.37.33h0a1,1,0,0,1-.34,1.38h0a1,1,0,0,1-.51.14h0A1,1,0,0,1,61,71.73ZM22.29,71a1,1,0,0,1-.09-1.41h0a1,1,0,0,1,1.41-.09h0a1,1,0,0,1,.09,1.41h0a1,1,0,0,1-.75.34h0A1,1,0,0,1,22.29,71Zm20-1a1,1,0,0,1-1-1h0a1,1,0,0,1,1-1h0a1,1,0,0,1,1,1h0a1,1,0,0,1-1,1h0Zm22.1-.41a1,1,0,0,1,.22-1.4h0a1,1,0,0,1,1.4.23h0a1,1,0,0,1-.23,1.39h0a1,1,0,0,1-.58.19h0A1,1,0,0,1,64.41,69.56Zm-39.7-1.77a1,1,0,0,1-.46-1.34h0A1,1,0,0,1,25.59,66h0a1,1,0,0,1,.46,1.34h0a1,1,0,0,1-.9.56h0A1,1,0,0,1,24.71,67.79Zm42.94-.65a1,1,0,0,1,.15-1.41h0a1,1,0,0,1,1.41.16h0a1,1,0,0,1-.16,1.41h0a1,1,0,0,1-.62.22h0A1,1,0,0,1,67.65,67.14ZM42.68,66a1,1,0,0,1-.76-1.19h0A1,1,0,0,1,43.11,64h0a1,1,0,0,1,.76,1.19h0a1,1,0,0,1-1,.79h0A.78.78,0,0,1,42.68,66Zm28.1-1.36a1,1,0,0,1,.14-1.4h0a1,1,0,0,1,1.41.14h0a1,1,0,0,1-.14,1.4h0a.94.94,0,0,1-.63.23h0A1,1,0,0,1,70.78,64.59Zm-44.46-.5a1,1,0,0,1-.66-1.25h0a1,1,0,0,1,1.26-.66h0a1,1,0,0,1,.65,1.26h0a1,1,0,0,1-.95.7h0A.79.79,0,0,1,26.32,64.09Zm47.6-2a1,1,0,0,1,.2-1.4h0a1,1,0,0,1,1.4.19h0a1,1,0,0,1-.2,1.4h0a1,1,0,0,1-.6.2h0A1,1,0,0,1,73.92,62.05ZM43.65,62A1,1,0,0,1,43,60.78h0a1,1,0,0,1,1.25-.66h0a1,1,0,0,1,.66,1.25h0a1,1,0,0,1-1,.7h0A1,1,0,0,1,43.65,62ZM27.42,60.21a1,1,0,0,1-.76-1.2h0a1,1,0,0,1,1.19-.77h0a1,1,0,0,1,.76,1.19h0a1,1,0,0,1-1,.78h0Zm49.78-.52a1,1,0,0,1,.4-1.36h0a1,1,0,0,1,1.36.4h0a1,1,0,0,1-.4,1.35h0a1,1,0,0,1-.48.13h0A1,1,0,0,1,77.2,59.69ZM44.87,58.18a1,1,0,0,1-.63-1.27h0a1,1,0,0,1,1.27-.63h0a1,1,0,0,1,.63,1.27h0a1,1,0,0,1-1,.68h0A1.25,1.25,0,0,1,44.87,58.18ZM28.24,56.25a1,1,0,0,1-.8-1.17h0a1,1,0,0,1,1.16-.8h0a1,1,0,0,1,.8,1.16h0a1,1,0,0,1-1,.82h-.18Zm17.93-1.9a1,1,0,0,1-.63-1.26h0a1,1,0,0,1,1.27-.64h0a1,1,0,0,1,.63,1.27h0a1,1,0,0,1-.95.68h0A.89.89,0,0,1,46.17,54.35ZM29,52.27a1,1,0,0,1-.81-1.17h0a1,1,0,0,1,1.17-.8h0a1,1,0,0,1,.8,1.16h0a1,1,0,0,1-1,.82H29Zm18.49-1.75a1,1,0,0,1-.67-1.25h0A1,1,0,0,1,48,48.6h0a1,1,0,0,1,.67,1.25h0a1,1,0,0,1-1,.71h0A1,1,0,0,1,47.44,50.52ZM29.69,48.29a1,1,0,0,1-.76-1.19h0a1,1,0,0,1,1.2-.76h0a1,1,0,0,1,.76,1.19h0a1,1,0,0,1-1,.78h0A.86.86,0,0,1,29.69,48.29Zm18.87-1.66a1,1,0,0,1-.76-1.19h0a1,1,0,0,1,1.2-.76h0a1,1,0,0,1,.75,1.2h0a1,1,0,0,1-1,.78h0A.83.83,0,0,1,48.56,46.63ZM30.64,44.36A1,1,0,0,1,30,43.1h0a1,1,0,0,1,1.26-.64h0a1,1,0,0,1,.65,1.25h0a1,1,0,0,1-1,.7h0A1,1,0,0,1,30.64,44.36Zm18.69-1.69a1,1,0,0,1-.95-1.06h0a1,1,0,0,1,1.06-.94h0a1,1,0,0,1,.94,1h0a1,1,0,0,1-1,1h-.05ZM32,40.57a1,1,0,0,1-.41-1.36h0a1,1,0,0,1,1.36-.4h0a1,1,0,0,1,.4,1.35h0a1,1,0,0,1-.88.53h0A1,1,0,0,1,32,40.57ZM48,38h0a1,1,0,0,1,.58-1.29h0a1,1,0,0,1,1.29.58h0a1,1,0,0,1-.58,1.28h0a.91.91,0,0,1-.35.07h0A1,1,0,0,1,48,38Zm-13.8-.87a1,1,0,0,1,.07-1.41h0a1,1,0,0,1,1.41.07h0a1,1,0,0,1-.07,1.41h0a1,1,0,0,1-.67.26h0A1,1,0,0,1,34.18,37.17ZM45.83,35.7h0a1,1,0,0,1-.47-1.34h0a1,1,0,0,1,1.33-.47h0a1,1,0,0,1,.47,1.33h0a1,1,0,0,1-.9.57h0A1.07,1.07,0,0,1,45.83,35.7Zm-8.41-.88a1,1,0,0,1,.65-1.25h0a1,1,0,0,1,1.25.66h0a1,1,0,0,1-.65,1.25h0a1,1,0,0,1-.3.05h0A1,1,0,0,1,37.42,34.82Zm4.89.18a1,1,0,0,1-1-1h0a1,1,0,0,1,1-1h0a1,1,0,0,1,1,1h0a1,1,0,0,1-1,1h0Z" />
  <path class="cls-7" d="M82,59a.84.84,0,0,1-.38-.08,1.15,1.15,0,0,1-.33-.21,1,1,0,0,1-.21-1.09,1,1,0,0,1,.21-.33,1,1,0,0,1,1.42,0,1.15,1.15,0,0,1,.21.33.94.94,0,0,1,0,.76.9.9,0,0,1-.54.54A.84.84,0,0,1,82,59Z" />
  <path class="cls-8" d="M10,78a4,4,0,1,1,4-4A4,4,0,0,1,10,78Zm0-6a2,2,0,1,0,2,2A2,2,0,0,0,10,72Z" />
  <path class="cls-8" d="M88.66,57.75l2-2a1,1,0,0,0-1.42-1.42l-2,2.05-2-2.05a1,1,0,0,0-1.42,1.42l2,2-2,2a1,1,0,0,0,0,1.42,1,1,0,0,0,1.42,0l2-2.05,2,2.05a1,1,0,0,0,1.42,0,1,1,0,0,0,0-1.42Z" />
  <path class="cls-6" d="M6.53,58.55A14.36,14.36,0,0,1,.59,57.14,1,1,0,0,1,0,56.23V15a1,1,0,0,1,.76-1l32-8a1,1,0,0,1,.56,0l26.29,8.76a1,1,0,0,1,.54,1.46C58.05,19.82,53,25.67,42.93,25c-4.09-.28-7.12.06-9.55,1.06-5.62,2.28-8.23,8.19-13,18.92l-1.52,3.43c-2.19,4.94-5.07,8.12-8.53,9.44A10.94,10.94,0,0,1,6.53,58.55ZM2,55.57A10.27,10.27,0,0,0,9.67,56c2.95-1.13,5.44-3.95,7.42-8.39l1.51-3.41c4.77-10.85,7.65-17.39,14-20,2.72-1.11,6-1.49,10.45-1.2,7.79.54,12.24-3.13,14.69-6.7L33,8,2,15.78Z" />
  <path class="cls-6" d="M4.55,50a10.12,10.12,0,0,1-3.94-.88A1,1,0,0,1,0,48.2V15a1,1,0,0,1,.76-1l32-8a1,1,0,0,1,.56,0L51,11.94a1,1,0,0,1,.3,1.74A14.09,14.09,0,0,1,41.2,16.47a32.4,32.4,0,0,0-8,.35c-9.54,1.82-12.89,9.43-18.43,22L14.23,40c-.31.72-.64,1.45-1,2.21C9.81,50,5.85,50,4.55,50ZM2,47.52A7.7,7.7,0,0,0,4.54,48c1,0,4,0,6.89-6.57.34-.76.66-1.49,1-2.2l.53-1.18c5.61-12.75,9.32-21.17,19.88-23.19a34.59,34.59,0,0,1,8.53-.39,12.86,12.86,0,0,0,7-1.29L33,8,2,15.78Z" />
  <path class="cls-6" d="M1,39.49a1,1,0,0,1-.53-.15A1,1,0,0,1,0,38.49V15a1,1,0,0,1,.76-1L17.39,9.87a1,1,0,0,1,1,1.66c-3.65,3.8-6.27,9.77-9.59,17.33L8.23,30c-.31.72-.64,1.45-1,2.21-1.62,3.65-3.58,6.06-5.81,7.14A1,1,0,0,1,1,39.49ZM2,15.78V36.61a15.19,15.19,0,0,0,3.43-5.18c.34-.76.66-1.49,1-2.2l.53-1.18c2.78-6.33,5.09-11.58,8-15.5Z" />
  <path class="cls-6" d="M79,44.06c-4.5,0-8.25-3.49-9.76-7.22A9.54,9.54,0,0,1,72.4,25.2c3.89-2.92,3.26-4.38,2-7.3a25.29,25.29,0,0,1-1.25-3.43,1,1,0,0,1,.11-.76,1,1,0,0,1,.62-.46L94.76,8A1,1,0,0,1,96,9V26.3a1,1,0,0,1-.56.9,42.64,42.64,0,0,1-4.09,1.74c-3.73,1.4-4.77,4.85-5.77,8.18-1,3.16-1.94,6.44-5.46,6.87A7.83,7.83,0,0,1,79,44.06ZM75.39,14.94c.26.77.56,1.48.86,2.17,1.28,3,2.5,5.83-2.65,9.69a7.53,7.53,0,0,0-2.47,9.29c1.34,3.32,4.78,6.41,8.75,5.92,2.11-.26,2.81-2.25,3.78-5.47,1-3.44,2.33-7.73,7-9.48C91.9,26.6,93,26.14,94,25.67V10.28Z" />
  <path class="cls-6" d="M79.06,40.06c-2.57,0-5.26-2.22-6.24-5.17a5.48,5.48,0,0,1,2-6.49c6.4-4.8,4.6-9,3.29-12.08a18.72,18.72,0,0,1-1-2.82,1,1,0,0,1,.11-.76,1,1,0,0,1,.62-.46L94.76,8A1,1,0,0,1,96,9V21.75a1,1,0,0,1-.48.85A32.41,32.41,0,0,1,90,25.19c-5.61,2.11-7.17,7.32-8.2,10.78a11.94,11.94,0,0,1-1.49,3.72.93.93,0,0,1-.64.33A4.07,4.07,0,0,1,79.06,40.06ZM79.29,14c.19.53.41,1,.64,1.57C81.32,18.8,83.66,24.26,76,30a3.47,3.47,0,0,0-1.28,4.26c.68,2,2.55,3.71,4.21,3.8.3-.68.72-2.08.9-2.67,1.08-3.59,2.87-9.61,9.42-12.08A31.7,31.7,0,0,0,94,21.18V10.28Z" />
  <path class="cls-8" d="M95.62,8.21A1,1,0,0,0,94.76,8L63,16,33.32,6.05a1,1,0,0,0-.56,0l-32,8A1,1,0,0,0,0,15V91a1,1,0,0,0,.38.79,1,1,0,0,0,.86.18L33,84,62.68,94A1.19,1.19,0,0,0,63,94a1,1,0,0,0,.24,0l32-8A1,1,0,0,0,96,85V9A1,1,0,0,0,95.62,8.21ZM34,8.39l28,9.33V91.61L34,82.28ZM2,15.78l30-7.5V82.22L2,89.72ZM94,84.22l-30,7.5V17.78l14.26-3.56h0L94,10.28Z" />
</svg>