<svg id="Layer_1" data-name="Layer 1" xmlns="http://www.w3.org/2000/svg" viewBox="0 0 96 96">
  <defs>
    <style>.cls-1{fill:#e69c4b;}.cls-2{fill:#edab63;}.cls-3{fill:#f6bc7a;}.cls-4{fill:#dd8c36;}.cls-5{fill:#dfe2e8;}.cls-6{fill:#f4f5f6;}.cls-7{fill:#ccd1dc;}.cls-8{fill:#39426a;}.cls-9{fill:#888da0;}.cls-10{fill:none;stroke:#39426a;stroke-linecap:round;stroke-linejoin:round;stroke-width:2px;}</style>
  </defs>
  <title>email, message, envelope, document, paper, page</title>
  <polygon class="cls-1" points="88 43 88 95 8 95 8 43 12 46.2 48 75 88 43" />
  <path class="cls-2" d="M74.8,92H21.2A2,2,0,0,1,20,88.44L39.25,73a2,2,0,0,1,2.5,0l5,4a2,2,0,0,0,2.5,0l5-4a2,2,0,0,1,2.5,0l19.3,15.44A2,2,0,0,1,74.8,92Z" />
  <path class="cls-2" d="M88,43V86.34a2,2,0,0,1-3.25,1.56L60.26,68.31a2,2,0,0,1,0-3.12Z" />
  <path class="cls-3" d="M83,43h3a0,0,0,0,1,0,0V85a0,0,0,0,1,0,0h0a3,3,0,0,1-3-3V43a0,0,0,0,1,0,0Z" />
  <path class="cls-2" d="M38.63,67.5,15.25,86.2A2,2,0,0,1,12,84.64V46.2Z" />
  <polygon class="cls-4" points="88 43 79 50.2 79 35.8 88 43" />
  <polygon class="cls-4" points="17 35.8 17 50.2 8 43 17 35.8" />
  <polygon class="cls-5" points="79 11 79 50.2 50.75 72.8 48 75 17 50.2 17 1 69 1 79 11" />
  <path class="cls-6" d="M79,11V50.2L54.5,69.8a6,6,0,0,1-7.5,0L22.25,50A6,6,0,0,1,20,45.32V1H69Z" />
  <path class="cls-5" d="M79,11v3H68a2,2,0,0,1-2-2V1h3Z" />
  <polygon class="cls-7" points="79 11 69 11 69 1 79 11" />
  <path class="cls-8" d="M89,42.93s0-.06,0-.1a1.83,1.83,0,0,0-.08-.25l0-.08a.92.92,0,0,0-.22-.26l0,0L80,35.32V11s0,0,0-.06a2,2,0,0,0,0-.26.36.36,0,0,0,0-.09,1.17,1.17,0,0,0-.19-.3l-10-10a1.17,1.17,0,0,0-.3-.19l-.09,0-.26,0H17a1,1,0,0,0-1,1V35.32l-8.62,6.9s0,0,0,0a.92.92,0,0,0-.22.26l0,.08a1.83,1.83,0,0,0-.08.25s0,.07,0,.1S7,43,7,43V95a.79.79,0,0,0,0,.13.51.51,0,0,0,0,.2.76.76,0,0,0,.09.18.39.39,0,0,0,.06.11s0,0,0,0a1.55,1.55,0,0,0,.24.19l.09.06A1,1,0,0,0,8,96H88a1,1,0,0,0,.41-.09l.09-.06a1.16,1.16,0,0,0,.24-.2s0,0,0,0a.39.39,0,0,0,.06-.11.76.76,0,0,0,.09-.18.51.51,0,0,0,0-.2A.79.79,0,0,0,89,95V43S89,43,89,42.93Zm-9-5L86.4,43,80,48.12ZM70,3.41,76.59,10H70ZM18,2H68v9a1,1,0,0,0,1,1h9V49.72l-8.27,6.61L67.65,58l-10,8L48,73.72,38.35,66l-10-8-2.08-1.67L18,49.72ZM16,37.88V48.12L9.6,43Zm-7,7.2L16.38,51,38.9,69,9,92.92ZM10.85,94,40.5,70.28l6.88,5.5a1.13,1.13,0,0,0,.46.21h.32a1.13,1.13,0,0,0,.46-.21l6.88-5.5L85.15,94ZM87,92.92,57.1,69,79.62,51,87,45.08Z" />
  <polygon class="cls-9" points="60.15 64 57.65 66 38.35 66 35.85 64 60.15 64" />
  <path class="cls-9" d="M69.73,56.33,67.65,58H56a1,1,0,0,1,0-2H69A1,1,0,0,1,69.73,56.33Z" />
  <path class="cls-9" d="M53,57a1,1,0,0,1-1,1H28.35l-2.08-1.67A1,1,0,0,1,27,56H52A1,1,0,0,1,53,57Z" />
  <path class="cls-9" d="M34,18H69a1,1,0,0,0,0-2H34a1,1,0,0,0,0,2Z" />
  <path class="cls-9" d="M69,24H56a1,1,0,0,0,0,2H69a1,1,0,0,0,0-2Z" />
  <path class="cls-9" d="M27,26H52a1,1,0,0,0,0-2H27a1,1,0,0,0,0,2Z" />
  <path class="cls-9" d="M27,34H69a1,1,0,0,0,0-2H27a1,1,0,0,0,0,2Z" />
  <path class="cls-9" d="M43,40a1,1,0,0,0,0,2H60a1,1,0,0,0,0-2Z" />
  <path class="cls-9" d="M69,40H64a1,1,0,0,0,0,2h5a1,1,0,0,0,0-2Z" />
  <path class="cls-9" d="M27,42H39a1,1,0,0,0,0-2H27a1,1,0,0,0,0,2Z" />
  <path class="cls-9" d="M27,50H69a1,1,0,0,0,0-2H27a1,1,0,0,0,0,2Z" />
  <polygon class="cls-10" points="40.5 69 8 95 8 43 40.5 69" />
  <polygon class="cls-10" points="88 95 8 95 40.5 69 48 75 55.5 69 88 95" />
  <polygon class="cls-10" points="88 43 88 95 55.5 69 88 43" />
</svg>