<svg width="250" height="250" viewBox="0 0 250 250" fill="none" xmlns="http://www.w3.org/2000/svg">
<g clip-path="url(#clip0_4215_14479)">
<path d="M122.395 54.6875H44.2695V98.9583H122.395V54.6875Z" fill="#6A6E86"/>
<path d="M234.375 197.917H15.625V250H234.375V197.917Z" fill="#A67F74"/>
<path d="M39.0625 205.729H234.375V250H23.4375V221.354C23.4375 217.21 25.0837 213.236 28.014 210.305C30.9442 207.375 34.9185 205.729 39.0625 205.729V205.729Z" fill="#B58B7E"/>
<path d="M247.397 182.292H2.60547V197.917H247.397V182.292Z" fill="#CBA07A"/>
<path d="M7.8125 182.292H247.396V190.104H15.625C13.553 190.104 11.5659 189.281 10.1007 187.816C8.6356 186.351 7.8125 184.364 7.8125 182.292Z" fill="#D9B18C"/>
<path d="M140.989 182.005L44.2706 182.292C41.933 182.253 39.6299 181.721 37.5124 180.729C35.3949 179.738 33.5109 178.31 31.9839 176.54C30.4569 174.77 29.3214 172.696 28.6518 170.456C27.9823 168.216 27.7938 165.86 28.0988 163.542L32.63 129.245C33.6029 122.205 36.6911 115.627 41.4856 110.381C46.2801 105.136 52.5549 101.47 59.479 99.87L59.8956 99.7397L61.354 99.4793C63.323 99.1335 65.3183 98.9593 67.3175 98.9585H99.2706C101.27 98.9593 103.265 99.1335 105.234 99.4793L106.693 99.7397L107.187 99.87C112.049 100.982 116.617 103.118 120.586 106.135C124.556 109.153 127.837 112.983 130.208 117.37L137.604 156.25L139.974 174.219L140.989 182.005Z" fill="#BD5698"/>
<path d="M139.974 174.219L52.0831 174.479C49.7455 174.441 47.4424 173.908 45.3249 172.917C43.2074 171.926 41.3234 170.498 39.7964 168.727C38.2694 166.957 37.1339 164.884 36.4643 162.644C35.7948 160.404 35.6063 158.047 35.9113 155.729L40.4425 121.432C41.1804 115.791 43.3103 110.421 46.6404 105.807C50.4668 102.979 54.8385 100.975 59.479 99.922L59.8956 99.7397L61.354 99.4793C63.323 99.1335 65.3183 98.9593 67.3175 98.9585H99.2706C101.27 98.9593 103.265 99.1335 105.234 99.4793L106.693 99.7397L107.187 99.87C112.049 100.982 116.617 103.118 120.586 106.135C124.556 109.153 127.837 112.983 130.208 117.37L137.604 156.25L139.974 174.219Z" fill="#C96FA6"/>
<path d="M223.957 93.75H135.415C132.539 93.75 130.207 96.0819 130.207 98.9583V161.458C130.207 164.335 132.539 166.667 135.415 166.667H223.957C226.834 166.667 229.165 164.335 229.165 161.458V98.9583C229.165 96.0819 226.834 93.75 223.957 93.75Z" fill="#969CB2"/>
<path d="M229.165 98.9583V158.854H143.228C141.847 158.854 140.522 158.305 139.545 157.329C138.568 156.352 138.02 155.027 138.02 153.646V93.75H223.957C225.338 93.75 226.663 94.2987 227.64 95.2755C228.617 96.2522 229.165 97.577 229.165 98.9583Z" fill="#AEB4C6"/>
<path d="M184.896 101.562H216.146C217.527 101.562 218.852 102.111 219.829 103.088C220.805 104.065 221.354 105.389 221.354 106.771V148.437C221.354 149.819 220.805 151.144 219.829 152.12C218.852 153.097 217.527 153.646 216.146 153.646C206.476 153.646 197.203 149.805 190.366 142.967C183.529 136.13 179.688 126.857 179.688 117.187V106.771C179.688 105.389 180.236 104.065 181.213 103.088C182.19 102.111 183.514 101.562 184.896 101.562Z" fill="#C6CCDA"/>
<path d="M179.688 138.021C184.002 138.021 187.5 134.523 187.5 130.208C187.5 125.894 184.002 122.396 179.688 122.396C175.373 122.396 171.875 125.894 171.875 130.208C171.875 134.523 175.373 138.021 179.688 138.021Z" fill="#F3F4F5"/>
<path d="M236.978 171.875C236.978 174.638 235.881 177.287 233.927 179.241C231.974 181.194 229.324 182.292 226.561 182.292H132.811C130.049 182.292 127.399 181.194 125.446 179.241C123.492 177.287 122.395 174.638 122.395 171.875C122.386 170.722 122.772 169.601 123.488 168.698C123.622 168.521 123.77 168.355 123.931 168.203C124.903 167.225 126.224 166.672 127.603 166.667H231.77C232.565 166.668 233.349 166.852 234.063 167.205C234.776 167.557 235.399 168.067 235.884 168.698C236.601 169.601 236.987 170.722 236.978 171.875V171.875Z" fill="#8288A1"/>
<path d="M235.884 168.698C235.37 169.66 234.711 170.539 233.931 171.302C232.974 172.292 231.829 173.083 230.564 173.629C229.299 174.174 227.939 174.463 226.561 174.479H132.811C130.873 174.478 128.974 173.936 127.327 172.915C125.68 171.894 124.351 170.433 123.488 168.698C123.622 168.521 123.77 168.355 123.931 168.203C124.903 167.225 126.224 166.672 127.603 166.667H231.77C232.565 166.668 233.349 166.852 234.063 167.205C234.776 167.557 235.399 168.067 235.884 168.698Z" fill="#969CB2"/>
<path d="M72.918 86.5884V101.562C75.6817 104.323 79.4283 105.874 83.3346 105.874C87.241 105.874 90.9876 104.323 93.7513 101.562V101.562V86.5884C87.053 89.2031 79.6163 89.2031 72.918 86.5884V86.5884Z" fill="#EAD4C6"/>
<path d="M114.582 46.875H52.082C47.7673 46.875 44.2695 50.3728 44.2695 54.6875C44.2695 59.0022 47.7673 62.5 52.082 62.5H114.582C118.897 62.5 122.395 59.0022 122.395 54.6875C122.395 50.3728 118.897 46.875 114.582 46.875Z" fill="#EAD4C6"/>
<path d="M54.6875 26.0415H111.979V59.8957C111.979 67.493 108.961 74.7792 103.589 80.1513C98.2169 85.5235 90.9307 88.5415 83.3333 88.5415C75.736 88.5415 68.4498 85.5235 63.0777 80.1513C57.7055 74.7792 54.6875 67.493 54.6875 59.8957V26.0415Z" fill="#EAD4C6"/>
<path d="M70.3112 13.5937V20.8333C70.3135 25.4538 68.7798 29.9439 65.9513 33.5974C63.1228 37.251 59.1599 39.8605 54.6862 41.0156V46.875H52.082C50.01 46.875 48.0229 47.6981 46.5578 49.1632C45.0926 50.6284 44.2695 52.6155 44.2695 54.6875V28.0208C44.2833 22.6655 46.4168 17.5334 50.2036 13.7466C53.9904 9.95975 59.1225 7.82625 64.4779 7.8125C66.016 7.81244 67.4919 8.41987 68.5843 9.50259C69.6768 10.5853 70.2975 12.0557 70.3112 13.5937V13.5937Z" fill="#5C5F7D"/>
<path d="M122.396 28.6457V54.6873C122.396 52.6153 121.573 50.6282 120.108 49.1631C118.642 47.6979 116.655 46.8748 114.583 46.8748H111.979V41.6665H95.026C88.4716 41.6665 82.1856 39.0628 77.5509 34.4281C72.9162 29.7934 70.3125 23.5074 70.3125 16.953V13.5936C70.3125 10.679 71.4703 7.88372 73.5313 5.82278C75.5922 3.76183 78.3875 2.604 81.3021 2.604H96.3542C103.261 2.604 109.885 5.34767 114.768 10.2314C119.652 15.1152 122.396 21.739 122.396 28.6457Z" fill="#5C5F7D"/>
<path d="M122.396 23.4375C122.234 26.3486 120.928 29.0777 118.762 31.0292C116.596 32.9807 113.745 33.9962 110.833 33.8542H96.3542C82.5521 33.8542 71.224 24.1927 70.3125 11.9532C70.7621 9.25 72.1872 6.80552 74.3181 5.08258C76.4489 3.35964 79.1376 2.47786 81.875 2.6042H99.2448C111.979 2.6042 122.396 11.9271 122.396 23.4375Z" fill="#6A6E86"/>
<path d="M70.3112 13.0208V15.2083C70.3112 25.4948 59.8945 33.8541 47.0039 33.8541H44.2695V23.4375C44.3195 21.282 44.8618 19.1666 45.8547 17.2528C46.8477 15.3391 48.2652 13.6777 49.9987 12.3958C53.932 9.3573 58.779 7.74163 63.7487 7.81246C65.305 7.65716 66.8606 8.11409 68.0857 9.08638C69.3108 10.0587 70.109 11.4699 70.3112 13.0208Z" fill="#6A6E86"/>
<path d="M70.3125 44.271H111.979V63.8022C111.979 70.3636 109.373 76.6562 104.733 81.2958C100.094 85.9353 93.8009 88.5418 87.2396 88.5418V88.5418C80.6782 88.5418 74.3856 85.9353 69.7461 81.2958C65.1065 76.6562 62.5 70.3636 62.5 63.8022V52.0835C62.5 50.0115 63.3231 48.0244 64.7882 46.5592C66.2534 45.0941 68.2405 44.271 70.3125 44.271Z" fill="#F2E1D7"/>
<path d="M49.4792 132.812L46.875 164.063H88.5417V182.292H123.281L119.792 161.458H100.026C97.6715 161.457 95.414 160.52 93.75 158.854V158.854C92.086 157.188 89.8285 156.252 87.474 156.25H61.4323C58.8571 156.266 56.3675 155.327 54.4438 153.615C52.5202 151.903 51.2988 149.539 51.0156 146.979L49.4792 132.812Z" fill="#BD5698"/>
<path d="M88.543 169.271H104.168C107.621 169.271 110.933 170.643 113.375 173.085C115.817 175.527 117.189 178.838 117.189 182.292H88.543V169.271Z" fill="#F2E1D7"/>
<path d="M247.396 179.688H236.979C238.683 177.441 239.599 174.695 239.583 171.875C239.583 169.803 238.76 167.816 237.295 166.351C235.83 164.886 233.843 164.063 231.771 164.063H231.302C231.605 163.227 231.764 162.347 231.771 161.458V98.9583C231.771 96.8863 230.948 94.8992 229.483 93.4341C228.017 91.9689 226.03 91.1458 223.958 91.1458H135.417C133.345 91.1458 131.358 91.9689 129.892 93.4341C128.427 94.8992 127.604 96.8863 127.604 98.9583V109.141C124.967 106.137 121.863 103.578 118.411 101.563H122.396C123.087 101.563 123.749 101.288 124.237 100.8C124.726 100.311 125 99.649 125 98.9583V28.6458C125 21.0485 121.982 13.7623 116.61 8.39017C111.238 3.01803 103.952 0 96.3542 0L81.3021 0C78.9028 0.0107449 76.5493 0.657537 74.4815 1.87443C72.4137 3.09132 70.7056 4.8348 69.5313 6.92708C68.0812 5.81588 66.3061 5.21198 64.4792 5.20833C58.4353 5.22893 52.6448 7.63899 48.371 11.9127C44.0973 16.1864 41.6873 21.9769 41.6667 28.0208V98.9583C41.6667 99.649 41.941 100.311 42.4294 100.8C42.9178 101.288 43.5802 101.563 44.2708 101.563H48.2552C43.3389 104.436 39.142 108.392 35.9834 113.13C32.8247 117.868 30.7873 123.263 30.026 128.906L25.5208 163.203C25.1674 165.888 25.3861 168.617 26.1626 171.211C26.9391 173.806 28.2557 176.206 30.026 178.255C30.4523 178.764 30.9135 179.243 31.4063 179.688H2.60417C1.9135 179.688 1.25112 179.962 0.762743 180.45C0.274367 180.939 0 181.601 0 182.292L0 197.917C0 198.607 0.274367 199.27 0.762743 199.758C1.25112 200.246 1.9135 200.521 2.60417 200.521H13.0208V247.396C13.0208 248.087 13.2952 248.749 13.7836 249.237C14.272 249.726 14.9343 250 15.625 250C16.3157 250 16.978 249.726 17.4664 249.237C17.9548 248.749 18.2292 248.087 18.2292 247.396V200.521H231.771V247.396C231.771 248.087 232.045 248.749 232.534 249.237C233.022 249.726 233.684 250 234.375 250C235.066 250 235.728 249.726 236.216 249.237C236.705 248.749 236.979 248.087 236.979 247.396V200.521H247.396C248.087 200.521 248.749 200.246 249.237 199.758C249.726 199.27 250 198.607 250 197.917V182.292C250 181.601 249.726 180.939 249.237 180.45C248.749 179.962 248.087 179.688 247.396 179.688ZM132.813 98.9583C132.813 98.2677 133.087 97.6053 133.575 97.1169C134.064 96.6285 134.726 96.3542 135.417 96.3542H223.958C224.649 96.3542 225.311 96.6285 225.8 97.1169C226.288 97.6053 226.563 98.2677 226.563 98.9583V161.458C226.563 162.149 226.288 162.811 225.8 163.3C225.311 163.788 224.649 164.063 223.958 164.063H135.417C134.726 164.063 134.064 163.788 133.575 163.3C133.087 162.811 132.813 162.149 132.813 161.458V98.9583ZM231.771 169.271C232.462 169.271 233.124 169.545 233.612 170.034C234.101 170.522 234.375 171.184 234.375 171.875C234.375 173.947 233.552 175.934 232.087 177.399C230.622 178.864 228.635 179.688 226.563 179.688H132.813C130.741 179.688 128.753 178.864 127.288 177.399C125.823 175.934 125 173.947 125 171.875C125 171.184 125.274 170.522 125.763 170.034C126.251 169.545 126.914 169.271 127.604 169.271H231.771ZM119.792 96.3542H96.3542V88.2552C101 86.1685 105.055 82.9608 108.155 78.92C111.255 74.8792 113.302 70.1319 114.115 65.1042H114.583C116.419 65.0965 118.219 64.5926 119.792 63.6458V96.3542ZM114.583 59.8958V49.4792C115.965 49.4792 117.289 50.0279 118.266 51.0047C119.243 51.9814 119.792 53.3062 119.792 54.6875C119.792 56.0688 119.243 57.3936 118.266 58.3703C117.289 59.3471 115.965 59.8958 114.583 59.8958ZM72.9167 13.5937C72.9167 11.3698 73.8001 9.23694 75.3727 7.66437C76.9453 6.09179 79.0781 5.20833 81.3021 5.20833H96.3542C102.57 5.20833 108.532 7.67763 112.927 12.073C117.322 16.4684 119.792 22.4298 119.792 28.6458V45.7292C118.219 44.7824 116.419 44.2785 114.583 44.2708V41.6667C114.583 40.976 114.309 40.3136 113.821 39.8252C113.332 39.3369 112.67 39.0625 111.979 39.0625H95.026C89.1644 39.0556 83.5448 36.724 79.4 32.5792C75.2551 28.4344 72.9236 22.8148 72.9167 16.9531V13.5937ZM71.0417 30C73.3896 34.3133 76.8557 37.9147 81.0761 40.4258C85.2964 42.9369 90.1151 44.2651 95.026 44.2708H109.375V59.8958C109.378 65.1384 107.799 70.2599 104.844 74.5903C101.889 78.9207 97.6954 82.2584 92.8125 84.1667C88.3937 85.865 83.599 86.3418 78.9323 85.5469H78.5417H77.9948C77.3698 85.4167 76.7708 85.2865 76.1719 85.1042C75.5729 84.9219 74.6354 84.6354 73.8542 84.349C68.9421 82.4295 64.7286 79.0638 61.7712 74.6974C58.8137 70.3309 57.2516 65.1694 57.2917 59.8958V42.9427C60.3559 41.8569 63.1606 40.1456 65.5278 37.9174C67.895 35.6892 69.7727 32.993 71.0417 30ZM91.1458 90.1562V100.417C88.9585 102.257 86.1918 103.266 83.3333 103.266C80.4749 103.266 77.7082 102.257 75.5208 100.417V90.1562H76.1458C77.0035 90.3785 77.8729 90.5523 78.75 90.6771H79.6615C82.0297 90.9897 84.4287 90.9897 86.7969 90.6771H87.7344C88.6198 90.6771 89.5312 90.3906 90.3385 90.1823L91.1458 90.1562ZM46.875 28.0208C46.8887 23.3561 48.7479 18.8864 52.0463 15.588C55.3448 12.2895 59.8145 10.4304 64.4792 10.4167C65.3335 10.4235 66.1509 10.7659 66.755 11.37C67.3591 11.9741 67.7015 12.7915 67.7083 13.6458V20.8333C67.7097 24.8757 66.3673 28.8038 63.8924 32C61.4175 35.1961 57.9504 37.479 54.0365 38.4896C53.9765 38.504 53.9141 38.504 53.8542 38.4896L53.3854 38.724C53.2393 38.7957 53.1071 38.8926 52.9948 39.0104C52.8688 39.119 52.7552 39.2413 52.6562 39.375C52.5605 39.499 52.4735 39.6295 52.3958 39.7656C52.3239 39.9173 52.263 40.0739 52.2135 40.2344C52.2135 40.3906 52.2135 40.5729 52.2135 40.7552C52.2135 40.9375 52.2135 40.7552 52.2135 40.9375V44.2708C50.3777 44.2785 48.5781 44.7824 47.0052 45.7292L46.875 28.0208ZM52.0833 49.4792V59.8958C50.702 59.8958 49.3772 59.3471 48.4005 58.3703C47.4237 57.3936 46.875 56.0688 46.875 54.6875C46.875 53.3062 47.4237 51.9814 48.4005 51.0047C49.3772 50.0279 50.702 49.4792 52.0833 49.4792V49.4792ZM46.875 96.3542V63.6458C48.4479 64.5926 50.2475 65.0965 52.0833 65.1042H52.526C53.357 70.1351 55.4144 74.8839 58.5166 78.9308C61.6188 82.9777 65.6701 86.1981 70.3125 88.3073V96.3542H46.875ZM30.6771 163.906L35.2083 129.609C36.0976 123.088 38.9507 116.991 43.3884 112.13C47.8261 107.269 53.6382 103.874 60.0521 102.396H60.599L61.875 102.161C63.695 101.806 65.5419 101.605 67.3958 101.563H70.3125C70.3105 101.905 70.3762 102.245 70.5058 102.562C70.6354 102.88 70.8264 103.168 71.0677 103.411C74.3305 106.646 78.7389 108.461 83.3333 108.461C87.9277 108.461 92.3362 106.646 95.599 103.411C95.8403 103.168 96.0313 102.88 96.1609 102.562C96.2905 102.245 96.3562 101.905 96.3542 101.563H99.2708C101.14 101.56 103.005 101.726 104.844 102.057L106.042 102.266H106.354H106.615C111.008 103.266 115.144 105.172 118.759 107.863C122.373 110.553 125.386 113.969 127.604 117.891V161.458C127.611 162.347 127.77 163.227 128.073 164.063H127.604C126.227 164.069 124.878 164.447 123.698 165.156L120.339 135.13C120.301 134.788 120.196 134.457 120.031 134.155C119.865 133.854 119.642 133.588 119.373 133.373C119.105 133.157 118.797 132.997 118.466 132.901C118.136 132.805 117.79 132.775 117.448 132.813C117.106 132.85 116.775 132.955 116.473 133.12C116.172 133.286 115.906 133.509 115.69 133.778C115.475 134.046 115.315 134.354 115.219 134.685C115.123 135.015 115.093 135.361 115.13 135.703L120.052 179.688H119.557C118.942 176.049 117.06 172.746 114.243 170.363C111.426 167.98 107.856 166.67 104.167 166.667H91.1458V164.063C91.1458 163.372 90.8715 162.709 90.3831 162.221C89.8947 161.733 89.2323 161.458 88.5417 161.458H49.2188L52.0833 135.703C52.121 135.361 52.0908 135.015 51.9947 134.685C51.8986 134.354 51.7384 134.046 51.5232 133.778C51.3079 133.509 51.0419 133.286 50.7404 133.12C50.4388 132.955 50.1076 132.85 49.7656 132.813C49.4236 132.775 49.0776 132.805 48.7472 132.901C48.4169 132.997 48.1087 133.157 47.8403 133.373C47.5719 133.588 47.3485 133.854 47.1829 134.155C47.0172 134.457 46.9126 134.788 46.875 135.13L43.6979 163.776C43.6534 164.14 43.6861 164.508 43.7938 164.858C43.9015 165.208 44.0818 165.532 44.3229 165.807C44.5693 166.08 44.8708 166.298 45.2074 166.446C45.5441 166.594 45.9083 166.669 46.276 166.667H85.9375V179.688H44.2708C42.3015 179.656 40.361 179.209 38.5764 178.376C36.7917 177.543 35.2033 176.342 33.915 174.852C32.6268 173.362 31.6677 171.617 31.1008 169.73C30.5338 167.844 30.3717 165.859 30.625 163.906H30.6771ZM114.245 179.688H91.1458V171.875H104.167C106.475 171.877 108.717 172.645 110.541 174.059C112.365 175.473 113.668 177.453 114.245 179.688ZM244.792 195.313H5.20833V184.896H244.792V195.313Z" fill="#39426A"/>
<path d="M97.6562 54.6875C99.8136 54.6875 101.562 52.9386 101.562 50.7812C101.562 48.6239 99.8136 46.875 97.6562 46.875C95.4989 46.875 93.75 48.6239 93.75 50.7812C93.75 52.9386 95.4989 54.6875 97.6562 54.6875Z" fill="#39426A"/>
<path d="M69.0117 54.6875C71.1691 54.6875 72.918 52.9386 72.918 50.7812C72.918 48.6239 71.1691 46.875 69.0117 46.875C66.8544 46.875 65.1055 48.6239 65.1055 50.7812C65.1055 52.9386 66.8544 54.6875 69.0117 54.6875Z" fill="#39426A"/>
<path d="M83.3323 79.4272C84.913 79.4293 86.4788 79.12 87.9399 78.5167C89.4011 77.9135 90.729 77.0282 91.8479 75.9115C92.0907 75.6687 92.2833 75.3805 92.4147 75.0632C92.5461 74.746 92.6138 74.406 92.6138 74.0626C92.6138 73.7192 92.5461 73.3792 92.4147 73.0619C92.2833 72.7447 92.0907 72.4564 91.8479 72.2136C91.6051 71.9708 91.3168 71.7782 90.9996 71.6468C90.6823 71.5154 90.3423 71.4478 89.9989 71.4478C89.6556 71.4478 89.3155 71.5154 88.9983 71.6468C88.681 71.7782 88.3928 71.9708 88.15 72.2136C86.871 73.489 85.1385 74.2052 83.3323 74.2052C81.5261 74.2052 79.7935 73.489 78.5146 72.2136C78.2717 71.9708 77.9835 71.7782 77.6663 71.6468C77.349 71.5154 77.009 71.4478 76.6656 71.4478C76.3222 71.4478 75.9822 71.5154 75.6649 71.6468C75.3477 71.7782 75.0595 71.9708 74.8166 72.2136C74.5738 72.4564 74.3812 72.7447 74.2498 73.0619C74.1184 73.3792 74.0508 73.7192 74.0508 74.0626C74.0508 74.406 74.1184 74.746 74.2498 75.0632C74.3812 75.3805 74.5738 75.6687 74.8166 75.9115C75.9355 77.0282 77.2635 77.9135 78.7246 78.5167C80.1858 79.12 81.7515 79.4293 83.3323 79.4272V79.4272Z" fill="#39426A"/>
<path d="M179.686 140.625C181.746 140.625 183.76 140.014 185.473 138.869C187.186 137.725 188.522 136.098 189.31 134.194C190.098 132.291 190.305 130.197 189.903 128.176C189.501 126.155 188.509 124.299 187.052 122.842C185.595 121.386 183.739 120.394 181.718 119.992C179.698 119.59 177.603 119.796 175.7 120.584C173.797 121.373 172.17 122.708 171.025 124.421C169.88 126.134 169.27 128.148 169.27 130.208C169.27 132.971 170.367 135.62 172.32 137.574C174.274 139.527 176.924 140.625 179.686 140.625ZM179.686 125C180.716 125 181.723 125.305 182.58 125.878C183.436 126.45 184.104 127.263 184.498 128.215C184.892 129.167 184.995 130.214 184.794 131.224C184.593 132.235 184.097 133.163 183.369 133.891C182.641 134.619 181.713 135.115 180.702 135.316C179.692 135.517 178.645 135.414 177.693 135.02C176.741 134.626 175.928 133.958 175.356 133.102C174.783 132.245 174.478 131.238 174.478 130.208C174.478 128.827 175.027 127.502 176.003 126.525C176.98 125.549 178.305 125 179.686 125Z" fill="#39426A"/>
</g>
<defs>
<clipPath id="clip0_4215_14479">
<rect width="250" height="250" fill="white"/>
</clipPath>
</defs>
</svg>
