<svg id="Layer_1" data-name="Layer 1" xmlns="http://www.w3.org/2000/svg" viewBox="0 0 96 96">
  <defs>
    <style>.cls-1{fill:#a67f74;}.cls-2{fill:#b58b7e;}.cls-3{fill:#cba07a;}.cls-4{fill:#d9b18c;}.cls-5{fill:#7190c4;}.cls-6{fill:#89a3ce;}.cls-7{fill:#969cb2;}.cls-8{fill:#aeb4c6;}.cls-9{fill:#c6ccda;}.cls-10{fill:#dee1e7;}.cls-11{fill:#f3f4f5;}.cls-12{fill:#f2e1d7;}.cls-13{fill:#ead4c6;}.cls-14{fill:#5c5f7d;}.cls-15{fill:#6a6e86;}.cls-16{fill:#39426a;}</style>
  </defs>
  <title>man, office, desk, computer, monitor, workspace</title>
  <rect class="cls-1" x="6" y="76" width="84" height="20" />
  <path class="cls-2" d="M15,79H90a0,0,0,0,1,0,0V96a0,0,0,0,1,0,0H9a0,0,0,0,1,0,0V85A6,6,0,0,1,15,79Z" />
  <rect class="cls-3" x="1" y="70" width="94" height="6" />
  <path class="cls-4" d="M3,70H95a0,0,0,0,1,0,0v3a0,0,0,0,1,0,0H6a3,3,0,0,1-3-3v0a0,0,0,0,1,0,0Z" />
  <path class="cls-5" d="M54.14,69.89,17,70a6.37,6.37,0,0,1-6.21-7.2l1.74-13.17A13.47,13.47,0,0,1,22.84,38.35L23,38.3l.56-.1a13.27,13.27,0,0,1,2.29-.2H38.12a13.27,13.27,0,0,1,2.29.2l.56.1.19.05A13.46,13.46,0,0,1,50,45.07L52.84,60l.91,6.9Z" />
  <path class="cls-6" d="M53.75,66.9,20,67a6.37,6.37,0,0,1-6.21-7.2l1.74-13.17a13.17,13.17,0,0,1,2.38-6,13.21,13.21,0,0,1,4.93-2.26L23,38.3l.56-.1a13.27,13.27,0,0,1,2.29-.2H38.12a13.27,13.27,0,0,1,2.29.2l.56.1.19.05A13.46,13.46,0,0,1,50,45.07L52.84,60Z" />
  <rect class="cls-7" x="50" y="28" width="42" height="32" rx="2" />
  <path class="cls-8" d="M92,30V53a4,4,0,0,1-4,4H55a2,2,0,0,1-2-2V32a4,4,0,0,1,4-4H90A2,2,0,0,1,92,30Z" />
  <path class="cls-9" d="M74,31H86a3,3,0,0,1,3,3V52a3,3,0,0,1-3,3h0A15,15,0,0,1,71,40V34a3,3,0,0,1,3-3Z" />
  <polygon class="cls-7" points="78 70 64 70 66 52 76 52 77.67 67 78 70" />
  <path class="cls-8" d="M77.67,67h-6.2a4,4,0,0,1-4-4.44L68.67,52H76Z" />
  <path class="cls-10" d="M75,42a4,4,0,0,1-8,0,3.76,3.76,0,0,1,.3-1.5,4,4,0,0,1,7.4,0A3.76,3.76,0,0,1,75,42Z" />
  <ellipse class="cls-11" cx="71" cy="40.5" rx="3.7" ry="2.5" />
  <path class="cls-5" d="M19,51,18,63H34v7H47.34L46,62H38.41A3.41,3.41,0,0,1,36,61h0a3.41,3.41,0,0,0-2.41-1h-10a4,4,0,0,1-4-3.56Z" />
  <path class="cls-12" d="M34,65h6a5,5,0,0,1,5,5v0a0,0,0,0,1,0,0H34a0,0,0,0,1,0,0V65A0,0,0,0,1,34,65Z" />
  <path class="cls-13" d="M28,33.25V39h0a5.66,5.66,0,0,0,8,0h0V33.25a11,11,0,0,1-8,0Z" />
  <rect class="cls-13" x="17" y="18" width="30" height="6" rx="3" />
  <path class="cls-13" d="M21,10H43a0,0,0,0,1,0,0V23A11,11,0,0,1,32,34h0A11,11,0,0,1,21,23V10A0,0,0,0,1,21,10Z" />
  <path class="cls-12" d="M27,17H43a0,0,0,0,1,0,0v7.5A9.5,9.5,0,0,1,33.5,34h0A9.5,9.5,0,0,1,24,24.5V20a3,3,0,0,1,3-3Z" />
  <path class="cls-14" d="M45,9v7H36a9,9,0,0,1-9-9V5c0-.14,0-.27,0-.41h0A4,4,0,0,1,31,1h6A8,8,0,0,1,45,9Z" />
  <path class="cls-14" d="M27,5V8.84A7.15,7.15,0,0,1,19.84,16H19V9a6,6,0,0,1,6-6A2,2,0,0,1,27,5Z" />
  <path class="cls-15" d="M45,9h0a4,4,0,0,1-4,4H36a9,9,0,0,1-9-8.41h0A4,4,0,0,1,31,1h6A8,8,0,0,1,45,9Z" />
  <path class="cls-15" d="M27,5v.84A7.17,7.17,0,0,1,19.84,13H19V9a6,6,0,0,1,6-6A2,2,0,0,1,27,5Z" />
  <path class="cls-16" d="M95,69H78.89L78,61H90a3,3,0,0,0,3-3V30a3,3,0,0,0-3-3H52a3,3,0,0,0-3,3V41.91a14.26,14.26,0,0,0-7.52-4.51l-.19,0-.1,0-.61-.1A13.56,13.56,0,0,0,38.12,37H37V33.89A11.81,11.81,0,0,0,43.82,25H44a4,4,0,0,0,0-8h1a1,1,0,0,0,1-1V9a9,9,0,0,0-9-9H31a5,5,0,0,0-4.32,2.52A3,3,0,0,0,25,2a7,7,0,0,0-7,7v7a1,1,0,0,0,1,1h1a4,4,0,0,0,0,8h.17A11.92,11.92,0,0,0,27,33.91V37H25.88a14.3,14.3,0,0,0-2.45.21,6.75,6.75,0,0,0-.71.14l-.11,0A14.45,14.45,0,0,0,11.54,49.5L9.8,62.67a7.37,7.37,0,0,0,1.73,5.78,5.49,5.49,0,0,0,.53.55H1a1,1,0,0,0-1,1v6a1,1,0,0,0,1,1H5V95a1,1,0,0,0,2,0V77H89V95a1,1,0,0,0,2,0V77h4a1,1,0,0,0,1-1V70A1,1,0,0,0,95,69ZM55,69,54,61H64l-.88,8ZM66.9,53h8.2l1.78,16H65.12ZM51,30a1,1,0,0,1,1-1H90a1,1,0,0,1,1,1V58a1,1,0,0,1-1,1H77.78L77,51.89A1,1,0,0,0,76,51H66a1,1,0,0,0-1,.89L64.22,59H52a1,1,0,0,1-1-1ZM35,34.62v3.94a4.66,4.66,0,0,1-6,0V34.62l.23,0a9.7,9.7,0,0,0,1.05.2l.35,0a10.47,10.47,0,0,0,2.74,0l.36,0c.34,0,.69-.11,1-.19ZM46,21a2,2,0,0,1-2,2V19A2,2,0,0,1,46,21ZM31,2h6a7,7,0,0,1,7,7v6H36a8,8,0,0,1-8-8V5A3,3,0,0,1,31,2ZM20,9a5,5,0,0,1,5-5,1,1,0,0,1,1,1V8.84A6.16,6.16,0,0,1,20,15ZM18,21a2,2,0,0,1,2-2v4A2,2,0,0,1,18,21Zm4,2V16.7A8.16,8.16,0,0,0,27.36,12,10,10,0,0,0,36,17h6v6a10,10,0,0,1-6.36,9.32,10.08,10.08,0,0,1-5.48.51,9.28,9.28,0,0,1-.91-.22c-.3-.08-.59-.18-.89-.29A10,10,0,0,1,22,23ZM11.78,62.94l1.74-13.17a12.45,12.45,0,0,1,9.54-10.45l.21,0,.49-.09A12.55,12.55,0,0,1,25.88,39H27a1,1,0,0,0,.29.71,6.69,6.69,0,0,0,9.42,0A1,1,0,0,0,37,39h1.12a12,12,0,0,1,2.14.19l.46.08.12,0,.1,0a12.43,12.43,0,0,1,8.06,6V58a3,3,0,0,0,3,3l1,8H48.12L46.21,51.89a1,1,0,1,0-2,.22L46.1,69h-.19A6,6,0,0,0,40,64H35V63a1,1,0,0,0-1-1H18.9L20,52.11a1,1,0,1,0-2-.22l-1.22,11a1,1,0,0,0,.24.78,1,1,0,0,0,.75.33H33v5H17a5.37,5.37,0,0,1-5.24-6.06ZM35,66h5a4,4,0,0,1,3.87,3H35Zm59,9H2V71H94Z" />
  <circle class="cls-16" cx="37.5" cy="19.5" r="1.5" />
  <circle class="cls-16" cx="26.5" cy="19.5" r="1.5" />
  <path class="cls-16" d="M32,30.5a4.62,4.62,0,0,0,3.27-1.35,1,1,0,1,0-1.42-1.42,2.62,2.62,0,0,1-3.7,0,1,1,0,1,0-1.42,1.42A4.62,4.62,0,0,0,32,30.5Z" />
  <path class="cls-16" d="M71,47a5,5,0,1,0-5-5A5,5,0,0,0,71,47Zm0-8a3,3,0,1,1-3,3A3,3,0,0,1,71,39Z" />
</svg>