<svg id="Layer_1" data-name="Layer 1" xmlns="http://www.w3.org/2000/svg" viewBox="0 0 96 96">
  <defs>
    <style>.cls-1{fill:#6a6e86;}.cls-2{fill:#a67f74;}.cls-3{fill:#b58b7e;}.cls-4{fill:#cba07a;}.cls-5{fill:#d9b18c;}.cls-6{fill:#bd5698;}.cls-7{fill:#c96fa6;}.cls-8{fill:#969cb2;}.cls-9{fill:#aeb4c6;}.cls-10{fill:#c6ccda;}.cls-11{fill:#f3f4f5;}.cls-12{fill:#8288a1;}.cls-13{fill:#ead4c6;}.cls-14{fill:#5c5f7d;}.cls-15{fill:#f2e1d7;}.cls-16{fill:#39426a;}</style>
  </defs>
  <title>woman, office, desk, computer, monitor, workspace</title>
  <rect class="cls-1" x="17" y="21" width="30" height="17" />
  <rect class="cls-2" x="6" y="76" width="84" height="20" />
  <path class="cls-3" d="M15,79H90a0,0,0,0,1,0,0V96a0,0,0,0,1,0,0H9a0,0,0,0,1,0,0V85A6,6,0,0,1,15,79Z" />
  <rect class="cls-4" x="1" y="70" width="94" height="6" />
  <path class="cls-5" d="M3,70H95a0,0,0,0,1,0,0v3a0,0,0,0,1,0,0H6a3,3,0,0,1-3-3v0A0,0,0,0,1,3,70Z" />
  <path class="cls-6" d="M54.14,69.89,17,70a6.37,6.37,0,0,1-6.21-7.2l1.74-13.17A13.47,13.47,0,0,1,22.84,38.35L23,38.3l.56-.1a13.27,13.27,0,0,1,2.29-.2H38.12a13.27,13.27,0,0,1,2.29.2l.56.1.19.05A13.46,13.46,0,0,1,50,45.07L52.84,60l.91,6.9Z" />
  <path class="cls-7" d="M53.75,66.9,20,67a6.37,6.37,0,0,1-6.21-7.2l1.74-13.17a13.17,13.17,0,0,1,2.38-6,13.21,13.21,0,0,1,4.93-2.26L23,38.3l.56-.1a13.27,13.27,0,0,1,2.29-.2H38.12a13.27,13.27,0,0,1,2.29.2l.56.1.19.05A13.46,13.46,0,0,1,50,45.07L52.84,60Z" />
  <rect class="cls-8" x="50" y="36" width="38" height="28" rx="2" />
  <path class="cls-9" d="M88,38V61H55a2,2,0,0,1-2-2V36H86A2,2,0,0,1,88,38Z" />
  <path class="cls-10" d="M71,39H83a2,2,0,0,1,2,2V57a2,2,0,0,1-2,2h0A14,14,0,0,1,69,45V41A2,2,0,0,1,71,39Z" />
  <circle class="cls-11" cx="69" cy="50" r="3" />
  <path class="cls-12" d="M91,66a4,4,0,0,1-4,4H51a4,4,0,0,1-4-4,1.94,1.94,0,0,1,.42-1.22,1.54,1.54,0,0,1,.17-.19A2,2,0,0,1,49,64H89a2,2,0,0,1,1.58.78A1.94,1.94,0,0,1,91,66Z" />
  <path class="cls-8" d="M90.58,64.78a4.11,4.11,0,0,1-.75,1A4,4,0,0,1,87,67H51a4,4,0,0,1-3.58-2.22,1.54,1.54,0,0,1,.17-.19A2,2,0,0,1,49,64H89A2,2,0,0,1,90.58,64.78Z" />
  <path class="cls-13" d="M28,33.25V39h0a5.66,5.66,0,0,0,8,0h0V33.25a11,11,0,0,1-8,0Z" />
  <rect class="cls-13" x="17" y="18" width="30" height="6" rx="3" />
  <path class="cls-13" d="M21,10H43a0,0,0,0,1,0,0V23A11,11,0,0,1,32,34h0A11,11,0,0,1,21,23V10A0,0,0,0,1,21,10Z" />
  <path class="cls-14" d="M27,5.22V8a8,8,0,0,1-6,7.75V18H20a3,3,0,0,0-3,3V10.76A7.78,7.78,0,0,1,24.76,3,2.24,2.24,0,0,1,27,5.22Z" />
  <path class="cls-14" d="M47,11V21a3,3,0,0,0-3-3H43V16H36.49A9.49,9.49,0,0,1,27,6.51V5.22A4.22,4.22,0,0,1,31.22,1H37A10,10,0,0,1,47,11Z" />
  <path class="cls-1" d="M47,9h0a4.24,4.24,0,0,1-4.44,4H37c-5.3,0-9.65-3.71-10-8.41h0A4.3,4.3,0,0,1,31.44,1h6.67C43,1,47,4.58,47,9Z" />
  <path class="cls-1" d="M27,5v.84C27,9.79,23,13,18.05,13H17V9a5.43,5.43,0,0,1,2.2-4.24A8.44,8.44,0,0,1,24.48,3,2.31,2.31,0,0,1,27,5Z" />
  <path class="cls-15" d="M27,17H43a0,0,0,0,1,0,0v7.5A9.5,9.5,0,0,1,33.5,34h0A9.5,9.5,0,0,1,24,24.5V20A3,3,0,0,1,27,17Z" />
  <path class="cls-6" d="M19,51,18,63H34v7H47.34L46,62H38.41A3.41,3.41,0,0,1,36,61h0a3.41,3.41,0,0,0-2.41-1h-10a4,4,0,0,1-4-3.56Z" />
  <path class="cls-15" d="M34,65h6a5,5,0,0,1,5,5v0a0,0,0,0,1,0,0H34a0,0,0,0,1,0,0V65A0,0,0,0,1,34,65Z" />
  <path class="cls-16" d="M95,69H91a4.92,4.92,0,0,0,1-3,3,3,0,0,0-3-3h-.18A3,3,0,0,0,89,62V38a3,3,0,0,0-3-3H52a3,3,0,0,0-3,3v3.91A14.28,14.28,0,0,0,45.47,39H47a1,1,0,0,0,1-1V11A11,11,0,0,0,37,0H31.22A5.21,5.21,0,0,0,26.7,2.66,3.2,3.2,0,0,0,24.76,2,8.79,8.79,0,0,0,16,10.76V38a1,1,0,0,0,1,1h1.53a14.39,14.39,0,0,0-7,10.5L9.8,62.67a7.37,7.37,0,0,0,1.73,5.78,5.49,5.49,0,0,0,.53.55H1a1,1,0,0,0-1,1v6a1,1,0,0,0,1,1H5V95a1,1,0,0,0,2,0V77H89V95a1,1,0,0,0,2,0V77h4a1,1,0,0,0,1-1V70A1,1,0,0,0,95,69ZM51,38a1,1,0,0,1,1-1H86a1,1,0,0,1,1,1V62a1,1,0,0,1-1,1H52a1,1,0,0,1-1-1ZM89,65a1,1,0,0,1,1,1,3,3,0,0,1-3,3H51a3,3,0,0,1-3-3,1,1,0,0,1,1-1ZM46,37H37V33.89A11.81,11.81,0,0,0,43.82,25H44a3.91,3.91,0,0,0,2-.56ZM44,23V19a2,2,0,0,1,0,4ZM28,5.22A3.22,3.22,0,0,1,31.22,2H37a9,9,0,0,1,9,9v6.56A3.91,3.91,0,0,0,44,17V16a1,1,0,0,0-1-1H36.49A8.5,8.5,0,0,1,28,6.51Zm-.72,6.3A10.5,10.5,0,0,0,36.49,17H42v6a10,10,0,0,1-6.36,9.32,10.12,10.12,0,0,1-5.33.53l-.15,0-.21,0c-.24-.05-.47-.1-.7-.17s-.59-.18-.89-.29A10,10,0,0,1,22,23V16.49A9,9,0,0,0,27.28,11.52ZM35,34.62v3.94a4.66,4.66,0,0,1-6,0V34.62l.24,0a9.09,9.09,0,0,0,1,.2l.35,0a10.47,10.47,0,0,0,2.74,0l.36,0c.34,0,.69-.11,1-.19ZM18,10.76A6.78,6.78,0,0,1,24.76,4,1.25,1.25,0,0,1,26,5.24V8a7,7,0,0,1-5.25,6.78.15.15,0,0,1-.07,0l-.18.09a.53.53,0,0,0-.15.11.86.86,0,0,0-.13.14,1.3,1.3,0,0,0-.1.15,1.34,1.34,0,0,0-.07.18c0,.06,0,.13,0,.2s0,0,0,.07V17a3.91,3.91,0,0,0-2,.56ZM20,19v4a2,2,0,0,1,0-4ZM18,37V24.44A3.91,3.91,0,0,0,20,25h.17A11.92,11.92,0,0,0,27,33.91V37ZM11.78,62.94l1.74-13.17a12.45,12.45,0,0,1,9.54-10.45l.21,0,.49-.09A12.55,12.55,0,0,1,25.88,39H27a1,1,0,0,0,.29.71,6.69,6.69,0,0,0,9.42,0A1,1,0,0,0,37,39h1.12a12,12,0,0,1,2.14.19l.46.08.12,0,.1,0a12.43,12.43,0,0,1,8.06,6V62a3,3,0,0,0,.18,1H49a2.94,2.94,0,0,0-1.5.42L46.21,51.89a1,1,0,1,0-2,.22L46.1,69h-.19A6,6,0,0,0,40,64H35V63a1,1,0,0,0-1-1H18.9L20,52.11a1,1,0,1,0-2-.22l-1.22,11a1,1,0,0,0,.24.78,1,1,0,0,0,.75.33H33v5H17a5.37,5.37,0,0,1-5.24-6.06ZM43.87,69H35V66h5A4,4,0,0,1,43.87,69ZM94,75H2V71H94Z" />
  <circle class="cls-16" cx="37.5" cy="19.5" r="1.5" />
  <circle class="cls-16" cx="26.5" cy="19.5" r="1.5" />
  <path class="cls-16" d="M32,30.5a4.62,4.62,0,0,0,3.27-1.35,1,1,0,1,0-1.42-1.42,2.62,2.62,0,0,1-3.7,0,1,1,0,1,0-1.42,1.42A4.62,4.62,0,0,0,32,30.5Z" />
  <path class="cls-16" d="M69,54a4,4,0,1,0-4-4A4,4,0,0,0,69,54Zm0-6a2,2,0,1,1-2,2A2,2,0,0,1,69,48Z" />
</svg>