<svg id="Layer_1" data-name="Layer 1" xmlns="http://www.w3.org/2000/svg" viewBox="0 0 96 96">
  <defs>
    <style>.cls-1{fill:#89a3ce;}.cls-2{fill:#a5b9db;}.cls-3{fill:#c3d2e7;}.cls-4{fill:#8288a1;}.cls-5{fill:#5c5f7d;}.cls-6{fill:#7190c4;}.cls-7{fill:#c6ccda;}.cls-8{fill:#969cb2;}.cls-9{fill:#d9b18c;}.cls-10{fill:#e5c2a1;}.cls-11{fill:#f2d3b8;}.cls-12{fill:#f6b756;}.cls-13{fill:#fac77d;}.cls-14{fill:#39426a;}</style>
  </defs>
  <title>sorting, robotics, logistic, shipping, delivery</title>
  <rect class="cls-1" x="10" y="87" width="76" height="8" />
  <path class="cls-2" d="M13,87H86a0,0,0,0,1,0,0v5a0,0,0,0,1,0,0H18a5,5,0,0,1-5-5v0a0,0,0,0,1,0,0Z" />
  <path class="cls-3" d="M48,87H83a0,0,0,0,1,0,0v0a3,3,0,0,1-3,3H50.88A2.88,2.88,0,0,1,48,87.12V87A0,0,0,0,1,48,87Z" />
  <rect class="cls-4" x="1" y="71" width="94" height="16" rx="8" />
  <rect class="cls-5" x="6" y="75" width="84" height="8" rx="4" />
  <circle class="cls-6" cx="10" cy="79" r="4" />
  <circle class="cls-6" cx="10" cy="79" r="4" />
  <circle class="cls-1" cx="10" cy="79" r="2" />
  <circle class="cls-6" cx="48" cy="79" r="4" />
  <circle class="cls-1" cx="48" cy="79" r="2" />
  <circle class="cls-6" cx="86" cy="79" r="4" />
  <circle class="cls-1" cx="86" cy="79" r="2" />
  <polygon class="cls-7" points="52 52 48 48 48 31 52 31 52 52" />
  <circle class="cls-4" cx="50" cy="29" r="3" />
  <circle class="cls-4" cx="84" cy="29" r="3" />
  <polygon class="cls-7" points="82 52 86 48 86 31 82 31 82 52" />
  <rect class="cls-7" x="74" y="27" width="8" height="4" />
  <rect class="cls-7" x="52" y="27" width="8" height="4" />
  <rect class="cls-4" x="60" y="25" width="14" height="7" />
  <path class="cls-8" d="M62,25H74a0,0,0,0,1,0,0v4a0,0,0,0,1,0,0H65a3,3,0,0,1-3-3V25A0,0,0,0,1,62,25Z" />
  <path class="cls-8" d="M67,21h0a4,4,0,0,1,4,4v0a0,0,0,0,1,0,0H63a0,0,0,0,1,0,0v0A4,4,0,0,1,67,21Z" />
  <rect class="cls-7" x="65" y="7" width="4" height="14" />
  <rect class="cls-4" x="56" y="1" width="22" height="6" />
  <path class="cls-8" d="M58,1H78a0,0,0,0,1,0,0V4a0,0,0,0,1,0,0H61a3,3,0,0,1-3-3V1A0,0,0,0,1,58,1Z" />
  <rect class="cls-9" x="10" y="41" width="30" height="30" />
  <path class="cls-10" d="M13,41H40a0,0,0,0,1,0,0V68a0,0,0,0,1,0,0H19a6,6,0,0,1-6-6V41A0,0,0,0,1,13,41Z" />
  <rect class="cls-11" x="25" y="44" width="12" height="22" rx="2" />
  <rect class="cls-12" x="22" y="41" width="6" height="7" />
  <path class="cls-13" d="M25,41h3a0,0,0,0,1,0,0v5a0,0,0,0,1,0,0H27a2,2,0,0,1-2-2V41A0,0,0,0,1,25,41Z" />
  <rect class="cls-9" x="52" y="37" width="30" height="30" />
  <path class="cls-10" d="M55,37H82a0,0,0,0,1,0,0V64a0,0,0,0,1,0,0H61a6,6,0,0,1-6-6V37A0,0,0,0,1,55,37Z" />
  <rect class="cls-11" x="67" y="40" width="12" height="22" rx="2" />
  <rect class="cls-12" x="64" y="37" width="6" height="7" />
  <path class="cls-13" d="M67,37h3a0,0,0,0,1,0,0v5a0,0,0,0,1,0,0H69a2,2,0,0,1-2-2V37A0,0,0,0,1,67,37Z" />
  <path class="cls-14" d="M87,70H41V41a1,1,0,0,0-1-1H10a1,1,0,0,0-1,1V70A9,9,0,0,0,9,88v7a1,1,0,0,0,1,1H86a1,1,0,0,0,1-1V88a9,9,0,0,0,0-18ZM27,42v5H23V42ZM11,42H21v6a1,1,0,0,0,1,1h6a1,1,0,0,0,1-1V42H39V70H11ZM85,94H11V88H85Zm2-8H9A7,7,0,0,1,9,72H87a7,7,0,0,1,0,14Z" />
  <path class="cls-14" d="M86.22,74H9.78A4.79,4.79,0,0,0,5,78.78v.44A4.79,4.79,0,0,0,9.78,84H86.22A4.79,4.79,0,0,0,91,79.22v-.44A4.79,4.79,0,0,0,86.22,74ZM86,82a3,3,0,1,1,3-3A3,3,0,0,1,86,82ZM7,79a3,3,0,1,1,3,3A3,3,0,0,1,7,79Zm7-3H44a4.88,4.88,0,0,0,0,6H14a4.88,4.88,0,0,0,0-6Zm31,3a3,3,0,1,1,3,3A3,3,0,0,1,45,79Zm7-3H82a4.88,4.88,0,0,0,0,6H52a4.88,4.88,0,0,0,0-6Z" />
  <path class="cls-14" d="M1,2H55V7a1,1,0,0,0,1,1h8V21a4.41,4.41,0,0,0-.54.46A5.07,5.07,0,0,0,62.1,24H60a1,1,0,0,0-1,1v1H52.61A3.93,3.93,0,0,0,50,25a4,4,0,0,0-4,4,3.91,3.91,0,0,0,1,2.61V48a1,1,0,0,0,.29.71L51,52.41V67a1,1,0,0,0,1,1H82a1,1,0,0,0,1-1V52.41l3.71-3.7A1,1,0,0,0,87,48V31.61A3.93,3.93,0,0,0,88,29a4,4,0,0,0-4-4,3.91,3.91,0,0,0-2.61,1H75V25a1,1,0,0,0-1-1H71.9a5,5,0,0,0-1.38-2.55A5.4,5.4,0,0,0,70,21V8h8a1,1,0,0,0,1-1V2H95a1,1,0,0,0,0-2H1A1,1,0,0,0,1,2ZM74,33a1,1,0,0,0,1-1h6v4H53V32h6a1,1,0,0,0,1,1Zm-9,5h4v5H65Zm-6-8H53.86A4.23,4.23,0,0,0,54,29a4.16,4.16,0,0,0-.14-1H59Zm-9-3a2,2,0,0,1,1.49.67,2,2,0,0,1,0,2.67,1.06,1.06,0,0,1-.15.15,2,2,0,0,1-2,.37,1.91,1.91,0,0,1-.64-.38A2,2,0,0,1,48,29,2,2,0,0,1,50,27ZM49,47.59V32.87l.18,0,.18,0a3.79,3.79,0,0,0,.58.05h.12a3.79,3.79,0,0,0,.58-.05l.19,0,.17,0V49.59ZM81,66H53V38H63v6a1,1,0,0,0,1,1h6a1,1,0,0,0,1-1V38H81V66Zm4-18.41-2,2V32.87l.18,0,.18,0a3.79,3.79,0,0,0,.58.05h.12a3.79,3.79,0,0,0,.58-.05l.19,0,.17,0ZM86,29a2,2,0,0,1-.67,1.49,2,2,0,0,1-2.67,0,1.06,1.06,0,0,1-.15-.15,2,2,0,0,1,0-2.67A2,2,0,0,1,84,27,2,2,0,0,1,86,29Zm-5.86-1A4.23,4.23,0,0,0,80,29a4.16,4.16,0,0,0,.14,1H75V28ZM73,31H61V26H73Zm-8.83-7a3.14,3.14,0,0,1,.69-1.11,3.06,3.06,0,0,1,.64-.48,3,3,0,0,1,2.27-.31,3.15,3.15,0,0,1,.74.31,3.26,3.26,0,0,1,.61.46A3.13,3.13,0,0,1,69.83,24ZM68,20.1l-.22,0-.43,0c-.12,0-.23,0-.35,0s-.23,0-.34,0l-.44,0-.22,0V8h2ZM77,2V6H57V2Z" />
  <path class="cls-14" d="M60,62H56a1,1,0,0,0,0,2h4a1,1,0,0,0,0-2Z" />
  <path class="cls-14" d="M60,58H56a1,1,0,0,0,0,2h4a1,1,0,0,0,0-2Z" />
  <path class="cls-14" d="M18,66H14a1,1,0,0,0,0,2h4a1,1,0,0,0,0-2Z" />
  <path class="cls-14" d="M18,62H14a1,1,0,0,0,0,2h4a1,1,0,0,0,0-2Z" />
</svg>