<svg id="Layer_1" data-name="Layer 1" xmlns="http://www.w3.org/2000/svg" viewBox="0 0 96 96">
  <defs>
    <style>.cls-1{fill:#b8c0ce;}.cls-2{fill:#ccd1dc;}.cls-3{fill:#969cb2;}.cls-4{fill:#89a3ce;}.cls-5{fill:#a5b9db;}.cls-6{fill:#c3d2e7;}.cls-7{fill:#cf4055;}.cls-8{fill:#f6b756;}.cls-9{fill:#fac77d;}.cls-10{fill:#8288a1;}.cls-11{fill:#dc5d6b;}.cls-12{fill:#e47980;}.cls-13{fill:#dee1e7;}.cls-14{fill:#f3f4f5;}.cls-15{fill:none;stroke:#39426a;stroke-linecap:round;stroke-linejoin:round;stroke-width:2px;}.cls-16{fill:#90d1d7;}.cls-17{fill:#abd9e6;}.cls-18{fill:#39426a;}</style>
  </defs>
  <title>rocket, launch, start up, laptop, computer, website</title>
  <path class="cls-1" d="M95,86v3a6,6,0,0,1-6,6H7a6,6,0,0,1-6-6V86a2.56,2.56,0,0,1,0-.39A3,3,0,0,1,4,83H92a3,3,0,0,1,3,2.61A2.56,2.56,0,0,1,95,86Z" />
  <path class="cls-2" d="M95,85.61A6,6,0,0,1,89,91H7a6,6,0,0,1-6-5.39A3,3,0,0,1,4,83H92A3,3,0,0,1,95,85.61Z" />
  <path class="cls-3" d="M54.53,87H41.47A7.24,7.24,0,0,1,35,83H61A7.24,7.24,0,0,1,54.53,87Z" />
  <path class="cls-1" d="M76,25h8a4,4,0,0,1,4,4V79a4,4,0,0,1-4,4H12a4,4,0,0,1-4-4V29a4,4,0,0,1,4-4H76Z" />
  <path class="cls-2" d="M76,28h7a2,2,0,0,1,2,2V78a2,2,0,0,1-2,2H13a2,2,0,0,1-2-2V30a2,2,0,0,1,2-2H76Z" />
  <rect class="cls-4" x="14" y="31" width="68" height="46" />
  <path class="cls-5" d="M18,31H81a0,0,0,0,1,0,0V68a6,6,0,0,1-6,6H28A10,10,0,0,1,18,64V31A0,0,0,0,1,18,31Z" />
  <path class="cls-6" d="M79,38.67V64.33C79,66.91,77.21,69,75,69H52C38,69,26.25,57.83,22.94,42.71,22,38.29,24.86,34,28.76,34H75C77.21,34,79,36.09,79,38.67Z" />
  <path class="cls-7" d="M53.74,62A6.89,6.89,0,0,1,55,66c0,6-7,11-7,11s-7-5-7-11a6.89,6.89,0,0,1,1.26-4Z" />
  <path class="cls-8" d="M52.36,62a4.63,4.63,0,0,1,.31,1.67C52.67,67.67,48,71,48,71s-4.67-3.33-4.67-7.33A4.63,4.63,0,0,1,43.64,62Z" />
  <path class="cls-9" d="M50.42,62a2.6,2.6,0,0,1,.17.93C50.59,65.15,48,67,48,67s-2.59-1.85-2.59-4.07a2.6,2.6,0,0,1,.17-.93Z" />
  <polygon class="cls-3" points="37 55 59 55 57 62 39 62 37 55" />
  <polygon class="cls-10" points="41 55 55 55 53.73 62 42.27 62 41 55" />
  <polygon class="cls-3" points="44 55 52 55 51.27 62 44.73 62 44 55" />
  <polygon class="cls-10" points="46.5 55 49.5 55 49.23 62 46.77 62 46.5 55" />
  <path class="cls-11" d="M76,52H62V31l3,2.35,2.65,2.07A21.31,21.31,0,0,1,75.76,49,18.77,18.77,0,0,1,76,52Z" />
  <path class="cls-12" d="M75.76,49H70.93A5.94,5.94,0,0,1,65,43.07V33.35l2.65,2.07A21.31,21.31,0,0,1,75.76,49Z" />
  <path class="cls-11" d="M34,31V52H20a21,21,0,0,1,7.81-16.13v0c.17-.15.35-.29.53-.43Z" />
  <path class="cls-12" d="M34,31V43.94A5.05,5.05,0,0,1,28.94,49h0a5.05,5.05,0,0,1-4.8-6.67,21.32,21.32,0,0,1,3.67-6.46v0c.17-.15.35-.29.53-.43Z" />
  <path class="cls-2" d="M62,23.65V52a3,3,0,0,1-3,3H37a3,3,0,0,1-3-3V23.65A25.33,25.33,0,0,1,43,4.32,24.91,24.91,0,0,1,48,1,25.32,25.32,0,0,1,62,23.65Z" />
  <path class="cls-13" d="M62,23.65V52H40a3,3,0,0,1-3-3V20.65A25.31,25.31,0,0,1,43,4.32,24.91,24.91,0,0,1,48,1,25.32,25.32,0,0,1,62,23.65Z" />
  <path class="cls-10" d="M55.67,6.89a14.81,14.81,0,0,1-6.42,2.05C48.84,9,48.42,9,48,9a14.91,14.91,0,0,1-7.67-2.11,24.85,24.85,0,0,1,6.12-5c.5-.31,1-.6,1.55-.86A25.35,25.35,0,0,1,55.67,6.89Z" />
  <path class="cls-3" d="M55.67,6.89a14.81,14.81,0,0,1-6.42,2.05,4.49,4.49,0,0,1-2.8-7.08c.5-.31,1-.6,1.55-.86A25.35,25.35,0,0,1,55.67,6.89Z" />
  <rect class="cls-14" x="51" y="22" width="7" height="27" rx="3.5" />
  <path class="cls-15" d="M59,55H37a3,3,0,0,1-3-3V23.65A25.33,25.33,0,0,1,48,1h0A25.33,25.33,0,0,1,62,23.65V52A3,3,0,0,1,59,55Z" />
  <circle class="cls-16" cx="48" cy="35" r="8" />
  <circle class="cls-17" cx="48" cy="35" r="5" />
  <rect class="cls-13" x="63" y="86" width="27" height="3" rx="1.5" />
  <rect class="cls-13" x="6" y="86" width="27" height="3" rx="1.5" />
  <path class="cls-18" d="M92,82H88a4.92,4.92,0,0,0,1-3V29a5,5,0,0,0-5-5H63v-.35A26.18,26.18,0,0,0,48.45.11a1,1,0,0,0-.9,0A26.18,26.18,0,0,0,33,23.65V24H12a5,5,0,0,0-5,5V79a4.92,4.92,0,0,0,1,3H4a4,4,0,0,0-4,4v3a7,7,0,0,0,7,7H89a7,7,0,0,0,7-7V86A4,4,0,0,0,92,82ZM33,51H21A20.15,20.15,0,0,1,29,36.21l4-3.16ZM27.74,34.63A22.07,22.07,0,0,0,19,52a1,1,0,0,0,1,1H33.14a4,4,0,0,0,3.08,2.92L38,62.27A1,1,0,0,0,39,63h1.6a8,8,0,0,0-.6,3c0,4.24,3.08,7.92,5.28,10H15V32H31.1ZM51.61,63a3.71,3.71,0,0,1,.06.67c0,2.65-2.51,5.07-3.67,6-1.16-1-3.67-3.4-3.67-6a3.71,3.71,0,0,1,.06-.67Zm-9.26,1c.23,4.31,4.87,7.67,5.07,7.81a1,1,0,0,0,1.16,0c.2-.14,4.84-3.5,5.07-7.81A6.09,6.09,0,0,1,54,66c0,4.44-4.39,8.42-6,9.73-1.61-1.31-6-5.29-6-9.73A6.09,6.09,0,0,1,42.35,64Zm-2.6-3-1.42-5H57.67l-1.42,5ZM56,66a8,8,0,0,0-.6-3H57a1,1,0,0,0,1-.73l1.82-6.35A4,4,0,0,0,62.86,53H76a1,1,0,0,0,1-1,22.07,22.07,0,0,0-8.74-17.37L64.9,32H81V76H50.72C52.92,73.92,56,70.24,56,66Zm7-32.95,4,3.16A20.15,20.15,0,0,1,75,51H63ZM48,2.12a24.4,24.4,0,0,1,6,4.5A14.33,14.33,0,0,1,42,6.62,24.4,24.4,0,0,1,48,2.12ZM35,23.65A24.18,24.18,0,0,1,40.56,8.16,16,16,0,0,0,48,10a16,16,0,0,0,7.44-1.84A24.18,24.18,0,0,1,61,23.65V52a2,2,0,0,1-2,2H37a2,2,0,0,1-2-2V23.65ZM9,79V29a3,3,0,0,1,3-3H33v4H14a1,1,0,0,0-1,1V77a1,1,0,0,0,1,1H82a1,1,0,0,0,1-1V31a1,1,0,0,0-1-1H63V26H84a3,3,0,0,1,3,3V79a3,3,0,0,1-3,3H12A3,3,0,0,1,9,79Zm50.11,5a6.2,6.2,0,0,1-4.58,2H41.47a6.2,6.2,0,0,1-4.58-2ZM94,89a5,5,0,0,1-5,5H7a5,5,0,0,1-5-5V86a2,2,0,0,1,2-2H34.43a8.19,8.19,0,0,0,7,4H54.53a8.19,8.19,0,0,0,7-4H92a2,2,0,0,1,2,2Z" />
  <path class="cls-18" d="M48,44a9,9,0,1,0-9-9A9,9,0,0,0,48,44Zm0-16a7,7,0,1,1-7,7A7,7,0,0,1,48,28Z" />
  <circle class="cls-14" cx="54.5" cy="16.5" r="3.5" />
</svg>