<svg id="Layer_1" data-name="Layer 1" xmlns="http://www.w3.org/2000/svg" viewBox="0 0 96 96">
  <defs>
    <style>.cls-1{fill:#5c5f7d;}.cls-2{fill:#6a6e86;}.cls-3{fill:#ccd1dc;}.cls-4{fill:#dee1e7;}.cls-5{fill:#f3f4f5;}.cls-6{fill:#aeb4c6;}.cls-7{fill:#969cb2;}.cls-8{fill:#90d1d7;}.cls-9{fill:#abd9e6;}.cls-10{fill:#c3e1f5;}.cls-11{fill:#39426a;}</style>
  </defs>
  <title>web, website, search, find, magnifier, www</title>
  <path class="cls-1" d="M68.65,76.64a4.29,4.29,0,0,1-.82,1.19,4,4,0,0,1-5.66,0L46.63,62.28l2-2,3.65-3.66L67.83,72.17A4,4,0,0,1,68.65,76.64Z" />
  <path class="cls-2" d="M68.65,76.64A4.3,4.3,0,0,1,67,77a4.07,4.07,0,0,1-2.83-1.17L52.28,63.94a5.18,5.18,0,0,1,0-7.32h0L67.83,72.17A4,4,0,0,1,68.65,76.64Z" />
  <polygon class="cls-3" points="9.09 32 1 32 1 52 9.09 52 54.91 52 95 52 95 32 54.91 32 9.09 32" />
  <path class="cls-4" d="M11.83,32H4v9.17A7.84,7.84,0,0,0,11.83,49H87.17A7.84,7.84,0,0,0,95,41.17V32H11.83Z" />
  <path class="cls-5" d="M54,36H87.5A3.5,3.5,0,0,1,91,39.5v0A3.5,3.5,0,0,1,87.5,43H54a0,0,0,0,1,0,0V36a0,0,0,0,1,0,0Z" />
  <circle class="cls-6" cx="32" cy="42" r="25" />
  <circle class="cls-7" cx="32" cy="42" r="23" />
  <circle class="cls-8" cx="32" cy="42" r="20" />
  <circle class="cls-9" cx="32" cy="42" r="17" />
  <path class="cls-10" d="M45,43a1,1,0,0,1-1-1A12,12,0,0,0,32,30a1,1,0,0,1,0-2A14,14,0,0,1,46,42,1,1,0,0,1,45,43Z" />
  <path class="cls-10" d="M32,56A14,14,0,0,1,18,42a1,1,0,0,1,2,0A12,12,0,0,0,32,54a1,1,0,0,1,0,2Z" />
  <path class="cls-11" d="M95,31H55.57A26,26,0,0,0,8.43,31H1a1,1,0,0,0-1,1V52a1,1,0,0,0,1,1H8.43A26,26,0,0,0,46.51,63.58l15,15a5,5,0,0,0,7.07-7.08l-15-14.95a25.33,25.33,0,0,0,2-3.51H95a1,1,0,0,0,1-1V32A1,1,0,0,0,95,31ZM2,51V33H7.6a26.11,26.11,0,0,0,0,18Zm13,8a23.87,23.87,0,0,1-5-7.32l0-.08a24.12,24.12,0,0,1,0-19.14l0-.08a24,24,0,0,1,44,0l0,.08a24.12,24.12,0,0,1,0,19.14l0,.08A24,24,0,0,1,15,59ZM67.12,72.88a3,3,0,0,1,0,4.24A3.08,3.08,0,0,1,65,78a3,3,0,0,1-2.13-.88L48.14,62.38a26.57,26.57,0,0,0,4.24-4.24ZM94,51H56.4a26.11,26.11,0,0,0,0-18H94Z" />
  <path class="cls-11" d="M48.92,54.38a20.82,20.82,0,0,0,0-24.76.88.88,0,0,0-.27-.36,20.91,20.91,0,0,0-33.3,0,.88.88,0,0,0-.27.36,20.82,20.82,0,0,0,0,24.76.88.88,0,0,0,.27.36,20.91,20.91,0,0,0,33.3,0A.88.88,0,0,0,48.92,54.38ZM32,23a19,19,0,0,1,13.82,6H18.18A19,19,0,0,1,32,23ZM16.54,31H47.46a18.86,18.86,0,0,1,0,22H16.54a18.86,18.86,0,0,1,0-22ZM32,61a19,19,0,0,1-13.82-6H45.82A19,19,0,0,1,32,61Z" />
  <path class="cls-11" d="M29,46.24a1,1,0,0,0,.9.76,1,1,0,0,0,1-.63L32,43.69l1.07,2.68A1,1,0,0,0,34,47h.07a1,1,0,0,0,.9-.76l2-8A1,1,0,0,0,35,37.76l-1.25,5-.85-2.13a1,1,0,0,0-1.86,0l-.85,2.13-1.25-5a1,1,0,1,0-1.94.48Z" />
  <path class="cls-11" d="M41,46.24a1,1,0,0,0,1.9.13L44,43.69l1.07,2.68A1,1,0,0,0,46,47h.07a1,1,0,0,0,.9-.76l2-8A1,1,0,0,0,47,37.76l-1.25,5-.85-2.13a1,1,0,0,0-1.86,0l-.85,2.13-1.25-5a1,1,0,1,0-1.94.48Z" />
  <path class="cls-11" d="M17,46.24a1,1,0,0,0,1.9.13L20,43.69l1.07,2.68A1,1,0,0,0,22,47h.07a1,1,0,0,0,.9-.76l2-8A1,1,0,0,0,23,37.76l-1.25,5-.85-2.13a1,1,0,0,0-1.86,0l-.85,2.13-1.25-5a1,1,0,0,0-1.94.48Z" />
</svg>