<svg id="Layer_1" data-name="Layer 1" xmlns="http://www.w3.org/2000/svg" viewBox="0 0 96 96">
  <defs>
    <style>.cls-1{fill:#8288a1;}.cls-2{fill:#969cb2;}.cls-3{fill:#90d1d7;}.cls-4{fill:#abd9e6;}.cls-5{fill:#c3e1f5;}.cls-6{fill:#5c5f7d;}.cls-7{fill:#7190c4;}.cls-8{fill:#89a3ce;}.cls-9{fill:#cf4055;}.cls-10{fill:#39426a;}</style>
  </defs>
  <title>magnifier, find, search, question, faq, seo</title>
  <circle class="cls-1" cx="36" cy="36" r="35" />
  <circle class="cls-2" cx="36" cy="36" r="31" />
  <circle class="cls-3" cx="36" cy="36" r="28" />
  <circle class="cls-4" cx="36" cy="36" r="23" />
  <path class="cls-5" d="M53,38a2,2,0,0,1-2-2A15,15,0,0,0,36,21a2,2,0,0,1,0-4A19,19,0,0,1,55,36,2,2,0,0,1,53,38Z" />
  <path class="cls-5" d="M36,55A19,19,0,0,1,17,36a2,2,0,0,1,4,0A15,15,0,0,0,36,51a2,2,0,0,1,0,4Z" />
  <rect class="cls-6" x="60.01" y="59.77" width="5.66" height="6.12" transform="translate(-26.03 62.84) rotate(-45)" />
  <path class="cls-7" d="M95,90v0a4.95,4.95,0,0,1-8.45,3.5l-25-25,7-7,25,25A5,5,0,0,1,95,90Z" />
  <path class="cls-8" d="M95,90a4.51,4.51,0,0,1-.45.53,4.95,4.95,0,0,1-7,0l-24-24,5-5,25,25A5,5,0,0,1,95,90Z" />
  <circle class="cls-9" cx="36" cy="55" r="2" />
  <path class="cls-9" d="M36.34,15H36a11.94,11.94,0,0,0-8.66,3.69A12.46,12.46,0,0,0,24,27.35V28a2,2,0,0,0,2,2h0a2,2,0,0,0,2-2v-.73a8.38,8.38,0,0,1,2-5.59A8,8,0,0,1,36,19h.07a7.86,7.86,0,0,1,7.49,5.28,8,8,0,0,1-3.28,9.48,13.06,13.06,0,0,0-6.28,11V47a2,2,0,0,0,2,2h0a2,2,0,0,0,2-2V44.73a9.07,9.07,0,0,1,4.42-7.59A12,12,0,0,0,36.34,15Z" />
  <path class="cls-10" d="M36,8A28,28,0,1,0,64,36,28,28,0,0,0,36,8Zm0,54A26,26,0,1,1,62,36,26,26,0,0,1,36,62Z" />
  <path class="cls-10" d="M94.26,85.84,69.21,60.79a1,1,0,0,0-1.42,0l-.79.8-3-3A36.06,36.06,0,1,0,58.59,64l3,3-.8.79a1,1,0,0,0,0,1.42L85.84,94.26a6,6,0,0,0,8.42-8.42ZM2,36A34,34,0,1,1,36,70,34,34,0,0,1,2,36ZM60.12,62.7q1.35-1.23,2.58-2.58L65.59,63,63,65.59ZM90.05,94a3.9,3.9,0,0,1-2.79-1.16L62.91,68.5l.8-.79,4-4,.79-.8L92.84,87.26A3.9,3.9,0,0,1,94,90.05,4,4,0,0,1,90.05,94Z" />
  <path class="cls-10" d="M36,58a3,3,0,1,1,3-3A3,3,0,0,1,36,58Zm0-4a1,1,0,1,0,1,1A1,1,0,0,0,36,54Z" />
  <path class="cls-10" d="M36,50a3,3,0,0,1-3-3V44.73a14,14,0,0,1,6.74-11.81,7.08,7.08,0,0,0,2.87-8.33A6.83,6.83,0,0,0,36.07,20a7,7,0,0,0-5.3,2.35A7.32,7.32,0,0,0,29,27.27V28a3,3,0,0,1-6,0v-.65A13.39,13.39,0,0,1,26.62,18,12.9,12.9,0,0,1,36,14h.37A13,13,0,0,1,43,38a8.08,8.08,0,0,0-4,6.74V47A3,3,0,0,1,36,50Zm0-32a8.87,8.87,0,0,1,8.51,6,9,9,0,0,1-3.7,10.64A12,12,0,0,0,35,44.73V47a1,1,0,0,0,2,0V44.73a10.07,10.07,0,0,1,4.88-8.43A11,11,0,0,0,36.31,16H36a10.93,10.93,0,0,0-7.94,3.38,11.43,11.43,0,0,0-3.06,8V28a1,1,0,0,0,2,0v-.73A9.31,9.31,0,0,1,29.28,21,8.87,8.87,0,0,1,36,18Z" />
</svg>