<svg id="Layer_1" data-name="Layer 1" xmlns="http://www.w3.org/2000/svg" viewBox="0 0 96 96">
  <defs>
    <style>.cls-1{fill:#8288a1;}.cls-2{fill:#969cb2;}.cls-3{fill:#90d1d7;}.cls-4{fill:#abd9e6;}.cls-5{fill:#5c5f7d;}.cls-6{fill:#7190c4;}.cls-7{fill:#89a3ce;}.cls-8{fill:#c3e1f5;}.cls-9{fill:#f6b756;}.cls-10{fill:#39426a;}</style>
  </defs>
  <title>key, password, search, find, magnifier, privacy</title>
  <circle class="cls-1" cx="36" cy="36" r="35" />
  <circle class="cls-2" cx="36" cy="36" r="31" />
  <circle class="cls-3" cx="36" cy="36" r="28" />
  <circle class="cls-4" cx="36" cy="36" r="23" />
  <rect class="cls-5" x="60.01" y="59.77" width="5.66" height="6.12" transform="translate(-26.03 62.84) rotate(-45)" />
  <path class="cls-6" d="M95,90v0a4.95,4.95,0,0,1-8.45,3.5l-25-25,7-7,25,25A5,5,0,0,1,95,90Z" />
  <path class="cls-7" d="M95,90a4.51,4.51,0,0,1-.45.53,4.95,4.95,0,0,1-7,0l-24-24,5-5,25,25A5,5,0,0,1,95,90Z" />
  <path class="cls-8" d="M36,55A19,19,0,0,1,17,36a2,2,0,0,1,4,0A15,15,0,0,0,36,51a2,2,0,0,1,0,4Z" />
  <path class="cls-8" d="M53,38a2,2,0,0,1-2-2A15,15,0,0,0,36,21a2,2,0,0,1,0-4A19,19,0,0,1,55,36,2,2,0,0,1,53,38Z" />
  <path class="cls-9" d="M38,41.29V17H29v4h5v4H29v4h5V41.29a7,7,0,1,0,4,0ZM36,51a3,3,0,1,1,3-3A3,3,0,0,1,36,51Z" />
  <path class="cls-10" d="M36,8A28,28,0,1,0,64,36,28,28,0,0,0,36,8Zm0,54A26,26,0,1,1,62,36,26,26,0,0,1,36,62Z" />
  <path class="cls-10" d="M94.26,85.84,69.21,60.79a1,1,0,0,0-1.42,0l-.79.8-3-3A36.06,36.06,0,1,0,58.59,64l3,3-.8.79a1,1,0,0,0,0,1.42L85.84,94.26a6,6,0,0,0,8.42-8.42ZM2,36A34,34,0,1,1,36,70,34,34,0,0,1,2,36ZM60.12,62.7q1.35-1.23,2.58-2.58L65.59,63,63,65.59ZM90.05,94a3.9,3.9,0,0,1-2.79-1.16L62.91,68.5l.8-.79,4-4,.79-.8L92.84,87.26A3.9,3.9,0,0,1,94,90.05,4,4,0,0,1,90.05,94Z" />
  <path class="cls-10" d="M36,44a4,4,0,1,0,4,4A4,4,0,0,0,36,44Zm0,6a2,2,0,1,1,2-2A2,2,0,0,1,36,50Z" />
  <path class="cls-10" d="M39,40.59V17a1,1,0,0,0-1-1H29a1,1,0,0,0-1,1v4a1,1,0,0,0,1,1h4v2H29a1,1,0,0,0-1,1v4a1,1,0,0,0,1,1h4V40.59a8,8,0,1,0,6,0ZM36,54a6,6,0,0,1-1.71-11.75,1,1,0,0,0,.71-1V29a1,1,0,0,0-1-1H30V26h4a1,1,0,0,0,1-1V21a1,1,0,0,0-1-1H30V18h7V41.29a1,1,0,0,0,.71,1A6,6,0,0,1,36,54Z" />
</svg>