<svg id="Layer_1" data-name="Layer 1" xmlns="http://www.w3.org/2000/svg" viewBox="0 0 96 96">
  <defs>
    <style>.cls-1{fill:#7190c4;}.cls-2{fill:#89a3ce;}.cls-3{fill:#5c5f7d;}.cls-4{fill:#6a6e86;}.cls-5{fill:#8288a1;}.cls-6{fill:#abd9e6;}.cls-7{fill:#c3e1f5;}.cls-8{fill:#a5b9db;}.cls-9{fill:#39426a;}</style>
  </defs>
  <title>online, find, internet, search, magnifier</title>
  <path class="cls-1" d="M95,48A47,47,0,0,1,1,48c0-1,0-2,.1-3a47,47,0,0,1,93.8,0C95,46,95,47,95,48Z" />
  <ellipse class="cls-2" cx="48" cy="45" rx="46.9" ry="44" />
  <path class="cls-3" d="M92,87.46A3.54,3.54,0,0,1,86,90L69.85,73.85l5-5L91,85a3.48,3.48,0,0,1,1,2A2.81,2.81,0,0,1,92,87.46Z" />
  <path class="cls-4" d="M92,87a3.52,3.52,0,0,1-5,0L71.85,71.85l3-3L91,85A3.48,3.48,0,0,1,92,87Z" />
  <circle class="cls-5" cx="57" cy="56" r="22" />
  <circle class="cls-6" cx="57" cy="56" r="17" />
  <path class="cls-7" d="M69,57.5A1.5,1.5,0,0,1,67.5,56,10.51,10.51,0,0,0,57,45.5a1.5,1.5,0,0,1,0-3A13.52,13.52,0,0,1,70.5,56,1.5,1.5,0,0,1,69,57.5Z" />
  <path class="cls-7" d="M57,69.5A13.52,13.52,0,0,1,43.5,56a1.5,1.5,0,0,1,3,0A10.51,10.51,0,0,0,57,66.5a1.5,1.5,0,0,1,0,3Z" />
  <path class="cls-8" d="M89,50a2,2,0,0,1-2-2c0-.88,0-1.69-.08-2.48A39.05,39.05,0,0,0,48,9a2,2,0,0,1,0-4A43,43,0,0,1,90.91,45.26C91,46.12,91,47,91,48A2,2,0,0,1,89,50Z" />
  <path class="cls-9" d="M57,38A18,18,0,1,0,75,56,18,18,0,0,0,57,38Zm0,34A16,16,0,1,1,73,56,16,16,0,0,1,57,72Z" />
  <path class="cls-9" d="M85.44,78a47.94,47.94,0,0,0-3.16-63.59.83.83,0,0,0-.11-.15s-.08,0-.11-.08a47.92,47.92,0,0,0-68.12,0s-.08,0-.11.08a.83.83,0,0,0-.11.15,47.9,47.9,0,0,0,0,67.12.83.83,0,0,0,.11.15s.08.05.11.08a48,48,0,0,0,65.18,2.75l6.13,6.13a4.54,4.54,0,1,0,6.42-6.42Zm-9.3-9.3A22.83,22.83,0,0,0,80,56a23.14,23.14,0,0,0-1.09-7H94A46,46,0,0,1,84,76.6ZM57,77A21,21,0,1,1,78,56,21,21,0,0,1,57,77ZM48,94c-6.23,0-11.8-9.63-14.76-23.58a48.89,48.89,0,0,1,4.85-1.35A23,23,0,0,0,57,79a23.21,23.21,0,0,0,3.56-.28C57.32,88.32,52.69,94,48,94ZM14.58,79.56A45.79,45.79,0,0,1,2,49H29a114.24,114.24,0,0,0,1.87,20.15A47.73,47.73,0,0,0,14.58,79.56Zm0-63.12a47.77,47.77,0,0,0,16.3,10.42A114.13,114.13,0,0,0,29,47H2A45.82,45.82,0,0,1,14.58,16.44ZM48,2c6.08,0,11.79,9.46,14.79,23.57A46.09,46.09,0,0,1,48,28a46.18,46.18,0,0,1-14.76-2.42C36.2,11.64,41.77,2,48,2Zm0,28a48.22,48.22,0,0,0,15.18-2.45c.4,2.11.74,4.32,1,6.61A23,23,0,0,0,35.84,47H31a110.5,110.5,0,0,1,1.83-19.44A48,48,0,0,0,48,30ZM81.42,16.44A45.82,45.82,0,0,1,94,47H78.16A23.07,23.07,0,0,0,66.3,35c-.31-2.83-.71-5.54-1.2-8.1A47.78,47.78,0,0,0,81.42,16.44ZM31,49h4.08A23.14,23.14,0,0,0,34,56a22.81,22.81,0,0,0,3,11.28c-1.4.33-2.78.72-4.13,1.17A110.71,110.71,0,0,1,31,49ZM80,15A46,46,0,0,1,64.7,24.88C62.42,14.13,58.63,6.17,54.07,2.41A45.89,45.89,0,0,1,80,15ZM31.28,24.87A46,46,0,0,1,16,15,45.92,45.92,0,0,1,42,2.41C37.33,6.21,33.54,14.28,31.28,24.87ZM16,81a45.77,45.77,0,0,1,15.3-9.84c2.26,10.59,6,18.65,10.67,22.45A45.92,45.92,0,0,1,16,81ZM54,93.6c3.44-2.83,6.49-8.08,8.79-15.34a22.94,22.94,0,0,0,6.92-3.12l8,8A46,46,0,0,1,54,93.6Zm36.23-4.35a2.57,2.57,0,0,1-3.58,0L71.36,74A23.44,23.44,0,0,0,75,70.36l15.3,15.31a2.51,2.51,0,0,1,0,3.58Z" />
</svg>