<svg id="Layer_1" data-name="Layer 1" xmlns="http://www.w3.org/2000/svg" viewBox="0 0 96 96">
  <defs>
    <style>.cls-1{fill:#ead4c6;}.cls-2{fill:#eedbcd;}.cls-3{fill:#5c5f7d;}.cls-4{fill:#6a6e86;}.cls-5{fill:#dee1e7;}.cls-6{fill:#f3f4f5;}.cls-7{fill:#cf4055;}.cls-8{fill:#dc5d6b;}.cls-9{fill:#85bd79;}.cls-10{fill:#39426a;}</style>
  </defs>
  <title>team work, arrows, man, men, business, employee, transfer</title>
  <rect class="cls-1" x="16.47" y="66.72" width="5.91" height="6.9" />
  <path class="cls-1" d="M28.29,54.9v3.94a8.87,8.87,0,1,1-17.73,0V54.9c0-.34,0-5.59.06-5.91H28.29C28.3,49.06,28.29,54.82,28.29,54.9Z" />
  <path class="cls-2" d="M28.29,54.9v3.94c0,4.9-3.31,8.87-7.39,8.87s-7.39-4-7.39-8.87V54.9c0-.34,0-5.59.05-5.91H28.29C28.3,49.06,28.29,54.82,28.29,54.9Z" />
  <path class="cls-1" d="M10.56,54.9h-.49a2.46,2.46,0,1,0,0,4.92h.55" />
  <path class="cls-1" d="M28.29,54.9h.5a2.46,2.46,0,0,1,1.74,4.2,2.42,2.42,0,0,1-1.74.72h-.55" />
  <path class="cls-3" d="M22.38,45v1a7.88,7.88,0,0,1-7.88,7.88H8.59V49a5.92,5.92,0,0,1,5.91-5.92h5.91a2,2,0,0,1,1.86,1.33A2,2,0,0,1,22.38,45Z" />
  <path class="cls-4" d="M22.27,44.4A7.88,7.88,0,0,1,14.5,51H10.56a2,2,0,0,1-2-2h0a5.92,5.92,0,0,1,5.91-5.92h5.91A2,2,0,0,1,22.27,44.4Z" />
  <path class="cls-3" d="M30.26,49V54.9A7.88,7.88,0,0,1,22.38,47V45a1.82,1.82,0,0,1,0-.32,2,2,0,0,1,1.94-1.65A5.92,5.92,0,0,1,30.26,49Z" />
  <path class="cls-4" d="M30.26,49h0a2.41,2.41,0,0,1-3.47,2.15,7.9,7.9,0,0,1-4.38-6.42,2,2,0,0,1,1.94-1.65A5.92,5.92,0,0,1,30.26,49Z" />
  <path class="cls-5" d="M37.16,95.29H1.69L2.81,83.44a13.66,13.66,0,0,1,7.62-11.37A13.09,13.09,0,0,1,13.51,71a13.23,13.23,0,0,1,3-.33l3,3,2.42-2.51.43-.45h.1c.31,0,.61,0,.91,0A13.83,13.83,0,0,1,36.05,83.54L37,93.32Z" />
  <path class="cls-6" d="M37,93.32H16.55A10.83,10.83,0,0,1,5.77,81.47h0a13.65,13.65,0,0,1,4.66-9.4A13.09,13.09,0,0,1,13.51,71a13.23,13.23,0,0,1,3-.33l3,3,2.95-3,.91,0A13.83,13.83,0,0,1,36.05,83.54Z" />
  <path class="cls-5" d="M19.43,73.62l-2.66,1.77-3.26,2.17V71a13.23,13.23,0,0,1,3-.33Z" />
  <path class="cls-5" d="M25.34,71v6.55l-3.25-2.17-2.66-1.77,2.95-3A13.78,13.78,0,0,1,25.34,71Z" />
  <polygon class="cls-7" points="22.09 75.39 21.57 78.54 21.4 79.53 17.46 79.53 16.77 75.39 17.8 74.7 19.43 73.62 22.09 75.39" />
  <path class="cls-8" d="M22.09,75.39l-.53,3.15h0a3.67,3.67,0,0,1-3.63-3.08l-.13-.76,1.63-1.08Z" />
  <polygon class="cls-7" points="23.37 91.35 21.07 93.08 19.43 94.31 15.48 91.35 17.46 79.53 21.4 79.53 23.37 91.35" />
  <path class="cls-8" d="M23.37,91.35l-2.3,1.73h0a7.43,7.43,0,0,1-2.87-7.17l1.06-6.38H21.4Z" />
  <path class="cls-9" d="M52.93,11.54a1,1,0,0,0-1-1H36.18A18.74,18.74,0,0,0,17.46,29.28v3.53L15.2,30.55A1,1,0,0,0,13.8,32l3.94,3.94a1.11,1.11,0,0,0,.32.21,1,1,0,0,0,.38.08,1,1,0,0,0,.7-.29L23.08,32a1,1,0,0,0,0-1.4,1,1,0,0,0-1.39,0l-2.26,2.26V29.28A16.76,16.76,0,0,1,36.18,12.53H51.94A1,1,0,0,0,52.93,11.54Z" />
  <path class="cls-9" d="M82.2,64.05l-3.94-3.94a1.11,1.11,0,0,0-.32-.21,1,1,0,0,0-.76,0,1,1,0,0,0-.32.21l-3.94,3.94a1,1,0,0,0,0,1.4,1,1,0,0,0,1.39,0l2.26-2.26v3.53A16.76,16.76,0,0,1,59.82,83.47H44.06a1,1,0,1,0,0,2H59.82A18.74,18.74,0,0,0,78.54,66.72V63.19l2.26,2.26a1,1,0,0,0,1.4,0A1,1,0,0,0,82.2,64.05Z" />
  <path class="cls-10" d="M37,83.47A14.83,14.83,0,0,0,25.56,70.05h0a13.59,13.59,0,0,0-2.19-.31V67.86a9.89,9.89,0,0,0,5.72-7.08,3.41,3.41,0,0,0,3.15-3.42,3.48,3.48,0,0,0-1-2.42V49a6.9,6.9,0,0,0-6.9-6.9,2.91,2.91,0,0,0-2,.77,2.89,2.89,0,0,0-2-.77H14.5A6.91,6.91,0,0,0,7.6,49v4.92a1,1,0,0,0,.35.74,4.15,4.15,0,0,0-.32.27,3.44,3.44,0,0,0,2.14,5.86,9.87,9.87,0,0,0,5.72,7.08v1.87c-.21,0-.42,0-.63,0l-.1,0c-.49.06-1,.14-1.46.24h0A14.71,14.71,0,0,0,1.83,83.34L.71,94.21a1,1,0,0,0,.88,1.08,1,1,0,0,0,1.08-.88L3.8,83.51a12.76,12.76,0,0,1,8.73-11.23v5.28a1,1,0,0,0,.52.87,1,1,0,0,0,.46.11,1,1,0,0,0,.55-.16l2-1.32.42,2.47-2,11.66a1,1,0,0,0,.38,1l3.95,3a1,1,0,0,0,.59.19A1,1,0,0,0,20,95.1l3.94-3a1,1,0,0,0,.38-1L22.4,79.53l.41-2.47,2,1.32a1,1,0,0,0,.55.16.92.92,0,0,0,.46-.11,1,1,0,0,0,.52-.87V72.31a12.89,12.89,0,0,1,8.75,11.33l1.11,10.77a1,1,0,0,0,1,.88h.1a1,1,0,0,0,.88-1.08ZM30.26,57.36a1.47,1.47,0,0,1-.43,1,1.31,1.31,0,0,1-.55.34V56A1.48,1.48,0,0,1,30.26,57.36ZM23.37,46V45a1,1,0,0,1,1-1A4.93,4.93,0,0,1,29.28,49v4.85A6.91,6.91,0,0,1,23.37,47ZM9.57,58.75a1.48,1.48,0,0,1-1-1.39,1.47,1.47,0,0,1,.43-1A1.45,1.45,0,0,1,9.57,56Zm0-5.82V49a4.93,4.93,0,0,1,4.93-4.93h5.91a1,1,0,0,1,1,1v1a6.91,6.91,0,0,1-6.9,6.9Zm2,5.91V54.9h3a8.87,8.87,0,0,0,7.63-4.37,8.87,8.87,0,0,0,5.18,4.83v3.48a7.89,7.89,0,0,1-15.77,0Zm7.87,13.37-1.95-2V68.49a9.75,9.75,0,0,0,2,.2,9.9,9.9,0,0,0,2-.2v1.67Zm0,2.59L21,75.86l-.45,2.68H18.29l-.45-2.68Zm-3.21-.23h0L14.5,75.72V71.81l.16,0a13,13,0,0,1,1.41-.14l1.81,1.81Zm3.21,18.51-2.87-2.16,1.73-10.41h2.27L22.3,90.92Zm4.92-17.36-1.72-1.15h0L21,73.46l1.81-1.8.2,0a11.69,11.69,0,0,1,1.19.12l.18,0Z" />
  <circle class="cls-10" cx="15.49" cy="56.87" r="0.99" />
  <circle class="cls-10" cx="23.37" cy="56.87" r="0.99" />
  <path class="cls-10" d="M22.21,64.58a1,1,0,0,0-1.39-1.39,2,2,0,0,1-2.79,0,1,1,0,0,0-1.39,0,1,1,0,0,0,0,1.39,3.92,3.92,0,0,0,5.57,0Z" />
  <rect class="cls-1" x="73.62" y="25.34" width="5.91" height="6.9" />
  <path class="cls-1" d="M85.44,13.51v4a8.87,8.87,0,0,1-17.73,0v-4c0-.33,0-5.58.05-5.91H85.44C85.45,7.68,85.44,13.44,85.44,13.51Z" />
  <path class="cls-2" d="M85.44,13.51v4c0,4.89-3.31,8.86-7.39,8.86s-7.39-4-7.39-8.86v-4c0-.33,0-5.58,0-5.91H85.44C85.45,7.68,85.44,13.44,85.44,13.51Z" />
  <path class="cls-1" d="M67.71,13.51h-.5a2.46,2.46,0,0,0-1.74.72A2.51,2.51,0,0,0,64.75,16a2.46,2.46,0,0,0,2.46,2.46h.55" />
  <path class="cls-1" d="M85.44,13.51h.49a2.47,2.47,0,1,1,0,4.93h-.55" />
  <path class="cls-3" d="M79.53,3.66v1a7.88,7.88,0,0,1-7.88,7.88H65.74V7.6a5.92,5.92,0,0,1,5.91-5.91h5.91A2,2,0,0,1,79.42,3,2,2,0,0,1,79.53,3.66Z" />
  <path class="cls-4" d="M79.42,3a7.87,7.87,0,0,1-7.77,6.55H67.71a2,2,0,0,1-2-2h0a5.91,5.91,0,0,1,5.91-5.91h5.91A2,2,0,0,1,79.42,3Z" />
  <path class="cls-3" d="M87.41,7.6v5.91a7.88,7.88,0,0,1-7.88-7.88v-2a1.66,1.66,0,0,1,0-.32A2,2,0,0,1,81.5,1.69,5.92,5.92,0,0,1,87.41,7.6Z" />
  <path class="cls-4" d="M87.41,7.6h0a2.41,2.41,0,0,1-3.47,2.16,7.91,7.91,0,0,1-4.38-6.42A2,2,0,0,1,81.5,1.69,5.92,5.92,0,0,1,87.41,7.6Z" />
  <path class="cls-5" d="M94.31,53.91H58.84L60,42.06a13.64,13.64,0,0,1,7.62-11.37,13.41,13.41,0,0,1,3.08-1.09,13.77,13.77,0,0,1,3-.32l2.95,3L79,29.73l.43-.45h.1c.3,0,.61,0,.91,0a15.34,15.34,0,0,1,2,.3A13.79,13.79,0,0,1,93.2,42.16l.92,9.78Z" />
  <path class="cls-6" d="M94.12,51.94H73.7A10.82,10.82,0,0,1,62.92,40.09h0a13.57,13.57,0,0,1,4.66-9.4,13.41,13.41,0,0,1,3.08-1.09,13.77,13.77,0,0,1,3-.32l2.95,3,3-3,.91,0a15.34,15.34,0,0,1,2,.3A13.79,13.79,0,0,1,93.2,42.16Z" />
  <path class="cls-5" d="M76.57,32.24,73.91,34l-3.25,2.17V29.6a13.77,13.77,0,0,1,3-.32Z" />
  <path class="cls-5" d="M82.49,29.62v6.56L79.23,34l-2.66-1.77,3-3A14.51,14.51,0,0,1,82.49,29.62Z" />
  <polygon class="cls-7" points="79.23 34.01 78.71 37.16 78.54 38.15 74.6 38.15 73.91 34.01 74.95 33.32 76.57 32.23 79.23 34.01" />
  <path class="cls-8" d="M79.23,34l-.52,3.15h0a3.69,3.69,0,0,1-3.64-3.08L75,33.32l1.62-1.08Z" />
  <polygon class="cls-7" points="80.52 49.97 78.22 51.7 76.57 52.93 72.63 49.97 74.6 38.15 78.54 38.15 80.52 49.97" />
  <path class="cls-8" d="M80.51,50l-2.29,1.72h0a7.43,7.43,0,0,1-2.88-7.16l1.07-6.38h2.13Z" />
  <path class="cls-10" d="M94.18,42.09A14.85,14.85,0,0,0,82.7,28.66h0a14.43,14.43,0,0,0-2.19-.3V26.48a9.87,9.87,0,0,0,5.72-7.08,3.38,3.38,0,0,0,2.14-1,3.45,3.45,0,0,0,0-4.86s0,0,0-.05V7.6A6.91,6.91,0,0,0,81.5.71a2.93,2.93,0,0,0-2,.76,2.93,2.93,0,0,0-2-.76H71.65a6.9,6.9,0,0,0-6.9,6.89v4.93a1,1,0,0,0,.35.74,2.78,2.78,0,0,0-.33.27,3.44,3.44,0,0,0,2.14,5.86,9.89,9.89,0,0,0,5.72,7.08v1.87c-.21,0-.42,0-.62,0l-.1,0a14.33,14.33,0,0,0-1.46.24h0A14.72,14.72,0,0,0,59,42L57.86,52.82a1,1,0,1,0,2,.21l1.12-10.91A12.75,12.75,0,0,1,69.68,30.9v5.28a1,1,0,0,0,.52.87,1,1,0,0,0,.46.11,1,1,0,0,0,.55-.16l2-1.33.41,2.48L71.66,49.81a1,1,0,0,0,.38.95l3.94,3a1,1,0,0,0,.59.2.92.92,0,0,0,.59-.2l4-3a1,1,0,0,0,.38-.95L79.54,38.15,80,35.67l2,1.33a1,1,0,0,0,.55.16,1.11,1.11,0,0,0,.46-.11,1,1,0,0,0,.52-.87V30.93a12.87,12.87,0,0,1,8.75,11.33L93.33,53a1,1,0,0,0,1,.88h.1a1,1,0,0,0,.88-1.09ZM87,17a1.58,1.58,0,0,1-.55.34V14.59A1.48,1.48,0,0,1,87,17ZM81.5,2.68A4.93,4.93,0,0,1,86.43,7.6v4.86a6.92,6.92,0,0,1-5.92-6.83v-2A1,1,0,0,1,81.5,2.68ZM66.72,7.6a4.93,4.93,0,0,1,4.93-4.92h5.91a1,1,0,0,1,1,1v1a6.9,6.9,0,0,1-6.89,6.89H66.72Zm-1,8.38a1.47,1.47,0,0,1,.43-1.05,1.31,1.31,0,0,1,.55-.34v2.78A1.48,1.48,0,0,1,65.74,16Zm3,1.48v-4h3a8.84,8.84,0,0,0,7.62-4.36A8.89,8.89,0,0,0,84.46,14v3.48a7.89,7.89,0,0,1-15.77,0Zm7.88,9.85a9.75,9.75,0,0,0,2-.2v1.67l-2,2-2-2V27.11A9.9,9.9,0,0,0,76.57,27.31Zm-4.92,3.12.16,0c.46-.06.93-.11,1.41-.13L75,32.08l-1.66,1.11h0l-1.72,1.15Zm4.92,21.26L73.7,49.54l1.74-10.41h2.27l1.73,10.41Zm1.14-14.53H75.44L75,34.48l1.58-1.06,1.59,1.06Zm2.07-4h0l-1.66-1.11,1.8-1.8h.2c.41,0,.8.07,1.2.13l.18,0v3.89Z" />
  <circle class="cls-10" cx="72.63" cy="15.49" r="0.99" />
  <circle class="cls-10" cx="80.51" cy="15.49" r="0.99" />
  <path class="cls-10" d="M79.36,23.2a1,1,0,0,0,0-1.4,1,1,0,0,0-1.39,0,2,2,0,0,1-2.79,0,1,1,0,0,0-1.39,1.4,3.95,3.95,0,0,0,5.57,0Z" />
</svg>