<svg width="897" height="342" viewBox="0 0 897 342" fill="none" xmlns="http://www.w3.org/2000/svg">
<g clip-path="url(#clip0)">
<path d="M571.159 84.3678L342.775 72.5182C337.259 72.232 332.529 77.0062 332.208 83.1816L325.58 210.927C325.26 217.102 329.471 222.341 334.987 222.627L563.37 234.476C568.886 234.763 573.617 229.988 573.937 223.813L580.565 96.0676C580.886 89.8921 576.674 84.654 571.159 84.3678Z" fill="#EAFAFA"/>
<path d="M794.736 281.093C818.417 283.722 838.758 275.559 839.672 267.323L846.189 208.641C843.357 213.698 826.038 216.328 802.357 213.698C778.676 211.069 759.867 204.198 760.431 199.119L753.915 257.8C752.8 267.838 771.055 278.463 794.736 281.093Z" fill="white"/>
<path d="M794.736 281.093C818.417 283.722 838.758 275.559 839.672 267.323L846.189 208.641C843.357 213.698 826.038 216.328 802.357 213.698C778.676 211.069 759.867 204.198 760.431 199.119L753.915 257.8C752.8 267.838 771.055 278.463 794.736 281.093Z" fill="url(#paint0_linear)" fill-opacity="0.5"/>
<path d="M846.188 208.642C845.589 214.043 825.905 216.29 802.224 213.66C778.543 211.031 759.831 204.52 760.431 199.119C761.031 193.717 780.715 191.47 804.396 194.1C828.077 196.73 846.788 203.24 846.188 208.642Z" fill="white"/>
<path d="M846.188 208.642C845.589 214.043 825.905 216.29 802.224 213.66C778.543 211.031 759.831 204.52 760.431 199.119M846.188 208.642C846.788 203.24 828.077 196.73 804.396 194.1C780.715 191.47 761.031 193.717 760.431 199.119M846.188 208.642C843.216 235.409 842.645 240.556 839.672 267.323C838.758 275.559 818.417 283.722 794.736 281.093C771.055 278.463 752.8 267.838 753.915 257.8C756.887 231.033 757.459 225.886 760.431 199.119" stroke="#56D7D4" stroke-width="2"/>
<path d="M844.573 223.194C840.955 234.158 822.761 240.016 800.553 239.279C778.344 238.543 758.968 233.309 757.322 227.127" stroke="#56D7D4" stroke-width="2"/>
<path d="M841.477 251.075C838.994 259.431 814.094 262.975 793.664 259.053C773.235 255.132 756.279 247.055 755.863 240.265" stroke="#56D7D4" stroke-width="2"/>
<path d="M569.18 123.838L561.659 119.908L565.589 112.388" stroke="#A0E8E7" stroke-width="2" stroke-linecap="round" stroke-linejoin="round"/>
<path fill-rule="evenodd" clip-rule="evenodd" d="M563.269 118.356C562.742 118.521 562.448 119.082 562.614 119.609C562.779 120.136 563.34 120.429 563.867 120.264L619.678 102.763C619.285 102.19 618.932 101.601 618.621 100.999L563.269 118.356ZM670.24 84.8125C670.701 85.3625 671.124 85.9294 671.506 86.5114L720.354 71.1942C720.881 71.029 721.174 70.4678 721.009 69.9408C720.844 69.4138 720.283 69.1206 719.756 69.2858L670.24 84.8125Z" fill="#A0E8E7"/>
<path d="M631.931 105.762L632.549 103.805C632.126 103.783 631.791 103.641 631.543 103.379C631.303 103.127 631.126 102.804 631.01 102.411C630.894 102.017 630.828 101.582 630.814 101.105C630.807 100.636 630.825 100.175 630.868 99.7198L631.062 97.6596C631.156 96.6568 630.995 95.7491 630.578 94.9363C630.162 94.1235 629.45 93.4657 628.443 92.9628C629.518 92.6559 630.336 92.1379 630.898 91.4087C631.468 90.6802 631.8 89.8147 631.894 88.8119L632.088 86.7517C632.131 86.2967 632.183 85.8383 632.243 85.3764C632.313 84.9069 632.429 84.4885 632.591 84.1212C632.753 83.7539 632.984 83.4696 633.283 83.2683C633.584 83.0585 633.99 82.9863 634.502 83.0515L634.259 81.0267C633.442 80.9497 632.724 81.0394 632.105 81.2956C631.485 81.5519 630.972 81.9073 630.563 82.3619C630.072 82.8853 629.689 83.5208 629.415 84.2685C629.141 85.0079 628.971 85.7357 628.903 86.4519L628.709 88.5121C628.602 89.6497 628.264 90.4382 627.696 90.8778C627.128 91.3173 626.308 91.4867 625.238 91.386L625 93.9139C626.07 94.0146 626.844 94.3339 627.32 94.8718C627.796 95.4097 627.982 96.239 627.876 97.3597L627.682 99.42C627.62 100.086 627.644 100.772 627.756 101.48C627.876 102.197 628.111 102.865 628.46 103.484C628.787 104.076 629.237 104.582 629.809 105.001C630.39 105.43 631.097 105.683 631.931 105.762ZM655.527 105.968L655.769 108.006C656.603 108.084 657.341 107.971 657.981 107.666C658.63 107.37 659.171 106.949 659.605 106.403C660.037 105.883 660.383 105.278 660.643 104.588C660.903 103.899 661.065 103.225 661.126 102.568L661.32 100.508C661.358 100.112 661.42 99.7607 661.509 99.4544C661.606 99.1406 661.729 98.8716 661.878 98.6476C662.155 98.2316 662.535 97.9486 663.016 97.7984C663.499 97.6398 664.09 97.5934 664.789 97.6592L665.027 95.1313C664.403 95.0726 663.876 94.9422 663.444 94.7401C663.021 94.5387 662.704 94.2538 662.492 93.8854C662.33 93.6151 662.22 93.2945 662.162 92.9234C662.112 92.5532 662.109 92.1321 662.153 91.6602L662.347 89.6C662.407 88.9596 662.39 88.2906 662.294 87.593C662.207 86.8878 662.005 86.2396 661.686 85.6486C661.356 84.997 660.901 84.4611 660.32 84.0408C659.74 83.6122 658.999 83.3554 658.097 83.2705L657.481 85.2145C657.996 85.246 658.382 85.3928 658.638 85.6549C658.895 85.9086 659.068 86.231 659.159 86.6221C659.25 87.0132 659.281 87.4454 659.254 87.9189C659.235 88.3847 659.205 88.8451 659.162 89.3002L658.968 91.3604C658.913 91.9418 658.941 92.5013 659.052 93.0388C659.164 93.5678 659.369 94.0589 659.666 94.5119C659.867 94.8198 660.112 95.1064 660.401 95.3717C660.691 95.637 661.03 95.873 661.418 96.0796C660.901 96.2434 660.447 96.46 660.057 96.7292C659.675 96.9908 659.348 97.3001 659.077 97.6571C658.805 98.014 658.59 98.4061 658.43 98.8331C658.28 99.261 658.181 99.7193 658.135 100.208L657.941 102.268C657.898 102.723 657.826 103.18 657.723 103.638C657.62 104.104 657.474 104.519 657.287 104.884C657.1 105.249 656.86 105.533 656.569 105.735C656.286 105.946 655.939 106.024 655.527 105.968Z" fill="#56D7D4"/>
<path d="M653.482 94.1408C653.827 94.4867 654 94.8924 654 95.358C654 95.8236 653.827 96.216 653.482 96.5352L647.55 102.521C647.205 102.84 646.801 103 646.336 103C645.872 103 645.48 102.84 645.162 102.521L637.518 94.8592C637.173 94.5133 637 94.1142 637 93.662V87.6761C637 87.2238 637.166 86.8314 637.498 86.4988C637.829 86.1663 638.234 86 638.712 86H644.644C645.122 86 645.52 86.1596 645.838 86.4789L653.482 94.1408ZM639.966 90.23C640.324 90.23 640.63 90.1103 640.882 89.8709C641.134 89.6315 641.26 89.3322 641.26 88.973C641.26 88.6138 641.134 88.3079 640.882 88.0552C640.63 87.8024 640.324 87.6761 639.966 87.6761C639.608 87.6761 639.309 87.8024 639.07 88.0552C638.831 88.3079 638.712 88.6138 638.712 88.973C638.712 89.3322 638.831 89.6315 639.07 89.8709C639.309 90.1103 639.608 90.23 639.966 90.23Z" fill="#31CECA"/>
<path fill-rule="evenodd" clip-rule="evenodd" d="M375.852 120.985C372.541 121.115 369.962 123.904 370.092 127.215L370.795 145.201C370.925 148.512 373.714 151.092 377.025 150.962L503.928 145.997C507.239 145.868 509.819 143.079 509.689 139.767L508.985 121.781C508.856 118.47 506.067 115.891 502.755 116.02L375.852 120.985ZM495.157 135.224C497.364 135.138 499.084 133.278 498.997 131.071C498.911 128.863 497.052 127.144 494.844 127.23C492.637 127.317 490.917 129.176 491.004 131.384C491.09 133.591 492.949 135.31 495.157 135.224ZM487.007 131.54C487.094 133.747 485.374 135.607 483.167 135.693C480.959 135.779 479.1 134.06 479.013 131.853C478.927 129.645 480.646 127.786 482.854 127.699C485.061 127.613 486.921 129.332 487.007 131.54ZM377.299 157.957C373.988 158.086 371.408 160.876 371.538 164.187L372.242 182.173C372.371 185.484 375.16 188.063 378.472 187.933L505.375 182.969C508.686 182.839 511.265 180.05 511.135 176.739L510.432 158.753C510.302 155.442 507.513 152.862 504.202 152.992L377.299 157.957Z" fill="url(#paint1_linear)" fill-opacity="0.5"/>
<path d="M370.092 127.215L369.092 127.254L370.092 127.215ZM370.795 145.201L371.794 145.162L370.795 145.201ZM377.025 150.962L377.064 151.961L377.025 150.962ZM503.928 145.997L503.889 144.998L503.928 145.997ZM509.689 139.767L510.688 139.728L509.689 139.767ZM508.985 121.781L507.986 121.82L508.985 121.781ZM371.538 164.187L370.539 164.226L371.538 164.187ZM377.299 157.957L377.338 158.956L377.299 157.957ZM372.242 182.173L373.241 182.134L372.242 182.173ZM511.135 176.739L510.136 176.778L511.135 176.739ZM510.432 158.753L511.431 158.714L510.432 158.753ZM504.202 152.992L504.163 151.993L504.202 152.992ZM371.091 127.176C370.983 124.417 373.132 122.092 375.892 121.984L375.813 119.986C371.95 120.137 368.941 123.391 369.092 127.254L371.091 127.176ZM371.794 145.162L371.091 127.176L369.092 127.254L369.796 145.24L371.794 145.162ZM376.986 149.963C374.227 150.071 371.902 147.921 371.794 145.162L369.796 145.24C369.947 149.103 373.201 152.112 377.064 151.961L376.986 149.963ZM503.889 144.998L376.986 149.963L377.064 151.961L503.967 146.997L503.889 144.998ZM508.69 139.806C508.798 142.566 506.648 144.89 503.889 144.998L503.967 146.997C507.83 146.845 510.839 143.591 510.688 139.728L508.69 139.806ZM507.986 121.82L508.69 139.806L510.688 139.728L509.985 121.742L507.986 121.82ZM502.794 117.019C505.554 116.912 507.878 119.061 507.986 121.82L509.985 121.742C509.833 117.879 506.579 114.87 502.716 115.021L502.794 117.019ZM375.892 121.984L502.794 117.019L502.716 115.021L375.813 119.986L375.892 121.984ZM497.998 131.11C498.063 132.765 496.773 134.16 495.118 134.225L495.196 136.223C497.955 136.115 500.105 133.791 499.997 131.032L497.998 131.11ZM494.883 128.229C496.539 128.165 497.933 129.454 497.998 131.11L499.997 131.032C499.889 128.272 497.564 126.123 494.805 126.231L494.883 128.229ZM492.003 131.344C491.938 129.689 493.228 128.294 494.883 128.229L494.805 126.231C492.046 126.339 489.896 128.663 490.004 131.423L492.003 131.344ZM495.118 134.225C493.462 134.29 492.068 133 492.003 131.344L490.004 131.423C490.112 134.182 492.437 136.331 495.196 136.223L495.118 134.225ZM483.206 136.692C485.965 136.584 488.114 134.26 488.006 131.501L486.008 131.579C486.073 133.234 484.783 134.629 483.128 134.694L483.206 136.692ZM478.014 131.892C478.122 134.651 480.446 136.8 483.206 136.692L483.128 134.694C481.472 134.759 480.077 133.469 480.013 131.813L478.014 131.892ZM482.815 126.7C480.056 126.808 477.906 129.132 478.014 131.892L480.013 131.813C479.948 130.158 481.237 128.763 482.893 128.698L482.815 126.7ZM488.006 131.501C487.899 128.741 485.574 126.592 482.815 126.7L482.893 128.698C484.549 128.634 485.943 129.923 486.008 131.579L488.006 131.501ZM372.537 164.148C372.429 161.388 374.579 159.064 377.338 158.956L377.26 156.958C373.397 157.109 370.388 160.363 370.539 164.226L372.537 164.148ZM373.241 182.134L372.537 164.148L370.539 164.226L371.242 182.212L373.241 182.134ZM378.433 186.934C375.673 187.042 373.349 184.893 373.241 182.134L371.242 182.212C371.394 186.075 374.648 189.084 378.511 188.933L378.433 186.934ZM505.335 181.97L378.433 186.934L378.511 188.933L505.414 183.968L505.335 181.97ZM510.136 176.778C510.244 179.537 508.095 181.862 505.335 181.97L505.414 183.968C509.277 183.817 512.286 180.563 512.135 176.7L510.136 176.778ZM509.432 158.792L510.136 176.778L512.135 176.7L511.431 158.714L509.432 158.792ZM504.241 153.991C507 153.883 509.325 156.033 509.432 158.792L511.431 158.714C511.28 154.851 508.026 151.842 504.163 151.993L504.241 153.991ZM377.338 158.956L504.241 153.991L504.163 151.993L377.26 156.958L377.338 158.956Z" fill="#56D7D4"/>
<path d="M382.857 135.22L411.835 134.086" stroke="#56D7D4" stroke-width="2"/>
<path d="M207.857 185.075H250M339.857 185.075H305" stroke="#56D7D4" stroke-width="2" stroke-linecap="round" stroke-linejoin="round"/>
<path d="M335.857 191.075L341.857 185.075L335.857 179.074" stroke="#56D7D4" stroke-width="2" stroke-linecap="round" stroke-linejoin="round"/>
<path d="M209.857 129.074H253.857M341.857 129.074H300.857H341.857Z" stroke="#56D7D4" stroke-width="2" stroke-linecap="round" stroke-linejoin="round"/>
<path d="M213.857 135.074L207.857 129.074L213.857 123.074" stroke="#56D7D4" stroke-width="2" stroke-linecap="round" stroke-linejoin="round"/>
<path d="M641 183C641 180.791 642.791 179 645 179H659.343C660.404 179 661.421 179.422 662.172 180.172L670.828 188.829C671.579 189.579 672 190.596 672 191.657V218C672 220.209 670.209 222 668 222H645C642.791 222 641 220.209 641 218V183Z" stroke="#56D7D4" stroke-width="2"/>
<path d="M661 179V186C661 188.209 662.791 190 665 190H672" stroke="#56D7D4" stroke-width="2"/>
<path d="M655.328 196.25C655.328 197.12 654.982 197.955 654.367 198.57C653.751 199.186 652.917 199.531 652.046 199.531C651.176 199.531 650.342 199.186 649.726 198.57C649.111 197.955 648.765 197.12 648.765 196.25C648.765 195.38 649.111 194.545 649.726 193.93C650.342 193.314 651.176 192.969 652.046 192.969C652.917 192.969 653.751 193.314 654.367 193.93C654.982 194.545 655.328 195.38 655.328 196.25V196.25ZM660.873 201.57C660.75 201.508 660.611 201.487 660.475 201.508C660.339 201.53 660.213 201.594 660.116 201.692L655.246 207.873L651.755 204.235C651.629 204.151 651.478 204.114 651.327 204.128C651.176 204.143 651.035 204.21 650.928 204.317L646.143 210.031V212.656C646.143 213.004 646.281 213.338 646.527 213.584C646.773 213.83 647.107 213.969 647.455 213.969H665.83C666.003 213.969 666.173 213.935 666.333 213.869C666.492 213.803 666.637 213.706 666.758 213.584C666.88 213.462 666.977 213.318 667.043 213.159C667.109 212.999 667.143 212.829 667.143 212.656V206.75L660.873 201.57V201.57Z" fill="#31CECA"/>
<path d="M72.5043 241.84H76.1039L71.0191 251.329V257.043H67.8424V251.329L62.5822 241.84H66.3262L69.4823 248.462L72.5043 241.84ZM81.1578 254.97C82.0173 254.97 82.6774 254.664 83.1381 254.052C83.5988 253.44 83.8291 252.57 83.8291 251.442C83.8291 250.315 83.5988 249.448 83.1381 248.843C82.6774 248.231 82.0173 247.925 81.1578 247.925C80.2983 247.925 79.6347 248.231 79.1672 248.843C78.7065 249.448 78.4761 250.315 78.4761 251.442C78.4761 252.57 78.7065 253.44 79.1672 254.052C79.6347 254.664 80.2983 254.97 81.1578 254.97ZM86.913 251.442C86.913 253.093 86.4386 254.506 85.4897 255.682C84.5408 256.85 83.1003 257.435 81.1681 257.435C79.2359 257.435 77.7954 256.85 76.8465 255.682C75.8976 254.506 75.4232 253.093 75.4232 251.442C75.4232 249.82 75.8976 248.414 76.8465 247.224C77.7954 246.034 79.2359 245.44 81.1681 245.44C83.1003 245.44 84.5408 246.034 85.4897 247.224C86.4386 248.414 86.913 249.82 86.913 251.442ZM91.9566 245.801V252.577C91.9566 253.216 92.0322 253.698 92.1835 254.021C92.4517 254.592 92.9777 254.877 93.7615 254.877C94.7654 254.877 95.453 254.471 95.8244 253.66C96.0169 253.22 96.1131 252.639 96.1131 251.917V245.801H99.0939V257.043H96.2369V255.455C96.2094 255.489 96.1406 255.592 96.0306 255.764C95.9206 255.936 95.79 256.087 95.6387 256.218C95.178 256.63 94.7311 256.912 94.2979 257.064C93.8716 257.215 93.3696 257.291 92.792 257.291C91.128 257.291 90.0072 256.692 89.4296 255.496C89.1065 254.836 88.9449 253.863 88.9449 252.577V245.801H91.9566ZM108.046 245.533C108.101 245.533 108.146 245.536 108.181 245.543C108.222 245.543 108.308 245.546 108.438 245.553V248.565C108.253 248.544 108.088 248.53 107.943 248.524C107.799 248.517 107.682 248.513 107.593 248.513C106.41 248.513 105.616 248.898 105.21 249.668C104.983 250.102 104.87 250.769 104.87 251.669V257.043H101.91V245.801H104.715V247.76C105.169 247.011 105.564 246.499 105.901 246.224C106.451 245.763 107.166 245.533 108.046 245.533ZM114.895 247.998V245.904H116.463V242.768H119.371V245.904H121.197V247.998H119.371V253.938C119.371 254.399 119.43 254.688 119.547 254.805C119.664 254.915 120.021 254.97 120.619 254.97C120.709 254.97 120.802 254.97 120.898 254.97C121.001 254.963 121.101 254.956 121.197 254.949V257.146L119.804 257.198C118.416 257.246 117.467 257.005 116.958 256.476C116.628 256.139 116.463 255.62 116.463 254.918V247.998H114.895ZM127.519 247.925C126.839 247.925 126.309 248.139 125.931 248.565C125.56 248.991 125.326 249.569 125.23 250.298H129.799C129.751 249.521 129.513 248.933 129.087 248.534C128.668 248.128 128.145 247.925 127.519 247.925ZM127.519 245.502C128.455 245.502 129.297 245.677 130.046 246.028C130.796 246.378 131.415 246.932 131.903 247.688C132.343 248.355 132.628 249.129 132.759 250.009C132.835 250.524 132.866 251.267 132.852 252.237H125.157C125.199 253.364 125.553 254.155 126.22 254.609C126.626 254.891 127.114 255.032 127.684 255.032C128.29 255.032 128.781 254.86 129.159 254.516C129.366 254.33 129.548 254.073 129.706 253.742H132.707C132.632 254.409 132.284 255.087 131.666 255.774C130.703 256.868 129.355 257.414 127.623 257.414C126.192 257.414 124.931 256.954 123.837 256.032C122.744 255.111 122.197 253.612 122.197 251.535C122.197 249.589 122.689 248.097 123.672 247.059C124.662 246.021 125.945 245.502 127.519 245.502ZM141.041 251.577C140.855 251.693 140.666 251.79 140.474 251.865C140.288 251.934 140.03 251.999 139.7 252.061L139.04 252.185C138.421 252.295 137.978 252.429 137.71 252.587C137.256 252.855 137.029 253.271 137.029 253.835C137.029 254.337 137.166 254.702 137.442 254.929C137.723 255.149 138.064 255.259 138.463 255.259C139.095 255.259 139.676 255.073 140.206 254.702C140.742 254.33 141.02 253.653 141.041 252.67V251.577ZM139.257 250.205C139.8 250.136 140.188 250.05 140.422 249.947C140.842 249.768 141.051 249.49 141.051 249.111C141.051 248.651 140.89 248.334 140.567 248.163C140.25 247.984 139.783 247.894 139.164 247.894C138.469 247.894 137.978 248.066 137.689 248.41C137.483 248.665 137.345 249.008 137.276 249.442H134.44C134.502 248.458 134.777 247.65 135.265 247.018C136.042 246.028 137.376 245.533 139.267 245.533C140.498 245.533 141.591 245.777 142.547 246.265C143.503 246.753 143.981 247.674 143.981 249.029V254.186C143.981 254.544 143.987 254.977 144.001 255.486C144.022 255.871 144.08 256.132 144.177 256.269C144.273 256.407 144.417 256.52 144.61 256.61V257.043H141.412C141.323 256.816 141.261 256.603 141.227 256.403C141.192 256.204 141.165 255.977 141.144 255.723C140.739 256.163 140.271 256.538 139.742 256.847C139.109 257.211 138.394 257.394 137.596 257.394C136.579 257.394 135.736 257.105 135.069 256.527C134.409 255.943 134.079 255.118 134.079 254.052C134.079 252.67 134.612 251.669 135.678 251.051C136.262 250.714 137.122 250.473 138.256 250.329L139.257 250.205ZM159.163 245.553C159.658 245.553 160.146 245.649 160.627 245.842C161.109 246.034 161.545 246.371 161.937 246.853C162.254 247.245 162.467 247.726 162.577 248.297C162.646 248.675 162.68 249.228 162.68 249.957L162.659 257.043H159.648V249.885C159.648 249.459 159.579 249.108 159.441 248.833C159.18 248.31 158.699 248.049 157.997 248.049C157.186 248.049 156.626 248.386 156.316 249.06C156.158 249.417 156.079 249.847 156.079 250.349V257.043H153.119V250.349C153.119 249.682 153.05 249.197 152.913 248.895C152.665 248.352 152.18 248.08 151.458 248.08C150.619 248.08 150.056 248.352 149.767 248.895C149.609 249.204 149.53 249.665 149.53 250.277V257.043H146.549V245.821H149.406V247.461C149.77 246.877 150.114 246.461 150.437 246.213C151.008 245.773 151.747 245.553 152.655 245.553C153.514 245.553 154.209 245.742 154.738 246.12C155.164 246.471 155.488 246.921 155.708 247.472C156.093 246.811 156.571 246.327 157.141 246.017C157.746 245.708 158.42 245.553 159.163 245.553ZM167.682 253.454C167.744 253.976 167.878 254.348 168.085 254.568C168.449 254.96 169.123 255.155 170.106 255.155C170.684 255.155 171.141 255.07 171.478 254.898C171.822 254.726 171.994 254.468 171.994 254.124C171.994 253.794 171.856 253.543 171.581 253.371C171.306 253.199 170.285 252.904 168.518 252.484C167.246 252.168 166.348 251.772 165.826 251.298C165.303 250.83 165.042 250.157 165.042 249.276C165.042 248.238 165.448 247.348 166.259 246.605C167.077 245.856 168.225 245.481 169.704 245.481C171.107 245.481 172.248 245.763 173.128 246.327C174.015 246.884 174.524 247.85 174.655 249.225H171.715C171.674 248.847 171.567 248.548 171.395 248.328C171.072 247.929 170.522 247.729 169.745 247.729C169.106 247.729 168.648 247.829 168.373 248.028C168.105 248.228 167.971 248.462 167.971 248.73C167.971 249.067 168.115 249.311 168.404 249.462C168.693 249.62 169.714 249.892 171.468 250.277C172.636 250.552 173.513 250.968 174.098 251.525C174.675 252.089 174.964 252.794 174.964 253.639C174.964 254.753 174.548 255.664 173.716 256.373C172.891 257.074 171.612 257.425 169.879 257.425C168.112 257.425 166.806 257.053 165.96 256.311C165.121 255.561 164.702 254.609 164.702 253.454H167.682Z" fill="#56D7D4"/>
<path d="M368.046 254.774C369.304 254.774 370.301 254.31 371.037 253.381C371.779 252.453 372.151 251.133 372.151 249.421C372.151 247.716 371.779 246.399 371.037 245.471C370.301 244.535 369.304 244.068 368.046 244.068C366.787 244.068 365.783 244.532 365.034 245.46C364.284 246.389 363.91 247.709 363.91 249.421C363.91 251.133 364.284 252.453 365.034 253.381C365.783 254.31 366.787 254.774 368.046 254.774ZM375.327 249.421C375.327 252.151 374.561 254.241 373.027 255.692C371.879 256.875 370.218 257.466 368.046 257.466C365.873 257.466 364.212 256.875 363.064 255.692C361.524 254.241 360.754 252.151 360.754 249.421C360.754 246.636 361.524 244.546 363.064 243.15C364.212 241.967 365.873 241.376 368.046 241.376C370.218 241.376 371.879 241.967 373.027 243.15C374.561 244.546 375.327 246.636 375.327 249.421ZM385.27 251.422C385.27 250.555 385.071 249.789 384.672 249.122C384.28 248.455 383.64 248.121 382.753 248.121C381.688 248.121 380.955 248.627 380.556 249.637C380.35 250.174 380.247 250.855 380.247 251.68C380.247 252.986 380.594 253.904 381.289 254.434C381.701 254.743 382.19 254.898 382.753 254.898C383.572 254.898 384.194 254.581 384.62 253.949C385.053 253.316 385.27 252.474 385.27 251.422ZM383.599 245.553C384.912 245.553 386.023 246.038 386.931 247.007C387.845 247.977 388.302 249.4 388.302 251.277C388.302 253.258 387.855 254.767 386.962 255.805C386.075 256.844 384.93 257.363 383.527 257.363C382.633 257.363 381.89 257.139 381.299 256.692C380.976 256.445 380.66 256.084 380.35 255.609V261.468H377.442V245.801H380.257V247.461C380.574 246.973 380.911 246.588 381.268 246.306C381.921 245.804 382.698 245.553 383.599 245.553ZM394.872 247.925C394.192 247.925 393.662 248.139 393.284 248.565C392.913 248.991 392.679 249.569 392.583 250.298H397.152C397.104 249.521 396.866 248.933 396.44 248.534C396.021 248.128 395.498 247.925 394.872 247.925ZM394.872 245.502C395.808 245.502 396.65 245.677 397.399 246.028C398.149 246.378 398.768 246.932 399.256 247.688C399.696 248.355 399.981 249.129 400.112 250.009C400.188 250.524 400.218 251.267 400.205 252.237H392.51C392.552 253.364 392.906 254.155 393.573 254.609C393.979 254.891 394.467 255.032 395.037 255.032C395.643 255.032 396.134 254.86 396.512 254.516C396.719 254.33 396.901 254.073 397.059 253.742H400.06C399.985 254.409 399.637 255.087 399.019 255.774C398.056 256.868 396.708 257.414 394.976 257.414C393.545 257.414 392.284 256.954 391.19 256.032C390.097 255.111 389.55 253.612 389.55 251.535C389.55 249.589 390.042 248.097 391.025 247.059C392.015 246.021 393.298 245.502 394.872 245.502ZM408.425 245.533C409.587 245.533 410.536 245.838 411.272 246.45C412.014 247.056 412.386 248.063 412.386 249.472V257.043H409.374V250.205C409.374 249.613 409.295 249.16 409.137 248.843C408.848 248.266 408.298 247.977 407.486 247.977C406.489 247.977 405.805 248.4 405.434 249.246C405.241 249.692 405.145 250.263 405.145 250.958V257.043H402.216V245.821H405.052V247.461C405.431 246.884 405.788 246.468 406.125 246.213C406.73 245.759 407.497 245.533 408.425 245.533ZM414.222 249.761H420.142V252.546H414.222V249.761ZM424.432 253.454C424.494 253.976 424.628 254.348 424.835 254.568C425.199 254.96 425.873 255.155 426.856 255.155C427.434 255.155 427.891 255.07 428.228 254.898C428.572 254.726 428.744 254.468 428.744 254.124C428.744 253.794 428.606 253.543 428.331 253.371C428.056 253.199 427.035 252.904 425.268 252.484C423.996 252.168 423.098 251.772 422.576 251.298C422.053 250.83 421.792 250.157 421.792 249.276C421.792 248.238 422.198 247.348 423.009 246.605C423.827 245.856 424.976 245.481 426.454 245.481C427.857 245.481 428.998 245.763 429.878 246.327C430.765 246.884 431.274 247.85 431.405 249.225H428.465C428.424 248.847 428.317 248.548 428.145 248.328C427.822 247.929 427.272 247.729 426.495 247.729C425.856 247.729 425.399 247.829 425.123 248.028C424.855 248.228 424.721 248.462 424.721 248.73C424.721 249.067 424.866 249.311 425.154 249.462C425.443 249.62 426.464 249.892 428.218 250.277C429.387 250.552 430.263 250.968 430.848 251.525C431.425 252.089 431.714 252.794 431.714 253.639C431.714 254.753 431.298 255.664 430.466 256.373C429.641 257.074 428.362 257.425 426.629 257.425C424.862 257.425 423.556 257.053 422.71 256.311C421.871 255.561 421.452 254.609 421.452 253.454H424.432ZM438.944 254.97C439.804 254.97 440.464 254.664 440.925 254.052C441.385 253.44 441.616 252.57 441.616 251.442C441.616 250.315 441.385 249.448 440.925 248.843C440.464 248.231 439.804 247.925 438.944 247.925C438.085 247.925 437.421 248.231 436.954 248.843C436.493 249.448 436.263 250.315 436.263 251.442C436.263 252.57 436.493 253.44 436.954 254.052C437.421 254.664 438.085 254.97 438.944 254.97ZM444.7 251.442C444.7 253.093 444.225 254.506 443.276 255.682C442.327 256.85 440.887 257.435 438.955 257.435C437.022 257.435 435.582 256.85 434.633 255.682C433.684 254.506 433.21 253.093 433.21 251.442C433.21 249.82 433.684 248.414 434.633 247.224C435.582 246.034 437.022 245.44 438.955 245.44C440.887 245.44 442.327 246.034 443.276 247.224C444.225 248.414 444.7 249.82 444.7 251.442ZM449.743 245.801V252.577C449.743 253.216 449.819 253.698 449.97 254.021C450.238 254.592 450.764 254.877 451.548 254.877C452.552 254.877 453.24 254.471 453.611 253.66C453.803 253.22 453.9 252.639 453.9 251.917V245.801H456.88V257.043H454.023V255.455C453.996 255.489 453.927 255.592 453.817 255.764C453.707 255.936 453.576 256.087 453.425 256.218C452.964 256.63 452.518 256.912 452.084 257.064C451.658 257.215 451.156 257.291 450.579 257.291C448.915 257.291 447.794 256.692 447.216 255.496C446.893 254.836 446.731 253.863 446.731 252.577V245.801H449.743ZM465.833 245.533C465.888 245.533 465.933 245.536 465.967 245.543C466.008 245.543 466.094 245.546 466.225 245.553V248.565C466.039 248.544 465.874 248.53 465.73 248.524C465.585 248.517 465.469 248.513 465.379 248.513C464.196 248.513 463.402 248.898 462.997 249.668C462.77 250.102 462.656 250.769 462.656 251.669V257.043H459.696V245.801H462.502V247.76C462.955 247.011 463.351 246.499 463.688 246.224C464.238 245.763 464.953 245.533 465.833 245.533ZM474.672 249.833C474.617 249.414 474.476 249.036 474.249 248.699C473.919 248.245 473.407 248.018 472.712 248.018C471.722 248.018 471.045 248.51 470.681 249.493C470.488 250.016 470.392 250.71 470.392 251.577C470.392 252.402 470.488 253.065 470.681 253.567C471.031 254.502 471.691 254.97 472.661 254.97C473.348 254.97 473.837 254.784 474.125 254.413C474.414 254.042 474.59 253.56 474.651 252.969H477.653C477.584 253.863 477.261 254.709 476.683 255.506C475.762 256.792 474.397 257.435 472.589 257.435C470.78 257.435 469.45 256.899 468.597 255.826C467.745 254.753 467.318 253.361 467.318 251.649C467.318 249.717 467.789 248.214 468.731 247.141C469.673 246.069 470.973 245.533 472.63 245.533C474.04 245.533 475.191 245.849 476.085 246.481C476.986 247.114 477.519 248.231 477.684 249.833H474.672ZM484.151 247.925C483.47 247.925 482.941 248.139 482.562 248.565C482.191 248.991 481.957 249.569 481.861 250.298H486.43C486.382 249.521 486.145 248.933 485.718 248.534C485.299 248.128 484.776 247.925 484.151 247.925ZM484.151 245.502C485.086 245.502 485.928 245.677 486.678 246.028C487.427 246.378 488.046 246.932 488.534 247.688C488.974 248.355 489.26 249.129 489.39 250.009C489.466 250.524 489.497 251.267 489.483 252.237H481.789C481.83 253.364 482.184 254.155 482.851 254.609C483.257 254.891 483.745 255.032 484.316 255.032C484.921 255.032 485.412 254.86 485.791 254.516C485.997 254.33 486.179 254.073 486.337 253.742H489.339C489.263 254.409 488.916 255.087 488.297 255.774C487.334 256.868 485.987 257.414 484.254 257.414C482.824 257.414 481.562 256.954 480.469 256.032C479.375 255.111 478.829 253.612 478.829 251.535C478.829 249.589 479.32 248.097 480.304 247.059C481.294 246.021 482.576 245.502 484.151 245.502ZM500.963 251.298H504.82L502.922 245.316L500.963 251.298ZM501.159 241.84H504.748L510.132 257.043H506.687L505.707 253.918H500.107L499.055 257.043H495.733L501.159 241.84ZM519.579 251.422C519.579 250.555 519.38 249.789 518.981 249.122C518.589 248.455 517.95 248.121 517.063 248.121C515.997 248.121 515.265 248.627 514.866 249.637C514.66 250.174 514.556 250.855 514.556 251.68C514.556 252.986 514.904 253.904 515.598 254.434C516.011 254.743 516.499 254.898 517.063 254.898C517.881 254.898 518.503 254.581 518.93 253.949C519.363 253.316 519.579 252.474 519.579 251.422ZM517.909 245.553C519.222 245.553 520.332 246.038 521.24 247.007C522.155 247.977 522.612 249.4 522.612 251.277C522.612 253.258 522.165 254.767 521.271 255.805C520.384 256.844 519.239 257.363 517.836 257.363C516.942 257.363 516.2 257.139 515.609 256.692C515.285 256.445 514.969 256.084 514.66 255.609V261.468H511.751V245.801H514.567V247.461C514.883 246.973 515.22 246.588 515.578 246.306C516.231 245.804 517.008 245.553 517.909 245.553ZM532.493 251.422C532.493 250.555 532.293 249.789 531.894 249.122C531.502 248.455 530.863 248.121 529.976 248.121C528.91 248.121 528.178 248.627 527.779 249.637C527.573 250.174 527.47 250.855 527.47 251.68C527.47 252.986 527.817 253.904 528.511 254.434C528.924 254.743 529.412 254.898 529.976 254.898C530.794 254.898 531.417 254.581 531.843 253.949C532.276 253.316 532.493 252.474 532.493 251.422ZM530.822 245.553C532.135 245.553 533.246 246.038 534.153 247.007C535.068 247.977 535.525 249.4 535.525 251.277C535.525 253.258 535.078 254.767 534.184 255.805C533.297 256.844 532.152 257.363 530.75 257.363C529.856 257.363 529.113 257.139 528.522 256.692C528.199 256.445 527.882 256.084 527.573 255.609V261.468H524.664V245.801H527.48V247.461C527.796 246.973 528.133 246.588 528.491 246.306C529.144 245.804 529.921 245.553 530.822 245.553Z" fill="#56D7D4"/>
<path d="M763.323 309.061H766.922L761.838 318.55V324.264H758.661V318.55L753.401 309.061H757.145L760.301 315.683L763.323 309.061ZM771.976 322.191C772.836 322.191 773.496 321.885 773.957 321.273C774.417 320.661 774.648 319.791 774.648 318.664C774.648 317.536 774.417 316.67 773.957 316.064C773.496 315.453 772.836 315.147 771.976 315.147C771.117 315.147 770.453 315.453 769.986 316.064C769.525 316.67 769.295 317.536 769.295 318.664C769.295 319.791 769.525 320.661 769.986 321.273C770.453 321.885 771.117 322.191 771.976 322.191ZM777.732 318.664C777.732 320.314 777.257 321.727 776.308 322.903C775.359 324.072 773.919 324.656 771.987 324.656C770.054 324.656 768.614 324.072 767.665 322.903C766.716 321.727 766.242 320.314 766.242 318.664C766.242 317.041 766.716 315.635 767.665 314.445C768.614 313.256 770.054 312.661 771.987 312.661C773.919 312.661 775.359 313.256 776.308 314.445C777.257 315.635 777.732 317.041 777.732 318.664ZM782.775 313.022V319.798C782.775 320.438 782.851 320.919 783.002 321.242C783.27 321.813 783.796 322.098 784.58 322.098C785.584 322.098 786.272 321.693 786.643 320.881C786.835 320.441 786.932 319.86 786.932 319.138V313.022H789.912V324.264H787.055V322.676C787.028 322.71 786.959 322.813 786.849 322.985C786.739 323.157 786.608 323.308 786.457 323.439C785.997 323.852 785.55 324.134 785.116 324.285C784.69 324.436 784.188 324.512 783.611 324.512C781.947 324.512 780.826 323.913 780.248 322.717C779.925 322.057 779.763 321.084 779.763 319.798V313.022H782.775ZM798.865 312.754C798.92 312.754 798.965 312.757 798.999 312.764C799.04 312.764 799.126 312.767 799.257 312.774V315.786C799.071 315.765 798.906 315.752 798.762 315.745C798.617 315.738 798.501 315.734 798.411 315.734C797.228 315.734 796.434 316.12 796.029 316.89C795.802 317.323 795.688 317.99 795.688 318.891V324.264H792.728V313.022H795.534V314.982C795.987 314.232 796.383 313.72 796.72 313.445C797.27 312.984 797.985 312.754 798.865 312.754ZM811.015 312.754C811.696 312.754 812.301 312.905 812.83 313.208C813.36 313.503 813.789 313.916 814.119 314.445V309.082H817.1V324.264H814.243V322.707C813.824 323.374 813.346 323.858 812.81 324.161C812.273 324.464 811.606 324.615 810.809 324.615C809.495 324.615 808.388 324.085 807.488 323.026C806.594 321.961 806.147 320.596 806.147 318.932C806.147 317.013 806.587 315.504 807.467 314.404C808.354 313.304 809.537 312.754 811.015 312.754ZM811.654 322.139C812.486 322.139 813.119 321.83 813.552 321.211C813.985 320.592 814.202 319.791 814.202 318.808C814.202 317.433 813.855 316.45 813.16 315.858C812.734 315.501 812.239 315.322 811.675 315.322C810.816 315.322 810.183 315.648 809.777 316.302C809.378 316.948 809.179 317.753 809.179 318.715C809.179 319.753 809.382 320.585 809.788 321.211C810.2 321.83 810.822 322.139 811.654 322.139ZM825.981 318.798C825.795 318.915 825.606 319.011 825.413 319.087C825.228 319.155 824.97 319.221 824.64 319.282L823.98 319.406C823.361 319.516 822.917 319.65 822.649 319.808C822.195 320.077 821.968 320.493 821.968 321.056C821.968 321.558 822.106 321.923 822.381 322.15C822.663 322.37 823.003 322.48 823.402 322.48C824.035 322.48 824.616 322.294 825.145 321.923C825.681 321.552 825.96 320.874 825.981 319.891V318.798ZM824.196 317.426C824.739 317.357 825.128 317.271 825.362 317.168C825.781 316.989 825.991 316.711 825.991 316.333C825.991 315.872 825.829 315.556 825.506 315.384C825.19 315.205 824.722 315.116 824.103 315.116C823.409 315.116 822.917 315.288 822.629 315.631C822.422 315.886 822.285 316.23 822.216 316.663H819.38C819.441 315.679 819.717 314.872 820.205 314.239C820.982 313.249 822.316 312.754 824.207 312.754C825.437 312.754 826.531 312.998 827.486 313.486C828.442 313.974 828.92 314.896 828.92 316.25V321.407C828.92 321.765 828.927 322.198 828.941 322.707C828.961 323.092 829.02 323.353 829.116 323.491C829.212 323.628 829.357 323.742 829.549 323.831V324.264H826.352C826.263 324.037 826.201 323.824 826.166 323.625C826.132 323.425 826.104 323.198 826.084 322.944C825.678 323.384 825.21 323.759 824.681 324.068C824.048 324.433 823.333 324.615 822.536 324.615C821.518 324.615 820.676 324.326 820.009 323.748C819.349 323.164 819.019 322.339 819.019 321.273C819.019 319.891 819.552 318.891 820.617 318.272C821.202 317.935 822.061 317.694 823.196 317.55L824.196 317.426ZM830.385 315.219V313.125H831.952V309.99H834.861V313.125H836.687V315.219H834.861V321.16C834.861 321.62 834.919 321.909 835.036 322.026C835.153 322.136 835.511 322.191 836.109 322.191C836.198 322.191 836.291 322.191 836.387 322.191C836.491 322.184 836.59 322.177 836.687 322.17V324.367L835.294 324.419C833.905 324.467 832.956 324.226 832.448 323.697C832.117 323.36 831.952 322.841 831.952 322.139V315.219H830.385ZM844.773 318.798C844.587 318.915 844.398 319.011 844.206 319.087C844.02 319.155 843.762 319.221 843.432 319.282L842.772 319.406C842.153 319.516 841.71 319.65 841.441 319.808C840.988 320.077 840.761 320.493 840.761 321.056C840.761 321.558 840.898 321.923 841.173 322.15C841.455 322.37 841.795 322.48 842.194 322.48C842.827 322.48 843.408 322.294 843.937 321.923C844.474 321.552 844.752 320.874 844.773 319.891V318.798ZM842.988 317.426C843.532 317.357 843.92 317.271 844.154 317.168C844.573 316.989 844.783 316.711 844.783 316.333C844.783 315.872 844.622 315.556 844.298 315.384C843.982 315.205 843.514 315.116 842.896 315.116C842.201 315.116 841.71 315.288 841.421 315.631C841.214 315.886 841.077 316.23 841.008 316.663H838.172C838.234 315.679 838.509 314.872 838.997 314.239C839.774 313.249 841.108 312.754 842.999 312.754C844.23 312.754 845.323 312.998 846.279 313.486C847.234 313.974 847.712 314.896 847.712 316.25V321.407C847.712 321.765 847.719 322.198 847.733 322.707C847.754 323.092 847.812 323.353 847.908 323.491C848.005 323.628 848.149 323.742 848.341 323.831V324.264H845.144C845.055 324.037 844.993 323.824 844.958 323.625C844.924 323.425 844.897 323.198 844.876 322.944C844.47 323.384 844.003 323.759 843.473 324.068C842.841 324.433 842.126 324.615 841.328 324.615C840.31 324.615 839.468 324.326 838.801 323.748C838.141 323.164 837.811 322.339 837.811 321.273C837.811 319.891 838.344 318.891 839.409 318.272C839.994 317.935 840.853 317.694 841.988 317.55L842.988 317.426Z" fill="#56D7D4"/>
<path d="M731.019 105.797H734.619L729.534 115.286V121H726.357V115.286L721.097 105.797H724.841L727.997 112.419L731.019 105.797ZM739.673 118.927C740.532 118.927 741.192 118.621 741.653 118.009C742.114 117.397 742.344 116.527 742.344 115.399C742.344 114.272 742.114 113.405 741.653 112.8C741.192 112.188 740.532 111.882 739.673 111.882C738.813 111.882 738.15 112.188 737.682 112.8C737.221 113.405 736.991 114.272 736.991 115.399C736.991 116.527 737.221 117.397 737.682 118.009C738.15 118.621 738.813 118.927 739.673 118.927ZM745.428 115.399C745.428 117.05 744.954 118.463 744.005 119.639C743.056 120.807 741.615 121.392 739.683 121.392C737.751 121.392 736.31 120.807 735.361 119.639C734.413 118.463 733.938 117.05 733.938 115.399C733.938 113.777 734.413 112.371 735.361 111.181C736.31 109.991 737.751 109.397 739.683 109.397C741.615 109.397 743.056 109.991 744.005 111.181C744.954 112.371 745.428 113.777 745.428 115.399ZM750.472 109.758V116.534C750.472 117.173 750.547 117.655 750.698 117.978C750.967 118.549 751.493 118.834 752.276 118.834C753.28 118.834 753.968 118.428 754.339 117.617C754.532 117.177 754.628 116.596 754.628 115.874V109.758H757.609V121H754.752V119.412C754.724 119.446 754.656 119.549 754.546 119.721C754.436 119.893 754.305 120.044 754.154 120.175C753.693 120.587 753.246 120.869 752.813 121.021C752.386 121.172 751.885 121.248 751.307 121.248C749.643 121.248 748.522 120.649 747.945 119.453C747.621 118.793 747.46 117.82 747.46 116.534V109.758H750.472ZM766.561 109.49C766.616 109.49 766.661 109.493 766.696 109.5C766.737 109.5 766.823 109.503 766.953 109.51V112.522C766.768 112.501 766.603 112.487 766.458 112.481C766.314 112.474 766.197 112.47 766.108 112.47C764.925 112.47 764.131 112.855 763.725 113.625C763.498 114.059 763.385 114.726 763.385 115.626V121H760.425V109.758H763.23V111.717C763.684 110.968 764.079 110.456 764.416 110.181C764.966 109.72 765.681 109.49 766.561 109.49ZM780.764 115.534C780.578 115.65 780.389 115.747 780.197 115.822C780.011 115.891 779.753 115.956 779.423 116.018L778.763 116.142C778.144 116.252 777.701 116.386 777.432 116.544C776.979 116.812 776.752 117.228 776.752 117.792C776.752 118.294 776.889 118.659 777.164 118.886C777.446 119.106 777.787 119.216 778.185 119.216C778.818 119.216 779.399 119.03 779.928 118.659C780.465 118.287 780.743 117.61 780.764 116.627V115.534ZM778.98 114.162C779.523 114.093 779.911 114.007 780.145 113.904C780.564 113.725 780.774 113.447 780.774 113.069C780.774 112.608 780.613 112.292 780.289 112.12C779.973 111.941 779.506 111.851 778.887 111.851C778.192 111.851 777.701 112.023 777.412 112.367C777.206 112.622 777.068 112.965 776.999 113.399H774.163C774.225 112.415 774.5 111.607 774.988 110.975C775.765 109.985 777.099 109.49 778.99 109.49C780.221 109.49 781.314 109.734 782.27 110.222C783.225 110.71 783.703 111.631 783.703 112.986V118.143C783.703 118.501 783.71 118.934 783.724 119.443C783.745 119.828 783.803 120.089 783.899 120.226C783.996 120.364 784.14 120.477 784.333 120.567V121H781.135C781.046 120.773 780.984 120.56 780.95 120.361C780.915 120.161 780.888 119.934 780.867 119.68C780.461 120.12 779.994 120.495 779.464 120.804C778.832 121.168 778.117 121.351 777.319 121.351C776.301 121.351 775.459 121.062 774.792 120.484C774.132 119.9 773.802 119.075 773.802 118.009C773.802 116.627 774.335 115.626 775.401 115.008C775.985 114.671 776.845 114.43 777.979 114.286L778.98 114.162ZM789.325 121H786.385V105.797H789.325V121ZM797.029 118.587C797.717 118.587 798.298 118.329 798.772 117.813C799.247 117.29 799.484 116.462 799.484 115.327C799.484 114.261 799.257 113.45 798.803 112.893C798.356 112.336 797.755 112.058 796.998 112.058C795.967 112.058 795.255 112.542 794.863 113.512C794.657 114.028 794.554 114.664 794.554 115.42C794.554 116.073 794.664 116.654 794.884 117.163C795.283 118.112 795.998 118.587 797.029 118.587ZM796.297 109.49C796.861 109.49 797.352 109.575 797.772 109.747C798.487 110.043 799.064 110.586 799.504 111.377V109.758H802.361V120.422C802.361 121.873 802.117 122.967 801.629 123.702C800.79 124.967 799.181 125.6 796.802 125.6C795.365 125.6 794.193 125.318 793.285 124.754C792.377 124.19 791.876 123.348 791.779 122.227H794.977C795.059 122.571 795.193 122.819 795.379 122.97C795.695 123.238 796.228 123.372 796.978 123.372C798.036 123.372 798.745 123.018 799.102 122.31C799.336 121.856 799.453 121.093 799.453 120.02V119.298C799.171 119.78 798.868 120.14 798.545 120.381C797.961 120.828 797.201 121.052 796.266 121.052C794.822 121.052 793.667 120.546 792.8 119.535C791.941 118.518 791.511 117.143 791.511 115.41C791.511 113.739 791.927 112.336 792.759 111.202C793.591 110.06 794.77 109.49 796.297 109.49ZM810.159 118.927C811.018 118.927 811.678 118.621 812.139 118.009C812.6 117.397 812.83 116.527 812.83 115.399C812.83 114.272 812.6 113.405 812.139 112.8C811.678 112.188 811.018 111.882 810.159 111.882C809.299 111.882 808.636 112.188 808.168 112.8C807.708 113.405 807.477 114.272 807.477 115.399C807.477 116.527 807.708 117.397 808.168 118.009C808.636 118.621 809.299 118.927 810.159 118.927ZM815.914 115.399C815.914 117.05 815.44 118.463 814.491 119.639C813.542 120.807 812.101 121.392 810.169 121.392C808.237 121.392 806.796 120.807 805.848 119.639C804.899 118.463 804.424 117.05 804.424 115.399C804.424 113.777 804.899 112.371 805.848 111.181C806.796 109.991 808.237 109.397 810.169 109.397C812.101 109.397 813.542 109.991 814.491 111.181C815.44 112.371 815.914 113.777 815.914 115.399ZM824.134 109.49C824.189 109.49 824.234 109.493 824.268 109.5C824.31 109.5 824.396 109.503 824.526 109.51V112.522C824.341 112.501 824.176 112.487 824.031 112.481C823.887 112.474 823.77 112.47 823.681 112.47C822.498 112.47 821.704 112.855 821.298 113.625C821.071 114.059 820.958 114.726 820.958 115.626V121H817.998V109.758H820.803V111.717C821.257 110.968 821.652 110.456 821.989 110.181C822.539 109.72 823.254 109.49 824.134 109.49ZM829.281 108.417H826.3V105.704H829.281V108.417ZM826.3 109.758H829.281V121H826.3V109.758ZM830.983 111.955V109.861H832.551V106.725H835.459V109.861H837.285V111.955H835.459V117.895C835.459 118.356 835.518 118.645 835.635 118.762C835.751 118.872 836.109 118.927 836.707 118.927C836.797 118.927 836.889 118.927 836.986 118.927C837.089 118.92 837.189 118.913 837.285 118.906V121.103L835.892 121.155C834.503 121.203 833.555 120.962 833.046 120.433C832.716 120.096 832.551 119.577 832.551 118.875V111.955H830.983ZM845.371 109.469C846.065 109.469 846.695 109.589 847.258 109.83C847.829 110.071 848.297 110.438 848.661 110.933C848.971 111.353 849.16 111.786 849.228 112.233C849.297 112.673 849.332 113.395 849.332 114.399V121H846.33V114.162C846.33 113.557 846.227 113.069 846.021 112.697C845.753 112.175 845.244 111.913 844.494 111.913C843.717 111.913 843.126 112.175 842.72 112.697C842.321 113.213 842.122 113.952 842.122 114.915V121H839.193V105.849H842.122V111.222C842.548 110.569 843.04 110.115 843.597 109.861C844.161 109.6 844.752 109.469 845.371 109.469ZM864.648 109.51C865.143 109.51 865.631 109.606 866.113 109.799C866.594 109.991 867.03 110.328 867.422 110.81C867.739 111.202 867.952 111.683 868.062 112.254C868.131 112.632 868.165 113.185 868.165 113.914L868.144 121H865.133V113.842C865.133 113.416 865.064 113.065 864.926 112.79C864.665 112.267 864.184 112.006 863.482 112.006C862.671 112.006 862.111 112.343 861.801 113.017C861.643 113.374 861.564 113.804 861.564 114.306V121H858.604V114.306C858.604 113.639 858.535 113.154 858.398 112.852C858.15 112.309 857.665 112.037 856.943 112.037C856.104 112.037 855.541 112.309 855.252 112.852C855.094 113.161 855.015 113.622 855.015 114.234V121H852.034V109.778H854.891V111.418C855.255 110.834 855.599 110.418 855.922 110.17C856.493 109.73 857.232 109.51 858.14 109.51C858.999 109.51 859.694 109.699 860.223 110.077C860.65 110.428 860.973 110.878 861.193 111.429C861.578 110.768 862.056 110.284 862.626 109.974C863.231 109.665 863.905 109.51 864.648 109.51ZM873.167 117.411C873.229 117.933 873.363 118.305 873.57 118.525C873.934 118.917 874.608 119.113 875.591 119.113C876.169 119.113 876.626 119.027 876.963 118.855C877.307 118.683 877.479 118.425 877.479 118.081C877.479 117.751 877.341 117.5 877.066 117.328C876.791 117.156 875.77 116.861 874.003 116.441C872.731 116.125 871.833 115.73 871.311 115.255C870.788 114.788 870.527 114.114 870.527 113.234C870.527 112.195 870.933 111.305 871.744 110.562C872.562 109.813 873.711 109.438 875.189 109.438C876.592 109.438 877.733 109.72 878.613 110.284C879.5 110.841 880.009 111.807 880.14 113.182H877.2C877.159 112.804 877.052 112.505 876.88 112.285C876.557 111.886 876.007 111.686 875.23 111.686C874.591 111.686 874.133 111.786 873.858 111.986C873.59 112.185 873.456 112.419 873.456 112.687C873.456 113.024 873.601 113.268 873.889 113.419C874.178 113.577 875.199 113.849 876.953 114.234C878.122 114.509 878.998 114.925 879.583 115.482C880.16 116.046 880.449 116.751 880.449 117.596C880.449 118.71 880.033 119.621 879.201 120.33C878.376 121.031 877.097 121.382 875.364 121.382C873.597 121.382 872.291 121.01 871.445 120.268C870.606 119.518 870.187 118.566 870.187 117.411H873.167Z" fill="#56D7D4"/>
<path d="M529.294 168.074H409.857C406.543 168.074 403.857 170.761 403.857 174.074V198.239C403.857 201.553 406.543 204.239 409.857 204.239H529.294C532.608 204.239 535.294 201.553 535.294 198.239V174.074C535.294 170.761 532.608 168.074 529.294 168.074Z" fill="#31CECA"/>
<path d="M445.056 190.824H450.624V193.254H441.857V180.153H445.056V190.824Z" fill="white"/>
<path d="M457.387 193.254C457.277 193.056 457.18 192.765 457.095 192.381C456.53 193.083 455.74 193.434 454.726 193.434C453.796 193.434 453.006 193.158 452.356 192.606C451.706 192.048 451.381 191.349 451.381 190.509C451.381 189.454 451.776 188.656 452.566 188.116C453.355 187.576 454.504 187.306 456.011 187.306H456.958V186.793C456.958 185.9 456.567 185.453 455.783 185.453C455.054 185.453 454.689 185.807 454.689 186.515H451.618C451.618 185.573 452.022 184.808 452.83 184.22C453.644 183.632 454.68 183.338 455.938 183.338C457.195 183.338 458.189 183.641 458.918 184.247C459.647 184.853 460.021 185.684 460.039 186.74V191.049C460.051 191.943 460.191 192.627 460.458 193.101V193.254H457.387ZM455.464 191.274C455.847 191.274 456.162 191.193 456.412 191.031C456.667 190.869 456.849 190.686 456.958 190.482V188.926H456.065C454.996 188.926 454.461 189.4 454.461 190.347C454.461 190.623 454.555 190.848 454.744 191.022C454.932 191.19 455.172 191.274 455.464 191.274Z" fill="white"/>
<path d="M470.902 188.467C470.902 190.063 470.568 191.289 469.9 192.147C469.231 193.005 468.29 193.434 467.074 193.434C466.072 193.434 465.264 193.041 464.65 192.255L464.523 193.254H461.77V179.434H464.842V184.301C465.413 183.659 466.151 183.338 467.056 183.338C468.284 183.338 469.231 183.773 469.9 184.643C470.568 185.513 470.902 186.737 470.902 188.314V188.467ZM467.822 188.278C467.822 187.342 467.694 186.677 467.439 186.281C467.19 185.879 466.804 185.678 466.282 185.678C465.589 185.678 465.109 185.939 464.842 186.461V190.329C465.103 190.845 465.589 191.103 466.3 191.103C467.023 191.103 467.482 190.755 467.676 190.06C467.773 189.718 467.822 189.124 467.822 188.278Z" fill="white"/>
<path d="M477.036 193.434C475.523 193.434 474.299 192.99 473.363 192.102C472.427 191.208 471.959 190.048 471.959 188.62V188.368C471.959 187.372 472.145 186.494 472.515 185.732C472.892 184.97 473.439 184.382 474.156 183.968C474.873 183.548 475.723 183.338 476.708 183.338C478.093 183.338 479.186 183.764 479.988 184.616C480.79 185.462 481.191 186.644 481.191 188.161V189.34H475.085C475.195 189.886 475.435 190.314 475.805 190.626C476.176 190.938 476.656 191.094 477.245 191.094C478.217 191.094 478.977 190.758 479.524 190.087L480.927 191.724C480.544 192.246 480.001 192.663 479.296 192.975C478.597 193.281 477.844 193.434 477.036 193.434ZM476.689 185.678C475.79 185.678 475.255 186.266 475.085 187.441H478.184V187.207C478.196 186.722 478.072 186.347 477.81 186.083C477.549 185.813 477.175 185.678 476.689 185.678Z" fill="white"/>
<path d="M485.675 193.254H482.595V179.434H485.675V193.254Z" fill="white"/>
<path d="M496.074 188.035H490.916V193.254H487.717V180.153H496.593V182.592H490.916V185.606H496.074V188.035Z" fill="white"/>
<path d="M501.023 193.254H497.942V179.434H501.023V193.254Z" fill="white"/>
<path d="M502.535 188.296C502.535 187.324 502.727 186.461 503.11 185.705C503.492 184.943 504.042 184.358 504.759 183.95C505.476 183.542 506.318 183.338 507.284 183.338C508.76 183.338 509.924 183.791 510.774 184.697C511.625 185.597 512.05 186.823 512.05 188.377V188.485C512.05 190.003 511.622 191.208 510.765 192.102C509.914 192.99 508.76 193.434 507.302 193.434C505.898 193.434 504.771 193.02 503.921 192.192C503.07 191.358 502.611 190.231 502.545 188.809L502.535 188.296ZM505.607 188.485C505.607 189.385 505.75 190.045 506.035 190.464C506.321 190.884 506.743 191.094 507.302 191.094C508.396 191.094 508.955 190.263 508.979 188.602V188.296C508.979 186.551 508.414 185.678 507.284 185.678C506.257 185.678 505.701 186.431 505.616 187.936L505.607 188.485Z" fill="white"/>
<path d="M521.92 189.259L522.913 183.518H525.857L523.533 193.254H520.936L519.305 187.477L517.664 193.254H515.067L512.743 183.518H515.686L516.662 189.394L518.229 183.518H520.371L521.92 189.259Z" fill="white"/>
<path fill-rule="evenodd" clip-rule="evenodd" d="M425.134 174.444C425.317 174.419 425.503 174.439 425.676 174.5L435.08 177.803C435.308 177.883 435.506 178.031 435.645 178.227C435.785 178.423 435.859 178.657 435.857 178.896L435.813 188.764C435.812 188.947 435.768 189.126 435.683 189.288C435.598 189.449 435.475 189.588 435.325 189.692L423.042 198.227C422.868 198.348 422.664 198.418 422.452 198.431C422.24 198.444 422.028 198.399 421.839 198.301C421.65 198.202 421.492 198.054 421.382 197.873C421.272 197.692 421.215 197.485 421.216 197.274L421.256 188.225L412.634 185.196C412.433 185.125 412.256 185.001 412.121 184.838C411.986 184.674 411.898 184.477 411.869 184.268C411.839 184.06 411.867 183.847 411.952 183.654C412.036 183.461 412.172 183.295 412.345 183.175L424.628 174.64C424.778 174.535 424.952 174.468 425.134 174.444ZM431.293 183.965C432.236 183.31 432.463 182.024 431.801 181.092C431.139 180.161 429.838 179.936 428.896 180.591C427.954 181.245 427.727 182.531 428.389 183.463C429.051 184.395 430.351 184.619 431.293 183.965Z" fill="#EBF8FF"/>
<path d="M728 226.772L735.05 222.051L730.329 215" stroke="#A0E8E7" stroke-width="2" stroke-linecap="round" stroke-linejoin="round"/>
<path fill-rule="evenodd" clip-rule="evenodd" d="M680.675 211.77L734.797 222.979C735.338 223.091 735.867 222.744 735.979 222.203C736.091 221.662 735.744 221.133 735.203 221.021L681.169 209.83C681.029 210.487 680.864 211.134 680.675 211.77ZM630.906 201.463C630.985 200.796 631.09 200.136 631.219 199.486L566.203 186.021C565.662 185.909 565.133 186.256 565.021 186.797C564.909 187.338 565.256 187.867 565.797 187.979L630.906 201.463Z" fill="#A0E8E7"/>
<path d="M570.884 236.941L566.172 229.884L573.229 225.172" stroke="#A0E8E7" stroke-width="2" stroke-linecap="round" stroke-linejoin="round"/>
<path fill-rule="evenodd" clip-rule="evenodd" d="M679.19 253.418L728.778 263.296C729.32 263.404 729.846 263.053 729.954 262.511C730.062 261.969 729.71 261.443 729.169 261.335L680.207 251.581C679.912 252.208 679.572 252.821 679.19 253.418ZM624.907 242.604C625.054 241.952 625.248 241.31 625.487 240.681L568.329 229.294C567.787 229.186 567.261 229.538 567.153 230.079C567.045 230.621 567.397 231.148 567.938 231.256L624.907 242.604Z" fill="#A0E8E7"/>
<path d="M640.201 258.581L640.819 256.624C640.396 256.602 640.061 256.459 639.813 256.198C639.573 255.946 639.396 255.623 639.28 255.23C639.164 254.836 639.098 254.401 639.084 253.923C639.077 253.455 639.095 252.994 639.138 252.539L639.332 250.478C639.426 249.476 639.265 248.568 638.848 247.755C638.432 246.942 637.72 246.285 636.713 245.782C637.788 245.475 638.606 244.957 639.168 244.228C639.738 243.499 640.07 242.634 640.164 241.631L640.358 239.571C640.401 239.116 640.453 238.657 640.513 238.195C640.583 237.726 640.699 237.307 640.861 236.94C641.023 236.573 641.254 236.288 641.553 236.087C641.854 235.877 642.26 235.805 642.772 235.87L642.529 233.846C641.712 233.769 640.994 233.858 640.375 234.114C639.755 234.371 639.242 234.726 638.833 235.181C638.342 235.704 637.959 236.34 637.685 237.087C637.411 237.827 637.241 238.555 637.173 239.271L636.979 241.331C636.872 242.469 636.534 243.257 635.966 243.697C635.398 244.136 634.578 244.306 633.508 244.205L633.27 246.733C634.34 246.833 635.114 247.153 635.59 247.691C636.066 248.229 636.252 249.058 636.146 250.179L635.952 252.239C635.89 252.904 635.914 253.591 636.026 254.299C636.146 255.016 636.381 255.684 636.73 256.303C637.057 256.895 637.507 257.401 638.079 257.82C638.66 258.249 639.367 258.502 640.201 258.581ZM663.797 258.787L664.039 260.825C664.873 260.903 665.611 260.79 666.251 260.485C666.9 260.189 667.441 259.768 667.875 259.222C668.307 258.702 668.653 258.097 668.913 257.407C669.173 256.718 669.335 256.044 669.396 255.387L669.59 253.327C669.628 252.931 669.69 252.58 669.779 252.273C669.876 251.959 669.999 251.69 670.148 251.466C670.425 251.05 670.805 250.767 671.286 250.617C671.769 250.459 672.36 250.412 673.059 250.478L673.297 247.95C672.673 247.891 672.146 247.761 671.714 247.559C671.291 247.358 670.974 247.073 670.762 246.704C670.6 246.434 670.49 246.113 670.432 245.742C670.382 245.372 670.379 244.951 670.423 244.479L670.617 242.419C670.677 241.778 670.66 241.109 670.564 240.412C670.477 239.707 670.275 239.058 669.956 238.467C669.626 237.816 669.171 237.28 668.59 236.86C668.01 236.431 667.269 236.174 666.367 236.089L665.751 238.033C666.266 238.065 666.652 238.212 666.908 238.474C667.165 238.727 667.338 239.05 667.429 239.441C667.52 239.832 667.551 240.264 667.524 240.738C667.505 241.204 667.475 241.664 667.432 242.119L667.238 244.179C667.183 244.761 667.211 245.32 667.322 245.858C667.434 246.387 667.639 246.878 667.936 247.331C668.137 247.639 668.382 247.925 668.671 248.191C668.961 248.456 669.3 248.692 669.688 248.898C669.171 249.062 668.717 249.279 668.327 249.548C667.945 249.81 667.618 250.119 667.347 250.476C667.075 250.833 666.86 251.225 666.7 251.652C666.55 252.08 666.451 252.538 666.405 253.027L666.211 255.087C666.168 255.542 666.096 255.999 665.993 256.456C665.89 256.923 665.744 257.338 665.557 257.703C665.37 258.068 665.13 258.352 664.839 258.554C664.556 258.765 664.209 258.843 663.797 258.787Z" fill="#56D7D4"/>
<path d="M653.184 244.457C655.238 244.533 656.969 242.775 657.052 240.53C657.135 238.286 655.538 236.405 653.484 236.329C651.431 236.253 649.699 238.011 649.616 240.256C649.533 242.5 651.131 244.381 653.184 244.457Z" fill="#31CECA"/>
<path d="M646.704 251.916C646.818 248.829 647.938 246.135 649.565 244.519C650.493 245.469 651.738 246.071 653.123 246.122C654.508 246.173 655.793 245.665 656.789 244.786C658.292 246.517 659.211 249.287 659.097 252.374C658.927 257.248 646.523 256.551 646.704 251.916Z" fill="#31CECA"/>
<path d="M752.9 41.125H757.8V70.375H752.9C752.256 70.3758 751.619 70.2502 751.024 70.0055C750.429 69.7607 749.889 69.4017 749.433 68.9488C748.978 68.496 748.617 67.9583 748.371 67.3665C748.125 66.7747 747.999 66.1404 748 65.5V46C747.999 45.3596 748.125 44.7253 748.371 44.1335C748.617 43.5417 748.978 43.004 749.433 42.5512C749.889 42.0983 750.429 41.7393 751.024 41.4945C751.619 41.2498 752.256 41.1242 752.9 41.125ZM831.3 33.8125V75.25C831.297 77.8351 830.264 80.3136 828.427 82.1415C826.59 83.9694 824.098 84.9975 821.5 85H772.5C769.902 84.9975 767.41 83.9694 765.573 82.1415C763.736 80.3136 762.703 77.8351 762.7 75.25V33.8125C762.699 32.2119 763.016 30.6268 763.631 29.1479C764.247 27.669 765.149 26.3253 766.287 25.1935C767.424 24.0617 768.775 23.164 770.262 22.5517C771.748 21.9394 773.341 21.6245 774.95 21.625H792.1V11.875C792.1 10.5821 792.616 9.34209 793.535 8.42785C794.454 7.51361 795.7 7 797 7C798.3 7 799.546 7.51361 800.465 8.42785C801.384 9.34209 801.9 10.5821 801.9 11.875V21.625H819.05C820.659 21.6245 822.252 21.9394 823.738 22.5517C825.225 23.164 826.576 24.0617 827.713 25.1935C828.851 26.3253 829.753 27.669 830.369 29.1479C830.984 30.6268 831.301 32.2119 831.3 33.8125ZM788.425 46C788.425 44.7948 788.066 43.6166 787.393 42.6145C786.72 41.6124 785.763 40.8313 784.644 40.3701C783.525 39.9089 782.293 39.7882 781.105 40.0233C779.917 40.2585 778.826 40.8388 777.969 41.6911C777.112 42.5433 776.529 43.6291 776.293 44.8112C776.056 45.9932 776.178 47.2185 776.641 48.332C777.105 49.4455 777.89 50.3972 778.897 51.0668C779.904 51.7364 781.089 52.0938 782.3 52.0938C783.104 52.0938 783.901 51.9362 784.644 51.63C785.387 51.3238 786.062 50.8749 786.631 50.3091C787.2 49.7432 787.651 49.0714 787.959 48.332C788.267 47.5927 788.425 46.8003 788.425 46ZM787.2 65.5L777.4 63.3028V68.1778L787.2 70.375V65.5ZM801.9 65.5H792.1V70.375H801.9V65.5ZM817.825 46C817.825 44.7948 817.466 43.6166 816.793 42.6145C816.12 41.6124 815.163 40.8313 814.044 40.3701C812.925 39.9089 811.693 39.7882 810.505 40.0233C809.317 40.2585 808.226 40.8388 807.369 41.6911C806.512 42.5433 805.929 43.6291 805.693 44.8112C805.456 45.9932 805.578 47.2185 806.041 48.332C806.505 49.4455 807.29 50.3972 808.297 51.0668C809.304 51.7364 810.489 52.0938 811.7 52.0938C812.504 52.0938 813.301 51.9362 814.044 51.63C814.787 51.3238 815.462 50.8749 816.031 50.3091C816.6 49.7432 817.051 49.0714 817.359 48.332C817.667 47.5927 817.825 46.8003 817.825 46ZM816.6 63.3028L806.8 65.5V70.375L816.6 68.1778V63.3028ZM846 46V65.5C846.001 66.1404 845.875 66.7747 845.629 67.3665C845.383 67.9583 845.022 68.496 844.567 68.9488C844.111 69.4017 843.571 69.7607 842.976 70.0055C842.381 70.2502 841.744 70.3758 841.1 70.375H836.2V41.125H841.1C841.744 41.1242 842.381 41.2498 842.976 41.4945C843.571 41.7393 844.111 42.0983 844.567 42.5512C845.022 43.004 845.383 43.5417 845.629 44.1335C845.875 44.7253 846.001 45.3596 846 46Z" fill="url(#paint2_linear)" stroke="#56D7D4" stroke-width="2" stroke-linecap="round" stroke-linejoin="round"/>
<path d="M110.594 169.596C117.416 169.596 122.949 164.314 122.949 157.798C122.949 151.282 117.416 146 110.594 146C103.769 146 98.2363 151.282 98.2363 157.798C98.2363 164.314 103.769 169.596 110.594 169.596Z" fill="#31CECA"/>
<path d="M90 191.913C90 182.952 93.3876 175.02 98.5885 170.163C101.787 172.818 105.988 174.429 110.594 174.429C115.198 174.429 119.399 172.818 122.597 170.163C127.798 175.02 131.185 182.952 131.185 191.913C131.219 206.063 89.9668 205.369 90 191.913Z" fill="#31CECA"/>
<mask id="mask0" mask-type="alpha" maskUnits="userSpaceOnUse" x="21" y="99" width="158" height="110">
<path d="M53.6261 125.686L29.9156 129.402C26.0962 130.001 23.4853 133.583 24.0839 137.402L33.9934 200.63C34.592 204.449 38.1735 207.06 41.9928 206.462L65.7034 202.746C69.5228 202.147 72.1337 198.566 71.5351 194.746L61.6256 131.518C61.027 127.699 57.4455 125.088 53.6261 125.686Z" stroke="#56D7D4" stroke-width="2"/>
<path d="M37.7595 134.246L47.6389 132.698" stroke="#56D7D4" stroke-width="2" stroke-linecap="round" stroke-linejoin="round"/>
<mask id="mask1" maskUnits="userSpaceOnUse" x="43" y="92" width="152" height="118">
<path fill-rule="evenodd" clip-rule="evenodd" d="M194.81 92.0742H43.8103V122.986L55.8794 121.094C60.2443 120.41 64.3375 123.394 65.0216 127.759L75.4247 194.137C76.1088 198.502 73.1249 202.595 68.7599 203.28L43.8103 207.19V209.075H194.81V92.0742Z" fill="#C4C4C4"/>
</mask>
<g mask="url(#mask1)">
<path fill-rule="evenodd" clip-rule="evenodd" d="M69.0153 100.98C63.5152 100.48 58.6509 104.533 58.1508 110.033L52.7169 169.786C52.2167 175.287 56.27 180.151 61.7702 180.651L161.359 189.707C166.859 190.207 171.723 186.154 172.224 180.654L177.657 120.901C178.158 115.401 174.104 110.536 168.604 110.036L69.0153 100.98ZM96.9452 114.063C94.7452 113.863 92.7995 115.484 92.5994 117.684C92.3993 119.884 94.0206 121.83 96.2207 122.03C98.4208 122.23 100.367 120.609 100.567 118.409C100.767 116.209 99.1453 114.263 96.9452 114.063ZM80.6487 116.597C80.8488 114.397 82.7945 112.776 84.9945 112.976C87.1946 113.176 88.8159 115.122 88.6158 117.322C88.4158 119.522 86.4701 121.143 84.27 120.943C82.07 120.743 80.4486 118.798 80.6487 116.597ZM73.0438 111.889C70.8438 111.689 68.8981 113.311 68.698 115.511C68.498 117.711 70.1193 119.656 72.3193 119.857C74.5194 120.057 76.4651 118.435 76.6652 116.235C76.8652 114.035 75.2439 112.089 73.0438 111.889Z" fill="url(#paint3_linear)" fill-opacity="0.5"/>
<path d="M59.1467 110.124C59.5968 105.173 63.9746 101.525 68.9248 101.976L69.1059 99.9839C63.0557 99.4337 57.7051 103.892 57.1549 109.943L59.1467 110.124ZM53.7128 169.877L59.1467 110.124L57.1549 109.943L51.721 169.696L53.7128 169.877ZM61.8607 179.655C56.9106 179.205 53.2626 174.827 53.7128 169.877L51.721 169.696C51.1708 175.746 55.6294 181.097 61.6796 181.647L61.8607 179.655ZM161.45 188.712L61.8607 179.655L61.6796 181.647L161.268 190.703L161.45 188.712ZM171.228 180.564C170.778 185.514 166.4 189.162 161.45 188.712L161.268 190.703C167.319 191.253 172.669 186.795 173.219 180.745L171.228 180.564ZM176.662 120.81L171.228 180.564L173.219 180.745L178.653 120.991L176.662 120.81ZM168.514 111.032C173.464 111.482 177.112 115.86 176.662 120.81L178.653 120.991C179.204 114.941 174.745 109.59 168.695 109.04L168.514 111.032ZM68.9248 101.976L168.514 111.032L168.695 109.04L69.1059 99.9839L68.9248 101.976ZM93.5953 117.775C93.7453 116.125 95.2046 114.909 96.8547 115.059L97.0358 113.067C94.2857 112.817 91.8536 114.844 91.6035 117.594L93.5953 117.775ZM96.3113 121.034C94.6612 120.884 93.4452 119.425 93.5953 117.775L91.6035 117.594C91.3534 120.344 93.3801 122.776 96.1301 123.026L96.3113 121.034ZM99.5706 118.318C99.4206 119.968 97.9613 121.184 96.3113 121.034L96.1301 123.026C98.8802 123.276 101.312 121.249 101.562 118.499L99.5706 118.318ZM96.8547 115.059C98.5047 115.209 99.7207 116.668 99.5706 118.318L101.562 118.499C101.813 115.749 99.7859 113.317 97.0358 113.067L96.8547 115.059ZM85.0851 111.98C82.335 111.73 79.9029 113.757 79.6528 116.507L81.6446 116.688C81.7947 115.038 83.2539 113.822 84.904 113.972L85.0851 111.98ZM89.6117 117.413C89.8618 114.662 87.8352 112.23 85.0851 111.98L84.904 113.972C86.554 114.122 87.77 115.581 87.6199 117.232L89.6117 117.413ZM84.1795 121.939C86.9295 122.189 89.3616 120.163 89.6117 117.413L87.6199 117.232C87.4699 118.882 86.0106 120.098 84.3606 119.948L84.1795 121.939ZM79.6528 116.507C79.4027 119.257 81.4294 121.689 84.1795 121.939L84.3606 119.948C82.7105 119.797 81.4946 118.338 81.6446 116.688L79.6528 116.507ZM69.6939 115.601C69.844 113.951 71.3032 112.735 72.9533 112.885L73.1344 110.894C70.3843 110.643 67.9522 112.67 67.7021 115.42L69.6939 115.601ZM72.4099 118.861C70.7599 118.711 69.5439 117.251 69.6939 115.601L67.7021 115.42C67.4521 118.17 69.4787 120.602 72.2288 120.852L72.4099 118.861ZM75.6693 116.145C75.5192 117.795 74.0599 119.011 72.4099 118.861L72.2288 120.852C74.9788 121.102 77.411 119.076 77.661 116.326L75.6693 116.145ZM72.9533 112.885C74.6033 113.035 75.8193 114.495 75.6693 116.145L77.661 116.326C77.9111 113.576 75.8845 111.144 73.1344 110.894L72.9533 112.885Z" fill="#56D7D4"/>
</g>
</mask>
<g mask="url(#mask0)">
<path fill-rule="evenodd" clip-rule="evenodd" d="M200.5 94H13V239.5H200.5V94ZM126.949 157.798C126.949 160.973 125.993 163.894 124.362 166.338L125.327 167.24C131.445 172.954 135.184 181.999 135.185 191.909C135.197 197.793 130.831 201.456 126.383 203.431C121.839 205.448 116.075 206.312 110.559 206.265C105.038 206.219 99.2987 205.257 94.7858 203.228C90.4405 201.274 85.9883 197.679 86 191.908C86.0013 181.998 89.7402 172.954 95.8582 167.24L96.8232 166.338C95.1917 163.895 94.2363 160.974 94.2363 157.798C94.2363 148.9 101.737 142 110.594 142C119.449 142 126.949 148.901 126.949 157.798Z" fill="#56D7D4"/>
</g>
<g filter="url(#filter0_d)">
<path fill-rule="evenodd" clip-rule="evenodd" d="M114.692 113.708C114.596 113.667 114.491 113.647 114.386 113.65C114.282 113.654 114.18 113.68 114.089 113.727L106.704 117.576C106.6 117.631 106.515 117.711 106.458 117.808C106.401 117.905 106.375 118.015 106.382 118.126C106.389 118.237 106.429 118.345 106.498 118.437C106.567 118.53 106.662 118.604 106.773 118.652L111.531 120.683L111.08 125.428C111.069 125.539 111.092 125.651 111.146 125.751C111.2 125.852 111.283 125.938 111.386 125.999C111.488 126.06 111.607 126.095 111.728 126.099C111.849 126.103 111.968 126.076 112.073 126.022L119.458 122.173C119.548 122.126 119.625 122.059 119.681 121.979C119.736 121.899 119.77 121.807 119.779 121.711L120.271 116.536C120.283 116.41 120.252 116.284 120.182 116.174C120.112 116.064 120.007 115.976 119.881 115.922L114.692 113.708ZM117.861 117.48C118.194 118.003 118.004 118.666 117.437 118.961C116.871 119.256 116.142 119.072 115.81 118.549C115.478 118.027 115.667 117.363 116.234 117.068C116.8 116.773 117.529 116.957 117.861 117.48ZM124.624 123.569L127.754 123.851L127.623 125.308L122.694 124.864L123.402 117.008L125.2 117.17L124.624 123.569ZM131.424 125.65C131.374 125.526 131.335 125.347 131.308 125.112C130.952 125.504 130.489 125.675 129.919 125.623C129.396 125.576 128.967 125.371 128.631 125.007C128.296 124.639 128.151 124.204 128.196 123.7C128.253 123.067 128.519 122.609 128.992 122.325C129.465 122.042 130.125 121.938 130.972 122.014L131.505 122.062L131.533 121.755C131.581 121.219 131.385 120.931 130.944 120.891C130.534 120.854 130.31 121.048 130.272 121.472L128.545 121.317C128.596 120.752 128.865 120.314 129.351 120.003C129.84 119.691 130.438 119.568 131.145 119.631C131.852 119.695 132.395 119.927 132.772 120.327C133.149 120.727 133.314 121.244 133.267 121.878L133.034 124.463C132.993 124.999 133.035 125.416 133.159 125.714L133.151 125.806L131.424 125.65ZM130.45 124.366C130.666 124.385 130.847 124.353 130.996 124.268C131.148 124.184 131.261 124.083 131.333 123.967L131.417 123.033L130.915 122.988C130.314 122.934 129.988 123.191 129.937 123.759C129.922 123.925 129.963 124.064 130.059 124.178C130.156 124.289 130.286 124.351 130.45 124.366ZM138.519 125.62C138.941 125.14 139.195 124.421 139.281 123.464L139.289 123.373C139.374 122.427 139.253 121.676 138.924 121.121C138.595 120.565 138.086 120.256 137.396 120.194C136.887 120.148 136.455 120.303 136.099 120.659L136.362 117.741L134.635 117.585L133.889 125.872L135.436 126.012L135.562 125.419C135.864 125.921 136.297 126.198 136.861 126.249C137.544 126.31 138.096 126.101 138.519 125.62ZM137.452 121.978C137.574 122.228 137.61 122.634 137.559 123.195C137.514 123.702 137.454 124.056 137.381 124.256C137.234 124.663 136.958 124.849 136.551 124.812C136.152 124.776 135.892 124.597 135.773 124.274L135.982 121.954C136.161 121.655 136.445 121.523 136.834 121.558C137.128 121.584 137.334 121.724 137.452 121.978ZM142.461 126.753C141.61 126.676 140.946 126.348 140.468 125.769C139.99 125.185 139.79 124.466 139.867 123.61L139.881 123.459C139.934 122.861 140.086 122.344 140.335 121.906C140.588 121.468 140.928 121.143 141.353 120.931C141.779 120.716 142.268 120.633 142.821 120.683C143.6 120.753 144.192 121.064 144.597 121.615C145.002 122.163 145.164 122.892 145.082 123.802L145.018 124.509L141.585 124.2C141.617 124.532 141.729 124.802 141.921 125.007C142.112 125.213 142.373 125.331 142.705 125.361C143.251 125.41 143.696 125.247 144.04 124.872L144.741 125.925C144.497 126.219 144.169 126.441 143.756 126.592C143.347 126.74 142.915 126.794 142.461 126.753ZM142.685 122.085C142.179 122.039 141.847 122.365 141.688 123.061L143.43 123.218L143.442 123.078C143.476 122.787 143.426 122.556 143.293 122.384C143.161 122.209 142.958 122.11 142.685 122.085ZM145.596 126.927L147.327 127.083L148.074 118.796L146.342 118.64L145.596 126.927ZM153.455 124.48L150.555 124.219L150.273 127.348L148.475 127.186L149.182 119.331L154.173 119.78L154.041 121.242L150.849 120.955L150.686 122.762L153.586 123.023L153.455 124.48ZM154.223 127.704L155.955 127.86L156.701 119.573L154.97 119.417L154.223 127.704ZM157.073 124.964C157.126 124.381 157.28 123.873 157.536 123.439C157.792 123.002 158.133 122.679 158.558 122.471C158.983 122.262 159.467 122.183 160.01 122.232C160.84 122.306 161.47 122.637 161.899 123.223C162.329 123.806 162.501 124.563 162.418 125.494L162.412 125.559C162.33 126.469 162.024 127.17 161.494 127.663C160.968 128.152 160.295 128.36 159.475 128.286C158.686 128.215 158.075 127.91 157.641 127.37C157.208 126.827 157.011 126.128 157.051 125.272L157.073 124.964ZM158.789 125.233C158.741 125.772 158.786 126.175 158.923 126.441C159.061 126.708 159.287 126.855 159.601 126.883C160.216 126.939 160.575 126.469 160.679 125.474L160.695 125.29C160.79 124.243 160.519 123.692 159.884 123.634C159.307 123.582 158.953 124.006 158.824 124.904L158.789 125.233ZM168.787 123.131L167.918 126.523L167.358 123.002L166.154 122.894L164.955 126.337L164.724 122.765L163.069 122.616L163.85 128.571L165.31 128.703L166.544 125.322L167.149 128.868L168.609 129L170.442 123.28L168.787 123.131Z" fill="#31CECA"/>
</g>
<rect x="262" y="112" width="31" height="33" rx="4" fill="white" stroke="#56D7D4" stroke-width="2"/>
<path d="M275.934 120.906C275.934 121.942 275.523 122.936 274.79 123.668C274.058 124.401 273.064 124.812 272.028 124.812C270.992 124.812 269.999 124.401 269.266 123.668C268.533 122.936 268.122 121.942 268.122 120.906C268.122 119.87 268.533 118.877 269.266 118.144C269.999 117.412 270.992 117 272.028 117C273.064 117 274.058 117.412 274.79 118.144C275.523 118.877 275.934 119.87 275.934 120.906V120.906ZM282.536 127.239C282.389 127.166 282.224 127.14 282.062 127.166C281.9 127.192 281.75 127.269 281.634 127.384L275.838 134.744L271.681 130.412C271.531 130.313 271.351 130.268 271.172 130.285C270.992 130.303 270.825 130.382 270.697 130.509L265 137.312V140.438C265 140.852 265.165 141.249 265.458 141.542C265.751 141.835 266.148 142 266.562 142H288.438C288.643 142 288.846 141.96 289.035 141.881C289.225 141.803 289.397 141.687 289.542 141.542C289.687 141.397 289.803 141.225 289.881 141.035C289.96 140.846 290 140.643 290 140.438V133.406L282.536 127.239V127.239Z" fill="#31CECA"/>
<path d="M289.812 192.429L295.889 198.505C296.67 199.287 296.67 200.553 295.889 201.334L295.334 201.888C294.553 202.669 293.287 202.669 292.506 201.888L286.43 195.812" stroke="#56D7D4" stroke-width="2" stroke-linejoin="round"/>
<path d="M277 198C285.284 198 292 191.284 292 183C292 174.716 285.284 168 277 168C268.716 168 262 174.716 262 183C262 191.284 268.716 198 277 198Z" stroke="#56D7D4" stroke-width="2" stroke-linecap="round" stroke-linejoin="round"/>
<path d="M285.543 184.183C285.848 184.488 286 184.846 286 185.257C286 185.668 285.848 186.014 285.543 186.296L280.309 191.577C280.005 191.859 279.648 192 279.238 192C278.828 192 278.482 191.859 278.201 191.577L271.457 184.817C271.152 184.512 271 184.16 271 183.761V178.479C271 178.08 271.146 177.734 271.439 177.44C271.732 177.147 272.089 177 272.511 177H277.745C278.166 177 278.518 177.141 278.799 177.423L285.543 184.183ZM273.617 180.732C273.933 180.732 274.203 180.627 274.425 180.415C274.648 180.204 274.759 179.94 274.759 179.623C274.759 179.306 274.648 179.036 274.425 178.813C274.203 178.59 273.933 178.479 273.617 178.479C273.301 178.479 273.037 178.59 272.827 178.813C272.616 179.036 272.511 179.306 272.511 179.623C272.511 179.94 272.616 180.204 272.827 180.415C273.037 180.627 273.301 180.732 273.617 180.732Z" fill="#56D7D4"/>
</g>
<defs>
<filter id="filter0_d" x="96.3806" y="104.65" width="84.0612" height="35.3501" filterUnits="userSpaceOnUse" color-interpolation-filters="sRGB">
<feFlood flood-opacity="0" result="BackgroundImageFix"/>
<feColorMatrix in="SourceAlpha" type="matrix" values="0 0 0 0 0 0 0 0 0 0 0 0 0 0 0 0 0 0 127 0"/>
<feOffset dy="1"/>
<feGaussianBlur stdDeviation="5"/>
<feColorMatrix type="matrix" values="0 0 0 0 1 0 0 0 0 1 0 0 0 0 1 0 0 0 1 0"/>
<feBlend mode="normal" in2="BackgroundImageFix" result="effect1_dropShadow"/>
<feBlend mode="normal" in="SourceGraphic" in2="effect1_dropShadow" result="shape"/>
</filter>
<linearGradient id="paint0_linear" x1="845.857" y1="242.698" x2="803.27" y2="232.418" gradientUnits="userSpaceOnUse">
<stop stop-color="#C5F1F0"/>
<stop offset="1" stop-color="#C5F1F0" stop-opacity="0"/>
</linearGradient>
<linearGradient id="paint1_linear" x1="506" y1="134" x2="378.5" y2="131" gradientUnits="userSpaceOnUse">
<stop stop-color="#C5F1F0"/>
<stop offset="1" stop-color="white"/>
</linearGradient>
<linearGradient id="paint2_linear" x1="827.5" y1="34" x2="773.093" y2="73.5187" gradientUnits="userSpaceOnUse">
<stop stop-color="#EAFAFA"/>
<stop offset="1" stop-color="#EAFAFA" stop-opacity="0"/>
</linearGradient>
<linearGradient id="paint3_linear" x1="178.859" y1="122.074" x2="111.565" y2="185.179" gradientUnits="userSpaceOnUse">
<stop stop-color="#C5F1F0"/>
<stop offset="1" stop-color="#C5F1F0" stop-opacity="0"/>
</linearGradient>
<clipPath id="clip0">
<rect width="897" height="342" fill="white"/>
</clipPath>
</defs>
</svg>
