<svg width="25" height="25" viewBox="0 0 25 25" fill="none" xmlns="http://www.w3.org/2000/svg">
<path fill-rule="evenodd" clip-rule="evenodd" d="M1.32399 1.87721C0.761383 2.43982 0.445312 3.20289 0.445312 3.99854V21.9985C0.445312 22.7942 0.761383 23.5572 1.32399 24.1199C1.8866 24.6825 2.64966 24.9985 3.44531 24.9985H21.4453C22.241 24.9985 23.004 24.6825 23.5666 24.1199C24.1292 23.5572 24.4453 22.7942 24.4453 21.9985V3.99854C24.4453 3.20289 24.1292 2.43982 23.5666 1.87721C23.004 1.31461 22.241 0.998535 21.4453 0.998535H3.44531C2.64966 0.998535 1.8866 1.31461 1.32399 1.87721ZM16.9453 6.99854H22.9453V11.4985H16.9453V6.99854ZM16.9453 12.9985H22.9453V17.4985H16.9453V12.9985ZM16.9453 18.9985H22.9453V21.9985C22.9453 22.3964 22.7873 22.7779 22.506 23.0592C22.2247 23.3405 21.8431 23.4985 21.4453 23.4985H16.9453V18.9985ZM15.4453 18.9985V23.4985H9.44531V18.9985H15.4453ZM7.94531 18.9985V23.4985H3.44531C3.04749 23.4985 2.66596 23.3405 2.38465 23.0592C2.10335 22.7779 1.94531 22.3964 1.94531 21.9985V18.9985H7.94531ZM7.94531 17.4985H1.94531V12.9985H7.94531V17.4985ZM7.94531 11.4985H1.94531V6.99854H7.94531V11.4985ZM9.44531 11.4985V6.99854H15.4453V11.4985H9.44531ZM9.44531 12.9985H15.4453V17.4985H9.44531V12.9985ZM9.8457 3.41784H10.5318C10.5037 3.2087 10.4438 3.02281 10.352 2.86014C10.2615 2.69626 10.146 2.55806 10.0053 2.44554C9.86466 2.3318 9.70444 2.24558 9.52466 2.18687C9.34488 2.12817 9.15042 2.09881 8.94128 2.09881C8.61351 2.09881 8.31999 2.17525 8.06071 2.32813C7.80143 2.48101 7.59657 2.70176 7.44614 2.9904C7.29571 3.2778 7.22049 3.62392 7.22049 4.02874C7.22049 4.43233 7.2951 4.77845 7.4443 5.06708C7.59351 5.35571 7.79776 5.57647 8.05704 5.72935C8.31632 5.88222 8.61106 5.95866 8.94128 5.95866C9.16509 5.95866 9.36872 5.92564 9.55218 5.8596C9.73563 5.79233 9.89585 5.69938 10.0328 5.58075C10.1698 5.46089 10.2805 5.32269 10.3649 5.16615C10.4505 5.0096 10.5061 4.84205 10.5318 4.66348L9.8457 4.65982C9.82491 4.76989 9.787 4.86773 9.73196 4.95334C9.67815 5.03895 9.61149 5.11111 9.532 5.16981C9.45372 5.22852 9.36506 5.27316 9.26599 5.30374C9.16815 5.33309 9.06297 5.34776 8.95045 5.34776C8.74743 5.34776 8.56704 5.29823 8.40927 5.19917C8.25272 5.09888 8.12919 4.95089 8.03869 4.75521C7.94941 4.55831 7.90477 4.31615 7.90477 4.02874C7.90477 3.74622 7.94941 3.50712 8.03869 3.31144C8.12797 3.11453 8.2515 2.96532 8.40927 2.86381C8.56704 2.76108 8.74804 2.70971 8.95229 2.70971C9.06725 2.70971 9.17426 2.72561 9.27333 2.75741C9.37362 2.78799 9.4629 2.83385 9.54117 2.895C9.61944 2.95615 9.68487 3.03075 9.73746 3.11881C9.79005 3.20565 9.82613 3.30532 9.8457 3.41784ZM12.9805 2.80878C13.1076 2.89806 13.1798 3.02281 13.1969 3.18302H13.8519C13.8482 2.97144 13.7889 2.78432 13.6739 2.62165C13.5589 2.45777 13.4006 2.32996 13.1988 2.23824C12.9982 2.14529 12.7646 2.09881 12.498 2.09881C12.235 2.09881 11.9996 2.14529 11.7917 2.23824C11.5838 2.32996 11.4193 2.45899 11.2982 2.62532C11.1783 2.79165 11.1184 2.9855 11.1184 3.20687C11.1184 3.47593 11.2077 3.6918 11.3862 3.85446C11.566 4.0159 11.8106 4.13636 12.1201 4.21586L12.5475 4.32593C12.682 4.36018 12.7994 4.39931 12.8997 4.44334C13.0012 4.48615 13.0801 4.53996 13.1364 4.60478C13.1926 4.66838 13.2214 4.7491 13.2226 4.84694C13.2214 4.95456 13.189 5.04874 13.1254 5.12946C13.0618 5.20895 12.9737 5.27133 12.8612 5.31658C12.7499 5.36061 12.6203 5.38262 12.4723 5.38262C12.3304 5.38262 12.202 5.36122 12.087 5.31841C11.9733 5.27561 11.881 5.21079 11.81 5.12395C11.7391 5.03712 11.6987 4.92827 11.6889 4.79741H11.0193C11.0291 5.0469 11.0939 5.25848 11.2138 5.43215C11.3349 5.60582 11.5024 5.73791 11.7165 5.82841C11.9317 5.91891 12.1855 5.96417 12.4778 5.96417C12.7787 5.96417 13.0349 5.91769 13.2465 5.82474C13.4593 5.73057 13.6219 5.60032 13.7344 5.43399C13.847 5.26643 13.9032 5.07258 13.9032 4.85244C13.9032 4.68978 13.8726 4.54791 13.8115 4.42683C13.7503 4.30575 13.6672 4.20241 13.562 4.1168C13.458 4.03118 13.34 3.96025 13.2079 3.90399C13.0771 3.84773 12.9407 3.80309 12.7988 3.77007L12.4466 3.68201C12.3696 3.66367 12.2931 3.64104 12.2173 3.61413C12.1415 3.58723 12.0724 3.55421 12.01 3.51507C11.9476 3.47471 11.8981 3.42579 11.8614 3.36831C11.8259 3.31083 11.8082 3.24295 11.8082 3.16468C11.8094 3.0705 11.8369 2.98673 11.8907 2.91334C11.9446 2.83996 12.0222 2.78187 12.1237 2.73906C12.2252 2.69626 12.3469 2.67486 12.4888 2.67486C12.6906 2.67486 12.8545 2.7195 12.9805 2.80878ZM15.9905 5.10744L15.0127 2.15018H14.266L15.5887 5.90729H16.4289L17.7534 2.15018H17.0049L16.029 5.10744H15.9905Z" fill="black"/>
</svg>
