<svg width="19" height="18" viewBox="0 0 19 18" fill="none" xmlns="http://www.w3.org/2000/svg">
<path d="M16.7213 7.53113H16.1172V7.5H9.36719V10.5H13.6058C12.9874 12.2464 11.3258 13.5 9.36719 13.5C6.88206 13.5 4.86719 11.4851 4.86719 9C4.86719 6.51487 6.88206 4.5 9.36719 4.5C10.5143 4.5 11.5579 4.93275 12.3526 5.63962L14.4739 3.51825C13.1344 2.26987 11.3427 1.5 9.36719 1.5C5.22531 1.5 1.86719 4.85812 1.86719 9C1.86719 13.1419 5.22531 16.5 9.36719 16.5C13.5091 16.5 16.8672 13.1419 16.8672 9C16.8672 8.49713 16.8154 8.00625 16.7213 7.53113Z" fill="#FFC107"/>
<path d="M2.73145 5.50912L5.19557 7.31625C5.86232 5.6655 7.47707 4.5 9.3667 4.5C10.5138 4.5 11.5574 4.93275 12.3521 5.63962L14.4734 3.51825C13.1339 2.26987 11.3422 1.5 9.3667 1.5C6.48595 1.5 3.9877 3.12637 2.73145 5.50912Z" fill="#FF3D00"/>
<path d="M9.3673 16.5003C11.3046 16.5003 13.0648 15.7589 14.3957 14.5533L12.0744 12.589C11.2961 13.1809 10.3451 13.501 9.3673 13.5003C7.41655 13.5003 5.76018 12.2564 5.13618 10.5205L2.69043 12.4049C3.93168 14.8338 6.45243 16.5003 9.3673 16.5003Z" fill="#4CAF50"/>
<path d="M16.7213 7.53113H16.1172V7.5H9.36719V10.5H13.6058C13.31 11.3312 12.7772 12.0574 12.0732 12.5891L12.0743 12.5884L14.3956 14.5526C14.2313 14.7019 16.8672 12.75 16.8672 9C16.8672 8.49713 16.8154 8.00625 16.7213 7.53113Z" fill="#1976D2"/>
</svg>
