<svg xmlns="http://www.w3.org/2000/svg" version="1.1" viewBox="0 0 24 24" height="24" width="24">
  <path d="m 17.88202,19.296995 c -1.7588,1.1156 -3.7993,1.7063 -5.882,1.703 -5.3920402,0 -9.8780402,-3.88 -10.8190402,-9 0.43003,-2.3292704 1.6016301,-4.45709 3.34,-6.06599 l -3.129,-3.126 1.415,-1.4149999 19.7990402,19.7999899 -1.415,1.414 -3.31,-3.31 z M 5.9349798,7.350005 c -1.35899,1.23559 -2.30568,2.85879 -2.712,4.64999 0.3123,1.3665 0.93927,2.6412 1.83101,3.7226 0.89174,1.0815 2.02362,1.9398 3.30555,2.5067 1.2819203,0.5669 2.6784802,0.8268 4.0785802,0.7588 1.4,-0.0679 2.7648,-0.4617 3.9859,-1.1501 l -2.028,-2.028 c -0.8633,0.5438 -1.8858,0.7781 -2.8998,0.6644 -1.014,-0.1136 -1.9591898,-0.5685 -2.6806701,-1.29 -0.72147,-0.7214 -1.1763401,-1.6667 -1.29,-2.6806 -0.1136701,-1.014 0.12062,-2.0365 0.66443,-2.8997904 z m 6.9790402,6.97799 -3.2420398,-3.242 c -0.17793,0.4529 -0.2198101,0.948 -0.1204901,1.4244 0.09932,0.4763 0.33551,0.9134 0.6796299,1.2575 0.3441,0.3441 0.7811,0.5803 1.2575,0.6796 0.4764,0.0993 0.9714,0.0574 1.4244,-0.1205 z m 7.893,2.264 -1.431,-1.43 c 0.6684,-0.9527 1.1444,-2.0268 1.401,-3.162 -0.2718,-1.1903 -0.7828,-2.3128404 -1.5019,-3.2995004 -0.7191,-0.9866496 -1.6313,-1.8167596 -2.6813,-2.4398896 -1.0499,-0.62312 -2.2155,-1.02623 -3.4261,-1.18484 -1.2106,-0.1586 -2.4407,-0.06938 -3.6157399,0.26224 l -1.5780003,-1.578 c 1.247,-0.49 2.6060402,-0.76 4.0260402,-0.76 5.392,0 9.878,3.88 10.819,8.99999 -0.3065,1.6657 -0.9952,3.2376 -2.012,4.592 z m -9.084,-9.08399 c 0.6365,-0.03934 1.2741,0.05707 1.8705,0.28282 0.5964,0.22575 1.1381,0.57569 1.589,1.0266296 0.451,0.45094 0.8009,0.99258 1.0266,1.5890404 0.2258,0.5964 0.3222,1.234 0.2829,1.8705 l -4.77,-4.76899 z" />
</svg>
