<?xml version="1.0" encoding="UTF-8" standalone="no"?>
<svg xmlns="http://www.w3.org/2000/svg" version="1.1" viewBox="0 0 24 24" height="24" width="24">
   <g transform="translate(-1.0304159,-2.2597474)">
      <path d="m 11.9997,3.01953 c 5.392,0 9.878,3.88 10.819,8.99997 -0.94,5.12 -5.427,9 -10.819,9 -5.39204,0 -9.87804,-3.88 -10.81904,-9 0.94,-5.11997 5.427,-8.99997 10.81904,-8.99997 z m 0,15.99997 c 2.0394,-4e-4 4.0184,-0.6931 5.6128,-1.9648 1.5945,-1.2717 2.7101,-3.0469 3.1642,-5.0352 C 20.3209,10.0328 19.2046,8.25954 17.6103,6.98956 16.016,5.71958 14.038,5.02806 11.9997,5.02806 c -2.03834,0 -4.01635,0.69152 -5.61066,1.9615 -1.59431,1.26998 -2.71061,3.04324 -3.16638,5.02994 0.4541,1.9883 1.56968,3.7635 3.16415,5.0352 1.59447,1.2717 3.57339,1.9644 5.61289,1.9648 z m 0,-2.5 c -1.1935,0 -2.3381,-0.4741 -3.18202,-1.318 -0.84391,-0.8439 -1.31802,-1.9885 -1.31802,-3.182 0,-1.1934 0.47411,-2.33804 1.31802,-3.18195 0.84392,-0.84391 1.98852,-1.31802 3.18202,-1.31802 1.1934,0 2.338,0.47411 3.1819,1.31802 0.844,0.84391 1.3181,1.98855 1.3181,3.18195 0,1.1935 -0.4741,2.3381 -1.3181,3.182 -0.8439,0.8439 -1.9885,1.318 -3.1819,1.318 z m 0,-2 c 0.663,0 1.2989,-0.2634 1.7677,-0.7322 0.4689,-0.4688 0.7323,-1.1047 0.7323,-1.7678 0,-0.663 -0.2634,-1.2989 -0.7323,-1.7677 -0.4688,-0.46888 -1.1047,-0.73227 -1.7677,-0.73227 -0.6631,0 -1.299,0.26339 -1.7678,0.73227 -0.46884,0.4688 -0.73224,1.1047 -0.73224,1.7677 0,0.6631 0.2634,1.299 0.73224,1.7678 0.4688,0.4688 1.1047,0.7322 1.7678,0.7322 z" id="path120" />
      <path d="m 17.950944,25.218951 h 1.1648 l 0.6661,-1.9247 h 2.8415 l 0.665,1.9247 h 1.1647 l -0.3345,-0.9296 -1.1335,-0.9951 -0.5191,-0.4557 -0.5326,-0.4676 h -1.832 l 0.4269,-1.2335 -0.8424,-0.7395 z m 2.0988,-5.8322 0.8316,0.73 0.294,-0.8495 h 0.0569 l 0.5739,1.6614 1.6124,1.4155 -1.5826,-4.3979 h -1.2678 z" id="path122" style="clip-rule:evenodd;fill-rule:evenodd" />
      <line x1="18.537848" y1="19.628353" x2="24.542347" y2="25.131353" id="line124" style="stroke:currentColor" />
   </g>
</svg>
