<svg width="48" height="48" viewBox="0 0 48 48" fill="none" xmlns="http://www.w3.org/2000/svg">
<rect width="48" height="48" fill="white"/>
<path d="M45.85 30.75H44.7V23.1492C44.7 22.2562 44.3334 21.3984 43.6866 20.7656L36.5062 13.7414C35.8594 13.1086 34.9825 12.75 34.0697 12.75H30.9V9.375C30.9 7.51172 29.3547 6 27.45 6H9.05C7.14531 6 5.6 7.51172 5.6 9.375V12.75H1.575C1.25875 12.75 1 13.0031 1 13.3125V14.4375C1 14.7469 1.25875 15 1.575 15H21.125C21.4412 15 21.7 15.2531 21.7 15.5625V16.6875C21.7 16.9969 21.4412 17.25 21.125 17.25H3.875C3.55875 17.25 3.3 17.5031 3.3 17.8125V18.9375C3.3 19.2469 3.55875 19.5 3.875 19.5H18.825C19.1412 19.5 19.4 19.7531 19.4 20.0625V21.1875C19.4 21.4969 19.1412 21.75 18.825 21.75H1.575C1.25875 21.75 1 22.0031 1 22.3125V23.4375C1 23.7469 1.25875 24 1.575 24H16.525C16.8412 24 17.1 24.2531 17.1 24.5625V25.6875C17.1 25.9969 16.8412 26.25 16.525 26.25H5.6V35.25C5.6 38.9766 8.69062 42 12.5 42C16.3094 42 19.4 38.9766 19.4 35.25H28.6C28.6 38.9766 31.6906 42 35.5 42C39.3094 42 42.4 38.9766 42.4 35.25H45.85C46.4825 35.25 47 34.7438 47 34.125V31.875C47 31.2562 46.4825 30.75 45.85 30.75ZM12.5 38.625C10.5953 38.625 9.05 37.1133 9.05 35.25C9.05 33.3867 10.5953 31.875 12.5 31.875C14.4047 31.875 15.95 33.3867 15.95 35.25C15.95 37.1133 14.4047 38.625 12.5 38.625ZM35.5 38.625C33.5953 38.625 32.05 37.1133 32.05 35.25C32.05 33.3867 33.5953 31.875 35.5 31.875C37.4047 31.875 38.95 33.3867 38.95 35.25C38.95 37.1133 37.4047 38.625 35.5 38.625ZM41.25 24H30.9V16.125H34.0697L41.25 23.1492V24Z" fill="#FF7A00"/>
</svg>
