<svg version="1.1" xmlns="http://www.w3.org/2000/svg" viewBox="0 0 1054.807619034298 1125.5212361388785" width="2109.615238068596" height="2251.042472277757">
  <!-- svg-source:excalidraw -->

  <defs>
    <style>
      @font-face {
        font-family: "Virgil";
        src: url("https://excalidraw.com/Virgil.woff2");
      }
      @font-face {
        font-family: "Cascadia";
        src: url("https://excalidraw.com/Cascadia.woff2");
      }
    </style>
  </defs>
  <g transform="translate(447.33058999076684 703.4443409355933) rotate(0 78.1019592285154 45.517822265625)">
    <path d="M1.8639235589653254 1.4541148152202368 C44.79473426647027 -0.3772055604434257, 91.20577912009338 -2.5025132992244012, 154.2428613398224 1.8118952121585608 M0.18593523930758238 -0.7200633836910129 C62.253441503457374 0.07846665757247995, 124.89136231075902 0.08978185432502817, 156.42507190536708 -0.7018953813239932 M157.72684485651553 1.1802295055240393 C154.4162949327754 35.44502647683853, 156.77753502171507 69.53217108914423, 156.32783807255328 92.75940539501607 M156.55460495781153 -0.011920834891498089 C156.53222088599492 26.257484069327486, 155.10083837890912 51.75855267746493, 155.54918424319476 90.36040842998773 M157.65421355701983 90.23041607998312 C113.18750169515434 90.33070893743671, 74.34860698721951 91.60802342155613, -0.9401572253555059 92.70621939562261 M155.453444163315 90.89101255405694 C107.3189470822559 90.28180548582472, 56.89494022794241 90.61167651448645, 0.6050468785688281 91.2535199271515 M-0.8089874293655157 92.40344162844121 C1.4400346371154 73.84854642402775, -1.4682298210640738 54.23208772779299, 0.38583589531481266 0.6845027413219213 M0.4629887444898486 91.96532980073243 C-0.022535920919631303 56.171491515865775, -0.5270213790552362 21.415530313823822, -0.806662698276341 -0.41510849725455046" stroke="#364fc7" stroke-width="1" fill="none"></path>
  </g>
  <g transform="translate(482.5087821294387 727.9285938652808) rotate(0 42.5 23)">
    <text x="42.5" y="18" font-family="Helvetica, Segoe UI Emoji" font-size="20px" fill="#364fc7" text-anchor="middle" style="white-space: pre;" direction="ltr">LabelFlow</text>
    <text x="42.5" y="41" font-family="Helvetica, Segoe UI Emoji" font-size="20px" fill="#364fc7" text-anchor="middle" style="white-space: pre;" direction="ltr">App</text>
  </g>
  <g transform="translate(448.3196755969334 464.85730480278085) rotate(0 78.1019592285154 45.517822265625)">
    <path d="M-0.42375450395047665 0.9463398065418005 C60.86543078621352 -2.31466009235829, 118.23220129671444 0.676203052039446, 158.19770456291735 -1.9508827719837427 M-0.17959414888173342 0.8108393298462033 C54.210193265927415 1.9469217472984013, 108.59095796802904 0.42287183937565653, 157.0119665665552 -0.7097051693126559 M155.06237960793078 0.7782150711864233 C158.116822628624 25.886732542202072, 157.02104100430682 53.10012939249018, 155.86457330919802 90.50601347349584 M156.773297409527 0.49141592252999544 C155.66116461871061 19.2492754129044, 155.86843395946417 37.370481956806636, 155.8820744259283 91.30241916049272 M155.0213473532349 91.14589317701757 C119.30696516207982 91.79430846443212, 77.84509494907417 92.07732019891775, 0.3192781303077936 90.9102726187557 M156.67374737095088 90.14714834559709 C107.3967938659467 90.25109855854139, 60.39347145682876 91.02759911143407, -0.936764438636601 90.47942710388452 M0.9336785171180964 92.63134433887899 C-1.6063524808115335 56.94410769035007, 0.7540693555646567 22.012995538281118, 1.631826350465417 1.8897633161395788 M0.8376431865617633 90.9099030541256 C-0.08832705922731743 60.09939471824704, -1.2281474859298167 29.034618689802564, 0.2977290255948901 -0.32220550905913115" stroke="#087f5b" stroke-width="1" fill="none"></path>
  </g>
  <g transform="translate(463.73424527001816 500.8986968112447) rotate(0 61.99999999999977 11.5)">
    <text x="62" y="18" font-family="Helvetica, Segoe UI Emoji" font-size="20px" fill="#087f5b" text-anchor="middle" style="white-space: pre;" direction="ltr">Your Backend</text>
  </g>
  <g transform="translate(508.0043842073469 933.1627281154981) rotate(0 24.690500895182367 24.690500895182254)">
    <path d="M12.400133990268822 2.6992376015105286 C16.749160681956543 0.03885664472526784, 25.22763414859512 -0.6018863744633693, 30.658244180249284 0.5698362139927085 C36.08885421190345 1.7415588024487862, 41.98296540143556 5.427178034874774, 44.98379418019381 9.729573132246996 C47.984622958952066 14.031968229619217, 49.108290087483 21.16392554065039, 48.663216852798804 26.384206798226042 C48.21814361811461 31.604488055801696, 45.61314712638893 37.159602300909086, 42.31335477208866 41.051260677700924 C39.013562417788386 44.94291905449276, 34.08078458019297 48.908430541586306, 28.864462726997175 49.73415705897709 C23.64814087380138 50.559883576367874, 15.524352688469762 48.89518878393517, 11.015423652913894 46.00561978204561 C6.506494617358027 43.11605078015606, 3.3353219037380057 37.35085949009677, 1.810888513661972 32.39674304763976 C0.28645512358593783 27.44262660518275, -1.3053801688805842 21.67893340531187, 1.868823312457689 16.28092112730355 C5.043026793795962 10.88290884929523, 16.443523937473383 2.5090109861504177, 20.85610940169161 0.008669379589846926 C25.26869486590984 -2.491672226970724, 28.256965492603307 0.7328888079327319, 28.34433609776706 1.2788714879401262 M29.714193147634422 -0.27128388024886263 C34.800702133910754 0.655515664191889, 41.065600899477346 5.970938975692703, 44.20251551185521 10.605167311435792 C47.339430124233076 15.239395647178881, 48.93208922661358 22.471746072217915, 48.53568082190161 27.534086134209673 C48.13927241718964 32.59642619620143, 45.35991119370685 37.133468448873124, 41.82406508358339 40.979207683386335 C38.288218973459934 44.824946917899545, 32.308522232502625 50.0324038251658, 27.320604161160837 50.60852154128892 C22.33268608981905 51.184639257412044, 16.08329852515889 47.58679173693997, 11.896556655532669 44.435913980125065 C7.709814785906446 41.28503622331016, 3.840533300020411 36.651479055067526, 2.2001529434035056 31.70325500039946 C0.5597725867866006 26.755030945731388, 0.29239694342680234 19.652585816950342, 2.0542745158312385 14.74656965211664 C3.8161520882356745 9.840553487282937, 7.880291157257231 4.823448621222482, 12.771418377830123 2.267158011397239 C17.662545598403014 -0.28913259842800487, 28.583422215677498 -0.27708286304003654, 31.401037839268593 -0.591174006834823 C34.218653462859685 -0.9052651506296094, 29.743404187767833 -0.293130590485711, 29.677112119376687 0.38261114862851997" stroke="#e67700" stroke-width="1" fill="none"></path>
  </g>
  <g>
    <g transform="translate(534.6313102056106 982.3631675686231) rotate(0 0.5779832600851478 19.71648864054839)">
      <path d="M1.1962716635316608 -1.1705296631902455 C1.4861487325280902 5.415531972975089, 0.9060194309800864 33.71427338734544, 0.5626281436532736 40.60350694428714 M0.3651755575463178 0.8293383182957768 C0.6492167989537123 7.544166404150976, -0.2919392367079853 31.84142541643507, -0.09003754455596202 38.5980713962722" stroke="#e67700" stroke-width="1" fill="none"></path>
    </g>
  </g>
  <g>
    <g transform="translate(519.7983132936993 1053.2293111297777) rotate(0 7.223498842380877 -16.20164106231573)">
      <path d="M-1.1705296631902455 0.5626281436532736 C1.2512020402526032 -5.1310688449828294, 12.892623723733012 -27.68400107566936, 15.617527347952228 -32.96591026828496 M0.41580353429541006 -0.18759602626785643 C2.60391265041507 -5.247205692549643, 12.472580095647608 -26.419972386236473, 14.7866210850888 -31.882124948789013" stroke="#e67700" stroke-width="1" fill="none"></path>
    </g>
  </g>
  <g>
    <g transform="translate(518.4533655984055 994.9962920260889) rotate(0 20.639511465090663 0.3057563716918139)">
      <path d="M0.5626281436532736 0.22312228716909877 C6.966889389031735 0.4003062749281563, 32.80579009440346 -0.09331143032757531, 39.62183913580243 -0.1074257366359006 M-0.6011308102682233 -0.7053424574062228 C6.0748287204515 -0.24022676154970735, 34.912623126661316 0.9539886885881614, 41.880153740449884 1.3168552007898917" stroke="#e67700" stroke-width="1" fill="none"></path>
    </g>
  </g>
  <g>
    <g transform="translate(535.9688210563058 1020.6695097995264) rotate(0 8.210317503899887 14.912355378891107)">
      <path d="M0.22312228716909877 -0.8640760604292155 C3.3414626059018966 4.156950385330458, 14.612470224541127 25.427713299087383, 17.539512249206542 30.688786818211316 M-1.1188772414065897 1.296680062506348 C1.9250057484106122 5.947982423531105, 13.452574686281828 24.480185984532483, 16.478322471783844 29.077040847235708" stroke="#e67700" stroke-width="1" fill="none"></path>
    </g>
  </g>
  <g>
    <g transform="translate(528.7444033147303 920.7614950756449) rotate(0 0.009534609038382769 -59.472361261091464)">
      <path d="M-0.8640760604292155 -0.21551297865808006 C-0.8235427885631907 -20.040901617107057, 0.5252474296191394 -99.01609927116465, 0.805827774849422 -118.72920954352476 M0.8831452785059808 -1.3742612377926708 C0.8015654286240349 -21.012149772529565, 0.42052445788920517 -97.89866764681916, 0.3686110890253258 -117.17585095847257" stroke="#e67700" stroke-width="1" fill="none"></path>
    </g>
    <g transform="translate(528.7444033147303 920.7614950756449) rotate(0 0.009534609038382769 -59.472361261091464)">
      <path d="M10.382143635751948 -87.40445360955911 C7.141425389406697 -97.22124765172052, 3.935001964455621 -110.03408173853884, 1.9847073080732298 -118.59526129709788 M10.17056250896518 -88.63702473365831 C8.20988736766533 -96.8088562811064, 4.735051118386414 -103.98945909488444, 0.19893851510871174 -117.44066648734965" stroke="#e67700" stroke-width="1" fill="none"></path>
    </g>
    <g transform="translate(528.7444033147303 920.7614950756449) rotate(0 0.009534609038382769 -59.472361261091464)">
      <path d="M-10.138902435385013 -87.3227802839644 C-6.261315548480313 -97.02014109439271, -2.349281980688043 -109.86130648818656, 1.9847073080732298 -118.59526129709788 M-10.350483562171782 -88.5553514080636 C-6.521209071125755 -96.87132702701805, -4.2054737757403835 -104.07497619201558, 0.19893851510871174 -117.44066648734965" stroke="#e67700" stroke-width="1" fill="none"></path>
    </g>
  </g>
  <g transform="translate(638.5685282813174 485.35814764726865) rotate(0 62.5 23)">
    <text x="0" y="18" font-family="Helvetica, Segoe UI Emoji" font-size="20px" fill="#087f5b" text-anchor="start" style="white-space: pre;" direction="ltr">API backend </text>
    <text x="0" y="41" font-family="Helvetica, Segoe UI Emoji" font-size="20px" fill="#087f5b" text-anchor="start" style="white-space: pre;" direction="ltr">of your choice</text>
  </g>
  <g>
    <g transform="translate(524.77533864218 556.4311941347441) rotate(0 -0.5429106857654915 72.73137720773002)">
      <path d="M-0.21387346945703034 0.9137558396905658 C-0.2574601408094168 25.045203572139144, 0.5946706179529428 119.8637021239847, 0.7081377033144236 143.93704019151627 M-1.7852957702614367 0.3478737101890146 C-2.0097867328859866 24.698277444038535, -0.15674617657437911 121.27361349562182, 0.1318645339272917 145.1148807052709" stroke="#087f5b" stroke-width="1" fill="none"></path>
    </g>
  </g>
  <g transform="translate(633.8076190342981 733.8464129118713) rotate(0 205.5 11.5)">
    <text x="0" y="18" font-family="Helvetica, Segoe UI Emoji" font-size="20px" fill="#364fc7" text-anchor="start" style="white-space: pre;" direction="ltr">View and Edit your Images, Labels, Workflows</text>
  </g>
  <g transform="translate(317.572730368609 934.2446381538741) rotate(0 24.69050089518214 24.690500895182254)">
    <path d="M25.745889225824197 -0.23440506814209883 C30.61901789050758 -0.38508905338337307, 36.664613373459986 3.2014903511546886, 40.56975815310999 6.9379161224043635 C44.47490293275999 10.674341893654038, 48.28410907236156 17.137222842698897, 49.176757903724216 22.18414955935595 C50.06940673508687 27.231076276013006, 48.75511341660017 32.978890149461215, 45.92565114128594 37.219476422346695 C43.09618886597171 41.460062695232175, 37.44928670253992 45.97715220587948, 32.19998425183883 47.627667196668824 C26.950681801137737 49.27818218745817, 19.298420429670408 49.15422082933988, 14.429836437079391 47.122566367082776 C9.561252444488375 45.090911904825674, 5.1696314043129075 40.158291913009364, 2.988480296292721 35.43774042312622 C0.8073291882725346 30.71718893324308, 0.3099321955585259 23.860973164407525, 1.3429297889582728 18.799257427783925 C2.37592738235802 13.737541691160324, 3.9835323464356858 7.917957389321584, 9.186465856691202 5.067446003384621 C14.389399366946718 2.216934617447657, 28.04332038267515 1.7817467062380008, 32.56053085049137 1.6961891121621413 C37.07774131830758 1.6106315180862818, 36.53021780712753 4.285376803328511, 36.28972866358849 4.5541004389294635 M26.459149345333966 -1.309811979275402 C31.531575842690764 -1.5116939207960727, 36.52636047166952 1.7914093802154425, 40.46244044620413 5.639974314328889 C44.398520420738734 9.488539248442335, 49.46667880835835 16.536352031462048, 50.075629192541605 21.781577625405276 C50.68457957672486 27.026803219348505, 46.90034629157661 32.80366257001802, 44.116142751303656 37.11132787798826 C41.3319392110307 41.4189931859585, 38.0097984729254 45.77832161994241, 33.37040795090389 47.627569473226735 C28.73101742888238 49.47681732651106, 21.176103918066016 50.3744137579803, 16.279799619174604 48.206814997694224 C11.383495320283192 46.03921623740815, 6.5135550037824075 39.38166982579826, 3.9925821575554217 34.62197691151028 C1.4716093113284363 29.8622839972223, 0.1255813896438227 24.36331169605352, 1.1539625418126924 19.64865751196633 C2.1823436939815624 14.934003327879143, 5.826574750610887 9.509376837413061, 10.16286907056864 6.334051806987148 C14.499163390526391 3.1587267765612346, 24.460938141720003 1.3339140346841787, 27.171728461559205 0.5967073294108509 C29.882518781398407 -0.14049937586247674, 26.472152358802063 1.6267499730631236, 26.427610989603853 1.9108115753471822" stroke="#e67700" stroke-width="1" fill="none"></path>
  </g>
  <g>
    <g transform="translate(344.6124574736423 983.4448741564781) rotate(0 -0.04314366843641437 20.27535445213107)">
      <path d="M0.7318207439035176 0.11912896670401096 C0.8583665903657673 6.94374765548165, 0.2302564080804587 34.757394999417436, 0.0743517693132163 41.41464117537769 M-0.3431120948866009 -0.8639322711154819 C-0.3081509678438305 5.604695319973482, -0.7124778466299175 32.822185874844855, -0.8346590154245496 39.835051098685284" stroke="#e67700" stroke-width="1" fill="none"></path>
    </g>
  </g>
  <g>
    <g transform="translate(326.77946056173096 1054.3110177176322) rotate(0 7.575597261963594 -16.1155447636213)">
      <path d="M0.11912896670401096 0.0743517693132163 C2.7794177227591645 -5.431858570763318, 13.935745335805004 -26.76066474859341, 16.428661579042775 -32.305441296555685 M-1.277467055115849 -0.9322174971364439 C1.2744415662375759 -6.315910024364887, 13.453340554057394 -25.62188448744564, 16.023600787501884 -30.874909766901865" stroke="#e67700" stroke-width="1" fill="none"></path>
    </g>
  </g>
  <g>
    <g transform="translate(328.43451286643904 996.0779986139435) rotate(0 19.468277913197426 0.5162045712818326)">
      <path d="M0.0743517693132163 1.0342565182596444 C6.666099663251247 0.9794531250372566, 33.729126421479414 -0.12546714674679527, 40.282308107531705 -0.2096913926303159 M-1.3457522811368108 0.5316372450068592 C5.006124388636258 0.6429721848666704, 32.05071102545215 1.514951221048851, 39.227368922337035 1.1609000753984082" stroke="#e67700" stroke-width="1" fill="none"></path>
    </g>
  </g>
  <g>
    <g transform="translate(343.94996832433753 1021.751216387381) rotate(0 8.777674527109184 14.115539159669197)">
      <path d="M1.0342565182596444 -0.20360708869993682 C3.9206094560109968 4.5545520017130565, 14.580314508121907 23.639126026920177, 17.437246593212127 28.62330631179118 M0.11810246100649247 -1.3561047556065025 C2.8082046948269905 3.5043248885145677, 13.40353721874252 24.192590394477495, 16.32236734639236 29.587183074945003" stroke="#e67700" stroke-width="1" fill="none"></path>
    </g>
  </g>
  <g>
    <g transform="translate(371.6154312390827 928.5098068531779) rotate(0 66.9322484939978 -61.96233174987344)">
      <path d="M-0.20360708869993682 -0.31777863465249534 C22.033289362964055 -20.774361822996962, 111.03281283317516 -101.51773710595782, 133.49573047929715 -121.70524261180717 M-1.7696395396068694 -1.530216363184154 C20.81713842875214 -21.83610716609352, 113.03908154355744 -103.29081824278796, 135.6341365276025 -123.6068848650943" stroke="#e67700" stroke-width="1" fill="none"></path>
    </g>
    <g transform="translate(371.6154312390827 928.5098068531779) rotate(0 66.9322484939978 -61.96233174987344)">
      <path d="M120.8703648652939 -99.01954539829485 C126.23219907712735 -105.2845095350635, 131.02802062347476 -112.36389877095264, 133.9101294184224 -123.15405209735441 M121.66677055229077 -97.72062837203585 C125.64174498464207 -103.74896702304282, 127.66359617827982 -109.48463645656251, 136.54032645077717 -122.91310330015081" stroke="#e67700" stroke-width="1" fill="none"></path>
    </g>
    <g transform="translate(371.6154312390827 928.5098068531779) rotate(0 66.9322484939978 -61.96233174987344)">
      <path d="M107.22570347945644 -114.3474029802166 C116.89758597180968 -115.89588748331677, 125.8713479935514 -118.28194833371298, 133.9101294184224 -123.15405209735441 M108.02210916645332 -113.0484859539576 C115.09362012206051 -115.43812008052323, 120.31550706689737 -117.57899951783612, 136.54032645077717 -122.91310330015081" stroke="#e67700" stroke-width="1" fill="none"></path>
    </g>
  </g>
  <g transform="translate(302.8207708389027 1069.5212361388785) rotate(0 45.5 23)">
    <text x="45.5" y="18" font-family="Helvetica, Segoe UI Emoji" font-size="20px" fill="#e67700" text-anchor="middle" style="white-space: pre;" direction="ltr">Labeling</text>
    <text x="45.5" y="41" font-family="Helvetica, Segoe UI Emoji" font-size="20px" fill="#e67700" text-anchor="middle" style="white-space: pre;" direction="ltr">Workforce</text>
  </g>
  <g transform="translate(696.3780258420902 245.99451315516944) rotate(0 78.10195922851562 45.517822265625)">
    <path d="M0.037703653797507286 -0.006927540525794029 C51.97466269420093 0.2315553864278257, 101.17030970762681 1.334376438502258, 154.9012900199741 0.8227148149162531 M-0.3607366634532809 0.8805184466764331 C56.26131197967524 0.041501845169196416, 113.4237096294566 1.5543618155003884, 155.38051102031022 -0.7003779606893659 M156.49295195005834 -0.06425808928906918 C153.57198744151233 28.464277788271147, 156.99960671994327 54.89003999944953, 154.2692790236324 92.05555493570864 M156.07649752963334 -0.7355864243581891 C156.80044311981175 27.403759256444896, 156.00451783041927 55.03783588664984, 155.2774362610653 90.81356305908412 M157.5397892203182 90.85325915552676 C110.89819290762952 93.00557851308389, 64.38527968515079 90.68386572116418, -0.4543095026165247 89.06164372898638 M157.10409141052514 91.28428263496608 C101.48564063452059 90.57934050889135, 45.93054911907511 90.84465905161024, 0.37437084782868624 90.29084006976336 M-0.19391588307917118 90.52205241657794 C-0.22427789408642196 68.49939764549576, 0.3902653650574074 45.95905221584425, 0.17833938263356686 0.6203391049057245 M0.5785208093002439 90.8136302633211 C-0.022402977659571666 62.50214234309374, 0.6031938734508867 33.60671105586198, 0.870197837240994 -0.6801985399797559" stroke="#087f5b" stroke-width="1" fill="none"></path>
  </g>
  <g transform="translate(739.0402151440812 281.56514100347704) rotate(0 32 11.5)">
    <text x="32" y="18" font-family="Helvetica, Segoe UI Emoji" font-size="20px" fill="#087f5b" text-anchor="middle" style="white-space: pre;" direction="ltr">Your AI</text>
  </g>
  <g transform="translate(226.39110698396962 203.276600208741) rotate(0 63.29168701171875 29.22882080078125)">
    <path d="M46.503112516317756 1.3773732830507122 C56.656418996815674 -0.35042620602409613, 72.08940327054071 -0.49050358557782126, 82.82123886089806 0.9283833220166642 C93.55307445125541 2.3472702296111496, 103.56534603291398 5.963231386856204, 110.89412605846184 9.890694728617625 C118.2229060840097 13.818158070379045, 125.20824166919905 19.318908738823016, 126.7939190141852 24.493163372585187 C128.37959635917136 29.667418006347358, 124.96429049490868 36.24835719298089, 120.4081901283787 40.93622253119065 C115.85208976184873 45.62408786940041, 108.74068615597315 49.6936006041137, 99.45731681500534 52.62035540184374 C90.17394747403753 55.54711019957378, 76.1977823229425 58.25377543735397, 64.70797408257185 58.4967513175709 C53.2181658422012 58.73972719778782, 40.07596349629613 56.70225043616508, 30.51846737278146 54.0782106831453 C20.960971249266784 51.45417093012552, 12.566916594220956 47.22316667158478, 7.362997341483819 42.75251279945222 C2.159078088746683 38.28185892731966, -1.6992171541381502 32.47814161310142, -0.7050481436413563 27.254287450349935 C0.2891208668554377 22.03043328759845, 6.638419590951378 15.53697346267396, 13.328011404464583 11.409387822943291 C20.017603217977786 7.281802183212623, 31.92481327327917 4.35906530173702, 39.43250273743787 2.488773611965925 C46.940192201596574 0.618481922194831, 53.4670816898796 0.502028851423491, 58.3741481894168 0.18763768431672645 C63.281214688954 -0.12675348279003806, 68.92267551341551 0.04842266918155025, 68.87490173466107 0.6024266093253381 M51.195323940491946 0.08812321116079147 C61.60200401105256 -0.872892972372488, 76.6411300594941 1.0048265938562668, 87.27156360227758 3.2028908199100385 C97.90199714506106 5.40095504596381, 108.46637001571005 9.210821452906103, 114.97792519719283 13.276508567483422 C121.48948037867561 17.34219568206074, 125.4848800550902 22.721161893146427, 126.34089469117427 27.597013507373944 C127.19690932725834 32.47286512160146, 125.56476899041093 38.05685222092544, 120.11401301369727 42.531618252848524 C114.66325703698362 47.006384284771606, 103.92687906555796 51.67256516707922, 93.63635883089236 54.445609698912435 C83.34583859622677 57.21865423074565, 69.75268477946757 59.4837417632469, 58.370891605703676 59.169885443847804 C46.98909843193979 58.85602912444871, 34.03907980214009 55.61848099400795, 25.345599788309016 52.562471782517875 C16.652119774477946 49.5064625710278, 10.285810371203674 45.50566859554944, 6.210011522717245 40.83383017490732 C2.134212674230816 36.1619917542652, -0.5408397352981709 29.6142671258151, 0.8908066973904383 24.53144125866518 C2.3224531300790474 19.448615391515258, 7.244081468173079 14.418896933681982, 14.7998901188489 10.336874972007784 C22.35569876952472 6.254853010333586, 40.04217252088417 1.521840768165123, 46.22565860144536 0.03930948861999184 C52.40914468200655 -1.4432217909251392, 50.68025904281116 1.3062455403857178, 51.90080660221602 1.4416872947369974 C53.121354161620886 1.577129049088277, 53.320658870549785 0.4925283211642544, 53.54894395787455 0.8519600147276698" stroke="#087f5b" stroke-width="1" fill="none"></path>
  </g>
  <g transform="translate(226.24022807771962 294.86101182983475) rotate(0 63.29168701171875 29.22882080078125)">
    <path d="M70.37371044886979 0.7962090639940556 C80.99812834539313 0.9244856494481688, 93.32766170907762 2.47603086300963, 102.02058141507798 5.722204460369952 C110.71350112107835 8.968378057730273, 118.76892220077758 15.435222728494338, 122.53122868487196 20.273250648155983 C126.29353516896634 25.111278567817628, 126.97388414505063 29.716157472968575, 124.59442031964426 34.75037197833983 C122.21495649423788 39.78458648371108, 116.19330374250595 46.77349357472707, 108.25444573243368 50.478537680383496 C100.31558772236141 54.18358178603992, 87.86358330092919 56.06546962039099, 76.96127225921065 56.98063661227839 C66.0589612174921 57.895803604165785, 53.38977712337522 57.50818529777528, 42.840579482122365 55.96953963170786 C32.29138184086951 54.43089396564044, 20.73711755385945 51.77809691530506, 13.66608641169352 47.74876261587389 C6.595055269527592 43.71942831644272, 1.6236515538570526 36.82910884454411, 0.41439262912679453 31.79353383512085 C-0.7948662956034636 26.75795882569759, 1.664370957486791 22.231404192179085, 6.410532863311971 17.535312559334322 C11.15669476913715 12.83922092648956, 19.3965738448181 6.531499855855579, 28.891364064077877 3.6169840380522764 C38.38615428333765 0.7024682202489747, 55.63005491016371 0.672005762540851, 63.37927417887063 0.04821765251451282 C71.12849344757755 -0.5755704575118253, 72.60708472541798 -0.2730035348017571, 75.38667967631943 -0.12574462210575277 C78.16627462722089 0.021514290590251534, 80.18844287382001 0.40083727186770857, 80.05684388427937 0.9317711286905386 M53.869278700234794 0.16085881818877823 C64.57209915079414 -0.7012233918143007, 79.43071063328328 0.5336470487941241, 89.9162027746501 2.633410528392478 C100.40169491601692 4.733174007990831, 110.66697071141064 8.253063873170351, 116.78223154843567 12.759439695778902 C122.89749238546071 17.265815518387452, 126.54848379609767 24.528908344453043, 126.60776779680026 29.671665464043777 C126.66705179750285 34.81442258363451, 122.86938242017354 39.61722904132119, 117.13793555265121 43.61598241332331 C111.40648868512889 47.61473578532543, 101.91323389165139 51.441254079106294, 92.21908659166634 53.66418569605649 C82.52493929168129 55.88711731300669, 70.193320071182 56.89734027446391, 58.9730517527409 56.953572115024485 C47.75278343429979 57.00980395558506, 33.95580897875577 56.864859508053236, 24.897476681019697 54.00157673941996 C15.839144383283626 51.138293970786684, 8.55314677131881 45.03859984197521, 4.623057966324481 39.773875503224815 C0.692969161330153 34.50915116447442, -0.8586727584411755 27.40993885043117, 1.316943851053729 22.41323070691756 C3.4925604605486336 17.416522563403948, 10.208685502057811 13.483986479183212, 17.67675762329391 9.793626642143145 C25.144829744530007 6.103266805103079, 39.86769571838414 1.7278866041919396, 46.12537657847032 0.27107168467716036 C52.383057438556506 -1.185743234837619, 53.87061392718288 1.0151997286282313, 55.22284278381098 1.0527371250544704 C56.575071640439084 1.0902745214807095, 54.20795617931113 0.06143917336191568, 54.23874971823894 0.4962960632345954" stroke="#087f5b" stroke-width="1" fill="none"></path>
  </g>
  <g>
    <g transform="translate(226.44555034334462 233.6202281384285) rotate(0 0.18735272090862054 45.12212165374308)">
      <path d="M-0.6187513533979654 0.25342012681066994 C-0.6109017197042703 15.05606504318615, -0.14245542921125887 74.59886098342638, 0.04294127784669399 89.77628426589072 M1.2572654567286374 -0.659138251952827 C1.1112148592993618 14.195450127509734, -0.6708633984997868 75.89777545689294, -0.882560014910996 90.903381559439" stroke="#087f5b" stroke-width="1" fill="none"></path>
    </g>
  </g>
  <g>
    <g transform="translate(354.9703306167821 235.8018687634285) rotate(0 0.22368824025602407 45.03568586022595)">
      <path d="M0.25342012681066994 0.04294127784669399 C-0.03691184483468524 15.321314872925482, -0.8660234566777945 76.04660714628797, -0.7815770622342825 91.05149021707476 M-1.072673035953194 -0.9801184966228903 C-1.0634505815245212 13.989956117862215, 1.2756953596137466 73.83558835525687, 1.520049516465515 89.18807063499466" stroke="#087f5b" stroke-width="1" fill="none"></path>
    </g>
  </g>
  <g transform="translate(457.5992596338647 207.22190760052308) rotate(0 63.29168701171875 29.22882080078125)">
    <path d="M75.68327711278164 0.25533096468095096 C86.34520803238988 0.842352609803403, 100.03944593254855 4.041834835467467, 108.08029327536241 7.683467607829538 C116.12114061817627 11.325100380191609, 121.25304457692206 17.128964783231204, 123.92836116966484 22.10512759885338 C126.60367776240761 27.081290414475554, 127.62465496210983 32.59284911748637, 124.13219283181903 37.54044450156259 C120.63973070152822 42.48803988563881, 111.88817441731021 48.41381946377506, 102.97358838792 51.79069990331071 C94.0590023585298 55.16758034284636, 81.6320577719858 57.13948199863453, 70.64467665547777 57.801727138776485 C59.65729553896973 58.46397227891844, 47.24988864827821 57.80355449996502, 37.04930168887178 55.76417074416244 C26.84871472946535 53.72478698835987, 15.478731426015376 49.95831779685857, 9.441154899039184 45.565424603961056 C3.4035783720629915 41.17253141106354, 1.0455257029082219 34.55847256325373, 0.8238425270146266 29.406811586777327 C0.6021593511210312 24.255150610300927, 2.446362006876927 19.017440240605435, 8.111055843677612 14.655458745102653 C13.775749680478295 10.29347724959987, 24.74056163851742 5.677496884576877, 34.812005547818735 3.2349226137606344 C44.88344945712005 0.792348342944392, 61.1672312067775 0.28628590854628594, 68.53971929948551 0.000013120205199612656 C75.91220739219352 -0.2862596681358867, 76.71156631239812 1.2232680703406753, 79.04693410406682 1.5172858837141163 C81.38230189573552 1.8113036970875573, 82.77910985433738 1.5328312553671009, 82.55192604949771 1.7641200004458462 M56.40826395467726 1.1819143350373444 C66.90758675992936 0.06960113627121522, 80.36712218906524 1.010427029085822, 90.68186527027099 2.965850031053211 C100.99660835147674 4.921273033020601, 112.37405182883604 8.588520073683828, 118.29672244191175 12.91445234684168 C124.21939305498746 17.24038461999953, 126.70675464572456 23.48001375772946, 126.21788894872526 28.921443670000322 C125.72902325172596 34.362873582271185, 121.52008984688085 41.20926455402775, 115.36352825991594 45.56303182046686 C109.20696667295103 49.916799086905975, 98.92496086550095 52.8640326508135, 89.27851942693579 55.04404726863502 C79.63207798837063 57.22406188645654, 68.3997070900012 59.11561224688211, 57.48487962852496 58.64311952739598 C46.570052167048715 58.170626807909855, 32.986532110634606 55.416538834235645, 23.78955465807831 52.20909095171827 C14.592577205522012 49.00164306920089, 5.907270974096823 44.503932188379984, 2.3030149131871767 39.39843223229171 C-1.3012411477224695 34.29293227620344, -0.43592954091462355 26.549387880280538, 2.164018292620433 21.57609121518861 C4.7639661261554895 16.602794550096686, 9.925835755569377 13.057951643247218, 17.902701914397518 9.558652241740152 C25.87956807322566 6.059352840233085, 43.69350372929665 2.0940225529124277, 50.02521524558928 0.5802948061462097 C56.35692676188191 -0.9334329406200084, 54.74971421255295 0.31997332945639556, 55.89297101215329 0.4762857611428437 C57.036227811753626 0.6325981928292919, 56.548737146030845 1.0611092308940027, 56.884756043191295 1.5181693962648986" stroke="#087f5b" stroke-width="1" fill="none"></path>
  </g>
  <g transform="translate(457.4483807276147 298.80631922161683) rotate(0 63.29168701171875 29.22882080078125)">
    <path d="M82.6424943003586 2.334187032912819 C93.03853303241874 3.4326950879982743, 104.26906433503994 5.799705637984053, 111.48612899357713 9.760367955643574 C118.70319365211431 13.721030273303095, 124.52131760511023 20.944292851941437, 125.94488225158167 26.098160938869942 C127.36844689805312 31.252029025798446, 124.67151752535287 36.24133948276451, 120.02751687240578 40.6835764772146 C115.3835162194587 45.12581347166469, 107.3943333416403 49.766119196356925, 98.08087833389916 52.7515829055705 C88.76742332615802 55.73704661478408, 75.38345415693604 58.49138864252252, 64.14678682595894 58.59635873249607 C52.91011949498184 58.70132882246962, 40.160192187309754 55.93983053279077, 30.660874348036565 53.381403445411806 C21.161556508763375 50.82297635803284, 12.277921124015275 47.88125438065758, 7.15087979031982 43.24579620822229 C2.0238384566243646 38.610338035786995, -1.166400124222876 30.85763813070481, -0.10137365413616806 25.568654410800065 C0.96365281595054 20.27967069089532, 6.64119324358526 15.576231982907053, 13.541038610840069 11.511893888793821 C20.440883978094877 7.447555794680588, 30.885566368886252 3.122420813488908, 41.297698549392685 1.182625846120665 C51.70983072989912 -0.7571691212475784, 67.91562405691752 -0.3061724698026579, 76.01383169387867 -0.12687591541563847 C84.11203933083982 0.05242063897138097, 86.80273564432892 1.5525829520023975, 89.88694437115957 2.2584051724427816 C92.97115309799022 2.9642273928831657, 95.19290851439231 3.6445698131205844, 94.51908405486259 4.108057407226667 M61.296491722041566 -0.1039996207398417 C71.74862147873698 -0.541579525654625, 84.96868642541111 2.6384804019123407, 94.44572242539937 5.147207401872624 C103.92275842538763 7.655934401832907, 112.88136755703896 10.866009080204755, 118.15870772197115 14.948362379021859 C123.43604788690335 19.030715677838963, 126.5787803122808 24.64279276723133, 126.10976341499257 29.641327194775243 C125.64074651770434 34.63986162231915, 121.95132103222267 40.26657933990925, 115.34460633824182 44.93956894428533 C108.73789164426097 49.612558548661404, 96.94009377329523 55.49988015708715, 86.46947525110745 57.67926482103171 C75.99885672891968 59.85864948497627, 63.45618041254093 59.35783004692492, 52.52089520511512 58.0158769279527 C41.5856099976893 56.673923808980476, 29.13284411053668 53.02388623128142, 20.85776400655258 49.627546107198405 C12.582683902568474 46.23120598311539, 6.0949277726220625 42.540816458158375, 2.8704145812104898 37.63783618345459 C-0.35409861020108346 32.7348559087508, -1.7690166200933803 25.14658328322449, 1.5106848580831382 20.209664458975695 C4.790386336259656 15.272745634726899, 13.952830926299173 11.386859487715643, 22.548623450269602 8.01632323796182 C31.144415974240033 4.645786988207998, 46.74506671892613 1.2393158471438461, 53.08544000190571 -0.013553039547240076 C59.42581328488529 -1.2664219262383263, 59.25315105517337 0.23913822048249028, 60.59086314814705 0.49910991781530356 C61.92857524112073 0.7590816151481168, 61.08884758064467 1.0598543176347317, 61.11171255974779 1.5462771444496397" stroke="#087f5b" stroke-width="1" fill="none"></path>
  </g>
  <g>
    <g transform="translate(457.6537029932397 237.56553553021058) rotate(0 -0.5974947768263519 45.615282361097684)">
      <path d="M0.49362888894975177 0.7600984934717416 C0.40553507171571246 15.876423677181203, -0.33120281137526036 74.77397654491166, -0.48562162555754185 89.91637404002249 M-0.706354673691094 0.11354625720530742 C-0.9987190337851644 15.446497044352192, -1.5687031562998892 76.16482668815802, -1.6886184426024557 91.11701846498995" stroke="#087f5b" stroke-width="1" fill="none"></path>
    </g>
  </g>
  <g>
    <g transform="translate(586.1784832666772 239.74717615521058) rotate(0 0.5460995669568547 44.82448078045627)">
      <path d="M0.7600984934717416 -0.48562162555754185 C0.7834467891603708 14.452936448281008, -0.690907895192504 75.049875602747, -0.6414872881025075 90.12497733198106 M-0.2999885267950595 -1.78617692431435 C0.18759633531793946 13.2756790202794, 1.5427465908788145 75.97557275135692, 1.7336864220164716 91.43513848522679" stroke="#087f5b" stroke-width="1" fill="none"></path>
    </g>
  </g>
  <g transform="translate(225.51933918301756 156.18741256471526) rotate(0 62.5 23)">
    <text x="62.5" y="18" font-family="Helvetica, Segoe UI Emoji" font-size="20px" fill="#087f5b" text-anchor="middle" style="white-space: pre;" direction="ltr">Database</text>
    <text x="62.5" y="41" font-family="Helvetica, Segoe UI Emoji" font-size="20px" fill="#087f5b" text-anchor="middle" style="white-space: pre;" direction="ltr">of your choice</text>
  </g>
  <g transform="translate(457.5537121485122 160.35325017050968) rotate(0 62.5 23)">
    <text x="62.5" y="18" font-family="Helvetica, Segoe UI Emoji" font-size="20px" fill="#087f5b" text-anchor="middle" style="white-space: pre;" direction="ltr">Image store</text>
    <text x="62.5" y="41" font-family="Helvetica, Segoe UI Emoji" font-size="20px" fill="#087f5b" text-anchor="middle" style="white-space: pre;" direction="ltr">of your choice</text>
  </g>
  <g transform="translate(692.1755332341236 168.79400537884294) rotate(0 79 23)">
    <text x="79" y="18" font-family="Helvetica, Segoe UI Emoji" font-size="20px" fill="#087f5b" text-anchor="middle" style="white-space: pre;" direction="ltr">AI / Labeling API </text>
    <text x="79" y="41" font-family="Helvetica, Segoe UI Emoji" font-size="20px" fill="#087f5b" text-anchor="middle" style="white-space: pre;" direction="ltr">of your choice</text>
  </g>
  <g>
    <g transform="translate(293.9462037553112 357.0035137216353) rotate(0 110.04418902137422 54.5289711954041)">
      <path d="M1.0566221360117198 -0.592872578278184 C37.450892044538975 17.507311746560884, 181.3103084978199 90.18864729296838, 217.72413216306103 108.16822195289046 M0.1522100280784071 1.710265372786671 C36.9712690047085 20.043556089651688, 183.42369486491367 91.92197327642194, 219.93616801467 109.65081496908651" stroke="#087f5b" stroke-width="1" fill="none"></path>
    </g>
  </g>
  <g>
    <g transform="translate(521.2858781135988 361.6618273269489) rotate(0 -0.5715240285232994 51.223953718133316)">
      <path d="M-0.592872578278184 -0.9522260662168264 C-0.7602087367843069 16.105025828195107, -1.1489551237575597 86.29201681620128, -1.4369009471806748 103.40013350248333 M1.2967305887863039 1.1622513036802413 C1.0001117852930745 18.406947025482843, -2.232824797479052 84.82899660604693, -2.439778645833121 101.73074185024943" stroke="#087f5b" stroke-width="1" fill="none"></path>
    </g>
  </g>
  <g>
    <g transform="translate(526.4045812213208 463.59319293309613) rotate(0 119.06213713164107 -61.627718386417314)">
      <path d="M-0.9522260662168264 -0.10444235242903233 C38.71775363269781 -20.530795992783585, 199.35565583871477 -102.81900914247771, 239.0765003294995 -123.15099442040551 M0.7487165196798742 -1.2048785327933729 C40.24375100897212 -21.461445855203397, 198.73543997138538 -102.20914099940721, 238.58163796241712 -122.13231585431846" stroke="#087f5b" stroke-width="1" fill="none"></path>
    </g>
  </g>
  <g transform="translate(517.5384652274038 1077.0319407629577) rotate(0 17 11.5)">
    <text x="17" y="18" font-family="Helvetica, Segoe UI Emoji" font-size="20px" fill="#e67700" text-anchor="middle" style="white-space: pre;" direction="ltr">You</text>
  </g>
  <g transform="translate(56.86903018043586 702.5059165349082) rotate(0 78.10195922851562 45.517822265625)">
    <path d="M1.6116640232503414 0.634066317230463 C42.389436088169596 -0.4354085375045599, 84.98138280518846 1.6276149104858577, 154.64168509468436 1.4333661533892155 M0.3314586151391268 -0.1611886192113161 C30.642329047202058 0.6006167052922193, 62.47937020985581 0.9154842613873426, 156.89875494129956 0.45193211548030376 M157.2231603525579 -0.1744610331952572 C155.095300603865 20.85150830553912, 155.8258162031158 39.73572730858014, 155.82596203312278 90.70110604539514 M155.78742252476513 -0.6751464176923037 C155.5290841875991 24.007986298658853, 155.20637838229743 49.677857219966064, 156.40566985495389 91.77737365476787 M156.47912308201194 91.43809697404504 C108.02274333135023 91.81756218393312, 62.314864404663126 91.75975891073213, 1.8152278326451778 89.89835414662957 M155.50629727728665 90.16367707960308 C94.10737932806938 90.26715556919943, 32.97254714850544 90.84513423979651, -0.9116015564650297 91.11691240780056 M-0.037073764950037 89.44793662801385 C0.6230684068154461 54.975816287871474, 2.371749594445146 22.22840069016074, 0.4717871807515621 1.6390020586550236 M-0.7870025765150785 91.63427357189357 C1.0372150678883099 63.18292303089265, 1.1169865269909405 33.29875503078529, -0.9496047031134367 -0.36862398870289326" stroke="#364fc7" stroke-width="1" fill="none"></path>
  </g>
  <g transform="translate(92.8792622884157 723.6859092106895) rotate(0 42.5 23)">
    <text x="42.5" y="18" font-family="Helvetica, Segoe UI Emoji" font-size="20px" fill="#364fc7" text-anchor="middle" style="white-space: pre;" direction="ltr">LabelFlow</text>
    <text x="42.5" y="41" font-family="Helvetica, Segoe UI Emoji" font-size="20px" fill="#364fc7" text-anchor="middle" style="white-space: pre;" direction="ltr">Backend</text>
  </g>
  <g transform="translate(233.86130923316932 702.5590171208457) rotate(0 98 11.5)">
    <text x="0" y="18" font-family="Helvetica, Segoe UI Emoji" font-size="20px" fill="#364fc7" text-anchor="start" style="white-space: pre;" direction="ltr">Check Auth &amp; License</text>
  </g>
  <g>
    <g transform="translate(221.4363987378424 761.8123828207874) rotate(0 111.83505284432636 -1.990461086290452)">
      <path d="M0.7720365084707737 -0.22569960728287697 C37.851218390394465 -0.696630809889037, 184.67232073212273 -3.1037074088344903, 221.8414493608726 -3.755222565298072 M-0.2817830539215356 -1.389795846445486 C37.20456868234509 -1.6246880611170567, 186.66477352326035 -2.1950264047405303, 223.95188874257445 -2.515828434246696" stroke="#364fc7" stroke-width="1" fill="none"></path>
    </g>
    <g transform="translate(221.4363987378424 761.8123828207874) rotate(0 111.83505284432636 -1.990461086290452)">
      <path d="M195.44584902330655 6.001018265273377 C201.91026404457776 6.484931469346231, 208.23125723166652 3.030891269106829, 224.83108106879234 -3.023049570488847 M196.3895896985324 7.307152092467948 C203.69465220751115 5.390424419465029, 213.12598789862056 1.3005693085137944, 224.72642378573954 -2.9347598122983345" stroke="#364fc7" stroke-width="1" fill="none"></path>
    </g>
    <g transform="translate(221.4363987378424 761.8123828207874) rotate(0 111.83505284432636 -1.990461086290452)">
      <path d="M195.32501658968178 -14.5198345900254 C201.66032671450063 -8.964015656632393, 208.01118925696602 -7.345372735466927, 224.83108106879234 -3.023049570488847 M196.26875726490763 -13.213700762830829 C203.42393846568854 -9.047678218870637, 212.8910921070167 -7.054606221856416, 224.72642378573954 -2.9347598122983345" stroke="#364fc7" stroke-width="1" fill="none"></path>
    </g>
  </g>
  <g>
    <g transform="translate(444.87689104491164 741.922207416538) rotate(0 -114.47624744763812 0.16180606118416563)">
      <path d="M-0.5027176536619663 -0.28385991677641864 C-38.82300206197344 -0.13092660281623306, -192.28933459287097 1.737902109147861, -230.38671174410237 1.8470419355592185 M1.4342168488260358 -1.478490318423137 C-36.446079622571474 -1.7778542303554954, -189.50406142263265 -0.5008973149397677, -227.99082963284545 -0.06756558058611528" stroke="#364fc7" stroke-width="1" fill="none"></path>
    </g>
    <g transform="translate(444.87689104491164 741.922207416538) rotate(0 -114.47624744763812 0.16180606118416563)">
      <path d="M-200.36984366041423 -11.593438501830605 C-206.4945976863873 -6.795924577978046, -216.2942700388395 -3.7668508145096116, -229.87830158066444 1.7740412487293087 M-200.2081306358129 -11.544027970533278 C-208.88285626564064 -7.019787291254332, -217.5971271572371 -3.2392541696938, -227.18227922846071 -0.5309955251758494" stroke="#364fc7" stroke-width="1" fill="none"></path>
    </g>
    <g transform="translate(444.87689104491164 741.922207416538) rotate(0 -114.47624744763812 0.16180606118416563)">
      <path d="M-200.1788988477537 8.926881731156925 C-206.5124741929663 8.362671119687166, -216.36203079348388 6.030820275568279, -229.87830158066444 1.7740412487293087 M-200.01718582315235 8.976292262454251 C-208.69586998276083 7.135168232645903, -217.46936487009248 4.551059439980367, -227.18227922846071 -0.5309955251758494" stroke="#364fc7" stroke-width="1" fill="none"></path>
    </g>
  </g>
  <g transform="translate(284.69631086077425 768.0847739567832) rotate(0 46 11.5)">
    <text x="0" y="18" font-family="Helvetica, Segoe UI Emoji" font-size="20px" fill="#364fc7" text-anchor="start" style="white-space: pre;" direction="ltr">Serve App</text>
  </g>
  <g transform="translate(10 10) rotate(0 517.0730845133462 318.09870402018214)">
    <path d="M536.1142673246286 0.87700116085324 C567.1904360677072 -3.5899056033411325, 601.778473229589 4.257665770597725, 633.4900802805031 8.589982797000175 C665.2016873314171 12.922299823402625, 696.6121863659823 18.8923621734868, 726.3839096301128 26.87090331926794 C756.1556328942434 34.84944446504908, 785.3566146110317 45.01907249819283, 812.1204198652863 56.46122967168702 C838.8842251195409 67.90338684518122, 864.1858136078076 80.91421171865527, 886.9667411556409 95.52384636023311 C909.7476687034741 110.13348100181095, 930.6676185850363 127.25756506531557, 948.805985152286 144.11903752115407 C966.9443517195357 160.98050997699255, 983.4285303564354 178.28338259537645, 995.7969405591389 196.69268109526408 C1008.1653507618423 215.1019795951517, 1016.469008993776 234.94253051153186, 1023.0164463685066 254.57482852047988 C1029.5638837432373 274.2071265294279, 1034.459405220777 294.4069432878409, 1035.0815648075225 314.4864691489523 C1035.703724394268 334.5659950100638, 1032.6807905604596 355.24729754978324, 1026.7494038889802 375.05198368714855 C1020.8180172175008 394.85666982451386, 1011.2757315994089 414.6145924658228, 999.4932447786464 433.3145859731441 C987.7107579578839 452.01457948046544, 973.1415631478671 470.42284731695645, 956.0544829644049 487.2519447310766 C938.9674027809426 504.08104214519676, 919.1329192092421 519.8634199904503, 896.9707636778726 534.2891704578649 C874.808608146503 548.7149209252794, 849.5744814834591 561.9148451779848, 823.0815497761876 573.8064475355638 C796.588618068916 585.6980498931429, 767.4190713591138 596.8455858235885, 738.0131734342433 605.638784603339 C708.6072755093728 614.4319833830895, 678.0536463223822 621.7073467130632, 646.646162226965 626.5656402140664 C615.2386781315478 631.4239337150697, 582.0897710761985 633.4836058235717, 549.5682688617403 634.7885456093582 C517.0467666472821 636.0934853951446, 483.8090263962033 636.8917649068085, 451.51714894021586 634.3952789287853 C419.2252714842284 631.8987929507621, 386.9342413610361 626.1711242312354, 355.8170041258155 619.8096297412192 C324.69976689059496 613.448135251203, 293.3977051897196 605.8560638525088, 264.81372552889263 596.226311988688 C236.22974586806563 586.5965601248673, 209.1109570815415 574.867680145712, 184.31312616085359 562.0311185582948 C159.51529524016567 549.1945569708776, 136.40736226268595 534.9243290790737, 116.0267400047652 519.2069424641844 C95.64611774684444 503.48955584929513, 77.49512861425933 485.6053808541, 62.02939261332904 467.72679886895895 C46.563656612398745 449.8482168838179, 32.92470873308972 431.0696420185232, 23.23232399918345 411.93545055333794 C13.539939265277175 392.8012590881527, 7.407347281127139 372.7636668408883, 3.8750842098913836 352.92165007784746 C0.3428211386556277 333.07963331480664, -0.3457749790673006 312.78887737412475, 2.0387455717689136 292.88334997509304 C4.423266122605128 272.9778225760613, 9.571575471678623 252.5966947702604, 18.18220751490867 233.4884856836572 C26.792839558138716 214.38027659705398, 39.14633439234617 196.01440950443487, 53.702537831149186 178.23409545547372 C68.25874126995221 160.45378140651258, 86.02268903163353 142.93794498072234, 105.51942814772679 126.80660138989032 C125.01616726382004 110.6752577990583, 146.4356875955309 95.02766082338475, 170.68297252770867 81.44603391048165 C194.93025745988643 67.86440699757854, 222.8338811346791 55.74323263271516, 251.00313774079342 45.31683991247172 C279.1723943469077 34.89044719222828, 309.18883084840513 25.72010471759768, 339.6985121643945 18.887677589020996 C370.2081934803839 12.055250460444313, 399.06268092015904 7.408381356090379, 434.0612256367299 4.322277141011625 C469.05977035330073 1.236172925932872, 528.5031803812196 -0.2964803874855496, 549.6897804638196 0.3710522985484772 C570.8763805464196 1.0385849845825041, 561.9587340059686 3.114143741472655, 561.1808261323295 8.327473257215786 M606.9413643468757 5.850386020979101 C639.3683874298564 4.128909278246529, 672.6280459676287 13.369158337325842, 702.9786681087786 20.44599614522798 C733.3292902499285 27.522833953130117, 761.70536285357 37.579031627748584, 789.0450971937752 48.311412868391926 C816.3848315339803 59.04379410903527, 843.0072244554501 71.5350812043107, 867.0170741500092 84.84028358908805 C891.0269238445683 98.14548597386539, 913.5058866738906 112.29333734697207, 933.1041953611295 128.14262717705597 C952.7025040483685 143.99191700713988, 970.514642547996 161.71850450696056, 984.6069262734427 179.93602256959147 C998.6992099988894 198.1535406322224, 1009.4350956008986 217.88279259372473, 1017.6578977138095 237.44773555284144 C1025.8806998267203 257.01267851195814, 1031.985874496038 277.4743372327222, 1033.9437389509073 297.3256803242916 C1035.9016034057768 317.1770234158611, 1033.4101779930713 336.71287882690393, 1029.405084443026 356.55579410225795 C1025.3999908929807 376.39870937761197, 1019.6603019686245 397.27010870908686, 1009.9131776506358 416.3831719764156 C1000.1660533326472 435.49623524374437, 987.0581296380782 453.6919225100652, 970.9223385350939 471.23417370623054 C954.7865474321096 488.7764249023959, 933.9314321967935 506.31975214744887, 913.0984310327299 521.6366791534076 C892.2654298686663 536.9536061593664, 870.7266986863259 550.2081810389012, 845.9243315507124 563.1357357419831 C821.1219644150989 576.063290445065, 793.10005957868 589.5361810644948, 764.2842282190488 599.2020073718991 C735.4683968594177 608.8678336793033, 704.4886578881067 615.5095396209217, 673.0293433929256 621.1306935864084 C641.5700288977446 626.751847551895, 608.1655261250813 630.7523625446021, 575.5283412479629 632.928931164819 C542.8911563708444 635.1054997850359, 509.28162171654344 635.6859322936929, 477.20623413021497 634.1901053077099 C445.1308465438865 632.694278321727, 414.3991362163422 628.8936563881306, 383.0760157299919 623.9539692489215 C351.75289524364166 619.0142821097123, 318.52050804836665 612.9713422958705, 289.2675112121134 604.5519824724554 C260.01451437586013 596.1326226490403, 233.61772333305083 585.3625636638099, 207.5580347124722 573.4378103084309 C181.49834609189355 561.513056953052, 155.16647896785895 548.1794199732664, 132.9093794886416 533.0034623401816 C110.65228000942427 517.8275047070969, 90.68960693800399 499.50951799687647, 74.01543783716818 482.3820645099223 C57.34126873633237 465.25461102296816, 43.813825137522024 448.71049988309676, 32.86436488362676 430.23874141845664 C21.914904629731502 411.7669829538165, 13.843399806515702 391.693891408328, 8.31867631379663 371.55151372208155 C2.793952821077558 351.4091360358351, -0.6463046607119338 329.700428747177, -0.2839760726876648 309.38447530097807 C0.07835251533660426 289.06852185477914, 3.3068706460527624 269.0693291532517, 10.492647841942244 249.65579304488801 C17.678425037831726 230.2422569365243, 29.691183277105885 211.0041891529362, 42.83068710264922 192.90325865079586 C55.97019092819256 174.80232814865553, 71.18451189498093 157.8383153704013, 89.32967079520228 141.05021003204598 C107.47482969542362 124.26210469369069, 128.84183505642176 106.80231354525756, 151.70164050397733 92.17462662066407 C174.5614459515329 77.54693969607058, 199.8055410839557 64.29667993816643, 226.48850348053577 53.28408848448504 C253.17146587711585 42.27149703080365, 281.5366211681815 33.67195907612248, 311.79941488345776 26.09907789857573 C342.062208598734 18.52619672102898, 376.0640453875154 12.01875916246696, 408.06526577219324 7.846801419204553 C440.06648615687106 3.674843675942147, 470.42564136962 1.382697934270387, 503.8067371915245 1.0673314390012933 C537.1878330134291 0.7519649437321998, 591.2844684970524 4.491598896252071, 608.3518407036204 5.954602447589991 C625.4192129101883 7.417605998927911, 608.1813982466908 4.833377872107718, 606.210970430932 9.845352747028812" stroke="#087f5b" stroke-width="1" fill="none"></path>
  </g>
  <g transform="translate(348.73326619466116 48.91333516438772) rotate(0 173 23)">
    <text x="173" y="18" font-family="Helvetica, Segoe UI Emoji" font-size="20px" fill="#087f5b" text-anchor="middle" style="white-space: pre;" direction="ltr">Free Open Source Software</text>
    <text x="173" y="41" font-family="Helvetica, Segoe UI Emoji" font-size="20px" fill="#087f5b" text-anchor="middle" style="white-space: pre;" direction="ltr">Implementations provided by LabelFlow</text>
  </g>
</svg>