<svg height='30px' width='30px'  fill="#31ceca" xmlns="http://www.w3.org/2000/svg" data-name="Layer 1" viewBox="0 0 100 100" x="0px" y="0px"><title>Artboard 8 copy</title><path d="M45.17,26.61H13.26a.5.5,0,0,1-.5-.5V13.28a.5.5,0,0,1,.5-.5H45.17a.5.5,0,0,1,.5.5V26.11A.5.5,0,0,1,45.17,26.61Zm-31.41-1H44.67V13.78H13.76Z"></path><path d="M45.17,68.61H13.26a.5.5,0,0,1-.5-.5V55.28a.5.5,0,0,1,.5-.5H45.17a.5.5,0,0,1,.5.5V68.11A.5.5,0,0,1,45.17,68.61Zm-31.41-1H44.67V55.78H13.76Z"></path><path d="M51.22,90a.5.5,0,0,1-.5-.5V12.69a.5.5,0,0,1,.5-.5.5.5,0,0,1,.5.5V89.5A.5.5,0,0,1,51.22,90Z"></path><circle cx="51.22" cy="82.92" r="1.78"></circle><circle cx="51.22" cy="40.6" r="1.78"></circle><circle cx="51.22" cy="61.6" r="1.78"></circle><circle cx="51.22" cy="19.6" r="1.78"></circle><path d="M56.68,82.6l6-2.76V76.23H89.17V89H62.73v-3.6Zm7-5.37v3.25L59.09,82.6l4.64,2.12V88H88.17V77.23Z"></path><path d="M56.68,40.6l6-2.76V34.23H89.17V47H62.73v-3.6Zm7-5.37v3.25L59.09,40.6l4.64,2.12V46H88.17V35.23Z"></path></svg>
