<svg height='100px' width='100px'  fill="#31ceca" xmlns:x="http://ns.adobe.com/Extensibility/1.0/" xmlns:i="http://ns.adobe.com/AdobeIllustrator/10.0/" xmlns:graph="http://ns.adobe.com/Graphs/1.0/" xmlns="http://www.w3.org/2000/svg" xmlns:xlink="http://www.w3.org/1999/xlink" version="1.1" x="0px" y="0px" viewBox="0 0 100 100" style="enable-background:new 0 0 100 100;" xml:space="preserve"><g><g i:extraneous="self"><g><path d="M97,48.8l-7.2-7.2c-0.7-0.7-1.8-0.7-2.5,0c-0.7,0.7-0.7,1.8,0,2.5l4.2,4.2H79.2V33.4c3.1-0.8,5.4-3.6,5.4-6.9     c0-4-3.2-7.2-7.2-7.2s-7.2,3.2-7.2,7.2c0,3.4,2.3,6.2,5.4,6.9v14.9H58.8V33.4c3.1-0.8,5.4-3.6,5.4-6.9c0-4-3.2-7.2-7.2-7.2     s-7.2,3.2-7.2,7.2c0,3.4,2.3,6.2,5.4,6.9v14.9H38.5V33.4c3.1-0.8,5.4-3.6,5.4-6.9c0-4-3.2-7.2-7.2-7.2s-7.2,3.2-7.2,7.2     c0,3.4,2.3,6.2,5.4,6.9v14.9h-6.3c-0.9-6.4-6.4-11.4-13-11.4C8.4,36.8,2.5,42.7,2.5,50c0,7.3,5.9,13.2,13.2,13.2     c6.7,0,12.2-5,13-11.4h16.5v14.9c-3.1,0.8-5.4,3.6-5.4,6.9c0,4,3.2,7.2,7.2,7.2s7.2-3.2,7.2-7.2c0-3.4-2.3-6.2-5.4-6.9V51.7h16.9     v14.9c-3.1,0.8-5.4,3.6-5.4,6.9c0,4,3.2,7.2,7.2,7.2s7.2-3.2,7.2-7.2c0-3.4-2.3-6.2-5.4-6.9V51.7h22.6L87.3,56     c-0.7,0.7-0.7,1.8,0,2.5c0.3,0.3,0.8,0.5,1.2,0.5s0.9-0.2,1.2-0.5l7.2-7.2C97.7,50.5,97.7,49.5,97,48.8z M73.8,26.4     c0-2,1.7-3.7,3.7-3.7s3.7,1.7,3.7,3.7c0,2-1.7,3.7-3.7,3.7S73.8,28.5,73.8,26.4z M53.4,26.4c0-2,1.7-3.7,3.7-3.7s3.7,1.7,3.7,3.7     c0,2-1.7,3.7-3.7,3.7S53.4,28.5,53.4,26.4z M33,26.4c0-2,1.7-3.7,3.7-3.7c2,0,3.7,1.7,3.7,3.7c0,2-1.7,3.7-3.7,3.7     C34.7,30.1,33,28.5,33,26.4z M50.6,73.6c0,2-1.7,3.7-3.7,3.7s-3.7-1.7-3.7-3.7c0-2,1.7-3.7,3.7-3.7S50.6,71.5,50.6,73.6z      M71,73.6c0,2-1.7,3.7-3.7,3.7s-3.7-1.7-3.7-3.7c0-2,1.7-3.7,3.7-3.7S71,71.5,71,73.6z M15.7,59.7C10.3,59.7,6,55.3,6,50     c0-5.3,4.4-9.7,9.7-9.7s9.7,4.4,9.7,9.7C25.4,55.3,21,59.7,15.7,59.7z"></path><path d="M19.9,48.3h-2.5v-3.6c0-1-0.8-1.7-1.7-1.7s-1.7,0.8-1.7,1.7V50c0,1,0.8,1.7,1.7,1.7h4.2c1,0,1.7-0.8,1.7-1.7     C21.7,49,20.9,48.3,19.9,48.3z"></path></g></g></g></svg>