<svg width="24" height="25" viewBox="0 0 24 25" xmlns="http://www.w3.org/2000/svg">
<path d="M17.8817 19.3161C16.1229 20.4317 14.0824 21.0224 11.9997 21.0191C6.60766 21.0191 2.12166 17.1391 1.18066 12.0191C1.61069 9.68983 2.78229 7.56201 4.52066 5.95311L1.39166 2.82711L2.80666 1.41211L22.6057 21.2121L21.1907 22.6261L17.8807 19.3161H17.8817ZM5.93466 7.36911C4.57567 8.6047 3.62898 10.2279 3.22266 12.0191C3.53496 13.3856 4.16193 14.6603 5.05367 15.7417C5.94541 16.8232 7.07729 17.6815 8.35922 18.2484C9.64114 18.8153 11.0377 19.0752 12.4378 19.0072C13.8378 18.9393 15.2026 18.5455 16.4237 17.8571L14.3957 15.8291C13.5324 16.3729 12.5099 16.6072 11.4959 16.4935C10.4819 16.3799 9.53671 15.925 8.81523 15.2035C8.09376 14.4821 7.63889 13.5368 7.52523 12.5229C7.41156 11.5089 7.64585 10.4864 8.18966 9.62311L5.93466 7.36911ZM12.9137 14.3471L9.67166 11.1051C9.49373 11.558 9.45185 12.0531 9.55117 12.5295C9.65049 13.0058 9.88668 13.4429 10.2308 13.787C10.5749 14.1311 11.0119 14.3673 11.4883 14.4666C11.9647 14.5659 12.4597 14.524 12.9127 14.3461L12.9137 14.3471ZM20.8067 16.6111L19.3757 15.1811C20.0441 14.2284 20.5201 13.1543 20.7767 12.0191C20.5049 10.8288 19.9939 9.70626 19.2748 8.7196C18.5557 7.73295 17.6435 6.90284 16.5935 6.27971C15.5436 5.65659 14.378 5.25348 13.1674 5.09487C11.9568 4.93627 10.7267 5.02549 9.55166 5.35711L7.97366 3.77911C9.22066 3.28911 10.5797 3.01911 11.9997 3.01911C17.3917 3.01911 21.8777 6.89911 22.8187 12.0191C22.5122 13.6848 21.8235 15.2567 20.8067 16.6111ZM11.7227 7.52711C12.3592 7.48777 12.9968 7.58418 13.5932 7.80993C14.1896 8.03568 14.7313 8.38562 15.1822 8.83656C15.6332 9.2875 15.9831 9.82914 16.2088 10.4256C16.4346 11.022 16.531 11.6596 16.4917 12.2961L11.7217 7.52711H11.7227Z" />
</svg>
