<svg width="96" height="96" viewBox="0 0 96 96" fill="none" xmlns="http://www.w3.org/2000/svg">
<g clip-path="url(#clip0_4158_49042)">
<path d="M68 1H28V11H68V1Z" fill="#7190C4"/>
<path d="M31 1H68V8H38C36.1435 8 34.363 7.2625 33.0503 5.94975C31.7375 4.63699 31 2.85652 31 1Z" fill="#89A3CE"/>
<path d="M95.0001 86.0001V89.0001C95.0001 90.5914 94.368 92.1175 93.2428 93.2427C92.1175 94.368 90.5914 95.0001 89.0001 95.0001H7.00011C5.40881 95.0001 3.88269 94.368 2.75747 93.2427C1.63225 92.1175 1.00011 90.5914 1.00011 89.0001V86.0001C0.990197 85.8703 0.990197 85.7399 1.00011 85.6101C1.09531 84.8838 1.45294 84.2175 2.00557 83.7367C2.5582 83.2559 3.26764 82.9939 4.00011 83.0001H92.0001C92.7326 82.9939 93.442 83.2559 93.9947 83.7367C94.5473 84.2175 94.9049 84.8838 95.0001 85.6101C95.01 85.7399 95.01 85.8703 95.0001 86.0001Z" fill="#B8C0CE"/>
<path d="M95 85.6101C94.8484 87.0934 94.15 88.4672 93.0408 89.4636C91.9315 90.4601 90.491 91.0078 89 91.0001H7C5.50896 91.0078 4.06846 90.4601 2.95924 89.4636C1.85003 88.4672 1.15157 87.0934 1 85.6101C1.0952 84.8838 1.45283 84.2175 2.00546 83.7367C2.55809 83.2559 3.26753 82.9939 4 83.0001H92C92.7325 82.9939 93.4419 83.2559 93.9945 83.7367C94.5472 84.2175 94.9048 84.8838 95 85.6101Z" fill="#CCD1DC"/>
<path d="M54.53 87H41.47C40.1266 86.9992 38.81 86.6246 37.6674 85.9182C36.5247 85.2117 35.6012 84.2013 35 83H61C60.3988 84.2013 59.4753 85.2117 58.3326 85.9182C57.19 86.6246 55.8734 86.9992 54.53 87Z" fill="#969CB2"/>
<path d="M76 21H84C84.5438 21.0181 85.0787 21.1432 85.5741 21.3681C86.0695 21.593 86.5156 21.9134 86.8871 22.3109C87.2586 22.7084 87.5481 23.1752 87.7391 23.6847C87.93 24.1941 88.0187 24.7363 88 25.28V78.72C88.0187 79.2638 87.93 79.8059 87.7391 80.3153C87.5481 80.8248 87.2586 81.2916 86.8871 81.6891C86.5156 82.0866 86.0695 82.407 85.5741 82.6319C85.0787 82.8568 84.5438 82.9819 84 83H12C11.4562 82.9819 10.9214 82.8568 10.426 82.6319C9.93057 82.407 9.48437 82.0866 9.11287 81.6891C8.74138 81.2916 8.45188 80.8248 8.26092 80.3153C8.06997 79.8059 7.98131 79.2638 8 78.72V25.28C7.98131 24.7363 8.06997 24.1941 8.26092 23.6847C8.45188 23.1752 8.74138 22.7084 9.11287 22.3109C9.48437 21.9134 9.93057 21.593 10.426 21.3681C10.9214 21.1432 11.4562 21.0181 12 21H76Z" fill="#B8C0CE"/>
<path d="M75.9998 24H82.9998C83.5498 24.0208 84.0691 24.2588 84.4439 24.6618C84.8188 25.0648 85.0187 25.5999 84.9998 26.15V77.85C85.0187 78.4001 84.8188 78.9352 84.4439 79.3382C84.0691 79.7412 83.5498 79.9792 82.9998 80H12.9998C12.4498 79.9792 11.9305 79.7412 11.5556 79.3382C11.1807 78.9352 10.9808 78.4001 10.9998 77.85V26.15C10.9808 25.5999 11.1807 25.0648 11.5556 24.6618C11.9305 24.2588 12.4498 24.0208 12.9998 24H75.9998Z" fill="#CCD1DC"/>
<path d="M82 27H14V77H82V27Z" fill="#89A3CE"/>
<path d="M18 27H81V67.73C81 69.3929 80.3394 70.9877 79.1636 72.1636C77.9877 73.3394 76.3929 74 74.73 74H28.45C25.6785 74 23.0205 72.899 21.0607 70.9393C19.101 68.9795 18 66.3215 18 63.55V27Z" fill="#A5B9DB"/>
<path d="M23 30H77C77.5304 30 78.0391 30.2107 78.4142 30.5858C78.7893 30.9609 79 31.4696 79 32V70C79 70.5304 78.7893 71.0391 78.4142 71.4142C78.0391 71.7893 77.5304 72 77 72H61C50.3913 72 40.2172 67.7857 32.7157 60.2843C25.2143 52.7828 21 42.6087 21 32C21 31.4696 21.2107 30.9609 21.5858 30.5858C21.9609 30.2107 22.4696 30 23 30Z" fill="#C3D2E7"/>
<path d="M18 31H33V33.75C33 34.7021 32.8125 35.6448 32.4481 36.5245C32.0838 37.4041 31.5497 38.2033 30.8765 38.8765C30.2033 39.5498 29.4041 40.0838 28.5245 40.4481C27.6448 40.8125 26.7021 41 25.75 41H25.24C23.3189 40.9974 21.4774 40.2323 20.1199 38.873C18.7625 37.5136 18 35.6711 18 33.75V31Z" fill="#CCD1DC"/>
<path d="M18 30.9297V33.6797C18.0164 35.3845 17.4305 37.0404 16.3457 38.3557C15.261 39.671 13.7468 40.5613 12.07 40.8697C11.6512 40.9497 11.2263 40.9932 10.8 40.9997H10.3C9.34922 41.0076 8.40619 40.8282 7.52477 40.4716C6.64334 40.1151 5.84078 39.5884 5.1629 38.9216C4.48503 38.2549 3.94512 37.4612 3.57401 36.5858C3.20289 35.7104 3.00785 34.7705 3 33.8197V31.0697L18 30.9297Z" fill="#CF4055"/>
<path d="M33 31H48V33.75C48 35.6728 47.2362 37.5169 45.8765 38.8765C44.5169 40.2362 42.6728 41 40.75 41H40.24C38.3189 40.9974 36.4774 40.2323 35.1199 38.873C33.7625 37.5136 33 35.6711 33 33.75V31Z" fill="#CF4055"/>
<path d="M48 31H63V33.75C63 34.7021 62.8125 35.6448 62.4481 36.5245C62.0838 37.4041 61.5498 38.2033 60.8765 38.8765C60.2033 39.5498 59.4041 40.0838 58.5245 40.4481C57.6448 40.8125 56.7021 41 55.75 41H55.24C53.3189 40.9974 51.4774 40.2323 50.1199 38.873C48.7625 37.5136 48 35.6711 48 33.75V31Z" fill="#CCD1DC"/>
<path d="M63 31H78V33.75C78 35.6728 77.2362 37.5169 75.8765 38.8765C74.5169 40.2362 72.6728 41 70.75 41H70.24C68.3189 40.9974 66.4774 40.2323 65.1199 38.873C63.7625 37.5136 63 35.6711 63 33.75V31Z" fill="#CF4055"/>
<path d="M78 31H93V33.75C93 35.6728 92.2362 37.5169 90.8765 38.8765C89.5169 40.2362 87.6728 41 85.75 41H85.24C83.3189 40.9974 81.4774 40.2323 80.1199 38.873C78.7625 37.5136 78 35.6711 78 33.75V31Z" fill="#CCD1DC"/>
<path d="M18 30.9297V33.6797C18.0164 35.3845 17.4305 37.0404 16.3457 38.3557C15.261 39.671 13.7468 40.5613 12.07 40.8697C10.3853 40.5959 8.85181 39.7349 7.7409 38.4392C6.62999 37.1434 6.01331 35.4964 6 33.7897V30.9997L18 30.9297Z" fill="#DC5D6B"/>
<path d="M33 30.9297V33.6797C33.0164 35.3845 32.4305 37.0404 31.3457 38.3557C30.261 39.671 28.7468 40.5613 27.07 40.8697C25.3853 40.5959 23.8518 39.7349 22.7409 38.4392C21.63 37.1434 21.0133 35.4964 21 33.7897V30.9997L33 30.9297Z" fill="#DEE1E7"/>
<path d="M48 30.9297V33.6797C48.0164 35.3845 47.4305 37.0404 46.3457 38.3557C45.261 39.671 43.7468 40.5613 42.07 40.8697C40.3853 40.5959 38.8518 39.7349 37.7409 38.4392C36.63 37.1434 36.0133 35.4964 36 33.7897V30.9997L48 30.9297Z" fill="#DC5D6B"/>
<path d="M63 30.9297V33.6797C63.0164 35.3845 62.4305 37.0404 61.3457 38.3557C60.261 39.671 58.7468 40.5613 57.07 40.8697C55.3853 40.5959 53.8518 39.7349 52.7409 38.4392C51.63 37.1434 51.0133 35.4964 51 33.7897V30.9997L63 30.9297Z" fill="#DEE1E7"/>
<path d="M78 30.9297V33.6797C78.0164 35.3845 77.4305 37.0404 76.3457 38.3557C75.261 39.671 73.7468 40.5613 72.07 40.8697C70.3853 40.5959 68.8518 39.7349 67.7409 38.4392C66.63 37.1434 66.0133 35.4964 66 33.7897V30.9997L78 30.9297Z" fill="#DC5D6B"/>
<path d="M93 30.9297V33.6797C93.0164 35.3845 92.4305 37.0404 91.3457 38.3557C90.261 39.671 88.7468 40.5613 87.07 40.8697C85.3853 40.5959 83.8518 39.7349 82.7409 38.4392C81.63 37.1434 81.0133 35.4964 81 33.7897V30.9997L93 30.9297Z" fill="#DEE1E7"/>
<path d="M63 31H48V11H60L62.55 28L63 31Z" fill="#DEE1E7"/>
<path d="M62.55 28H54C53.2044 28 52.4413 27.6839 51.8787 27.1213C51.3161 26.5587 51 25.7956 51 25V11H60L62.55 28Z" fill="#F3F4F5"/>
<path d="M78 31H63L60 11H70L76.8 28L78 31Z" fill="#DC5D6B"/>
<path d="M76.8002 28H68.4402C67.4741 28.0106 66.5367 27.6711 65.8015 27.0442C65.0662 26.4174 64.5827 25.5456 64.4402 24.59L62.4502 11H70.0002L76.8002 28Z" fill="#E47980"/>
<path d="M93 31H78L70 11H80L91.05 28L93 31Z" fill="#DEE1E7"/>
<path d="M91.0502 28H82.7102C81.9119 27.9996 81.1321 27.7603 80.4709 27.313C79.8098 26.8657 79.2975 26.2308 79.0002 25.49L73.2002 11H80.0002L91.0502 28Z" fill="#F3F4F5"/>
<path d="M48 11V31H33L36 11H48Z" fill="#DC5D6B"/>
<path d="M47.9998 11V28H39.4798C39.0449 28.0049 38.6142 27.9152 38.2174 27.7372C37.8207 27.5591 37.4674 27.2969 37.182 26.9687C36.8966 26.6406 36.686 26.2543 36.5648 25.8366C36.4435 25.419 36.4145 24.98 36.4798 24.55L38.4798 11H47.9998Z" fill="#E47980"/>
<path d="M36 11L33.45 28L33 31H18L26 11H36Z" fill="#DEE1E7"/>
<path d="M35.9999 11L33.4499 28H26.4499C25.9607 27.9988 25.4791 27.878 25.0472 27.6481C24.6153 27.4182 24.2462 27.0861 23.9721 26.6808C23.698 26.2755 23.5271 25.8094 23.4745 25.3229C23.4218 24.8365 23.4889 24.3446 23.6699 23.89L28.7999 11H35.9999Z" fill="#F3F4F5"/>
<path d="M26 11L19.2 28L18 31H3L16 11H26Z" fill="#DC5D6B"/>
<path d="M26 11L19.2 28H13.53C12.9895 28.0021 12.4585 27.8581 11.9931 27.5832C11.5277 27.3084 11.1451 26.9129 10.886 26.4386C10.6268 25.9643 10.5005 25.4287 10.5206 24.8886C10.5407 24.3484 10.7063 23.8238 11 23.37L19 11H26Z" fill="#E47980"/>
<path d="M88.5 86H64.5C63.6716 86 63 86.6716 63 87.5C63 88.3284 63.6716 89 64.5 89H88.5C89.3284 89 90 88.3284 90 87.5C90 86.6716 89.3284 86 88.5 86Z" fill="#DEE1E7"/>
<path d="M31.5 86H7.5C6.67157 86 6 86.6716 6 87.5C6 88.3284 6.67157 89 7.5 89H31.5C32.3284 89 33 88.3284 33 87.5C33 86.6716 32.3284 86 31.5 86Z" fill="#DEE1E7"/>
<path d="M92 82H88C88.6544 81.1373 89.0059 80.0828 89 79V41.33C90.4835 40.6942 91.748 39.6371 92.6367 38.2898C93.5254 36.9425 93.9994 35.364 94 33.75V31C93.9955 30.8868 93.9719 30.7752 93.93 30.67V30.58V30.48L80.93 10.48C80.8344 10.3219 80.697 10.1934 80.5328 10.1086C80.3686 10.0239 80.1842 9.9863 80 10H69V1C69 0.734784 68.8946 0.48043 68.7071 0.292893C68.5196 0.105357 68.2652 0 68 0L28 0C27.7348 0 27.4804 0.105357 27.2929 0.292893C27.1054 0.48043 27 0.734784 27 1V10H16C15.8327 10.0003 15.6681 10.0425 15.5214 10.1229C15.3746 10.2033 15.2504 10.3192 15.16 10.46L2.16 30.46C2.16 30.46 2.16 30.53 2.11 30.56V30.65C2.05206 30.7589 2.01477 30.8775 2 31V33.77C2.00056 35.384 2.47457 36.9625 3.3633 38.3098C4.25204 39.6571 5.51647 40.7142 7 41.35V79C6.99413 80.0828 7.34562 81.1373 8 82H4C2.93913 82 1.92172 82.4214 1.17157 83.1716C0.421427 83.9217 0 84.9391 0 86L0 89C0 90.8565 0.737498 92.637 2.05025 93.9497C3.36301 95.2625 5.14348 96 7 96H89C90.8565 96 92.637 95.2625 93.9497 93.9497C95.2625 92.637 96 90.8565 96 89V86C96 84.9391 95.5786 83.9217 94.8284 83.1716C94.0783 82.4214 93.0609 82 92 82ZM92 33.75C92.0055 35.088 91.5822 36.3925 90.7922 37.4723C90.0021 38.5521 88.8869 39.3503 87.61 39.75C87.0074 39.9353 86.3805 40.0297 85.75 40.03H85.25C84.4267 40.03 83.6115 39.8674 82.8513 39.5514C82.091 39.2354 81.4007 38.7724 80.8199 38.1888C80.2392 37.6053 79.7794 36.9127 79.4671 36.151C79.1548 35.3892 78.996 34.5733 79 33.75V32H92V33.75ZM15 40.81C16.2577 40.0529 17.2928 38.9765 18 37.69C18.7098 38.9935 19.7576 40.0817 21.0334 40.8401C22.3092 41.5986 23.7658 41.9992 25.25 42H25.75C27.2342 41.9992 28.6908 41.5986 29.9666 40.8401C31.2424 40.0817 32.2902 38.9935 33 37.69C33.7098 38.9935 34.7576 40.0817 36.0334 40.8401C37.3092 41.5986 38.7658 41.9992 40.25 42H40.75C42.2342 41.9992 43.6908 41.5986 44.9666 40.8401C46.2424 40.0817 47.2902 38.9935 48 37.69C48.7098 38.9935 49.7576 40.0817 51.0334 40.8401C52.3092 41.5986 53.7658 41.9992 55.25 42H55.75C57.2342 41.9992 58.6908 41.5986 59.9666 40.8401C61.2424 40.0817 62.2902 38.9935 63 37.69C63.7098 38.9935 64.7576 40.0817 66.0334 40.8401C67.3092 41.5986 68.7658 41.9992 70.25 42H70.75C72.2342 41.9992 73.6908 41.5986 74.9666 40.8401C76.2424 40.0817 77.2902 38.9935 78 37.69C78.7072 38.9765 79.7423 40.0529 81 40.81V76H15V40.81ZM26.68 12H34.84L32.14 30H19.48L23.08 21L26.68 12ZM59.14 12L61.84 30H49V12H59.14ZM69.32 12L72.92 21L76.52 30H63.86L61.16 12H69.32ZM77 33.75C77 35.4076 76.3415 36.9973 75.1694 38.1694C73.9973 39.3415 72.4076 40 70.75 40H70.25C68.5924 40 67.0027 39.3415 65.8306 38.1694C64.6585 36.9973 64 35.4076 64 33.75V32H77V33.75ZM62 33.75C62 35.4076 61.3415 36.9973 60.1694 38.1694C58.9973 39.3415 57.4076 40 55.75 40H55.25C53.5924 40 52.0027 39.3415 50.8306 38.1694C49.6585 36.9973 49 35.4076 49 33.75V32H62V33.75ZM47 33.75C47 35.4076 46.3415 36.9973 45.1694 38.1694C43.9973 39.3415 42.4076 40 40.75 40H40.25C38.5924 40 37.0027 39.3415 35.8306 38.1694C34.6585 36.9973 34 35.4076 34 33.75V32H47V33.75ZM47 30H34.16L36.86 12H47V30ZM19 32H32V33.75C32 35.4076 31.3415 36.9973 30.1694 38.1694C28.9973 39.3415 27.4076 40 25.75 40H25.25C23.5924 40 22.0027 39.3415 20.8306 38.1694C19.6585 36.9973 19 35.4076 19 33.75V32ZM91.16 30H78.68L75.08 21L71.48 12H79.48L91.16 30ZM29 2H67V10H29V2ZM16.54 12H24.54L20.94 21L17.34 30H4.84L16.54 12ZM4 33.75V32H17V33.75C17 34.5708 16.8383 35.3835 16.5242 36.1418C16.2102 36.9001 15.7498 37.5891 15.1694 38.1694C14.5891 38.7498 13.9001 39.2102 13.1418 39.5242C12.3835 39.8383 11.5708 40 10.75 40H10.25C9.61953 39.9997 8.99263 39.9053 8.39 39.72C7.11803 39.3219 6.00633 38.5281 5.21674 37.4544C4.42715 36.3806 4.00089 35.0828 4 33.75ZM9 79V41.9C9.41366 41.9639 9.83145 41.9973 10.25 42H10.75C11.5111 41.996 12.268 41.8883 13 41.68V77C13 77.2652 13.1054 77.5196 13.2929 77.7071C13.4804 77.8946 13.7348 78 14 78H82C82.2652 78 82.5196 77.8946 82.7071 77.7071C82.8946 77.5196 83 77.2652 83 77V41.68C83.732 41.8883 84.4889 41.996 85.25 42H85.75C86.1686 41.9973 86.5863 41.9639 87 41.9V79C87 79.7956 86.6839 80.5587 86.1213 81.1213C85.5587 81.6839 84.7956 82 84 82H12C11.2044 82 10.4413 81.6839 9.87868 81.1213C9.31607 80.5587 9 79.7956 9 79ZM59.11 84C58.5271 84.6329 57.8189 85.1376 57.0304 85.4819C56.2419 85.8262 55.3904 86.0027 54.53 86H41.47C40.6096 86.0027 39.7581 85.8262 38.9696 85.4819C38.1811 85.1376 37.4729 84.6329 36.89 84H59.11ZM94 89C94 90.3261 93.4732 91.5979 92.5355 92.5355C91.5979 93.4732 90.3261 94 89 94H7C5.67392 94 4.40215 93.4732 3.46447 92.5355C2.52678 91.5979 2 90.3261 2 89V86C2 85.4696 2.21071 84.9609 2.58579 84.5858C2.96086 84.2107 3.46957 84 4 84H34.43C35.1512 85.2152 36.1753 86.2225 37.4022 86.9236C38.6291 87.6247 40.0169 87.9956 41.43 88H54.53C55.9431 87.9956 57.3309 87.6247 58.5578 86.9236C59.7847 86.2225 60.8088 85.2152 61.53 84H92C92.5304 84 93.0391 84.2107 93.4142 84.5858C93.7893 84.9609 94 85.4696 94 86V89Z" fill="#39426A"/>
<path d="M64 4H46C45.4477 4 45 4.44772 45 5C45 5.55228 45.4477 6 46 6H64C64.5523 6 65 5.55228 65 5C65 4.44772 64.5523 4 64 4Z" fill="#A5B9DB"/>
</g>
<defs>
<clipPath id="clip0_4158_49042">
<rect width="96" height="96" fill="white"/>
</clipPath>
</defs>
</svg>
